<svg version="1.2" xmlns="http://www.w3.org/2000/svg" viewBox="0 0 420 420" width="420" height="420"><defs><linearGradient id="P" gradientUnits="userSpaceOnUse"/><radialGradient id="g1" cx="0" cy="0" r="1" href="#P" gradientTransform="matrix(203.638,0,0,203.638,210.048,210.008)"><stop stop-color="#1fadd1" stop-opacity=".92"/><stop offset=".67" stop-color="#151c53" stop-opacity=".5"/><stop offset="1" stop-color="#151c53" stop-opacity="0"/></radialGradient><linearGradient id="g2" x2="1" href="#P" gradientTransform="matrix(17.813,-3.351,2.544,13.522,249.732,160.739)"><stop offset=".83" stop-color="#29afd9"/><stop offset=".94" stop-color="#29afd9"/></linearGradient><linearGradient id="g3" x2="1" href="#P" gradientTransform="matrix(17.813,-3.351,2.542,13.511,154.561,255.952)"><stop offset=".83" stop-color="#29afd9"/><stop offset=".94" stop-color="#29afd9"/></linearGradient><linearGradient id="g4" x2="1" href="#P" gradientTransform="matrix(3.351,17.813,-13.52,2.543,164.619,154.537)"><stop offset=".83" stop-color="#29afd9"/><stop offset=".94" stop-color="#29afd9"/></linearGradient><linearGradient id="g5" x2="1" href="#P" gradientTransform="matrix(3.353,17.823,-13.536,2.546,258.228,249.428)"><stop offset=".83" stop-color="#29afd9"/><stop offset=".94" stop-color="#29afd9"/></linearGradient></defs><style>.a{fill:url(#g1)}.b{fill:#3451a3}.c{fill:#22daf9}.d{mix-blend-mode:multiply}.e{fill:none;stroke:#22daf9;stroke-miterlimit:10;stroke-width:2}.f{fill:none;stroke:#22daf9;stroke-miterlimit:10}.g{fill:#fff}.h{fill:none;stroke:#22daf9;stroke-miterlimit:10;stroke-width:.8}.i{fill:none;stroke:#22daf9;stroke-miterlimit:10;stroke-width:.5}.j{fill:#22daf9;stroke:#22daf9;stroke-miterlimit:10;stroke-width:.5}.k{fill:#22daf9;stroke:#22daf9;stroke-miterlimit:10;stroke-width:.4}.l{fill:none;stroke:#22daf9;stroke-linecap:round;stroke-linejoin:round;stroke-width:.8}.m{fill:none;stroke:#22daf9;stroke-miterlimit:10;stroke-width:1.3}.n{fill:#5bedfc}.o{fill:url(#g2)}.p{fill:url(#g3)}.q{fill:url(#g4)}.r{fill:url(#g5)}</style><path class="a" d="m210 413.6c112.5 0 203.7-91.1 203.7-203.6 0-112.5-91.2-203.6-203.7-203.6-112.4 0-203.6 91.1-203.6 203.6 0 112.5 91.2 203.6 203.6 203.6z"/><path class="b" d="m226 76.2l21.4-20.5v-22.2c1.4-0.3 2.7-1.1 3.6-2.2 0.9-1.2 1.4-2.7 1.2-4.1-0.1-1.5-0.8-2.8-1.8-3.8-1.1-1-2.5-1.6-4-1.6-1.5 0-2.9 0.6-4 1.6-1.1 1-1.7 2.3-1.9 3.8-0.1 1.4 0.3 2.9 1.2 4.1 0.9 1.1 2.2 1.9 3.7 2.2v21.3l-21.4 20.6v46.8h-1.7v26.9h5.5v-26.9h-1.8zm16.5-48.6c0-0.8 0.2-1.5 0.7-2.1 0.4-0.7 1-1.2 1.7-1.5 0.7-0.3 1.5-0.4 2.3-0.2 0.7 0.1 1.4 0.5 2 1.1 0.5 0.5 0.9 1.2 1 2 0.2 0.7 0.1 1.5-0.2 2.2-0.3 0.7-0.8 1.3-1.4 1.8-0.7 0.4-1.4 0.6-2.2 0.6q-0.8 0-1.5-0.3-0.7-0.3-1.3-0.8-0.5-0.6-0.8-1.3-0.3-0.7-0.3-1.5z"/><path class="b" d="m196.8 75.4l-21.4-20.6v-21.3c1.4-0.3 2.8-1.1 3.7-2.2 0.9-1.2 1.3-2.7 1.2-4.1-0.2-1.5-0.8-2.9-1.9-3.9-1.1-1-2.5-1.5-4-1.5-1.5 0-2.9 0.5-4 1.5-1.1 1-1.7 2.4-1.9 3.9-0.1 1.4 0.4 2.9 1.3 4.1 0.9 1.1 2.2 1.9 3.6 2.2v22.2l21.4 20.5v46h-1.8v26.9h5.5v-26.9h-1.7zm-26.3-47.7c0-0.8 0.2-1.6 0.7-2.2 0.4-0.7 1-1.2 1.7-1.4 0.7-0.3 1.5-0.4 2.3-0.3 0.7 0.2 1.4 0.6 2 1.1 0.5 0.6 0.9 1.3 1 2 0.2 0.8 0.1 1.6-0.2 2.3-0.3 0.7-0.8 1.3-1.5 1.7-0.6 0.4-1.4 0.7-2.1 0.7-1.1 0-2-0.5-2.8-1.2-0.7-0.7-1.1-1.7-1.1-2.7z"/><path class="b" d="m210.4 0.5c-1.5 0-2.9 0.5-4 1.5-1.1 1-1.7 2.4-1.9 3.9-0.1 1.4 0.3 2.9 1.3 4.1 0.9 1.1 2.2 1.9 3.6 2.2v110h-1.7v26.9h5.5v-26.9h-1.8v-110c1.5-0.3 2.8-1.1 3.7-2.2 0.9-1.2 1.3-2.7 1.2-4.1-0.1-1.5-0.8-2.9-1.9-3.9-1.1-1-2.5-1.5-4-1.5zm0 9.8c-0.8 0-1.5-0.3-2.1-0.7-0.7-0.4-1.2-1-1.5-1.7-0.3-0.8-0.4-1.5-0.2-2.3 0.1-0.7 0.5-1.4 1.1-2 0.5-0.5 1.2-0.9 2-1.1 0.7-0.1 1.5 0 2.2 0.3 0.7 0.3 1.3 0.8 1.8 1.4 0.4 0.6 0.6 1.4 0.6 2.2 0 1-0.4 2-1.1 2.7-0.8 0.8-1.7 1.2-2.8 1.2z"/><path class="b" d="m266.8 68.9c-1.1 0-2.2 0.3-3.1 0.9-0.9 0.6-1.7 1.4-2.2 2.3-0.5 1-0.7 2.1-0.6 3.2 0.1 1 0.5 2.1 1.1 2.9l-23.3 22.8v21.2h-1.8v26.9h5.5v-26.9h-1.7v-20.4l22.8-22.2c0.9 0.7 2.1 1.1 3.3 1.1q1.2 0 2.3-0.4 1.2-0.4 2-1.2 0.9-0.9 1.4-2 0.4-1.1 0.4-2.3 0-1.2-0.4-2.3-0.5-1.1-1.4-1.9-0.8-0.9-2-1.3-1.1-0.4-2.3-0.4zm0 9.8c-0.8 0-1.5-0.2-2.2-0.6-0.6-0.5-1.1-1.1-1.4-1.8-0.3-0.7-0.4-1.5-0.2-2.3 0.1-0.7 0.5-1.4 1.1-1.9 0.5-0.6 1.2-1 2-1.1 0.7-0.2 1.5-0.1 2.2 0.2 0.7 0.3 1.3 0.8 1.8 1.5 0.4 0.6 0.6 1.4 0.6 2.1 0 1.1-0.4 2-1.1 2.8-0.8 0.7-1.8 1.1-2.8 1.1z"/><path class="b" d="m182.2 101l-23.3-22.7c0.7-1 1.1-2.2 1.1-3.5 0-1.1-0.4-2.3-1-3.2-0.6-1-1.6-1.8-2.6-2.2-1.1-0.5-2.3-0.6-3.4-0.3-1.2 0.2-2.2 0.7-3 1.6-0.9 0.8-1.4 1.8-1.7 3-0.2 1.1-0.1 2.3 0.4 3.4 0.4 1 1.2 2 2.1 2.6 1 0.7 2.1 1 3.3 1 1.2 0 2.4-0.4 3.4-1.1l22.7 22.3v20.3h-1.8v26.9h5.5v-26.9h-1.7zm-28.1-22.3c-0.8 0-1.5-0.2-2.2-0.7-0.6-0.4-1.1-1-1.4-1.7-0.3-0.7-0.4-1.5-0.2-2.3 0.1-0.7 0.5-1.4 1.1-2 0.5-0.5 1.2-0.9 2-1 0.7-0.2 1.5-0.1 2.2 0.2 0.7 0.3 1.3 0.8 1.8 1.4 0.4 0.7 0.6 1.4 0.6 2.2 0 1-0.4 2-1.1 2.7-0.8 0.8-1.8 1.2-2.8 1.2z"/><path class="c" d="m178.4 122.2v26.9h5.5v-26.9z"/><path class="c" d="m193.1 122.2v26.9h5.4v-26.9z"/><path class="c" d="m207.7 122.2v26.9h5.5v-26.9z"/><path class="c" d="m222.3 122.2v26.9h5.5v-26.9z"/><path class="c" d="m236.9 122.2v26.9h5.5v-26.9z"/><path class="b" d="m122 183.5h27v-5.5h-27v1.8h-20.3l-22.2-22.8c0.8-1.2 1.2-2.7 1-4.2-0.2-1.5-0.9-2.8-2.1-3.8-1.1-0.9-2.6-1.4-4.1-1.3-1.5 0-2.9 0.7-3.9 1.7-1.1 1.1-1.7 2.5-1.7 4-0.1 1.5 0.4 2.9 1.4 4 1 1.2 2.3 1.9 3.8 2.1 1.5 0.2 3-0.2 4.2-1.1l22.8 23.3h21.1zm-43.4-29.8c0 0.8-0.3 1.5-0.7 2.2-0.4 0.6-1 1.1-1.8 1.4-0.7 0.3-1.5 0.4-2.2 0.2-0.8-0.1-1.5-0.5-2-1.1-0.6-0.5-0.9-1.2-1.1-2-0.1-0.7 0-1.5 0.3-2.2 0.3-0.7 0.8-1.3 1.4-1.8 0.6-0.4 1.4-0.6 2.2-0.6 1 0 2 0.4 2.7 1.1 0.7 0.8 1.2 1.8 1.2 2.8z"/><path class="b" d="m122 198.1h26.9v-5.5h-26.9v1.8h-45.9l-20.6-21.4h-22.2c-0.2-1.5-1-2.8-2.2-3.7-1.1-0.9-2.6-1.3-4.1-1.2-1.4 0.2-2.8 0.8-3.8 1.9-1 1.1-1.5 2.5-1.5 4 0 1.5 0.5 2.9 1.5 4 1 1 2.4 1.7 3.8 1.8 1.5 0.2 3-0.3 4.1-1.2 1.2-0.9 2-2.2 2.2-3.6h21.4l20.5 21.3h46.8zm-90.6-24.1c0 0.8-0.2 1.5-0.7 2.2-0.4 0.6-1 1.1-1.7 1.4-0.7 0.3-1.5 0.4-2.3 0.2-0.7-0.1-1.4-0.5-2-1.1-0.5-0.5-0.9-1.2-1-1.9-0.2-0.8-0.1-1.6 0.2-2.3 0.3-0.7 0.8-1.3 1.4-1.7 0.7-0.5 1.4-0.7 2.2-0.7 1 0 2 0.4 2.7 1.1 0.8 0.8 1.2 1.8 1.2 2.8z"/><path class="b" d="m21.6 245.9c0 1.5 0.6 2.9 1.6 4 1 1.1 2.4 1.7 3.8 1.9 1.5 0.1 2.9-0.3 4.1-1.2 1.2-0.9 1.9-2.2 2.2-3.7h22.2l20.6-21.3h45.9v1.7h26.9v-5.4h-26.9v1.7h-46.8l-20.6 21.4h-21.3c-0.3-1.5-1-2.8-2.2-3.7-1.2-0.9-2.6-1.3-4.1-1.2-1.4 0.1-2.8 0.8-3.8 1.9-1 1.1-1.6 2.5-1.6 3.9zm2 0c0-0.7 0.2-1.5 0.7-2.1 0.4-0.7 1-1.2 1.7-1.5 0.7-0.3 1.5-0.3 2.3-0.2 0.7 0.2 1.4 0.5 2 1.1 0.5 0.5 0.9 1.2 1 2 0.2 0.7 0.1 1.5-0.2 2.2-0.3 0.8-0.8 1.4-1.4 1.8-0.7 0.4-1.4 0.6-2.2 0.6-1 0-2-0.4-2.7-1.1-0.8-0.7-1.2-1.7-1.2-2.8z"/><path class="b" d="m0.3 210c0 1.5 0.6 2.9 1.6 4 1 1.1 2.3 1.8 3.8 1.9 1.5 0.1 2.9-0.3 4.1-1.2 1.2-0.9 2-2.2 2.2-3.7h110v1.8h26.9v-5.5h-26.9v1.7h-110c-0.2-1.4-1-2.7-2.2-3.6-1.2-1-2.6-1.4-4.1-1.3-1.5 0.2-2.8 0.8-3.8 1.9-1 1.1-1.6 2.5-1.6 4zm2 0c0-0.8 0.3-1.5 0.7-2.2 0.4-0.6 1-1.1 1.7-1.4 0.7-0.3 1.5-0.4 2.3-0.2 0.7 0.1 1.4 0.5 2 1.1 0.5 0.5 0.9 1.2 1 2 0.2 0.7 0.1 1.5-0.2 2.2-0.3 0.7-0.8 1.3-1.4 1.8-0.7 0.4-1.4 0.6-2.2 0.6q-0.8 0-1.5-0.3-0.7-0.3-1.2-0.8-0.6-0.6-0.9-1.3-0.3-0.7-0.3-1.5z"/><path class="b" d="m68.8 266.3c0 1 0.2 1.9 0.6 2.7 0.4 0.8 1 1.5 1.8 2.1 0.7 0.5 1.6 0.9 2.5 1.1 0.9 0.1 1.8 0 2.7-0.2 0.9-0.3 1.7-0.8 2.4-1.4 0.6-0.7 1.1-1.5 1.4-2.4 0.3-0.8 0.4-1.8 0.3-2.7-0.1-0.9-0.5-1.8-1-2.5l22.2-22.7h20.3v1.6h26.9v-5.5h-26.9v1.9h-21.1l-22.8 23.3c-0.9-0.7-1.9-1.1-3-1.1-1.1-0.1-2.1 0.1-3.1 0.6-1 0.5-1.8 1.2-2.3 2.2-0.6 0.9-0.9 1.9-0.9 3zm2 0c0-0.7 0.2-1.5 0.6-2.1 0.5-0.7 1.1-1.2 1.8-1.5 0.7-0.3 1.5-0.3 2.2-0.2 0.8 0.2 1.5 0.5 2 1.1 0.6 0.5 1 1.2 1.1 2 0.2 0.7 0.1 1.5-0.2 2.2-0.3 0.7-0.8 1.3-1.5 1.8-0.6 0.4-1.4 0.6-2.1 0.6-1.1 0-2-0.4-2.8-1.1-0.7-0.7-1.1-1.7-1.1-2.8z"/><path class="c" d="m148.8 178h-26.9v5.5h26.9z"/><path class="c" d="m148.8 192.6h-26.9v5.5h26.9z"/><path class="c" d="m148.8 207.2h-26.9v5.5h26.9z"/><path class="c" d="m148.8 221.8h-26.9v5.5h26.9z"/><path class="c" d="m148.8 236.4h-26.9v5.5h26.9z"/><path class="b" d="m298 181.7h21.2l22.7-23.3c1 0.8 2.2 1.2 3.4 1.2 1.4 0 2.7-0.5 3.7-1.3 1.1-0.8 1.8-1.9 2.2-3.2 0.3-1.3 0.2-2.7-0.4-3.9-0.5-1.2-1.5-2.2-2.6-2.8-1.2-0.6-2.6-0.9-3.9-0.6-1.3 0.2-2.5 0.9-3.4 1.9-0.8 1-1.4 2.3-1.4 3.6-0.1 1.3 0.3 2.7 1 3.7l-22.2 22.8h-20.3v-1.7h-26.9v5.4h26.9zm47.4-31.9c0.7 0 1.5 0.2 2.1 0.6 0.7 0.5 1.2 1.1 1.5 1.8 0.3 0.7 0.3 1.5 0.2 2.2-0.2 0.8-0.5 1.5-1.1 2-0.5 0.6-1.2 1-2 1.1-0.7 0.2-1.5 0.1-2.2-0.2-0.7-0.3-1.3-0.8-1.8-1.4-0.4-0.7-0.6-1.4-0.6-2.2 0-1 0.4-2 1.1-2.8 0.7-0.7 1.7-1.1 2.8-1.1z"/><path class="b" d="m298 196.3h46.8l20.6-21.3h21.3c0.3 1.4 1.1 2.7 2.2 3.6 1.2 0.9 2.7 1.4 4.1 1.2 1.5-0.1 2.9-0.8 3.9-1.8 1-1.1 1.5-2.5 1.5-4 0-1.5-0.5-2.9-1.5-4-1-1.1-2.4-1.8-3.9-1.9-1.4-0.1-2.9 0.3-4.1 1.2-1.1 0.9-1.9 2.2-2.2 3.7h-22.2l-20.6 21.4h-45.9v-1.8h-26.9v5.5h26.9zm94.5-26.2c0.8 0 1.5 0.2 2.2 0.6 0.6 0.5 1.1 1.1 1.4 1.8 0.3 0.7 0.4 1.5 0.2 2.2-0.1 0.8-0.5 1.5-1 2-0.6 0.6-1.3 0.9-2 1.1-0.8 0.1-1.6 0.1-2.3-0.2-0.7-0.3-1.3-0.8-1.7-1.5-0.5-0.6-0.7-1.4-0.7-2.1 0-1.1 0.4-2.1 1.1-2.8 0.8-0.7 1.8-1.1 2.8-1.1z"/><path class="b" d="m392.5 240.1c-1.4 0-2.7 0.5-3.8 1.4-1 0.9-1.8 2.1-2 3.5h-21.3l-20.6-21.4h-46.8v-1.7h-26.9v5.5h26.9v-1.8h45.9l20.6 21.4h22.2c0.2 1.1 0.7 2.1 1.4 3 0.8 0.8 1.8 1.4 2.9 1.7 1 0.3 2.2 0.3 3.3-0.1 1-0.3 2-0.9 2.7-1.8 0.7-0.9 1.2-1.9 1.3-3 0.2-1.1 0-2.3-0.5-3.3-0.4-1-1.2-1.8-2.1-2.5-1-0.6-2.1-0.9-3.2-0.9zm0 9.8c-0.8 0-1.5-0.2-2.2-0.7-0.6-0.4-1.1-1-1.4-1.7-0.3-0.7-0.4-1.5-0.2-2.3 0.1-0.7 0.5-1.4 1-2 0.6-0.5 1.3-0.9 2-1 0.8-0.2 1.6-0.1 2.3 0.2 0.7 0.3 1.3 0.8 1.7 1.4 0.5 0.7 0.7 1.4 0.7 2.2 0 1-0.4 2-1.1 2.7-0.8 0.8-1.8 1.2-2.8 1.2z"/><path class="b" d="m413.9 204.1c-1.4 0-2.8 0.5-3.9 1.4-1 0.9-1.8 2.1-2 3.5h-110v-1.7h-26.9v5.5h26.9v-1.8h110c0.2 1.1 0.7 2.1 1.5 2.9 0.7 0.8 1.7 1.4 2.8 1.7 1.1 0.3 2.2 0.3 3.3-0.1 1-0.3 2-0.9 2.7-1.8 0.7-0.8 1.2-1.9 1.3-3 0.2-1.1 0-2.2-0.5-3.2-0.4-1-1.2-1.9-2.1-2.5-0.9-0.6-2-0.9-3.1-0.9zm0 9.7c-0.8 0-1.6-0.2-2.2-0.6-0.7-0.4-1.2-1-1.5-1.8-0.3-0.7-0.3-1.5-0.2-2.2 0.2-0.8 0.5-1.5 1.1-2 0.5-0.6 1.2-0.9 2-1.1 0.7-0.1 1.5-0.1 2.2 0.2 0.7 0.3 1.4 0.8 1.8 1.5 0.4 0.6 0.6 1.4 0.6 2.1 0 1.1-0.4 2.1-1.1 2.8-0.7 0.7-1.7 1.2-2.7 1.2z"/><path class="b" d="m345.4 260.5c-1.3 0-2.5 0.4-3.5 1.1l-22.7-23.3h-21.2v-1.8h-26.9v5.5h26.9v-1.7h20.3l22.2 22.7c-0.7 1.1-1.1 2.4-1 3.7 0.1 1.3 0.6 2.6 1.5 3.5 0.8 1 2 1.7 3.3 1.9 1.3 0.3 2.6 0.1 3.8-0.6 1.2-0.6 2.1-1.5 2.6-2.7 0.6-1.2 0.7-2.6 0.4-3.9-0.4-1.2-1.1-2.4-2.1-3.2-1.1-0.8-2.3-1.2-3.6-1.2zm0 9.8c-0.8 0-1.6-0.3-2.2-0.7-0.7-0.4-1.2-1-1.4-1.7-0.3-0.8-0.4-1.5-0.3-2.3 0.2-0.8 0.6-1.5 1.1-2 0.5-0.5 1.2-0.9 2-1.1 0.8-0.1 1.5 0 2.2 0.3 0.8 0.3 1.4 0.8 1.8 1.4 0.4 0.6 0.7 1.4 0.7 2.2-0.1 1-0.5 2-1.2 2.7-0.7 0.7-1.7 1.1-2.7 1.1z"/><path class="c" d="m298 178h-26.9v5.5h26.9z"/><path class="c" d="m298 192.6h-26.9v5.5h26.9z"/><path class="c" d="m298 207.2h-26.9v5.5h26.9z"/><path class="c" d="m298 221.8h-26.9v5.5h26.9z"/><path class="c" d="m298 236.4h-26.9v5.5h26.9z"/><path class="b" d="m226 297.8h1.8v-26.9h-5.5v26.9h1.7v46.8l21.4 20.6v21.3c-1.5 0.3-2.8 1.1-3.7 2.2-0.9 1.2-1.3 2.7-1.2 4.1 0.2 1.5 0.8 2.9 1.9 3.9 1.1 1 2.5 1.5 4 1.5 1.5 0 2.9-0.5 4-1.5 1-1 1.7-2.4 1.8-3.9 0.2-1.4-0.3-2.9-1.2-4.1-0.9-1.1-2.2-1.9-3.6-2.2v-22.2l-21.4-20.5zm20.4 90.6c0.8 0 1.5 0.2 2.2 0.6 0.6 0.5 1.1 1.1 1.4 1.8 0.3 0.7 0.4 1.5 0.2 2.2-0.1 0.8-0.5 1.5-1 2-0.6 0.6-1.3 1-2 1.1-0.8 0.2-1.6 0.1-2.3-0.2-0.7-0.3-1.3-0.8-1.7-1.5-0.5-0.6-0.7-1.3-0.7-2.1 0-1.1 0.4-2 1.1-2.8 0.8-0.7 1.8-1.1 2.8-1.1z"/><path class="b" d="m196.8 297.8h1.7v-26.9h-5.4v26.9h1.7v46l-21.4 20.5v22.2c-1.4 0.3-2.7 1.1-3.6 2.2-0.9 1.2-1.4 2.7-1.2 4.1 0.1 1.5 0.7 2.9 1.8 3.9 1.1 0.9 2.5 1.5 4 1.5 1.5 0 2.9-0.6 4-1.5 1.1-1 1.7-2.4 1.8-3.9 0.2-1.4-0.3-2.9-1.2-4.1-0.9-1.1-2.2-1.9-3.6-2.2v-21.3l21.4-20.6zm-22.4 90.6c0.8 0 1.5 0.3 2.2 0.7 0.6 0.4 1.1 1 1.4 1.7 0.3 0.7 0.4 1.5 0.2 2.3-0.1 0.7-0.5 1.4-1 2-0.6 0.5-1.3 0.9-2 1-0.8 0.2-1.6 0.1-2.3-0.2-0.7-0.3-1.3-0.8-1.7-1.4-0.5-0.7-0.7-1.4-0.7-2.2 0-1 0.4-2 1.1-2.7 0.8-0.8 1.8-1.2 2.8-1.2z"/><path class="b" d="m216.3 413.6c0-1.3-0.5-2.7-1.4-3.7-0.9-1.1-2.1-1.8-3.5-2v-110.1h1.8v-26.9h-5.5v26.9h1.7v110c-1.1 0.2-2.1 0.7-2.9 1.5-0.9 0.7-1.4 1.7-1.7 2.8-0.3 1.1-0.3 2.2 0 3.3 0.4 1 1 2 1.8 2.7 0.9 0.7 1.9 1.2 3 1.3 1.2 0.2 2.3 0 3.3-0.4 1-0.5 1.9-1.3 2.5-2.2 0.6-1 0.9-2 0.9-3.2zm-2 0c0 0.8-0.2 1.6-0.6 2.2-0.5 0.6-1.1 1.1-1.8 1.4-0.7 0.3-1.5 0.4-2.2 0.3-0.8-0.2-1.5-0.6-2-1.1-0.6-0.6-1-1.2-1.1-2-0.2-0.8-0.1-1.5 0.2-2.3 0.3-0.7 0.8-1.3 1.5-1.7 0.6-0.4 1.3-0.7 2.1-0.7 1.1 0 2 0.4 2.8 1.2 0.7 0.7 1.1 1.7 1.1 2.7z"/><path class="b" d="m272.6 345.2c0-1.6-0.6-3-1.7-4.1-1.1-1.1-2.6-1.8-4.1-1.8-1.2 0-2.4 0.4-3.4 1.1l-22.7-22.2v-20.4h1.6v-26.9h-5.4v26.9h1.8v21.2l23.3 22.8c-0.6 0.7-0.9 1.6-1.1 2.5-0.1 0.9 0 1.8 0.3 2.7 0.3 0.9 0.8 1.7 1.4 2.4 0.7 0.6 1.5 1.1 2.4 1.4 0.8 0.3 1.8 0.3 2.7 0.2 0.9-0.2 1.8-0.5 2.5-1.1 0.8-0.5 1.4-1.2 1.8-2.1 0.4-0.8 0.6-1.7 0.6-2.6zm-1.9 0c0 0.8-0.3 1.5-0.7 2.1-0.4 0.7-1 1.2-1.7 1.5-0.8 0.3-1.5 0.4-2.3 0.2-0.8-0.1-1.5-0.5-2-1.1-0.5-0.5-0.9-1.2-1.1-1.9-0.1-0.8 0-1.6 0.2-2.3 0.3-0.7 0.8-1.3 1.5-1.8 0.6-0.4 1.4-0.6 2.2-0.6 1 0 2 0.4 2.7 1.1 0.7 0.8 1.1 1.7 1.2 2.8z"/><path class="b" d="m182.2 297.8h1.7v-26.9h-5.5v26.9h1.8v20.4l-22.8 22.2c-1-0.7-2.1-1.1-3.3-1.1-1.2 0-2.3 0.4-3.3 1-1 0.7-1.7 1.6-2.2 2.7-0.4 1-0.5 2.2-0.3 3.4 0.2 1.1 0.8 2.1 1.6 3 0.8 0.8 1.9 1.3 3 1.6 1.2 0.2 2.4 0.1 3.4-0.4 1.1-0.4 2-1.2 2.7-2.1 0.6-1 0.9-2.1 0.9-3.3 0-1.2-0.3-2.4-1.1-3.4l23.3-22.8zm-24.1 47.4c0 0.7-0.3 1.5-0.7 2.1-0.4 0.7-1 1.2-1.7 1.5-0.7 0.3-1.5 0.4-2.3 0.2-0.7-0.1-1.4-0.5-2-1.1-0.5-0.5-0.9-1.2-1.1-1.9-0.1-0.8 0-1.6 0.3-2.3 0.3-0.7 0.8-1.3 1.4-1.8 0.6-0.4 1.4-0.6 2.2-0.6 1 0 2 0.4 2.7 1.1 0.8 0.8 1.2 1.7 1.2 2.8z"/><path class="c" d="m178.5 270.9v26.9h5.4v-26.9z"/><path class="c" d="m193.1 270.9v26.9h5.5v-26.9z"/><path class="c" d="m207.7 270.9v26.9h5.5v-26.9z"/><path class="c" d="m222.3 270.9v26.9h5.5v-26.9z"/><path class="c" d="m236.9 270.9v26.9h5.5v-26.9z"/><path class="c" d="m289.5 151c-3.9 0-7.8-1.1-11.1-3.3-3.3-2.2-5.9-5.3-7.4-9-1.5-3.7-1.9-7.7-1.1-11.6 0.7-3.9 2.6-7.4 5.4-10.2 2.8-2.8 6.4-4.7 10.3-5.5 3.9-0.8 7.9-0.4 11.5 1.1 3.7 1.5 6.8 4.1 9 7.4 2.3 3.2 3.4 7.1 3.4 11.1 0.1 2.6-0.5 5.2-1.5 7.6-1 2.5-2.4 4.7-4.3 6.6-1.9 1.8-4.1 3.3-6.5 4.3-2.4 1-5 1.5-7.7 1.5zm14.2-19.2h-3.9c-0.3 0-0.3 0.1-0.3 0.3q-0.1 4-1 7.9c-0.1 0.2 0 0.3 0.2 0.3h6.6q0.2 0 0.3-0.1 0.1-0.1 0.2-0.2 0.7-1.3 1.2-2.6 0.9-2.5 1.1-5.2c0-0.3-0.1-0.4-0.4-0.4q-2 0-4 0zm-28.4 0q-1.9 0-3.9 0c-0.4 0-0.4-0.1-0.4 0.4 0.2 2.8 1 5.5 2.3 7.9 0.1 0.2 0.3 0.2 0.4 0.2q3.4 0 6.7 0c0.3 0 0.3-0.1 0.2-0.4q-0.9-3.8-1-7.8c0-0.2-0.1-0.3-0.3-0.3zm28.4-1.5q2 0 3.9 0c0.3 0 0.4-0.1 0.4-0.3-0.2-2.5-0.8-4.9-1.9-7.2q-0.1-0.1-0.2-0.1-0.1-0.1-0.2-0.1h-6.9c-0.3 0-0.3 0.1-0.2 0.3q0.7 3.5 0.8 7.1c0 0.2 0 0.3 0.3 0.3 1.3-0.1 2.7-0.1 4-0.1zm-28.4 0h4c0.2 0 0.3 0 0.3-0.2q0.1-3.6 0.8-7.1c0.1-0.2 0-0.3-0.2-0.3q-3.2 0-6.3 0c-0.8 0-1.1 0.2-1.3 0.8v0.1c-0.9 2-1.5 4.2-1.6 6.5 0 0.2 0.1 0.3 0.3 0.3 1.3-0.1 2.7-0.1 4-0.1zm14.9 5.8v3.7c0 0.5 0 0.5 0.5 0.5q2.8 0 5.7 0c0.3 0 0.4-0.1 0.5-0.4q0.8-3.6 0.9-7.3c0-0.3 0.2-0.6 0-0.7-0.1-0.2-0.4 0-0.7 0h-6.5c-0.3 0-0.3 0-0.3 0.3 0 1.2 0 2.5 0 3.8zm-1.5 0q0-2 0-3.9c0-0.2 0-0.3-0.3-0.3q-3.6 0-7.2 0c-0.1 0-0.2 0.1-0.2 0.2q0.1 4.1 1.1 8c0 0.2 0.1 0.3 0.4 0.3 2 0 3.9 0 5.8 0 0.3 0 0.4-0.1 0.4-0.3 0-1.4 0-2.7 0-4.1zm0-9.5q0-1.7 0-3.5c0-0.2 0-0.3-0.3-0.3h-6.2c-0.2 0-0.3 0-0.3 0.2q-0.8 3.5-0.9 7.2c0 0.2 0.1 0.2 0.3 0.2q0.6 0 1.2 0c2 0 3.9 0 5.9 0 0.2 0 0.3 0 0.3-0.3 0-1.2 0-2.4 0-3.5zm5.3 3.8q1.7 0 3.5 0c0.3 0 0.3-0.1 0.3-0.4q0-3.6-0.8-7.1 0 0 0-0.1-0.1 0-0.1-0.1-0.1 0-0.1 0-0.1-0.1-0.2 0h-6.1c-0.2 0-0.3 0-0.3 0.3q0 3.5 0 7c0 0.3 0 0.3 0.3 0.3 1.1 0 2.3 0 3.5 0zm-9.1-17.2c-4.6 1.2-8.5 4-11.1 8h0.2 6.6c0.2 0 0.2-0.1 0.3-0.3q0.3-1.3 0.9-2.6c0.6-1.6 1.5-3.1 2.6-4.5zm20.1 8v-0.1c-2.6-3.9-6.5-6.8-11.1-8q0.1 0.1 0.2 0.3 1.2 1.3 2.1 2.9 1.1 2.1 1.7 4.5 0 0 0.1 0.1 0 0.1 0.1 0.2 0.1 0 0.2 0.1 0.1 0 0.1 0 1.8 0 3.5 0zm-16.3-4.3q0-1.9 0-3.8c0-0.5 0-0.5-0.6-0.3-1.1 0.4-2 1.2-2.7 2.2-1.4 1.7-2.3 3.8-2.9 5.9-0.1 0.2 0 0.2 0.2 0.2q2.8 0 5.7 0c0.2 0 0.3 0 0.3-0.3q0-2 0-4zm1.5 0q0 2 0 4c0 0.2 0.1 0.3 0.3 0.3q2.9 0 5.8 0c0.2 0 0.2-0.1 0.1-0.3-0.2-0.6-0.3-1.2-0.6-1.7-0.6-1.7-1.4-3.3-2.6-4.6-0.7-0.9-1.6-1.5-2.7-1.9-0.2-0.1-0.3 0-0.3 0.2q0 2 0 3.9zm-15.8 24.9c1 1.5 2.3 2.9 3.8 4 2 1.6 4.3 2.7 6.8 3.3q-0.1-0.2-0.3-0.4-0.8-0.9-1.5-1.9-1.3-2.2-2-4.7 0-0.1-0.1-0.2 0 0-0.1 0 0-0.1-0.1-0.1-0.1 0-0.1 0-2.5 0-5 0zm19.6 7.3c4.3-1.1 8.1-3.8 10.6-7.4h-6.4c-0.2 0-0.3 0.1-0.3 0.3q-0.4 1.1-0.8 2.1-0.8 1.9-2 3.6c-0.4 0.4-0.7 0.8-1.1 1.3zm-5.2-3.4q0-1.8 0-3.6c0-0.1 0-0.3-0.3-0.3h-5.6c-0.2 0-0.2 0.1-0.1 0.3 0.1 0.4 0.3 0.8 0.5 1.3 0.6 1.7 1.6 3.3 2.9 4.7 0.7 0.6 1.4 1.1 2.3 1.4 0.2 0 0.3 0 0.3-0.2-0.1-1.3-0.1-2.5-0.1-3.7zm1.5 0q0 1.8 0 3.6c0 0.3 0.1 0.3 0.4 0.2 1-0.3 1.9-1 2.6-1.8 1.4-1.7 2.4-3.5 3-5.5 0.1-0.3 0-0.3-0.2-0.3q-2.7 0-5.5 0c-0.2 0-0.3 0-0.3 0.3 0 1 0 2.2 0 3.4z"/><g style="opacity:.15"><path class="d" d="m306.4 92.9h-33.6l-1.2 1.2-18.9 19-1.2 1.1v33.6l1.2 1.2 18.9 18.9 1.2 1.2h33.6l1.1-1.2 19-18.9 1.1-1.2v-33.6l-1.1-1.1-19-19-1.1-1.2zm-1.7 4l19 19v30.3l-19 18.9h-30.3l-18.9-18.9v-30.3l18.9-19c0 0 30.3 0 30.3 0z"/></g><path class="e" d="m304.6 96.9h-30.3l-18.9 19v30.3l18.9 18.9h30.3l19-18.9v-30.3z"/><path class="f" d="m302.4 102.1h-25.8l-16.1 16.1v25.7l16.1 16.1h25.8l16.1-16.1v-25.7z"/><g style="opacity:.15"><path class="g" d="m313.5 105.6l-5.4-5.4-49.3 49.3 5.4 5.4z"/><path class="g" d="m267.4 158l3.1 3.2 49.3-49.3-3.2-3.1z"/></g><g style="opacity:.15"><path class="d" d="m149.8 92.9h-33.6l-1.1 1.2-19 19-1.1 1.1v33.6l1.1 1.2 19 18.9 1.1 1.2h33.6l1.2-1.2 18.9-18.9 1.2-1.2v-33.6l-1.2-1.1-18.9-19zm-1.7 4l19 18.9v30.3l-19 19h-30.3l-18.9-19v-30.3l18.9-18.9z"/></g><path class="e" d="m148.2 96.9h-30.4l-18.9 19v30.3l18.9 18.9h30.4l18.9-18.9v-30.3z"/><path class="f" d="m145.9 102.1h-25.8l-16.1 16.1v25.7l16.1 16.1h25.8l16.1-16.1v-25.7z"/><path class="f" d="m138.9 143.4v5.9c0 0.9-0.4 1.6-0.9 2.2-0.6 0.6-1.4 0.9-2.2 1h-4.9q-0.8-0.1-1.5-0.5-0.7-0.3-1.1-1-0.4-0.6-0.5-1.4 0-0.1 0-0.3v-5.7q2.5 0.7 5 0.7h0.5c1.9 0 3.8-0.3 5.6-0.9z"/><path class="h" d="m135.4 152.4v0.8c0 0.5-0.3 1-0.7 1.3-0.3 0.4-0.9 0.6-1.4 0.6-0.5 0-1-0.2-1.4-0.6-0.4-0.3-0.6-0.8-0.7-1.3v-0.8z"/><path class="c" d="m133.3 107.7v-0.3q-0.1-0.1-0.3-0.2-0.9-0.4-1.9-0.4c-2.8 0-6.8 1.6-6.4 6.5q-0.5-0.1-1-0.1c-0.9 0-1.8 0.2-2.6 0.6-0.7 0.3-1.4 0.9-1.9 1.6-0.6 0.9-1 1.9-1.1 2.9 0 1.1 0.2 2.1 0.7 3-1.5 0.8-2.8 2-3.6 3.5l-0.2 0.5c-0.5 0.9-0.8 2-0.8 3.1q0 0.7 0.2 1.4c0.3 1.9 1.3 3.6 2.8 4.8 1.5 1.1 3.3 1.8 5.2 1.8 0.3 4.4 2.7 6.3 5.4 7.2q2.5 0.7 5 0.6h0.5v-1.7c0.1-9.2 0.1-26.3 0-34.8zm-2.2-0.9v0.5q0.9 0 1.7 0.4c0 8.9 0 27.3 0 36-2 0.1-4.1-0.3-6-1.1-2.4-1.1-3.7-3.2-3.9-6.2v-0.4h-0.4c-1.8-0.1-3.5-0.7-5-1.7-1.3-1.2-2.3-2.8-2.6-4.5-0.3-1.5-0.1-3 0.6-4.3v-0.1l0.1-0.3c0.8-1.4 2-2.6 3.5-3.3l0.4-0.2-0.2-0.4c-1-2.2-0.8-3.9 0.3-5.5 0.5-0.6 1.1-1.1 1.8-1.5 0.7-0.3 1.5-0.5 2.3-0.5q0.5 0.1 1 0.1l0.6 0.1-0.1-0.6q-0.1-1.2 0.2-2.2 0.3-1.1 1.1-2 0.9-0.9 2.1-1.3 1.2-0.5 2.4-0.5v-0.5"/><path class="i" d="m133.3 107.7v-0.3q-0.1-0.1-0.3-0.2-0.9-0.4-1.9-0.4c-2.8 0-6.8 1.6-6.4 6.5q-0.5-0.1-1-0.1c-0.9 0-1.8 0.2-2.6 0.6-0.7 0.3-1.4 0.9-1.9 1.6-0.6 0.9-1 1.9-1.1 2.9 0 1.1 0.2 2.1 0.7 3-1.5 0.8-2.8 2-3.6 3.5l-0.2 0.5c-0.5 0.9-0.8 2-0.8 3.1q0 0.7 0.2 1.4c0.3 1.9 1.3 3.6 2.8 4.8 1.5 1.1 3.3 1.8 5.2 1.8 0.3 4.4 2.7 6.3 5.4 7.2q2.5 0.7 5 0.6h0.5v-1.7c0.1-9.2 0.1-26.3 0-34.8zm-2.2-0.9v0.5q0.9 0 1.7 0.4c0 8.9 0 27.3 0 36-2 0.1-4.1-0.3-6-1.1-2.4-1.1-3.7-3.2-3.9-6.2v-0.4h-0.4c-1.8-0.1-3.5-0.7-5-1.7-1.3-1.2-2.3-2.8-2.6-4.5-0.3-1.5-0.1-3 0.6-4.3v-0.1l0.1-0.3c0.8-1.4 2-2.6 3.5-3.3l0.4-0.2-0.2-0.4c-1-2.2-0.8-3.9 0.3-5.5 0.5-0.6 1.1-1.1 1.8-1.5 0.7-0.3 1.5-0.5 2.3-0.5q0.5 0.1 1 0.1l0.6 0.1-0.1-0.6q-0.1-1.2 0.2-2.2 0.3-1.1 1.1-2 0.9-0.9 2.1-1.3 1.2-0.5 2.4-0.5v-0.5"/><path class="j" d="m146.4 112.6c-1.7-1.7-3.7-3-6-4-2.2-0.9-4.6-1.4-7.1-1.4h-0.5v0.5c0 8.5 0 25.9 0 34.8v1.7h0.6c2.4 0 4.8-0.4 7-1.4 2.3-0.9 4.3-2.3 6.1-4 1.7-1.7 3-3.7 4-6 0.9-2.2 1.4-4.6 1.4-7.1 0-2.4-0.5-4.8-1.4-7.1-1-2.2-2.4-4.2-4.1-6zm-7.5 30.3c-1.8 0.5-3.7 0.8-5.6 0.8v-1.2c0-9.2 0-26.3 0-34.8 4.3 0 8.5 1.6 11.7 4.4 3.3 2.7 5.4 6.6 6.1 10.8 0.7 4.3-0.2 8.6-2.4 12.3-2.3 3.6-5.8 6.3-9.8 7.7z"/><path class="h" d="m138.9 143.4v2.9l-11.1 3.3q0-0.2 0-0.3v-2.6z"/><path class="h" d="m138.9 149.2l-9.5 2.8"/><path class="j" d="m124.4 126.2q-0.1 0-0.2 0-0.1-0.1-0.1-0.2c-0.6-4-4.9-4.3-5.1-4.3q-0.1 0-0.1-0.1-0.1 0-0.1-0.2 0 0 0 0 0-0.1 0.1-0.1 0-0.1 0.1-0.1 0 0 0 0c0.1 0 5 0.3 5.6 4.8q0 0 0 0 0 0.1 0 0.1-0.1 0.1-0.1 0.1 0 0-0.1 0z"/><path class="j" d="m129.5 117.6c-1.3 0-2.5-0.5-3.3-1.4-0.9-0.9-1.4-2-1.5-3.3q0 0 0-0.1 0 0 0.1-0.1 0 0 0.1-0.1 0 0 0.1 0 0 0 0.1 0 0 0.1 0.1 0.1 0 0.1 0 0.1 0 0.1 0 0.1c0.1 1.1 0.5 2.2 1.3 3 0.8 0.8 1.9 1.2 3 1.2q0 0 0.1 0 0 0 0.1 0.1 0 0 0 0.1 0 0 0 0.1 0 0 0 0.1 0 0-0.1 0 0 0.1 0 0.1-0.1 0-0.1 0z"/><path class="k" d="m122.8 138.1q0 0-0.1 0-0.1-0.1-0.1-0.2c-0.4-1.5-0.2-3.2 0.5-4.6q0.5-0.9 1.3-1.4 0.8-0.6 1.8-0.8 0 0 0.1 0 0 0 0.1 0 0 0 0.1 0.1 0 0 0 0.1 0 0 0 0.1 0 0 0 0 0 0.1-0.1 0.1 0 0.1-0.1 0.1-0.8 0.2-1.6 0.7-0.7 0.5-1.1 1.2c-0.7 1.4-0.9 2.9-0.5 4.3q0 0.1 0 0.1 0 0.1 0 0.1-0.1 0.1-0.1 0.1 0 0-0.1 0z"/><path class="j" d="m128.2 127.6q-0.1-0.1-0.2-0.1 0-0.1 0-0.2c0.3-1.4 0.1-2.9-0.4-4.2-0.6-1.4-1.5-2.5-2.7-3.3q-0.1 0-0.1 0 0-0.1-0.1-0.1 0-0.1 0-0.1 0-0.1 0.1-0.1 0-0.1 0.1-0.1 0.1-0.1 0.2 0c1.3 0.8 2.3 2 2.9 3.4 0.6 1.4 0.8 3 0.5 4.5q0 0.1 0 0.1-0.1 0.1-0.1 0.1 0 0-0.1 0.1 0 0-0.1 0z"/><path class="j" d="m126.7 138.3q-0.1 0-0.2-0.1 0 0-0.1 0 0-0.1 0-0.2 0-0.1 0-0.2c0.9-0.5 1.5-1.3 1.9-2.2 0.3-0.9 0.4-1.9 0.2-2.9q0 0 0.1-0.1 0-0.1 0.1-0.2 0.1 0 0.2 0.1 0.1 0 0.1 0.1c0.2 1.1 0.1 2.2-0.3 3.2-0.4 1-1.1 1.8-1.9 2.4q-0.1 0.1-0.1 0.1z"/><path class="k" d="m119.2 131.8q-0.1 0-0.1 0-0.1 0-0.1-0.1c-0.5-0.9-0.8-2-0.7-3.1 0.1-1.1 0.5-2.1 1.1-2.9q0.1-0.1 0.2-0.1 0.1-0.1 0.2 0 0 0 0.1 0.1 0 0 0 0.1 0 0 0 0.1 0 0 0 0.1c-0.6 0.7-1 1.6-1.1 2.6-0.1 1 0.1 2 0.6 2.8q0.1 0.1 0.1 0.2-0.1 0.1-0.1 0.2-0.1 0-0.2 0z"/><path class="j" d="m135.5 143.7c0-0.1-0.2-11.7 0-16.4h-0.3c-0.9 0-2 0-2 0v-0.4h2.3q0-0.3 0-0.5c0.1-2.2 0.8-3 1.6-3.5 0.3-0.2 0.7-0.3 1.1-0.3 0.4 0 0.8 0.2 1.2 0.5 0.2 0.3 0.4 0.7 0.4 1.1 0.1 0.4 0 0.9-0.3 1.2q-0.6 0.9-1.5 1.4-1 0.5-2.1 0.6c-0.1 4.6 0 16.2 0 16.4zm2.8-20.7q-0.5 0-0.9 0.3c-0.6 0.4-1.3 1-1.3 3.1q0 0.2 0 0.4 0.9-0.1 1.7-0.5 0.8-0.5 1.4-1.2 0.3-0.4 0.2-0.9 0-0.5-0.3-0.9-0.4-0.2-0.8-0.2z"/><path class="l" d="m146.6 119.3c-0.6-1.4-1.5-2.7-2.5-3.7q-1.5-1.5-3.3-2.3"/><path class="l" d="m147.6 124.1q0-1.3-0.3-2.5"/><g style="opacity:.15"><path class="g" d="m157.1 105.6l-5.4-5.4-49.3 49.3 5.4 5.4z"/><path class="g" d="m111 158l3.1 3.2 49.3-49.3-3.2-3.2z"/></g><path class="f" d="m304.1 285.4l-0.8 2.8 2.5 2.5-1.5 2.5-3.2-0.8-2.1 2.1 1 3.2-2.7 1.6-2.2-2.2q0 0 0 0-0.1 0-0.1 0-0.1 0-0.1 0 0 0.1 0 0.1l-0.1 2.6q-1.1 0.8-2.4 1.2-1.3 0.3-2.6 0.1v-36.3h1.4l0.9 3.6 2.6 0.9 2.6-2.7 2.7 1.7-1 3.3 2 2 3.2-0.9 1.7 2.9-2.4 2.2 0.6 2.8 3.3 0.8v3z"/><path class="f" d="m297.7 282.9c0 2.1-0.8 4.1-2.3 5.6-1.5 1.5-3.5 2.3-5.6 2.3v-15.8q1.6 0 3 0.6 1.5 0.6 2.6 1.7 1.1 1.1 1.7 2.6 0.6 1.4 0.6 3z"/><path class="f" d="m289.8 299.8v1.3q-1.2 0-2.4-0.2c-0.7-0.1-2-0.4-2-0.4 0 0-1-0.2-1.7-0.5q-0.3-0.1-0.6-0.2c-3.9-1.5-7.2-4.4-9.2-8.1-2-3.7-2.7-8-1.9-12.1 0.8-4.1 3-7.9 6.2-10.6 3.3-2.7 7.3-4.1 11.5-4.1 0.1 8.2 0.1 25.9 0.1 34.9z"/><path class="f" d="m294.8 299.8v6.8q0 0.6-0.2 1.2-0.3 0.6-0.7 1-0.4 0.5-1 0.7-0.6 0.2-1.2 0.2h-4.9q-0.8 0-1.5-0.4-0.7-0.4-1.1-1-0.4-0.7-0.5-1.4 0-0.2 0-0.3v-6.6c0.8 0.2 1.7 0.5 1.7 0.5 0 0 1.3 0.3 2 0.4q1.2 0.1 2.4 0.1v-1.2 1.3q1.3 0.2 2.6-0.1 1.3-0.4 2.4-1.2z"/><path class="f" d="m289.3 313.1c-0.7 0-1.3-0.3-1.8-0.7-0.5-0.5-0.7-1.1-0.7-1.8v-1.6h4.9v1.6c0 0.7-0.3 1.3-0.7 1.8-0.5 0.4-1.1 0.7-1.7 0.7z"/><path class="f" d="m294.8 300.7v2.9l-11.1 3.3q0-0.1 0-0.2v-2.7z"/><path class="f" d="m294.8 303.6v2.9l-9.5 2.8q-0.7-0.3-1.1-1-0.4-0.7-0.5-1.4z"/><path class="f" d="m289.4 284.3h-2c-3.1 0-5.6-2.1-3.6-3.7 1.4-1 3 0.2 3 3v17.5"/><g style="opacity:.15"><path class="d" d="m306.3 250.9h-33.6l-1.2 1.2-18.9 18.9-1.2 1.2v33.6l1.2 1.1 18.9 19 1.2 1.1h33.6l1.1-1.1 19-19 1.1-1.1v-33.6l-1.1-1.2-19-18.9zm-1.6 3.9l18.9 19v30.3l-18.9 18.9h-30.3l-19-18.9v-30.3l19-19z"/></g><path class="e" d="m304.6 254.8h-30.3l-19 19v30.3l19 19h30.3l18.9-19v-30.3z"/><path class="f" d="m302.3 260h-25.8l-16.1 16.1v25.7l16.1 16.1h25.8l16.1-16.1v-25.7z"/><g style="opacity:.15"><path class="g" d="m313.4 263.6l-5.4-5.5-49.3 49.3 5.5 5.4z"/><path class="g" d="m267.3 316l3.1 3.1 49.3-49.3-3.2-3.1z"/></g><path class="m" d="m158.3 294.1c0 2-0.8 3.9-2.2 5.3-1.4 1.4-3.3 2.2-5.3 2.2h-11.3v-4.8q0-0.3 0.2-0.5 0.3-0.3 0.6-0.3h2.6q0.3 0 0.5-0.1 0.2-0.1 0.3-0.3 0.1-0.3 0-0.5 0-0.2-0.2-0.4l-9.7-10.5q-0.1-0.1-0.2-0.1-0.2-0.1-0.3-0.1-0.2 0-0.4 0.1-0.1 0-0.2 0.1l-9.7 10.5q-0.1 0.2-0.2 0.4 0 0.2 0.1 0.5 0.1 0.2 0.3 0.3 0.2 0.1 0.4 0.1h2.6q0.4 0.1 0.6 0.3 0.2 0.2 0.3 0.6v4.7h-8.1c-1.6 0-3.2-0.3-4.7-1-1.4-0.7-2.7-1.6-3.8-2.9-1.1-1.2-1.8-2.6-2.3-4.1-0.4-1.6-0.6-3.2-0.3-4.8 0.2-1.6 0.8-3.1 1.6-4.5 0.9-1.3 2-2.5 3.4-3.3 1.3-0.9 2.9-1.5 4.5-1.7 1.6-0.2 3.2-0.1 4.7 0.3q-0.2-0.9-0.2-1.9c0.1-2.3 1.1-4.6 2.8-6.3 1.7-1.7 4-2.6 6.4-2.7 2.3-0.1 4.7 0.7 6.5 2.3 1.8 1.6 2.9 3.8 3.1 6.1q1-0.2 2-0.2c1.3 0 2.5 0.3 3.6 0.7 1.2 0.5 2.2 1.2 3.1 2.1 0.9 0.9 1.6 1.9 2 3 0.5 1.2 0.8 2.4 0.8 3.7q0 0.2 0 0.4c1.7 0.3 3.2 1.2 4.3 2.6 1.2 1.3 1.8 3 1.8 4.7z"/><path class="m" d="m142.9 296h-2.6q-0.3 0-0.6 0.3-0.2 0.2-0.2 0.5v12.1q0 0.3-0.3 0.5-0.2 0.3-0.5 0.3h-10.8q-0.3 0-0.6-0.3-0.2-0.2-0.2-0.5v-12.1q0-0.3-0.2-0.5-0.3-0.3-0.6-0.3h-2.7q-0.2 0-0.4-0.1-0.2-0.1-0.3-0.4-0.1-0.2 0-0.4 0-0.2 0.2-0.4l9.6-10.5q0.1-0.1 0.3-0.1 0.1-0.1 0.3-0.1 0.1 0 0.3 0.1 0.2 0 0.3 0.1l9.6 10.5q0.2 0.2 0.2 0.4 0 0.2-0.1 0.5-0.1 0.2-0.3 0.3-0.1 0.1-0.4 0.1z"/><g style="opacity:.15"><path class="d" d="m149.8 250.9h-33.6l-1.1 1.1-19 19-1.1 1.2v33.6l1.1 1.1 19 19 1.1 1.1h33.6l1.2-1.1 18.9-19 1.2-1.1v-33.6l-1.2-1.2-18.9-19zm-1.7 4l19 19v30.3l-19 18.9h-30.3l-18.9-18.9v-30.3l18.9-19z"/></g><path class="e" d="m148.2 254.8h-30.4l-18.9 19v30.3l18.9 19h30.4l18.9-19v-30.3z"/><path class="f" d="m145.9 260h-25.8l-16.1 16.1v25.7l16.1 16.1h25.8l16.1-16.1v-25.7z"/><g style="opacity:.15"><path class="g" d="m157.1 263.6l-5.4-5.5-49.3 49.3 5.4 5.4z"/><path class="g" d="m111 316l3.1 3.1 49.3-49.3-3.2-3.1z"/></g><g style="opacity:.15"><path class="d" d="m244.2 152.3h-67.5l-0.9 0.9-22.2 22.2-0.9 0.8v67.6l0.9 0.9 22.2 22.1 0.8 0.9h67.6l0.9-0.9 22.1-22.2 0.9-0.8v-67.6l-0.9-0.9-22.1-22.1zm-1.2 3l22.1 22.1v65.1l-22.1 22.2h-65.1l-22.2-22.2v-65.1l22.2-22.1z"/></g><path class="c" d="m243 155.3h-65.1l-22.2 22.1v65.2l22.2 22.1h65.1l22.1-22.1v-65.2l-22.1-22.1zm-1.6 3.9l19.8 19.8v61.8l-19.8 19.8h-61.9l-19.8-19.8v-61.8l19.8-19.7h61.9"/><path class="c" d="m174.9 171.4q-0.7 0-1.3 0.4-0.6 0.4-0.9 1.1-0.3 0.7-0.1 1.4 0.1 0.7 0.6 1.2 0.5 0.5 1.3 0.7 0.7 0.1 1.3-0.2 0.7-0.2 1.1-0.8c0.3-0.4 0.4-0.9 0.4-1.4q0-0.5-0.2-0.9-0.1-0.4-0.5-0.8-0.3-0.3-0.7-0.5-0.5-0.2-1-0.2z"/><path class="c" d="m246 171.4q-0.8 0-1.4 0.4-0.6 0.4-0.9 1.1-0.3 0.7-0.1 1.4 0.1 0.7 0.6 1.2 0.6 0.5 1.3 0.7 0.7 0.1 1.4-0.2c0.4-0.1 0.8-0.5 1-0.8q0.4-0.7 0.4-1.4c0-0.6-0.2-1.2-0.7-1.7-0.4-0.4-1-0.7-1.6-0.7z"/><path class="c" d="m174.9 243.8q-0.7 0-1.3 0.4-0.6 0.4-0.9 1.1c-0.2 0.4-0.2 0.9-0.1 1.4q0.1 0.7 0.6 1.2 0.5 0.5 1.3 0.7 0.7 0.1 1.3-0.2 0.7-0.2 1.1-0.8 0.4-0.7 0.4-1.4 0-0.5-0.2-0.9-0.1-0.4-0.5-0.8-0.3-0.3-0.7-0.5-0.5-0.2-1-0.2z"/><path class="c" d="m246 243.8q-0.8 0-1.4 0.4c-0.4 0.3-0.7 0.7-0.9 1.1-0.2 0.4-0.2 0.9-0.1 1.4q0.1 0.7 0.6 1.2 0.6 0.5 1.3 0.7c0.4 0.1 0.9 0 1.4-0.2 0.4-0.1 0.8-0.4 1-0.8q0.4-0.7 0.4-1.4c0-0.6-0.2-1.2-0.7-1.7-0.4-0.4-1-0.7-1.6-0.7z"/><path  d="m186.9 223h-13.4q-1.3 0-1.3-1.3v-22.6q0-1.3 1.3-1.3h11.1q3.5 0 5.1 1.3 1.6 1.3 1.6 4.1v1.6q0 2.9-2 3.8 2.3 0.2 3.3 1.6 1.1 1.2 1.1 3.8v3.3q0 2.9-1.7 4.3-1.6 1.4-5.1 1.4zm-3.7-22.1h-7.1v18.9h9.4q2 0 2.9-0.4 1-0.4 1.3-1.2 0.4-0.8 0.4-1.9v-2.2q0-1.1-0.4-2.1-0.3-0.9-1.3-1.4-0.9-0.5-2.9-0.5 1.5-0.4 1.9-1.3 0.4-0.9 0.4-1.9v-2.2q0-1.1-0.4-1.9-0.3-0.8-1.3-1.3-1-0.6-2.9-0.6zm-6.8 18.6v-9.1h9.1q1.8 0 2.7 0.5 0.9 0.5 1.2 1.4 0.3 0.8 0.3 1.8v2.2q0 1-0.3 1.7-0.3 0.7-1.2 1.1-1 0.4-2.7 0.4zm6.8-9.4h-6.8v-8.8h6.8q1.7 0 2.6 0.5 1 0.4 1.3 1.1 0.3 0.8 0.3 1.8v2.2q0 0.8-0.3 1.6-0.2 0.7-1.1 1.1-0.9 0.5-2.8 0.5zm1.4 2.8h-4.6v4.2h4.6q1.3 0 1.3-1.4v-1.4q0-1.4-1.3-1.4zm-1.6-9.1h-3v3.7h3q1.3 0 1.3-1.4v-0.9q0-1.4-1.3-1.4zm33.6 19.2h-17.8q-1.3 0-1.3-1.3v-22.6q0-1.3 1.3-1.3h5.4q1.3 0 1.3 1.3v17.3h4.8v-5.7q0-1.2 1.2-1.2h5.1q1.3 0 1.3 1.2v11q0 1.3-1.3 1.3zm-2.4-3.2v-7.2h-0.3v6.9h-12.2v-18.6h-0.3v18.9zm25.3-22h5.2q1.3 0 1.3 1.3v13.5q0 1.2-0.1 2.1 0 1-0.5 2.3l-1.8 4.7q-0.2 0.6-0.5 1-0.3 0.3-0.9 0.3h-4.6q-0.6 0-1-0.2-0.5-0.3-0.6-0.9l-1.7-5.7q-0.1-0.5-0.6-0.5h-0.3q-0.5 0-0.6 0.5l-1.7 5.7q-0.3 1.1-1.4 1.1h-4.7q-0.5 0-0.9-0.3-0.4-0.4-0.6-1l-1.8-4.8q-0.4-1.3-0.5-2.2-0.1-1-0.1-2.1v-13.5q0-1.3 1.3-1.3h5.4q1.2 0 1.2 1.3v12.8l2.1-4.4q0.2-0.6 0.7-0.8 0.4-0.3 1.1-0.3h1.5q0.7 0 1.1 0.3 0.5 0.2 0.7 0.8l2.1 4.4v-12.8q0-1.3 1.2-1.3zm-6.7 13.5h1.6q0.4 0 0.7 0.3 0.3 0.2 0.7 1.1l2.9 6.6q0.2 0.3 0.5 0.4 0.3 0.2 0.6 0.2h0.3q0.9 0 1.1-1.1l0.9-4q0.2-0.7 0.2-1.7 0-1.1 0-1.8v-10.4h-0.4v10.3q0 0.8 0 1.9 0 1-0.1 1.7l-0.9 4q0 0.2-0.3 0.5-0.2 0.2-0.5 0.2h-0.2q-0.2 0-0.5-0.1-0.3 0-0.4-0.4l-2.9-6.4q-0.5-1-0.8-1.4-0.4-0.3-0.9-0.3h-1.6q-0.6 0-0.9 0.3-0.4 0.4-0.8 1.4l-2.9 6.4q-0.1 0.4-0.4 0.4-0.2 0.1-0.5 0.1h-0.2q-0.3 0-0.5-0.2-0.2-0.3-0.3-0.5l-0.9-4q-0.1-0.7-0.2-1.7 0-1.1 0-1.9v-10.3h-0.3v10.4q0 0.7 0 1.8 0 1 0.2 1.7l0.8 4q0.3 1.1 1.2 1.1h0.2q0.4 0 0.7-0.2 0.4-0.1 0.5-0.4l2.9-6.6q0.4-0.9 0.7-1.1 0.3-0.3 0.7-0.3z"/><path class="n" d="m263 152.5l3.1 1.3 1.3 3.1-13.2 13.2-3.1-1.3-1.3-3.2z"/><path class="o" d="m266.1 153.8l1.3 3.1-13.2 13.2-3.1-1.3"/><path class="n" d="m167.1 248.4l3.2 1.2 1.3 3.2-13.2 13.2-3.2-1.3-1.3-3.2z"/><path class="p" d="m170.3 249.6l1.3 3.2-13.2 13.2-3.2-1.3"/><path class="n" d="m171.9 166.7l-1.3 3.1-3.1 1.3-13.2-13.1 1.3-3.2 3.2-1.3z"/><path class="q" d="m170.7 169.8l-3.2 1.3-13.2-13.1 1.3-3.2"/><path class="n" d="m266.2 262.2l-1.3 3.2-3.1 1.3-13.2-13.2 1.3-3.1 3.1-1.3z"/><path class="r" d="m264.9 265.4l-3.1 1.3-13.2-13.2 1.3-3.1"/></svg>