<svg width="30" height="30" viewBox="0 0 30 30" fill="none" xmlns="http://www.w3.org/2000/svg">
<circle cx="15" cy="15" r="15" fill="url(#paint0_linear_1089_736)"/>
<path d="M24.4755 19.7089L21.6786 16.9119C20.6797 15.913 18.9816 16.3126 18.582 17.6112C18.2823 18.5102 17.2834 19.0097 16.3844 18.8099C14.3866 18.3104 11.6896 15.7133 11.1901 13.6156C10.8904 12.7165 11.4898 11.7176 12.3888 11.418C13.6874 11.0184 14.0869 9.32026 13.088 8.32136L10.2911 5.52442C9.49198 4.82519 8.29329 4.82519 7.59406 5.52442L5.69614 7.42234C3.79823 9.42015 5.89592 14.7143 10.5908 19.4092C15.2856 24.104 20.5798 26.3017 22.5776 24.3038L24.4755 22.4059C25.1748 21.6068 25.1748 20.4081 24.4755 19.7089Z" fill="white"/>
<defs>
<linearGradient id="paint0_linear_1089_736" x1="15" y1="0" x2="15" y2="30" gradientUnits="userSpaceOnUse">
<stop stop-color="#4FD3D3"/>
<stop offset="1" stop-color="#5528A9"/>
</linearGradient>
</defs>
</svg>
