<svg width="477" height="370" viewBox="0 0 477 370" fill="none" xmlns="http://www.w3.org/2000/svg">
<g clip-path="url(#clip0_881_1923)">
<path d="M84.8201 95.9454C90.459 112.979 95.0298 130.345 98.5062 147.944C102.379 167.509 104.981 187.302 106.296 207.201C106.73 213.594 107.056 220.084 107.936 226.333C109.009 233.964 110.926 241.234 114.893 247.459C115.713 248.757 118.185 253.648 120.922 258.816L122.406 261.688C125.589 267.696 128.688 273.368 129.411 273.272C139.058 272.071 140.324 251.437 140.324 248.108C140.303 230.073 139.119 212.058 136.779 194.175C136.309 190.569 135.778 186.964 135.212 183.359V183.179C134.006 175.56 132.559 167.965 131.594 160.238C131.401 158.664 131.232 157.089 131.088 155.503C130.092 146.182 130.462 136.766 132.185 127.551C133.391 121.614 135.248 115.461 134.717 109.958C133.97 102.194 128.495 96.5943 125.071 90.0208C118.861 78.0036 119.56 62.8618 116.389 49.4024C114.507 41.3989 111.264 34.0083 108.02 26.6537L96.5046 0.492122C96.0222 -0.577415 93.6829 0.311866 93.5744 1.59771C91.8742 21.27 89.8243 41.0745 84.4584 61.4197C83.0355 66.8395 81.3594 72.3314 81.1182 77.5109C80.7806 84.1804 82.8667 90.0689 84.8201 95.9454Z" fill="#088E7E"/>
<path d="M66.1994 133.68C67.174 138.049 67.6913 142.507 67.7429 146.983C68.5723 162.694 70.5633 178.323 73.6996 193.742C74.0252 195.412 74.3869 197.071 74.7487 198.729C76.0188 204.521 77.4457 210.298 79.0294 216.058L79.1741 216.575C80.8381 222.427 83.515 228.736 93.234 232.065C95.4165 232.81 97.37 231.945 99.0581 230.286C99.825 229.512 100.512 228.662 101.108 227.751C103.785 223.749 105.521 218.365 106.172 216.935C109.151 210.242 110.996 203.416 109.995 196.674C108.922 189.668 104.75 182.938 103.399 175.956C102.193 169.815 103.194 163.615 104.436 157.39C105.762 150.78 107.39 144.171 107.004 137.585C106.402 127.25 100.879 117.312 95.3924 107.47C91.9679 101.329 88.5313 95.1882 84.962 89.0594C79.4394 79.5898 73.579 70.1682 66.8747 60.9029C65.5931 58.9717 63.8389 57.3978 61.7777 56.3297C59.7164 55.2616 57.4161 54.7345 55.0938 54.7981C55.0938 65.7979 55.0938 76.7977 55.0938 87.7976C55.0938 89.1795 55.0938 90.5615 55.0938 91.9435C55.0938 98.7934 55.0938 105.667 57.2281 112.373C59.6035 119.523 64.258 126.445 66.1994 133.68Z" fill="#088E7E"/>
<path d="M98.1914 17.052C98.1914 17.3284 98.6376 45.1604 102.412 75.9366C107.5 117.456 115.881 144.339 127.324 155.84C128.569 157.11 129.595 158.575 130.363 160.178C132.955 165.369 134.149 173.06 133.98 183.119C133.643 200.784 129 225.732 120.137 257.289C119.993 257.782 119.86 258.275 119.715 258.768L121.211 261.64L122.296 257.782C129.531 231.977 133.952 210.746 135.56 194.09C137.405 175.007 135.56 162.064 129.856 155.407C129.579 155.07 129.302 154.758 129 154.458C102.303 127.803 100.374 18.1335 100.362 17.0279C100.34 16.7474 100.21 16.4863 99.9982 16.3001C99.7865 16.1139 99.5104 16.0172 99.2284 16.0305C98.9573 16.0365 98.6988 16.1457 98.506 16.3356C98.3132 16.5256 98.2006 16.7819 98.1914 17.052Z" fill="#ABD0FF"/>
<path d="M62.9335 73.6894C69.8067 84.3848 76.7161 109.657 82.8296 138.306C87.6529 160.959 92.006 185.714 95.4426 207.033C96.7931 215.445 98.011 223.292 99.06 230.287C99.8269 229.512 100.514 228.662 101.11 227.751C100.049 220.781 98.855 213.03 97.4925 204.81C96.1299 196.59 94.6588 187.673 93.0671 178.72C90.559 164.58 88.0991 151.762 85.6874 140.265C78.344 105.307 71.4225 82.6543 65.0317 72.716C64.8503 72.486 64.5911 72.3299 64.3025 72.2768C64.0139 72.2237 63.7158 72.2773 63.4641 72.4276C62.9094 72.6919 62.6562 73.2447 62.9335 73.6894Z" fill="#7FB2FF"/>
<path d="M287.891 66.3711H183.467C170.481 66.3711 159.953 76.8627 159.953 89.8048V338.743C159.953 351.685 170.481 362.176 183.467 362.176H287.891C300.877 362.176 311.405 351.685 311.405 338.743V89.8048C311.405 76.8627 300.877 66.3711 287.891 66.3711Z" fill="#C8B6D2"/>
<path d="M300.252 368.161H171.108C166.56 368.158 162.2 366.357 158.983 363.153C155.766 359.95 153.956 355.605 153.949 351.073V77.4873C153.956 72.9539 155.765 68.608 158.982 65.4024C162.199 62.1968 166.559 60.3931 171.108 60.3867H300.252C304.801 60.3931 309.161 62.1968 312.378 65.4024C315.595 68.608 317.404 72.9539 317.411 77.4873V351.073C317.404 355.605 315.594 359.95 312.377 363.153C309.16 366.357 304.8 368.158 300.252 368.161ZM171.108 72.3559C169.743 72.3559 168.433 72.8965 167.467 73.8589C166.502 74.8212 165.959 76.1264 165.959 77.4873V351.073C165.962 352.432 166.506 353.734 167.472 354.693C168.437 355.653 169.745 356.192 171.108 356.192H300.252C301.615 356.192 302.923 355.653 303.888 354.693C304.854 353.734 305.398 352.432 305.401 351.073V77.4873C305.401 76.1264 304.858 74.8212 303.893 73.8589C302.927 72.8965 301.617 72.3559 300.252 72.3559H171.108Z" fill="#641594"/>
<path d="M249.368 64.7129H218.728C215.638 64.7129 213.133 67.2094 213.133 70.2889V72.428C213.133 75.5075 215.638 78.004 218.728 78.004H249.368C252.458 78.004 254.963 75.5075 254.963 72.428V70.2889C254.963 67.2094 252.458 64.7129 249.368 64.7129Z" fill="#7FB2FF"/>
<path d="M56.3859 154.085C60.4375 165.922 60.7269 177.795 63.9103 189.656C66.6595 199.883 71.5311 210.013 76.1132 220.132C86.5798 243.277 97.818 269.547 93.3927 292.392C92.1868 298.857 87.7253 303.4 78.2596 301.922C77.6687 301.837 77.0537 301.717 76.4388 301.585C75.8238 301.453 74.9556 301.225 74.1718 300.996C62.1136 297.487 56.0844 286.852 52.0449 279.245C47.4869 270.617 43.0374 261.964 38.7809 253.288C35.6939 246.955 32.7517 240.525 32.2574 234.144C31.8594 229.157 32.9567 224.35 32.7035 219.387C31.7991 201.914 14.5317 184.609 12.3492 167.04C11.3725 159.18 13.4827 151.633 12.7109 143.774C11.9633 136.155 8.52672 128.476 5.94626 120.833C0.90198 106.335 -0.948748 90.9235 0.520048 75.6482C0.652689 74.4465 2.71465 73.9658 4.13752 74.8791C7.15363 76.9971 9.70213 79.7087 11.6257 82.8466L35.8386 118.033C43.9297 129.81 52.1535 141.743 56.3859 154.085Z" fill="#30E2CD"/>
<path d="M7.64658 86.908C7.8998 87.4968 32.9689 147.127 55.8796 211.647C84.337 291.682 97.2755 343.765 94.4659 366.73C93.662 366.642 92.83 366.522 91.9699 366.37C94.9362 344.306 81.7807 291.31 53.6367 212.152C30.6658 147.751 5.68108 88.1578 5.42785 87.5569C5.35023 87.4172 5.30391 87.2623 5.29208 87.103C5.28026 86.9437 5.30322 86.7838 5.35937 86.6341C5.41552 86.4845 5.50355 86.3488 5.61737 86.2364C5.73119 86.1239 5.86811 86.0373 6.01871 85.9827C6.35628 85.9168 6.70635 85.9741 7.00514 86.1439C7.30394 86.3138 7.53157 86.5849 7.64658 86.908Z" fill="#ABD0FF"/>
<path d="M341.177 283.067C344.276 269.103 351.644 257.386 353.73 242.941C355.707 229.314 352.922 213.739 354.321 199.872C356.732 176.306 371.07 158.448 370.768 133.776C370.636 123.622 368.007 112.626 367.995 102.532C368.028 91.1689 371.38 80.0617 377.641 70.5656C378.461 69.3639 381.355 70.6618 381.717 72.4643C383.707 82.5348 384.816 92.389 385.913 102.231C387.65 117.846 389.394 133.468 391.147 149.099C392.594 162.041 394.029 175.092 392.027 186.689C390.664 194.596 387.71 201.746 387.204 210.014C386.299 223.762 392.111 240.057 389.736 253.132C387.819 263.743 380.632 271.471 378.353 281.914C374.977 297.404 382.537 318.122 375.097 331.184C370.165 339.885 357.745 336.808 349.425 325.416C338.995 311.188 338.645 294.52 341.177 283.067Z" fill="#30E2CD"/>
<path d="M377.944 284.64C383.382 278.427 390.75 273.332 393.342 265.497C395.669 258.491 394.114 249.538 393.776 241.222C392.703 214.171 404.629 193.573 416.976 173.445C430.747 150.828 445.048 128.524 463.557 108.647C464.45 107.686 468.742 110.053 468.598 111.423L465.523 138.919C463.304 158.783 461.085 178.672 455.623 196.89C445.82 229.601 425.622 256.76 418.978 291.094C416.759 302.522 415.951 314.672 412.225 325.307C409.416 333.346 404.605 351.745 387.542 350.147C367.091 348.224 367.091 328.011 366.633 320.8C365.813 306.38 369.587 294.158 377.944 284.64Z" fill="#30E2CD"/>
<path d="M358.263 327.555C358.508 327.528 358.735 327.417 358.906 327.242C359.078 327.067 359.183 326.837 359.204 326.593C367.536 282.033 372.974 238.182 378.28 193.43C378.286 193.366 378.286 193.302 378.28 193.238V188.779L378.377 187.578C378.726 183.576 379.052 179.802 379.052 175.632C380.812 155.612 382.259 132.094 379.824 109.465C379.751 108.78 379.269 108.264 378.726 108.396C378.433 108.485 378.184 108.683 378.032 108.949C377.879 109.215 377.835 109.528 377.906 109.826C380.318 132.19 378.859 155.491 377.123 175.428C377.123 175.428 377.123 175.524 377.123 175.572C377.123 179.622 376.809 183.347 376.459 187.289L376.363 188.491C376.357 188.539 376.357 188.587 376.363 188.635V193.069C371.069 237.738 365.631 281.505 357.323 325.921C357.246 326.219 357.276 326.535 357.408 326.814C357.54 327.092 357.766 327.316 358.046 327.447C358.112 327.495 358.185 327.532 358.263 327.555Z" fill="#ABD0FF"/>
<path d="M381.427 344.366C381.676 344.354 381.912 344.251 382.088 344.075C382.264 343.899 382.368 343.665 382.38 343.417C382.992 338.745 383.972 334.128 385.31 329.609C386.44 325.713 387.33 321.752 387.975 317.748C397.067 289.495 408.269 256.027 422.45 221.982C422.847 220.888 423.149 219.891 423.438 218.93C423.728 217.968 424.005 217.043 424.379 216.009C426.839 210.169 429.283 204.345 431.71 198.536C441.357 175.475 451.353 151.669 461.627 128.404C461.729 128.149 461.74 127.866 461.659 127.604C461.578 127.342 461.409 127.115 461.181 126.961C461.064 126.902 460.936 126.868 460.805 126.861C460.674 126.854 460.543 126.874 460.42 126.92C460.297 126.967 460.186 127.038 460.093 127.13C459.999 127.222 459.926 127.332 459.878 127.454C449.605 150.72 439.608 174.574 429.95 197.635C427.538 203.467 425.09 209.304 422.606 215.144C422.208 216.238 421.907 217.235 421.618 218.197C421.328 219.158 421.039 220.083 420.665 221.117C406.448 255.27 395.222 288.81 386.106 317.123C386.099 317.191 386.099 317.259 386.106 317.327C385.473 321.266 384.599 325.163 383.489 328.996C382.11 333.634 381.11 338.377 380.499 343.176C380.453 343.447 380.516 343.725 380.674 343.949C380.832 344.174 381.072 344.328 381.343 344.378L381.427 344.366Z" fill="#7FB2FF"/>
<path d="M295.535 275.664C295.535 275.664 283.609 278.176 281.62 279.269C279.63 280.363 278.484 283.812 278.484 283.812L281.644 286.383L287.757 282.622C287.757 282.622 293.63 284.533 296.644 282.129C299.659 279.726 295.535 275.664 295.535 275.664Z" fill="#EC9F90"/>
<path d="M328.977 234.276C320.186 231.043 319.716 237.965 319.716 237.965C319.716 237.965 318.112 251.953 319.463 263.382L295.539 275.627L296.648 282.069C296.648 282.069 326.505 278.668 329.483 275.339C332.136 272.383 334.547 250.571 335.042 245.801C335.411 244.647 335.546 243.432 335.44 242.226C335.335 241.02 334.99 239.847 334.425 238.775C333.861 237.703 333.089 236.754 332.154 235.981C331.218 235.209 330.138 234.629 328.977 234.276Z" fill="#001AAE"/>
<path d="M332.903 359.244H240.609V368.858H332.903V359.244Z" fill="#FCD17D"/>
<path d="M343.274 349.786H250.98V359.4H343.274V349.786Z" fill="#FCD17D"/>
<path d="M250.992 349.787L343.286 359.401H250.992V349.787Z" fill="#FFA600"/>
<path d="M343.286 349.787V359.401L250.992 349.787H343.286Z" fill="#D08904"/>
<path d="M261.497 349.786H259.121V359.376H261.497V349.786Z" fill="#FFD165"/>
<path d="M274.266 349.786H271.891V359.376H274.266V349.786Z" fill="#FFD165"/>
<path d="M288.532 349.786H286.156V359.376H288.532V349.786Z" fill="#FFD165"/>
<path d="M302.036 349.786H299.66V359.376H302.036V349.786Z" fill="#FFD165"/>
<path d="M317.809 349.786H315.434V359.376H317.809V349.786Z" fill="#FFD165"/>
<path d="M333.196 349.786H330.82V359.376H333.196V349.786Z" fill="#FFD165"/>
<path d="M333.145 359.076H240.852V368.69H333.145V359.076Z" fill="#FCD17D"/>
<path d="M240.852 359.076L333.145 368.69H240.852V359.076Z" fill="#FFA600"/>
<path d="M333.145 359.076V368.69L240.852 359.076H333.145Z" fill="#D08904"/>
<path d="M251.368 359.076H248.992V368.666H251.368V359.076Z" fill="#FFD165"/>
<path d="M264.125 359.076H261.75V368.666H264.125V359.076Z" fill="#FFD165"/>
<path d="M278.391 359.076H276.016V368.666H278.391V359.076Z" fill="#FFD165"/>
<path d="M291.907 359.076H289.531V368.666H291.907V359.076Z" fill="#FFD165"/>
<path d="M307.668 359.076H305.293V368.666H307.668V359.076Z" fill="#FFD165"/>
<path d="M323.067 359.076H320.691V368.666H323.067V359.076Z" fill="#FFD165"/>
<path d="M283.906 298.121C306.999 287.903 317.408 260.963 307.155 237.949C296.903 214.934 269.871 204.561 246.778 214.778C223.685 224.996 213.276 251.936 223.529 274.95C233.781 297.965 260.813 308.339 283.906 298.121Z" fill="#FFA600"/>
<path d="M259.159 302.979C284.426 302.979 304.908 282.566 304.908 257.386C304.908 232.205 284.426 211.792 259.159 211.792C233.893 211.792 213.41 232.205 213.41 257.386C213.41 282.566 233.893 302.979 259.159 302.979Z" fill="#FFB300"/>
<path d="M273.422 293.521C269.536 294.96 265.445 295.771 261.303 295.925C251.66 296.26 242.243 292.965 234.926 286.696C227.61 280.427 222.929 271.642 221.815 262.09C220.702 252.538 223.237 242.918 228.917 235.143C234.597 227.369 243.005 222.011 252.468 220.134C261.932 218.257 271.758 219.999 279.991 225.014C288.225 230.029 294.263 237.948 296.903 247.198C299.544 256.447 298.595 266.348 294.244 274.932C289.893 283.515 282.459 290.152 273.422 293.521ZM246.231 221.658C239.633 224.136 233.85 228.381 229.519 233.926C225.188 239.471 222.478 246.099 221.687 253.082C220.896 260.064 222.055 267.128 225.036 273.496C228.018 279.863 232.706 285.287 238.583 289.168C244.46 293.049 251.299 295.238 258.345 295.492C265.391 295.746 272.37 294.056 278.514 290.609C284.658 287.162 289.727 282.09 293.162 275.954C296.598 269.818 298.267 262.856 297.985 255.835C297.732 249.803 296.048 243.916 293.071 238.658C290.094 233.4 285.909 228.919 280.859 225.584C275.809 222.25 270.038 220.155 264.018 219.472C257.999 218.79 251.903 219.539 246.231 221.658Z" fill="#FFA600"/>
<path d="M272.918 273.308C263.633 276.781 255.674 274.306 250.61 267.24L271.7 259.344L269.807 254.345L247.957 262.529C247.74 262.048 247.523 261.556 247.33 261.039L247.161 260.546L269.807 252.062L267.925 247.063L245.823 255.343C244.291 245.561 249.127 237.954 258.568 234.421C261.863 233.111 265.411 232.552 268.95 232.786L268.552 227.21C266.599 226.97 262.367 227.102 256.41 229.337C243.568 234.144 237.117 245.224 239.287 257.794L234.223 259.693L236.116 264.68L240.65 262.986C240.734 263.226 240.794 263.454 240.891 263.695C241.06 264.139 241.253 264.548 241.433 264.98L236.116 266.975L237.997 271.963L243.905 269.751C250.646 280.435 262.065 283.259 273.581 278.945C279.393 276.757 283.505 273.933 285.35 271.951L282.239 267.552C279.57 270.1 276.395 272.061 272.918 273.308Z" fill="#D08904"/>
<path d="M221.473 330.078H129.18V339.692H221.473V330.078Z" fill="#FCD17D"/>
<path d="M211.661 339.524H119.367V349.138H211.661V339.524Z" fill="#FCD17D"/>
<path d="M207.645 348.981H115.352V358.595H207.645V348.981Z" fill="#FCD17D"/>
<path d="M214.29 358.427H121.996V368.041H214.29V358.427Z" fill="#FCD17D"/>
<path d="M221.427 329.742H129.133V339.356H221.427V329.742Z" fill="#FCD17D"/>
<path d="M129.133 329.742L221.427 339.356H129.133V329.742Z" fill="#FFA600"/>
<path d="M221.427 329.742V339.356L129.133 329.742H221.427Z" fill="#D08904"/>
<path d="M139.637 329.741H137.262V339.331H139.637V329.741Z" fill="#FFD165"/>
<path d="M152.407 329.741H150.031V339.331H152.407V329.741Z" fill="#FFD165"/>
<path d="M166.672 329.741H164.297V339.331H166.672V329.741Z" fill="#FFD165"/>
<path d="M180.176 329.742H177.801V339.332H180.176V329.742Z" fill="#FFD165"/>
<path d="M195.946 329.742H193.57V339.332H195.946V329.742Z" fill="#FFD165"/>
<path d="M211.336 329.741H208.961V339.331H211.336V329.741Z" fill="#FFD165"/>
<path d="M211.661 339.524H119.367V349.138H211.661V339.524Z" fill="#FCD17D"/>
<path d="M119.367 339.524L211.661 349.138H119.367V339.524Z" fill="#FFA600"/>
<path d="M211.661 339.524V349.138L119.367 339.524H211.661Z" fill="#D08904"/>
<path d="M129.883 339.523H127.508V349.113H129.883V339.523Z" fill="#FFD165"/>
<path d="M142.637 339.523H140.262V349.113H142.637V339.523Z" fill="#FFD165"/>
<path d="M156.903 339.523H154.527V349.113H156.903V339.523Z" fill="#FFD165"/>
<path d="M170.422 339.523H168.047V349.113H170.422V339.523Z" fill="#FFD165"/>
<path d="M186.192 339.524H183.816V349.113H186.192V339.524Z" fill="#FFD165"/>
<path d="M201.579 339.523H199.203V349.113H201.579V339.523Z" fill="#FFD165"/>
<path d="M207.645 349.306H115.352V358.919H207.645V349.306Z" fill="#FCD17D"/>
<path d="M115.352 349.306L207.645 358.919H115.352V349.306Z" fill="#FFA600"/>
<path d="M207.645 349.306V358.919L115.352 349.306H207.645Z" fill="#D08904"/>
<path d="M125.864 349.306H123.488V358.895H125.864V349.306Z" fill="#FFD165"/>
<path d="M138.625 349.306H136.25V358.895H138.625V349.306Z" fill="#FFD165"/>
<path d="M152.887 349.306H150.512V358.895H152.887V349.306Z" fill="#FFD165"/>
<path d="M166.407 349.306H164.031V358.895H166.407V349.306Z" fill="#FFD165"/>
<path d="M182.165 349.306H179.789V358.895H182.165V349.306Z" fill="#FFD165"/>
<path d="M197.563 349.306H195.188V358.895H197.563V349.306Z" fill="#FFD165"/>
<path d="M214.29 358.967H121.996V368.581H214.29V358.967Z" fill="#FCD17D"/>
<path d="M121.996 358.967L214.29 368.581H121.996V358.967Z" fill="#FFA600"/>
<path d="M214.29 358.967V368.581L121.996 358.967H214.29Z" fill="#D08904"/>
<path d="M132.508 358.967H130.133V368.557H132.508V358.967Z" fill="#FFD165"/>
<path d="M145.266 358.967H142.891V368.557H145.266V358.967Z" fill="#FFD165"/>
<path d="M159.532 358.967H157.156V368.557H159.532V358.967Z" fill="#FFD165"/>
<path d="M173.047 358.967H170.672V368.557H173.047V358.967Z" fill="#FFD165"/>
<path d="M188.809 358.967H186.434V368.557H188.809V358.967Z" fill="#FFD165"/>
<path d="M204.208 358.967H201.832V368.557H204.208V358.967Z" fill="#FFD165"/>
<path d="M330.917 370.071H312.456C312.295 370.086 312.133 370.05 311.994 369.968C311.854 369.887 311.744 369.764 311.679 369.616C311.614 369.469 311.597 369.305 311.63 369.147C311.663 368.989 311.745 368.846 311.865 368.737L320.945 360.578L320.137 356.78L327.372 355.915L328.493 360.434L330.917 370.071Z" fill="#D90000"/>
<path d="M328.445 360.362L320.957 360.518L319.703 354.822L327.444 354.053L328.445 360.362Z" fill="#EC9F90"/>
<path d="M383.741 370.072H365.34C365.173 370.072 365.009 370.022 364.87 369.929C364.73 369.836 364.622 369.703 364.559 369.548C364.495 369.394 364.48 369.224 364.514 369.06C364.548 368.896 364.63 368.746 364.749 368.63L373.829 359.797L373.021 355.687L380.256 354.738L381.378 359.629L383.741 370.072Z" fill="#D90000"/>
<path d="M381.332 359.569L373.819 359.737L373.023 355.615L380.198 354.678L381.332 359.569Z" fill="#EC9F90"/>
<path d="M358.252 263.586L358.735 263.995C358.735 263.995 367.332 279.208 366.898 292.343C366.611 300.124 367.202 307.912 368.659 315.561L383.743 352.49C383.743 352.49 378.173 358.498 372.312 356.72L354.153 322.266L344.639 294.362C344.639 294.362 332.472 311.006 325.008 317.195C325.008 317.195 328.143 325.223 330.868 354.449C330.868 354.449 320.172 356.924 317.532 355.758L309.332 315.765L333.328 276.336L330.181 268.357L358.252 263.586Z" fill="#FF3F6E"/>
<path d="M365.32 274.066C365.32 274.066 346.136 281.625 331.967 277.671L318.088 244.467C318.088 244.467 315.122 234.397 322.694 229.145C330.267 223.894 341.59 227.823 348.632 242.364C355.674 256.905 365.32 274.066 365.32 274.066Z" fill="#0037E6"/>
<path d="M292.858 263.635C292.858 263.635 280.679 263.094 278.485 263.635C276.29 264.176 274.312 267.24 274.312 267.24L276.724 270.521L283.585 268.406C283.585 268.406 288.794 271.723 292.315 270.136C295.836 268.55 292.858 263.635 292.858 263.635Z" fill="#EC9F90"/>
<path d="M313.853 211.444C312.68 211.535 311.515 211.179 310.595 210.447C309.675 209.715 309.068 208.663 308.897 207.502C307.92 203.116 310.561 200.496 313.853 201.806C313.853 201.806 312.382 196.77 317.471 196.999C318.914 197.027 320.326 197.425 321.572 198.153C322.818 198.881 323.855 199.915 324.585 201.157C324.585 201.157 330.518 197.888 333.158 204.233C335.799 210.578 330.084 220.649 330.084 220.649L325.646 223.833L313.853 211.444Z" fill="#D90000"/>
<path d="M313.274 209.448L311.742 224.554L317.313 225.347L319.954 231.909C319.954 231.909 326.538 232.353 328.081 227.967L324.126 221.057C324.126 221.057 329.395 215.481 324.343 215.048L322.148 216.478C322.148 216.478 319.616 215.709 321.268 211.984C322.92 208.259 313.274 209.448 313.274 209.448Z" fill="#EC9F90"/>
<path d="M335.606 231.873C327.924 226.561 325.73 233.147 325.73 233.147C325.73 233.147 320.665 246.282 319.098 257.686L292.859 263.587L292.316 270.088C292.316 270.088 322.076 274.246 325.802 271.758C329.106 269.559 336.92 249.046 338.596 244.551C339.242 243.525 339.677 242.382 339.876 241.187C340.075 239.992 340.035 238.769 339.757 237.59C339.479 236.411 338.968 235.298 338.256 234.317C337.543 233.336 336.642 232.505 335.606 231.873Z" fill="#3482FF"/>
<path d="M70.6377 268.07V274.787L68.0451 279.822L67.5387 269.343C67.5387 269.343 64.8738 267.072 66.0073 264.26C67.1408 261.448 70.6377 268.07 70.6377 268.07Z" fill="#EC9F90"/>
<path d="M62.0155 214.4C53.4421 214.904 60.1826 223.677 60.1826 223.677C60.1826 223.677 67.4176 234.348 75.2554 241.487L65.9947 264.319L70.6371 268.129C70.6371 268.129 89.3395 247.964 89.4118 243.878C89.4721 240.273 75.0987 222.331 72.5303 218.714C72.5303 218.714 68.0446 214.039 62.0155 214.4Z" fill="#001AAE"/>
<path d="M164.512 228.4C164.512 228.4 171.964 218.185 179.705 219.375L184.179 221.31C184.12 221.675 183.987 222.025 183.788 222.338C183.589 222.651 183.328 222.921 183.021 223.13C182.714 223.339 182.368 223.484 182.003 223.555C181.638 223.626 181.262 223.623 180.899 223.545C179.324 223.211 177.684 223.361 176.196 223.977L171.433 228.604L164.512 228.4Z" fill="#FFB0A3"/>
<path d="M60.8098 358.92L67.6589 359.064C67.9362 359.268 68.2859 358.92 68.7079 358.956L77.3899 367.236C77.5105 367.345 77.5934 367.49 77.6266 367.649C77.6598 367.808 77.6417 367.973 77.5747 368.121C77.5078 368.269 77.3955 368.392 77.254 368.473C77.1125 368.554 76.949 368.588 76.787 368.57H60.3516L60.8098 358.92Z" fill="#D90000"/>
<path d="M31.1223 358.92L37.9714 359.064C38.2487 359.268 38.6104 358.92 39.0325 358.956L47.7024 367.236C47.8218 367.345 47.9039 367.488 47.9372 367.645C47.9706 367.803 47.9534 367.967 47.8881 368.115C47.8228 368.262 47.7127 368.385 47.5734 368.467C47.4341 368.549 47.2725 368.585 47.1115 368.57H30.6641L31.1223 358.92Z" fill="#D90000"/>
<path d="M66.9731 258.035L71.8929 358.92L59.6055 359.882L55.566 311.152L53.5161 283.416L48.8858 308.46L40.8911 359.545H30.0508L33.9215 305.78L36.7552 262.349L66.9731 258.035Z" fill="#FF3F6E"/>
<path d="M44.1602 203.981L39.9519 203.14L37.082 188.191C37.082 188.191 39.1078 179.454 44.1602 179.959C49.2126 180.464 56.1582 176.137 59.5586 178.637C62.4888 180.788 61.9702 192.889 54.4459 193.731L44.1602 203.981Z" fill="#D90000"/>
<path d="M29.7148 218.654C29.7148 218.654 45.3906 211.443 66.9748 215.049V253.852C66.9748 253.852 68.663 259.068 67.8189 260.678C67.8189 260.678 50.9374 269.307 34.2729 265.173C33.9449 264.007 33.8507 262.788 33.9955 261.586C34.1404 260.384 34.5214 259.222 35.1169 258.167C35.1169 258.167 35.2858 228.736 29.7148 218.654Z" fill="#0037E6"/>
<path d="M44.0858 195.112C44.0858 195.112 41.7344 193.682 41.3124 195.112C40.8903 196.542 40.6733 198.946 42.6991 198.825L44.2546 202.551L42.6388 215.205C44.0868 216.363 45.9191 216.935 47.7711 216.808C49.6232 216.681 51.3596 215.864 52.6351 214.52L53.0571 205.507L57.9768 203.512L55.5652 189.38C55.5652 189.38 51.0795 193.442 46.8109 189.38L45.9548 197.504L44.2425 197.744L44.0858 195.112Z" fill="#EC9F90"/>
<path d="M123.091 230.479L147.943 233.074L166.923 224.182L171.385 228.604C171.385 228.604 155.793 241.823 151.862 242.953C147.931 244.082 122.669 241.15 122.669 241.15C121.122 240.789 119.714 239.984 118.619 238.835C117.524 237.686 116.79 236.244 116.508 234.685C115.615 229.253 123.091 230.479 123.091 230.479Z" fill="#0037E6"/>
<path d="M199.677 280.874C224.624 276.883 241.601 253.492 237.597 228.63C233.592 203.768 210.122 186.849 185.175 190.84C160.227 194.831 143.25 218.221 147.255 243.084C151.26 267.946 174.73 284.865 199.677 280.874Z" fill="#FFA600"/>
<path d="M191.779 279.513C216.87 276.548 234.799 253.875 231.825 228.869C228.851 203.863 206.1 185.995 181.009 188.959C155.918 191.923 137.989 214.597 140.963 239.603C143.937 264.608 166.689 282.477 191.779 279.513Z" fill="#FFB300"/>
<path d="M171.748 269.955C162.356 265.947 154.937 258.398 151.11 248.958C147.282 239.517 147.358 228.95 151.321 219.565C155.283 210.18 162.81 202.738 172.259 198.864C181.707 194.99 192.31 194.999 201.752 198.888C211.194 202.778 218.709 210.232 222.656 219.624C226.603 229.016 226.661 239.582 222.818 249.017C218.975 258.451 211.543 265.988 202.144 269.98C192.746 273.973 182.144 274.098 172.653 270.328L171.748 269.955ZM201.978 199.354L201.062 198.981C191.722 195.357 181.328 195.529 172.113 199.46C162.899 203.391 155.6 210.768 151.784 220.005C147.969 229.242 147.942 239.603 151.709 248.859C155.475 258.116 162.736 265.531 171.929 269.51L172.834 269.883C182.182 273.549 192.602 273.405 201.844 269.481C211.087 265.558 218.411 258.171 222.236 248.914C226.062 239.656 226.082 229.271 222.292 219.999C218.502 210.727 211.206 203.312 201.978 199.354Z" fill="#FFA600"/>
<path d="M173.832 260.126L176.653 253.552C173.124 252.035 170.085 249.572 167.875 246.438L171.312 242.737C173.337 245.742 176.188 248.103 179.523 249.538C184.166 251.509 188.434 250.163 190.026 246.45C191.618 242.737 189.954 239.576 185.95 235.634C180.404 230.191 177.57 225.456 179.994 219.784C182.297 214.388 187.916 211.912 194.343 213.499L197.152 206.913L201.204 208.632L198.503 214.953C201.471 216.244 204.057 218.271 206.015 220.841L202.555 224.446C200.709 221.878 198.183 219.873 195.259 218.654C190.231 216.515 187.06 218.654 185.938 221.31C184.491 224.699 186.191 227.415 190.87 232.125C196.429 237.713 198.382 242.544 195.898 248.337C193.704 253.48 188.048 256.749 180.85 255.03L177.956 261.796L173.832 260.126Z" fill="#D08904"/>
<path d="M97.1409 368.713H112.817C112.531 367.763 111.992 366.909 111.257 366.24C110.523 365.571 109.62 365.113 108.645 364.916C107.394 364.642 106.242 364.031 105.316 363.149C104.555 362.45 103.904 361.64 103.387 360.746C103.387 360.746 112.153 328.299 115.759 317.291L108.054 308.663L103.435 313.001C103.435 313.001 100.095 343.357 96.2004 360.638C95.8145 362.404 95.4046 364.039 94.9946 365.445C94.8563 365.801 94.8051 366.185 94.8453 366.564C94.8855 366.944 95.0159 367.309 95.2257 367.628C95.4355 367.948 95.7187 368.213 96.0517 368.402C96.3848 368.59 96.7582 368.697 97.1409 368.713Z" fill="#FFB0A3"/>
<path d="M129.543 325.512L135.572 361.564L136.392 366.467C136.464 367.061 136.746 367.611 137.188 368.016C137.63 368.422 138.203 368.656 138.804 368.678H151.067C151.067 368.678 151.368 365.481 147.341 364.664C146.518 364.492 145.743 364.139 145.074 363.631C144.057 362.781 143.22 361.737 142.614 360.561C142.007 359.385 141.642 358.099 141.541 356.781C141.541 354.822 140.335 320.873 140.335 320.873L129.543 325.512Z" fill="#FFB0A3"/>
<path d="M116.57 192.216C116.57 192.216 129.69 192.288 129.931 200.147C130.172 208.007 123.781 217.728 125.107 221.033C126.434 224.338 126.229 242.568 108.226 244.275C90.2229 245.981 87.7268 233.856 92.9842 224.747C98.2416 215.638 108.069 194.078 116.57 192.216Z" fill="#001AAE"/>
<path d="M136.778 256.388L139.371 272.732L143.772 325.523C143.772 325.523 124.623 340.161 104.486 332.169C100.705 329.427 96.0221 328.212 91.3789 328.768L109.237 273.741C109.237 273.741 113.831 257.518 119.053 255.343C128.108 251.545 136.778 256.388 136.778 256.388Z" fill="#FF3F6E"/>
<path d="M112.023 240.285L119.053 255.283C119.053 255.283 129.544 259.176 136.767 256.292L138.515 240.754C138.515 240.754 135.609 236.536 132.33 231.849C130.207 228.809 123.491 228.244 120.681 230.708L112.023 240.285Z" fill="#001AAE"/>
<path d="M157.508 245.812C157.508 245.812 168.083 238.854 174.92 242.688L178.417 246.065C178.232 246.386 177.984 246.666 177.687 246.889C177.39 247.112 177.051 247.272 176.69 247.359C176.329 247.447 175.953 247.461 175.587 247.399C175.221 247.338 174.87 247.203 174.558 247.002C173.196 246.15 171.607 245.73 170 245.8L163.911 248.468L157.508 245.812Z" fill="#FFB0A3"/>
<path d="M134.789 359.063L141.602 359.256C141.879 359.472 142.241 359.124 142.663 359.16L151.345 367.44C151.461 367.55 151.539 367.693 151.57 367.85C151.6 368.006 151.581 368.168 151.514 368.314C151.448 368.459 151.338 368.58 151.2 368.66C151.062 368.74 150.902 368.776 150.742 368.761H133.812L134.789 359.063Z" fill="#D90000"/>
<path d="M96.1793 359.063L103.016 359.256C103.294 359.472 103.655 359.124 104.065 359.16L112.747 367.44C112.862 367.549 112.94 367.691 112.97 367.847C113.001 368.002 112.983 368.163 112.918 368.307C112.853 368.452 112.745 368.573 112.609 368.654C112.473 368.736 112.315 368.773 112.156 368.761H94.25L96.1793 359.063Z" fill="#D90000"/>
<path d="M129.928 200.159C129.928 200.159 131.351 203.115 131.941 211.516C132.532 219.916 131.483 219.279 131.483 219.279L127.311 220.601L125.261 230.286L114.734 231.789C116.518 230.501 117.981 228.823 119.012 226.883C120.042 224.944 120.613 222.794 120.679 220.601C120.884 213.09 116.676 216.695 117.568 211.287C118.46 205.879 121.101 211.443 121.101 211.443C121.101 211.443 128.107 209.665 129.928 200.159Z" fill="#EC9F90"/>
<path d="M122.31 231.055L140.397 244.37L161.294 242.688L163.911 248.396C163.911 248.396 144.618 255.318 140.578 254.994C136.539 254.669 113.881 243.096 113.881 243.096C112.759 242.043 111.868 240.768 111.266 239.353C110.664 237.938 110.364 236.413 110.384 234.877C110.3 230.07 113.821 229.072 116.715 229.108C118.739 229.156 120.696 229.837 122.31 231.055Z" fill="#3482FF"/>
<path d="M29.712 218.653C29.712 218.653 17.0629 242.688 22.2479 260.329C22.2479 260.329 32.4492 269.631 57.9765 253.876L55.5648 245.945L33.2812 249.682C33.2812 249.682 38.2251 225.419 29.712 218.653Z" fill="#001AAE"/>
<path d="M55.5898 245.945C57.8936 244.631 60.3993 243.705 63.0057 243.205C66.9728 242.532 63.0057 244.575 63.0057 244.575C65.4868 243.796 68.0466 243.292 70.6385 243.073C74.7624 242.736 65.7188 251.353 65.7188 251.353L57.6759 252.891L55.5898 245.945Z" fill="#EC9F90"/>
<path d="M269.697 115.426L269.552 115.57V123.79H200.555V135.326H269.552V143.546L269.697 143.678L284.842 129.558L269.697 115.426Z" fill="#3482FF"/>
<path d="M201.434 175.343L201.591 175.211V166.991H270.588V155.455H201.591V147.235L201.434 147.091L186.301 161.223L201.434 175.343Z" fill="#3482FF"/>
</g>
<defs>
<clipPath id="clip0_881_1923">
<rect width="477" height="370" fill="white"/>
</clipPath>
</defs>
</svg>
