<svg width="101" height="100" viewBox="0 0 101 100" fill="none" xmlns="http://www.w3.org/2000/svg">
<g clip-path="url(#clip0_960_4576)">
<path d="M47.6547 37.5024V20.3315C51.6721 19.2993 54.6498 15.6467 54.6498 11.3116C54.6498 6.17704 50.4728 2 45.3383 2C40.2041 2 36.027 6.17704 36.027 11.3116C36.027 15.6467 39.0047 19.299 43.0218 20.3312V37.5021C38.1495 38.2353 34.0126 41.2439 31.7311 45.408L21.5417 37.4869C21.7976 36.7673 21.9282 36.009 21.9278 35.2452C21.9278 31.542 18.9148 28.529 15.2116 28.529C11.5083 28.529 8.4954 31.542 8.4954 35.2452C8.4954 38.9485 11.5083 41.9614 15.2116 41.9614C16.4384 41.9614 17.5883 41.6291 18.5791 41.0524L30.0966 50.006C29.9226 50.9385 29.8345 51.8851 29.8334 52.8337C29.8334 56.2744 30.9614 59.4556 32.8649 62.0306L19.8424 75.0532C19.5184 75.3771 19.2978 75.7899 19.2085 76.2393C19.1191 76.6886 19.165 77.1544 19.3404 77.5776C19.5157 78.0009 19.8126 78.3627 20.1936 78.6172C20.5745 78.8717 21.0224 79.0075 21.4806 79.0075C21.7849 79.0079 22.0862 78.9481 22.3674 78.8317C22.6485 78.7152 22.9039 78.5444 23.1188 78.3289L36.1413 65.3064C38.1668 66.807 40.5292 67.7884 43.0218 68.1646V85.3738C40.4564 86.3195 38.6221 88.7885 38.6221 91.6779C38.6221 95.3812 41.635 98.3941 45.3383 98.3941C49.0415 98.3941 52.0544 95.3812 52.0544 91.6779C52.0544 88.7882 50.2201 86.3192 47.6547 85.3738V68.1649C55.1094 67.0434 60.8431 60.596 60.8431 52.834C60.8431 45.0714 55.1091 38.6239 47.6547 37.5024ZM15.2116 37.3288C14.0626 37.3288 13.1283 36.3942 13.1283 35.2455C13.1283 34.0969 14.0626 33.1623 15.2116 33.1623C16.3606 33.1623 17.2949 34.0969 17.2949 35.2455C17.2949 36.3942 16.3603 37.3288 15.2116 37.3288ZM40.6596 11.3116C40.6596 8.73164 42.7583 6.63292 45.3379 6.63292C47.9176 6.63292 50.0166 8.73164 50.0166 11.3116C50.0166 13.8915 47.9176 15.9902 45.3379 15.9902C42.7583 15.9902 40.6596 13.8915 40.6596 11.3116ZM45.3383 93.7612C44.7859 93.7606 44.2564 93.541 43.8658 93.1504C43.4752 92.7598 43.2556 92.2303 43.255 91.6779C43.255 90.6726 43.9706 89.8313 44.9194 89.637C45.0553 89.662 45.1949 89.6768 45.3383 89.6768C45.4816 89.6768 45.6212 89.662 45.7571 89.637C46.7059 89.8313 47.4215 90.6726 47.4215 91.6779C47.4209 92.2303 47.2012 92.7598 46.8106 93.1503C46.4201 93.5409 45.8906 93.7606 45.3383 93.7612ZM45.3383 63.7053C39.3436 63.7053 34.4666 58.828 34.4666 52.8333C34.4666 51.7755 34.6214 50.7535 34.9043 49.7858C34.9194 49.7379 34.9336 49.6904 34.9454 49.6419C36.3121 45.1998 40.4536 41.9614 45.3383 41.9614C51.3329 41.9614 56.2102 46.8387 56.2102 52.8333C56.2102 58.8284 51.3329 63.7053 45.3383 63.7053ZM91.1884 30.3334C86.0539 30.3334 81.8769 34.5105 81.8769 39.645C81.8769 39.8843 81.8889 40.1206 81.9068 40.3553L65.1548 46.0671C64.6358 46.2445 64.1965 46.6002 63.9151 47.0711C63.6337 47.5419 63.5285 48.0973 63.6181 48.6384C63.7078 49.1796 63.9865 49.6714 64.4047 50.0263C64.8229 50.3812 65.3534 50.5763 65.9019 50.5768C66.1563 50.5767 66.409 50.5346 66.6497 50.4523L83.4011 44.7409C85.0665 47.2772 87.9343 48.9568 91.1888 48.9568C96.323 48.9568 100.5 44.7798 100.5 39.6453C100.5 34.5108 96.3226 30.3334 91.1884 30.3334ZM91.1884 44.3239C88.6085 44.3239 86.5098 42.2252 86.5098 39.6453C86.5098 37.0654 88.6088 34.9666 91.1884 34.9666C93.7681 34.9666 95.8668 37.0654 95.8668 39.6453C95.8668 42.2249 93.7681 44.3239 91.1884 44.3239ZM10.8116 78.0485C5.67704 78.0485 1.5 82.2259 1.5 87.3601C1.5 92.4946 5.67704 96.6716 10.8116 96.6716C15.9458 96.6716 20.1228 92.4946 20.1228 87.3601C20.1231 82.2259 15.9458 78.0485 10.8116 78.0485ZM10.8116 92.039C8.23164 92.039 6.13292 89.9403 6.13292 87.3604C6.13292 84.7804 8.23195 82.6817 10.8116 82.6817C13.3912 82.6817 15.4899 84.7804 15.4899 87.3604C15.4902 89.94 13.3915 92.039 10.8116 92.039Z" fill="url(#paint0_linear_960_4576)"/>
</g>
<defs>
<linearGradient id="paint0_linear_960_4576" x1="51" y1="2" x2="51" y2="98.3941" gradientUnits="userSpaceOnUse">
<stop stop-color="#4FD3D3"/>
<stop offset="1" stop-color="#5528A9"/>
</linearGradient>
<clipPath id="clip0_960_4576">
<rect width="100" height="100" fill="white" transform="translate(0.5)"/>
</clipPath>
</defs>
</svg>
