<svg width="640" height="478" viewBox="0 0 640 478" fill="none" xmlns="http://www.w3.org/2000/svg">
<g clip-path="url(#clip0_966_3226)">
<path d="M623.064 244.791V212.728H610.865C609.424 207.199 607.226 201.895 604.332 196.968L612.925 188.36L590.265 165.685L581.657 174.278C576.731 171.383 571.427 169.184 565.897 167.745V155.591H533.878V167.745C528.364 169.19 523.076 171.388 518.163 174.278L509.555 165.685L486.879 188.36L495.473 196.968C492.585 201.898 490.387 207.201 488.939 212.728H476.785V244.791H488.939C490.387 250.318 492.585 255.621 495.473 260.551L486.879 269.159L509.555 291.819L518.163 283.226C523.095 286.112 528.397 288.315 533.922 289.774V301.928H565.971V289.774C571.497 288.318 576.799 286.115 581.73 283.226L590.338 291.819L613.014 269.159L604.42 260.551C607.283 255.619 609.452 250.316 610.865 244.791H623.064ZM549.917 256.563C544.422 256.566 539.049 254.939 534.479 251.888C529.908 248.837 526.345 244.499 524.24 239.423C522.135 234.347 521.583 228.761 522.653 223.371C523.723 217.981 526.368 213.029 530.253 209.142C534.137 205.256 539.088 202.608 544.477 201.535C549.867 200.462 555.453 201.011 560.53 203.114C565.608 205.216 569.947 208.777 573.001 213.346C576.054 217.915 577.684 223.286 577.684 228.782C577.672 236.141 574.742 243.195 569.537 248.397C564.332 253.6 557.276 256.526 549.917 256.533V256.563Z" fill="#A2C7EB"/>
<path d="M526.181 325.118L520.089 309.197L514.056 311.507C512.292 309.04 510.192 306.831 507.817 304.944L510.451 299.058L494.883 292.142L492.249 298.028C489.259 297.525 486.213 297.441 483.2 297.778L480.875 291.745L464.983 297.852L467.293 303.87C464.829 305.644 462.621 307.748 460.73 310.124L454.844 307.49L447.914 323.043L453.8 325.677C453.309 328.674 453.229 331.723 453.564 334.741L447.531 337.052L453.638 352.958L459.656 350.648C461.429 353.108 463.528 355.316 465.895 357.211L463.276 363.097L478.829 370.012L481.463 364.127C484.458 364.63 487.509 364.714 490.528 364.377L492.838 370.41L508.744 364.303L506.39 358.3C508.855 356.522 511.068 354.418 512.967 352.046L518.853 354.68L525.784 339.126L519.898 336.492C520.394 333.497 520.478 330.447 520.148 327.428L526.181 325.118ZM492.146 344.865C489.432 345.896 486.473 346.1 483.643 345.453C480.812 344.806 478.237 343.336 476.24 341.228C474.243 339.12 472.915 336.468 472.422 333.607C471.929 330.746 472.294 327.802 473.47 325.148C474.646 322.493 476.581 320.246 479.032 318.689C481.482 317.132 484.339 316.334 487.242 316.397C490.144 316.46 492.964 317.381 495.345 319.042C497.726 320.704 499.562 323.033 500.622 325.736C501.332 327.547 501.676 329.482 501.634 331.427C501.592 333.373 501.165 335.29 500.376 337.069C499.588 338.848 498.455 340.453 497.042 341.792C495.629 343.13 493.965 344.174 492.146 344.865Z" stroke="#A2C7EB" stroke-miterlimit="10"/>
<path d="M474.091 269.349L469.971 258.608L465.895 260.167C464.7 258.511 463.284 257.026 461.686 255.753L463.452 251.765L452.946 247.086L451.165 251.074C449.143 250.735 447.083 250.676 445.044 250.897L443.484 246.836L432.743 250.956L434.302 255.017C432.649 256.221 431.164 257.642 429.888 259.24L425.9 257.46L421.192 267.996L425.179 269.776C424.838 271.799 424.783 273.86 425.017 275.897L420.941 277.457L425.062 288.199L429.137 286.639C430.332 288.296 431.748 289.781 433.346 291.054L431.58 295.041L442.086 299.72L443.867 295.733C445.89 296.067 447.95 296.121 449.988 295.895L451.548 299.971L462.29 295.851L460.774 291.76C462.431 290.565 463.916 289.149 465.188 287.551L469.176 289.317L473.855 278.811L469.868 277.03C470.209 275.008 470.263 272.947 470.03 270.909L474.091 269.349ZM451.092 282.71C449.252 283.414 447.245 283.557 445.324 283.121C443.403 282.685 441.655 281.689 440.3 280.259C438.945 278.829 438.045 277.03 437.712 275.088C437.38 273.147 437.63 271.15 438.432 269.351C439.234 267.552 440.551 266.031 442.217 264.98C443.884 263.93 445.824 263.396 447.793 263.448C449.762 263.5 451.672 264.134 453.28 265.271C454.889 266.408 456.124 267.996 456.831 269.835C457.774 272.304 457.7 275.046 456.624 277.46C455.548 279.874 453.559 281.762 451.092 282.71Z" stroke="#A2C7EB" stroke-miterlimit="10"/>
<path d="M470.353 81.2515C470.353 91.2722 467.381 101.068 461.813 109.4C456.246 117.731 448.333 124.225 439.074 128.059C429.816 131.893 419.629 132.896 409.801 130.94C399.973 128.984 390.946 124.157 383.861 117.07C376.776 109.983 371.952 100.955 369.999 91.1263C368.046 81.2977 369.051 71.1107 372.888 61.8535C376.725 52.5964 383.221 44.685 391.554 39.1199C399.887 33.5548 409.684 30.586 419.705 30.5889C426.359 30.5831 432.949 31.8896 439.097 34.4338C445.246 36.978 450.832 40.7097 455.536 45.4156C460.241 50.1214 463.971 55.7088 466.513 61.858C469.056 68.0072 470.36 74.5974 470.353 81.2515Z" fill="#2882A9" stroke="#0097D8" stroke-miterlimit="10"/>
<path d="M421.746 81.0142C430.836 79.8917 437.294 71.613 436.172 62.5233C435.049 53.4336 426.771 46.9749 417.681 48.0974C408.591 49.2199 402.133 57.4986 403.255 66.5883C404.378 75.678 412.656 82.1367 421.746 81.0142Z" fill="white"/>
<path d="M451.106 114.61C442.16 121.672 431.095 125.513 419.698 125.513C408.3 125.513 397.235 121.672 388.289 114.61C391.526 100.352 394.513 88.1237 397.603 84.9306C402.018 80.5162 413.628 78 419.675 78C425.723 78 437.922 81.0901 440.173 83.3414C444.764 87.9324 448.722 100.572 451.106 114.61Z" fill="white"/>
<path d="M346.898 206.195V181.18C346.898 177.902 348.201 174.758 350.519 172.44C352.837 170.122 355.981 168.819 359.259 168.819H438.071C439.697 168.814 441.31 169.129 442.814 169.748C444.319 170.366 445.687 171.276 446.839 172.424C447.992 173.572 448.906 174.937 449.53 176.439C450.154 177.942 450.475 179.553 450.475 181.18V206.195C450.475 209.473 449.173 212.617 446.855 214.935C444.537 217.253 441.393 218.555 438.115 218.555H359.244C355.968 218.551 352.828 217.247 350.514 214.93C348.199 212.612 346.898 209.47 346.898 206.195Z" fill="#0097D8"/>
<path d="M380.183 204.826L342.043 241.981L403.859 210.741" fill="#0097D8"/>
<path d="M356.465 180.487V180.355C356.465 179.867 356.659 179.399 357.004 179.054C357.349 178.709 357.816 178.516 358.304 178.516H397.269C397.756 178.516 398.224 178.709 398.569 179.054C398.914 179.399 399.108 179.867 399.108 180.355V180.487C399.108 180.975 398.914 181.443 398.569 181.788C398.224 182.133 397.756 182.327 397.269 182.327H358.304C357.816 182.327 357.349 182.133 357.004 181.788C356.659 181.443 356.465 180.975 356.465 180.487Z" fill="white"/>
<path d="M400.855 180.487V180.355C400.855 179.867 401.049 179.399 401.394 179.054C401.739 178.709 402.207 178.516 402.695 178.516H436.7C437.188 178.516 437.656 178.709 438.001 179.054C438.346 179.399 438.54 179.867 438.54 180.355V180.487C438.54 180.975 438.346 181.443 438.001 181.788C437.656 182.133 437.188 182.327 436.7 182.327H402.695C402.207 182.327 401.739 182.133 401.394 181.788C401.049 181.443 400.855 180.975 400.855 180.487Z" fill="white"/>
<path d="M386.012 188.86V188.728C386.012 188.24 386.206 187.772 386.55 187.427C386.895 187.082 387.363 186.889 387.851 186.889H436.704C437.192 186.889 437.659 187.082 438.004 187.427C438.349 187.772 438.543 188.24 438.543 188.728V188.86C438.543 189.348 438.349 189.816 438.004 190.161C437.659 190.506 437.192 190.7 436.704 190.7H387.851C387.363 190.7 386.895 190.506 386.55 190.161C386.206 189.816 386.012 189.348 386.012 188.86Z" fill="white"/>
<path d="M356.465 188.86V188.728C356.465 188.24 356.659 187.772 357.004 187.427C357.349 187.082 357.816 186.889 358.304 186.889H380.126C380.614 186.889 381.082 187.082 381.427 187.427C381.772 187.772 381.965 188.24 381.965 188.728V188.86C381.965 189.348 381.772 189.816 381.427 190.161C381.082 190.506 380.614 190.7 380.126 190.7H358.304C357.816 190.7 357.349 190.506 357.004 190.161C356.659 189.816 356.465 189.348 356.465 188.86Z" fill="white"/>
<path d="M392.793 197.233V197.101C392.793 196.613 392.987 196.145 393.332 195.8C393.677 195.455 394.144 195.262 394.632 195.262H436.702C437.189 195.262 437.657 195.455 438.002 195.8C438.347 196.145 438.541 196.613 438.541 197.101V197.233C438.541 197.721 438.347 198.189 438.002 198.534C437.657 198.879 437.189 199.073 436.702 199.073H394.632C394.144 199.073 393.677 198.879 393.332 198.534C392.987 198.189 392.793 197.721 392.793 197.233Z" fill="white"/>
<path d="M356.465 197.233V197.101C356.465 196.613 356.659 196.145 357.004 195.8C357.349 195.455 357.816 195.262 358.304 195.262H387.366C387.853 195.262 388.321 195.455 388.666 195.8C389.011 196.145 389.205 196.613 389.205 197.101V197.233C389.205 197.721 389.011 198.189 388.666 198.534C388.321 198.879 387.853 199.073 387.366 199.073H358.304C357.816 199.073 357.349 198.879 357.004 198.534C356.659 198.189 356.465 197.721 356.465 197.233Z" fill="white"/>
<path d="M356.465 205.606V205.473C356.465 204.985 356.659 204.517 357.004 204.173C357.349 203.828 357.816 203.634 358.304 203.634H369.09C369.578 203.634 370.046 203.828 370.391 204.173C370.736 204.517 370.929 204.985 370.929 205.473V205.606C370.929 206.093 370.736 206.561 370.391 206.906C370.046 207.251 369.578 207.445 369.09 207.445H358.304C357.816 207.445 357.349 207.251 357.004 206.906C356.659 206.561 356.465 206.093 356.465 205.606Z" fill="white"/>
<path d="M374.738 205.606V205.473C374.738 204.985 374.932 204.517 375.277 204.173C375.622 203.828 376.09 203.634 376.578 203.634H436.702C437.19 203.634 437.657 203.828 438.002 204.173C438.347 204.517 438.541 204.985 438.541 205.473V205.606C438.541 206.093 438.347 206.561 438.002 206.906C437.657 207.251 437.19 207.445 436.702 207.445H376.578C376.09 207.445 375.622 207.251 375.277 206.906C374.932 206.561 374.738 206.093 374.738 205.606Z" fill="white"/>
<path d="M152.349 170.691C163.703 146.288 153.124 117.3 128.72 105.947C104.317 94.593 75.3294 105.172 63.9757 129.576C52.622 153.98 63.2011 182.967 87.6048 194.32C112.009 205.674 140.996 195.095 152.349 170.691Z" fill="#0097D8"/>
<path d="M100.572 185.244C106.729 183.082 109.968 176.338 107.806 170.181C105.643 164.024 98.8993 160.785 92.7422 162.947C86.5851 165.109 83.3466 171.854 85.5088 178.011C87.671 184.168 94.4152 187.406 100.572 185.244Z" fill="white"/>
<path d="M90.4801 178.31L89.9062 170.835L96.1158 166.582L102.885 169.834L103.458 177.324L97.2489 181.576L90.4801 178.31Z" fill="#0097D8"/>
<path d="M123.624 137.377C129.769 135.181 132.97 128.418 130.773 122.273C128.576 116.129 121.814 112.928 115.669 115.124C109.524 117.321 106.324 124.083 108.52 130.228C110.717 136.373 117.479 139.574 123.624 137.377Z" fill="white"/>
<path d="M113.789 129.766L114.201 120.246L121.382 113.963L128.151 117.215L127.739 126.735L120.558 133.018L113.789 129.766Z" fill="#0097D8"/>
<path d="M104.855 168.613L95.8203 164.199L102.501 148.807C102.927 147.821 103.384 146.865 103.884 145.864L111.727 131.149L120.762 135.49L114.317 150.661C113.816 151.838 113.272 152.986 112.669 154.104L104.855 168.613Z" fill="white"/>
<path d="M142.012 176.367C143.763 175.573 171.721 176.838 171.721 176.838L151.562 158.342L142.012 176.367Z" fill="#0097D8"/>
<path d="M265.415 67.7429C275.917 43.4643 264.748 15.2696 240.469 4.76835C216.191 -5.73292 187.996 5.43584 177.495 29.7145C166.993 53.9931 178.162 82.1878 202.441 92.689C226.719 103.19 254.914 92.0215 265.415 67.7429Z" fill="#0145AB"/>
<path d="M223.06 7.91406H219.867V48.144H223.06V7.91406Z" fill="white"/>
<path d="M186.116 71.3569L187.934 73.9824L221.46 50.7763L219.643 48.1508L186.116 71.3569Z" fill="white"/>
<path d="M225.872 48.7474C225.872 49.6205 225.613 50.474 225.128 51.1999C224.643 51.9259 223.953 52.4917 223.147 52.8258C222.34 53.1599 221.452 53.2473 220.596 53.077C219.74 52.9067 218.953 52.4862 218.336 51.8689C217.719 51.2515 217.298 50.4649 217.128 49.6086C216.957 48.7523 217.045 47.8647 217.379 47.0581C217.713 46.2515 218.279 45.562 219.005 45.077C219.731 44.5919 220.584 44.333 221.457 44.333C222.628 44.333 223.751 44.7981 224.579 45.626C225.407 46.4538 225.872 47.5766 225.872 48.7474Z" fill="white"/>
<path d="M351.504 373.073C348.664 329.283 367.823 283.961 400.062 258.034C401.092 302.046 382.125 346.587 351.504 373.073Z" fill="#48BE97"/>
<path d="M394.823 269.82C381.159 295.312 369.418 321.789 359.699 349.029C347.824 382.24 338.48 417.526 318.145 445.366" stroke="#6F8BBF" stroke-miterlimit="10" stroke-linecap="round"/>
<path d="M341.32 400.619C357.654 364.082 390.07 336.478 425.812 328.664C410.597 367.82 376.371 397.691 341.32 400.619Z" fill="#48BE97"/>
<path d="M417.045 336.713C392.638 358.196 367.815 379.072 342.574 399.339" stroke="#6F8BBF" stroke-miterlimit="10" stroke-linecap="round"/>
<path d="M331.684 432.447C353.505 399.854 393.765 382.844 427.079 392.143C402.579 424.324 362.187 441.379 331.684 432.447Z" fill="#48BE97"/>
<path d="M419.09 394.542C390.914 412.259 360.128 425.437 327.859 433.595" stroke="#6F8BBF" stroke-miterlimit="10" stroke-linecap="round"/>
<path d="M343.471 389.54C350.446 352.841 339.984 311.934 316.691 284.874C307.141 320.969 316.249 363.2 343.471 389.54Z" fill="#48BE97"/>
<path d="M319.086 294.232C323.405 327.635 331.954 360.353 344.528 391.599" stroke="#6F8BBF" stroke-miterlimit="10" stroke-linecap="round"/>
<path d="M331.491 420.793C328.548 383.065 309.184 347.632 280.902 328.091C282.506 347.792 287.718 367.03 296.279 384.845C305.976 404.946 320.22 417.703 331.491 420.793Z" fill="#36A871"/>
<path d="M285.098 335.684C295.979 366.697 311.887 395.709 332.185 421.558" stroke="#6F8BBF" stroke-miterlimit="10" stroke-linecap="round"/>
<path d="M549.902 411.743C565.338 371.587 600.845 339.009 640 329.091C622.843 368.703 587.822 400.634 549.902 411.743Z" fill="#48BE97"/>
<path d="M630.508 337.435C607.973 354.574 586.744 373.368 566.999 393.659C542.897 418.409 520.163 446.014 490.777 462.524" stroke="#6F8BBF" stroke-miterlimit="10" stroke-linecap="round"/>
<path d="M529.609 432.124C559.039 406.24 598.989 394.881 633.775 402.503C604.286 431.182 561.79 443.822 529.609 432.124Z" fill="#48BE97"/>
<path d="M622.726 406.107C592.316 415.289 561.817 423.755 531.23 431.505" stroke="#6F8BBF" stroke-miterlimit="10" stroke-linecap="round"/>
<path d="M508.039 456.549C540.691 436.42 583.246 437.7 608.879 459.581C574.079 478.239 531.406 476.944 508.039 456.549Z" fill="#48BE97"/>
<path d="M600.859 458.404C568.706 462.687 536.078 461.857 504.184 455.946" stroke="#6F8BBF" stroke-miterlimit="10" stroke-linecap="round"/>
<path d="M536.054 423.133C557.258 393.292 564.777 352.576 555.286 318.968C532.051 347.191 522.781 388.553 536.054 423.133Z" fill="#48BE97"/>
<path d="M553.566 328.326C543.678 359.833 537.82 392.465 536.129 425.443" stroke="#48BE97" stroke-miterlimit="10" stroke-linecap="round"/>
<path d="M512.658 446.044C525.489 411.229 522.958 371.764 505.948 342.806C499.294 361.002 496.018 380.261 496.28 399.634C496.589 421.544 503.947 438.686 512.658 446.044Z" fill="#A2C7EB"/>
<path d="M506.509 351.354C503.417 383.398 505.589 415.732 512.939 447.073" stroke="#6F8BBF" stroke-miterlimit="10" stroke-linecap="round"/>
<path d="M112.433 341.569C96.6884 293.408 52.7798 254.517 1.67578 243.481C23.1739 285.124 62.1237 318.261 112.433 341.569Z" fill="#36A871"/>
<path d="M115.098 349C97.7146 339.326 78.5326 333.318 58.7364 331.346C38.9403 329.375 18.9501 331.482 0 337.537C35.6619 355.345 76.6247 359.424 115.098 349Z" fill="#36A871"/>
<path d="M124.633 359.448C87.3752 354.283 48.3666 363.465 18.1133 384.463C52.4132 396.985 93.5701 388.892 124.633 359.448Z" fill="#36A871"/>
<path d="M136.241 382.24C99.3517 382.093 63.0801 399.618 41.3906 428.091C57.8758 431.368 74.9716 429.445 90.3169 422.588C105.37 415.775 117.995 404.121 136.241 382.24Z" fill="#36A871"/>
<path d="M162.26 420.396C125.871 414.157 87.1269 425.428 60.8906 449.825C76.6229 455.776 93.8113 456.711 110.096 452.503C126.106 448.324 140.541 438.937 162.26 420.396Z" fill="#36A871"/>
<path d="M122.986 343.821C98.9571 311.448 92.4385 267.805 106.094 230.694C116.512 248.352 125.502 266.995 129.637 286.831C133.772 306.666 133.08 327.811 122.986 343.821Z" fill="#48BE97"/>
<path d="M137.655 375.06C134.944 357.791 136.328 340.126 141.695 323.49C147.063 306.854 156.263 291.711 168.555 279.282C171.425 314.877 160.595 351.134 137.655 375.06Z" fill="#A2C7EB"/>
<path d="M12.875 252.104C85.9922 298.881 143.159 368.6 173.339 447.809" stroke="#6F8BBF" stroke-miterlimit="10" stroke-linecap="round"/>
<path d="M108.359 247.764C117.262 283.81 122.682 320.629 124.546 357.712" stroke="#6F8BBF" stroke-miterlimit="10" stroke-linecap="round"/>
<path d="M163.112 293.246C160.152 322.508 151.201 350.848 136.816 376.502" stroke="#6F8BBF" stroke-miterlimit="10" stroke-linecap="round"/>
<path d="M15.3906 338.376C48.913 344.736 82.9229 348.182 117.04 348.676" stroke="#36A871" stroke-miterlimit="10" stroke-linecap="round"/>
<path d="M35.5195 381.652C66.3604 379.405 96.5965 371.942 124.941 359.58" stroke="#6F8BBF" stroke-miterlimit="10" stroke-linecap="round"/>
<path d="M54.1055 422.897L139.657 380.225" stroke="#36A871" stroke-miterlimit="10" stroke-linecap="round"/>
<path d="M72.6445 448.015C109.887 440.819 120.938 432.256 162.272 420.396" stroke="#36A871" stroke-miterlimit="10" stroke-linecap="round"/>
<path d="M308.359 379.827C308.359 379.827 311.582 409.359 315.187 411.729C321.632 415.981 396.235 425.811 396.235 425.811L393.793 445.219C393.793 445.219 291.614 454.401 287.273 449.295C279.739 440.466 266.496 397.705 266.496 397.705L308.359 379.827Z" fill="#E06A58"/>
<path d="M259.098 303.782L267.353 283.961C267.353 283.961 289.748 294.482 297.135 307.504C305.037 321.395 314.704 395.248 314.704 395.248C314.704 395.248 275.166 404.356 267.897 400.486C260.628 396.616 259.098 303.782 259.098 303.782Z" fill="#F2AE30"/>
<path d="M196.218 211.786C190.435 209.667 184.314 207.813 178.119 208.284C171.924 208.755 165.597 212.08 163.537 217.48C162.066 221.336 162.728 225.883 160.359 229.355C157.99 232.828 153.59 234.064 149.381 234.343C145.173 234.623 140.906 234.079 136.712 234.623C123.763 236.345 114.522 250.412 118.775 261.933C120.467 266.524 123.94 270.909 123.189 275.692C122.351 280.812 116.98 284.182 114.773 288.935C111.83 295.262 115.346 302.929 121.129 307.24C126.912 311.551 134.372 313.126 141.73 314.259C151.78 315.73 162.154 316.466 172.086 314.347C182.019 312.228 191.51 306.99 196.645 298.808C198.926 295.189 200.309 291.098 202.958 287.699C208.431 280.68 218.128 277.958 225.765 272.984C234.109 267.525 240.23 256.901 235.315 248.587C230.577 240.597 218.246 238.817 213.243 230.93C211.198 227.678 210.712 223.808 209.388 220.262C208.064 216.715 204.738 214.92 196.218 211.786Z" fill="#0A2240"/>
<path d="M229.915 309.8C231.386 311.477 233.093 313.317 235.477 313.479C237.861 313.64 240.098 311.875 241.716 310.153C249.9 301.573 255.509 290.866 257.902 279.252C255.828 278.075 253.826 276.942 252.016 275.883C250.405 274.953 249.124 273.543 248.353 271.851C247.855 270.651 247.668 269.345 247.808 268.054C248.556 258.337 250.61 248.765 253.915 239.596C235.462 235.432 218.055 230.488 208.049 222.13C206.828 227.28 205.386 237.36 202.31 247.351C199.029 257.931 193.908 268.393 185.227 272.895C201.988 282.746 217.073 295.204 229.915 309.8Z" fill="#F9A07B"/>
<path d="M247.736 268.069C247.596 269.36 247.783 270.666 248.28 271.865C237.362 285.109 212.965 267.804 202.238 247.366C205.314 237.374 206.756 227.295 207.977 222.145C217.968 230.502 235.39 235.388 253.843 239.611C250.537 248.779 248.483 258.352 247.736 268.069Z" fill="#E06A58"/>
<path d="M278.135 428.165C275.722 444.145 292.967 461.347 293.394 469.881C256.769 469.881 180.091 472.118 140.979 466.806C139.199 456.947 158.49 434.772 158.49 412.877C158.49 409.934 158.372 406.8 158.137 403.386C157.519 393.615 156.077 381.991 154.473 370.072C150.058 338.097 144.32 303.856 148.587 296.807C156.974 282.99 176.545 273.602 186.315 269.571C189.655 268.187 191.833 267.437 191.995 267.349C204.194 288.155 229.017 305.901 238.39 305.106C240.995 304.9 248.691 302.164 253.826 276.501C255.813 277.634 257.799 278.679 259.712 279.694C269.409 284.741 278.503 288.906 281.122 295.395C288.038 312.479 294.821 355.548 293.32 370.866C291.819 386.184 285.669 398.118 281.254 413.671C280.239 417.306 279.312 421.161 278.562 425.311C278.429 426.194 278.311 427.165 278.135 428.165Z" fill="#FFC73C"/>
<path d="M293.394 469.881C256.769 469.881 180.091 472.118 140.979 466.806C139.199 456.947 158.49 434.772 158.49 412.877C158.49 409.934 158.372 406.8 158.137 403.386C157.519 393.615 156.077 381.991 154.473 370.072C161.403 377.429 171.512 346.528 175.986 355.534C200.191 404.386 219.276 417.232 252.502 417.232C262.19 417.143 271.837 415.948 281.254 413.671C280.239 417.306 279.312 421.161 278.562 425.311C278.385 426.292 278.223 427.273 278.076 428.254C275.722 444.131 293.026 461.332 293.394 469.881Z" fill="#FFBB33"/>
<path d="M259.788 279.768C258.213 291.201 253.549 306.607 239.982 310.668C221.647 316.157 195.117 281.901 186.332 269.644C189.672 268.261 191.85 267.51 192.012 267.422C204.21 288.228 229.034 305.974 238.407 305.18C241.012 304.974 248.708 302.237 253.843 276.574C255.829 277.619 257.816 278.664 259.788 279.768Z" fill="#FCE172"/>
<path d="M267.32 452.695L267.188 465.453L495.265 466.806L495.736 452.342L267.32 452.695Z" fill="#457A92"/>
<path d="M594.119 338.877L589.043 333.727L422.914 332.638L339.57 453.166L343.926 456.668L594.119 338.877Z" fill="#457A92"/>
<path d="M426.122 337.096L343.926 456.667L500.931 457.447L594.119 338.876L426.122 337.096Z" fill="#0B2D50"/>
<path d="M465.791 413.421C475.885 413.421 484.067 409.33 484.067 404.283C484.067 399.237 475.885 395.146 465.791 395.146C455.698 395.146 447.516 399.237 447.516 404.283C447.516 409.33 455.698 413.421 465.791 413.421Z" fill="#86B9D0"/>
<path d="M303.908 225.271C306.498 211.378 301.17 198.731 292.006 197.022C282.843 195.314 273.315 205.192 270.725 219.085C268.135 232.978 273.464 245.625 282.627 247.333C291.79 249.042 301.318 239.164 303.908 225.271Z" fill="#56C4F9"/>
<path d="M303.902 181.621C302.196 193.716 296.795 207.048 288.923 221.777C286.157 209.711 284.391 195.011 281.948 180.311C279.506 165.611 276.298 150.882 270.809 138.816C269.616 136.217 268.27 133.692 266.777 131.253C270.031 130.951 273.312 131.245 276.46 132.121C281.381 133.453 285.919 135.928 289.703 139.346C295.831 145.079 300.29 152.366 302.608 160.432C304.638 167.306 305.081 174.551 303.902 181.621Z" fill="#0B2D50"/>
<path d="M294.66 194.128C294.572 196.512 294.41 198.94 294.189 201.353C290.834 240.494 274.398 267.348 249.251 267.348C213.744 267.348 190.73 227.531 190.73 188.522C190.73 150.043 214.274 122.188 241.893 125.411C257.8 127.235 269.425 132.518 277.679 140.258C283.068 145.404 287.205 151.716 289.775 158.71C292.881 167.232 294.527 176.216 294.646 185.285C294.646 185.285 294.646 185.285 294.646 185.373C294.793 188.228 294.763 191.141 294.66 194.128Z" fill="#F9A07B"/>
<path d="M294.662 194.128C293.619 190.313 292.007 186.677 289.88 183.343C268.506 194.469 244.107 198.386 220.324 194.511L206.992 205.65C207.08 187.845 207.331 175.794 214.276 167.171C220.795 159.078 231.669 156.032 241.969 154.708C253.573 153.184 265.332 153.259 276.916 154.929C281.412 155.364 285.783 156.658 289.792 158.74C292.897 167.261 294.544 176.245 294.662 185.314C294.662 185.314 294.662 185.314 294.662 185.403C294.795 188.228 294.765 191.141 294.662 194.128Z" fill="#E06A58"/>
<path d="M299.78 170.025C294.415 174.376 288.396 177.852 281.946 180.325C262.434 188.198 237.081 190.802 217.319 189.846C207.607 211.182 203.679 218.834 201.133 237.448C191.642 228.545 183.917 212.242 181.621 199.425C179.192 186.569 179.695 173.331 183.093 160.696C185.315 153.062 189.085 145.967 194.168 139.853C199.252 133.74 205.539 128.738 212.64 125.16C214.695 124.046 216.818 123.063 218.997 122.217C231.519 117.376 245.63 117.803 258.476 121.746C265.126 123.844 271.228 127.392 276.34 132.135C286.36 141.184 292.526 153.442 296.558 162.624C297.926 165.434 298.912 167.936 299.78 170.025Z" fill="#0B2D50"/>
<path d="M303.901 181.621C303.114 177.354 301.866 173.185 300.179 169.187C299.204 166.897 298.033 164.696 296.676 162.61C292.36 155.505 285.723 150.11 277.886 147.336C275.76 144.332 273.399 141.503 270.823 138.875C262.683 130.384 252.012 124.756 240.408 122.836C231.142 121.366 221.657 122.174 212.773 125.19C214.828 124.077 216.951 123.094 219.13 122.247C231.652 117.406 245.764 117.833 258.61 121.777C265.26 123.874 271.361 127.422 276.473 132.165C281.395 133.497 285.933 135.972 289.716 139.39C295.844 145.124 300.304 152.411 302.621 160.476C304.633 167.338 305.071 174.566 303.901 181.621Z" fill="#225570"/>
<path d="M228.637 205.621C235.199 201.869 242.012 200.176 251.562 203.664" stroke="#0B2D50" stroke-width="2" stroke-miterlimit="10" stroke-linecap="round"/>
<path d="M273.574 205.355C279.195 201.161 287.524 200.735 291.865 205.355" stroke="#0B2D50" stroke-width="2" stroke-miterlimit="10" stroke-linecap="round"/>
<path d="M266.792 226.795C267.366 229.738 267.057 236.345 265.645 239.302" stroke="#CC454E" stroke-width="2" stroke-miterlimit="10" stroke-linecap="round"/>
<path d="M244.618 228.767C246.113 228.767 247.325 226.856 247.325 224.5C247.325 222.143 246.113 220.232 244.618 220.232C243.122 220.232 241.91 222.143 241.91 224.5C241.91 226.856 243.122 228.767 244.618 228.767Z" fill="#262D40"/>
<path d="M280.004 226.78C281.5 226.78 282.712 224.869 282.712 222.512C282.712 220.156 281.5 218.245 280.004 218.245C278.509 218.245 277.297 220.156 277.297 222.512C277.297 224.869 278.509 226.78 280.004 226.78Z" fill="#262D40"/>
<path d="M263.437 245.07C263.002 245.912 262.51 246.723 261.965 247.498C260.005 250.345 257.215 252.519 253.975 253.722C252.318 254.262 250.553 254.379 248.84 254.061C243.307 253.075 241.85 247.969 241.585 244.04C241.55 243.334 241.55 242.627 241.585 241.921C241.595 241.035 241.664 240.15 241.791 239.272C250.473 244.128 263.437 245.07 263.437 245.07Z" fill="#CC454E"/>
<path d="M263.437 245.07C263.003 245.912 262.511 246.723 261.966 247.498C257.463 247.498 248.252 245.129 241.527 241.921C241.537 241.035 241.606 240.15 241.733 239.272C250.474 244.128 263.437 245.07 263.437 245.07Z" fill="white"/>
<path d="M253.886 253.708C252.229 254.248 250.464 254.364 248.75 254.046C243.218 253.06 241.761 247.954 241.496 244.025C244.253 244.342 246.868 245.414 249.054 247.122C251.24 248.831 252.912 251.11 253.886 253.708Z" fill="#E8729B"/>
<path d="M201.284 198.837C201.46 186.294 203.954 173.892 208.641 162.257C218.22 139.375 237.747 129.59 256.685 128.928C263.523 128.766 270.326 129.965 276.697 132.456C283.067 134.947 288.88 138.679 293.795 143.437C293.795 143.437 286.364 130.326 271.723 126.559C262.1 124.087 247.576 123.616 235.922 128.428C223.915 133.298 208.95 146.821 203.55 161.109C198.15 175.397 195.516 197.645 195.516 197.645L201.284 198.837Z" fill="#3D86E0"/>
<path d="M198.507 245.694C208.234 244.712 214.913 231.967 213.424 217.227C211.935 202.488 202.843 191.336 193.116 192.319C183.389 193.301 176.711 206.046 178.2 220.785C179.688 235.525 188.781 246.677 198.507 245.694Z" fill="#56C4F9"/>
<path d="M196.43 241.877C202.738 240.929 206.5 231.163 204.831 220.065C203.163 208.967 196.696 200.739 190.387 201.687C184.079 202.635 180.317 212.401 181.986 223.499C183.655 234.598 190.121 242.826 196.43 241.877Z" fill="#3D86E0"/>
<path d="M256.8 267.908C262.034 267.908 266.277 265.266 266.277 262.007C266.277 258.748 262.034 256.106 256.8 256.106C251.567 256.106 247.324 258.748 247.324 262.007C247.324 265.266 251.567 267.908 256.8 267.908Z" fill="#3A92C9"/>
<path d="M209.156 242.26C209.156 242.26 223.076 260.153 247.282 261.992" stroke="#3A92C9" stroke-width="2" stroke-miterlimit="10" stroke-linecap="round"/>
<path d="M267.19 418.616L266.277 442.159C266.277 442.159 181.197 467.645 167.13 459.581C160.273 455.638 153.887 433.948 149.09 412.774C144.087 390.525 140.879 368.865 140.879 368.865L190.762 359.095C190.762 359.095 190.762 389.51 192.483 407.094C193.087 413.642 193.955 418.41 195.117 419.189C199.517 422.088 267.19 418.616 267.19 418.616Z" fill="#F9A07B"/>
<path d="M192.483 407.065C183.419 410.008 165.997 414.554 149.09 412.759C144.087 390.511 140.879 368.851 140.879 368.851L190.762 359.08C190.762 359.08 190.791 389.481 192.483 407.065Z" fill="#E06A58"/>
<path d="M264.762 418.851C277.416 416.144 298.841 409.64 307.729 407.403C314.041 405.814 330.478 414.319 334.818 422.339C336.717 425.841 338.512 445.676 331.875 443.631C328.579 442.601 329.124 434.096 328.094 430.623C327.255 427.798 324.577 425.061 320.501 422.706C323.223 429.49 323.12 435.405 322.826 442.733C322.884 444.355 322.561 445.967 321.884 447.442C321.537 448.159 320.949 448.73 320.222 449.056C319.495 449.381 318.677 449.44 317.911 449.222C316.44 448.604 315.895 446.735 315.557 445.102C314.228 439.285 313.289 433.386 312.746 427.444C312.864 433.728 312.746 440.026 312.334 446.294C312.04 451.091 309.656 453.725 306.728 452.886C305.418 452.518 304.889 451.312 304.33 449.723C303.447 452.798 301.239 456.197 298.444 454.902C296.707 454.122 295.633 447.854 295.942 441.409C290.243 444.742 283.769 446.523 277.166 446.574C270.78 446.868 264.247 445.676 260.406 441.335C261.092 433.712 262.552 426.179 264.762 418.851Z" fill="#F9A07B"/>
<path d="M304.521 448.722C304.949 443.627 304.506 438.497 303.211 433.551" stroke="#CC454E" stroke-miterlimit="10" stroke-linecap="round"/>
<path d="M185.153 309.741C181.533 299.544 168.275 278.679 168.275 278.679C168.275 278.679 148.042 287.095 140.862 301.383C128.707 325.574 134.888 395.028 134.888 395.028C151.265 401.885 184.138 401.988 198.161 400.016C198.131 400.016 192.407 330.121 185.153 309.741Z" fill="#FFC73C"/>
<path d="M187.73 314.009C192.978 338.759 196.128 363.907 197.148 389.186" stroke="#F2AE30" stroke-miterlimit="10" stroke-linecap="round"/>
<path d="M620.783 462.612H40.6133V477.165H620.783V462.612Z" fill="#0B2D50"/>
</g>
<defs>
<clipPath id="clip0_966_3226">
<rect width="640" height="476.329" fill="white" transform="translate(0 0.835938)"/>
</clipPath>
</defs>
</svg>
