<svg width="70" height="70" viewBox="0 0 70 70" fill="none" xmlns="http://www.w3.org/2000/svg">
<g clip-path="url(#clip0_960_3950)">
<path d="M2.33333 45.6667H35.0595C35.0338 46.054 35 46.439 35 46.8333C34.998 49.9339 35.8199 52.9794 37.3815 55.6581C38.9431 58.3368 41.1883 60.5524 43.8874 62.0784C46.5866 63.6043 49.6427 64.3858 52.743 64.3427C55.8433 64.2997 58.8765 63.4337 61.5322 61.8334C64.1879 60.2331 66.3708 57.9559 67.8574 55.2349C69.344 52.5139 70.081 49.4468 69.9929 46.3474C69.9049 43.2481 68.995 40.2278 67.3563 37.5956C65.7176 34.9634 63.409 32.8138 60.6667 31.3668V8.33333C60.6667 7.71449 60.4208 7.121 59.9833 6.68342C59.5457 6.24583 58.9522 6 58.3333 6H2.33333C1.71449 6 1.121 6.24583 0.683418 6.68342C0.245833 7.121 0 7.71449 0 8.33333L0 43.3333C0 43.9522 0.245833 44.5457 0.683418 44.9833C1.121 45.4208 1.71449 45.6667 2.33333 45.6667ZM53.6667 29.3928C53.2793 29.3672 52.8943 29.3333 52.5 29.3333C49.3172 29.3365 46.1954 30.2071 43.4703 31.8516C40.7452 33.4961 38.5198 35.8522 37.0335 38.6667H12.7318C12.5461 37.5668 12.101 36.5269 11.4333 35.6333C10.3605 34.1933 8.77156 33.2249 7 32.9313V18.7318C8.09991 18.5461 9.13973 18.101 10.0333 17.4333C11.4734 16.3605 12.4418 14.7716 12.7353 13H47.9325C48.1737 14.4331 48.8555 15.7555 49.8833 16.783C50.911 17.8105 52.2335 18.4921 53.6667 18.733V29.3928ZM67.6667 46.8333C67.6667 49.833 66.7772 52.7653 65.1106 55.2595C63.4441 57.7536 61.0754 59.6976 58.304 60.8455C55.5327 61.9934 52.4832 62.2938 49.5411 61.7086C46.5991 61.1234 43.8966 59.6789 41.7756 57.5578C39.6545 55.4367 38.21 52.7343 37.6248 49.7922C37.0395 46.8502 37.3399 43.8007 38.4878 41.0293C39.6358 38.258 41.5797 35.8892 44.0739 34.2227C46.568 32.5562 49.5003 31.6667 52.5 31.6667C56.521 31.6713 60.376 33.2707 63.2193 36.114C66.0626 38.9573 67.662 42.8123 67.6667 46.8333ZM2.33333 8.33333H58.3333V30.3542C57.5722 30.0768 56.7925 29.8535 56 29.6857V18.46C55.9993 17.9741 55.8235 17.5048 55.5049 17.138C55.1863 16.7711 54.7462 16.5314 54.2652 16.4627C53.2307 16.3371 52.2682 15.8683 51.5315 15.1312C50.7949 14.3942 50.3266 13.4314 50.2017 12.3968C50.1327 11.9168 49.893 11.4777 49.5266 11.1599C49.1603 10.8422 48.6916 10.6671 48.2067 10.6667H12.46C11.9719 10.6679 11.5007 10.8458 11.1335 11.1675C10.7663 11.4892 10.5281 11.9329 10.4627 12.4167C10.3863 13.0381 10.1849 13.6376 9.87049 14.179C9.55608 14.7203 9.13523 15.1924 8.63333 15.5667C7.97399 16.0574 7.19774 16.3671 6.38167 16.465C5.90429 16.5371 5.46863 16.7781 5.1539 17.1442C4.83917 17.5103 4.66628 17.9772 4.66667 18.46V33.2067C4.6679 33.6948 4.84581 34.166 5.1675 34.5332C5.48919 34.9003 5.93292 35.1386 6.41667 35.204C7.03807 35.2803 7.63756 35.4818 8.17895 35.7962C8.72035 36.1106 9.19242 36.5314 9.56667 37.0333C10.0574 37.6927 10.3671 38.4689 10.465 39.285C10.5371 39.7624 10.7781 40.198 11.1442 40.5128C11.5103 40.8275 11.9772 41.0004 12.46 41H36.0267C35.7493 41.7611 35.526 42.5408 35.3582 43.3333H2.33333V8.33333Z" fill="url(#paint0_linear_960_3950)"/>
<path d="M30.3346 17.667C28.7194 17.667 27.1405 18.146 25.7975 19.0433C24.4545 19.9407 23.4077 21.2161 22.7896 22.7084C22.1715 24.2007 22.0098 25.8427 22.3249 27.4269C22.64 29.0111 23.4178 30.4662 24.5599 31.6084C25.7021 32.7505 27.1572 33.5283 28.7414 33.8434C30.3256 34.1585 31.9676 33.9968 33.4599 33.3787C34.9522 32.7606 36.2276 31.7138 37.125 30.3708C38.0223 29.0278 38.5013 27.4489 38.5013 25.8337C38.4985 23.6686 37.6372 21.593 36.1063 20.062C34.5753 18.5311 32.4997 17.6698 30.3346 17.667ZM30.3346 31.667C29.1809 31.667 28.0531 31.3249 27.0938 30.6839C26.1345 30.0429 25.3869 29.1319 24.9453 28.066C24.5038 27.0001 24.3883 25.8272 24.6134 24.6956C24.8385 23.5641 25.394 22.5247 26.2099 21.7089C27.0257 20.8931 28.0651 20.3375 29.1966 20.1124C30.3282 19.8873 31.5011 20.0029 32.567 20.4444C33.6329 20.8859 34.5439 21.6335 35.1849 22.5928C35.8259 23.5521 36.168 24.6799 36.168 25.8337C36.1661 27.3802 35.5509 28.8628 34.4574 29.9564C33.3638 31.05 31.8812 31.6651 30.3346 31.667ZM46.3261 48.3422C46.1061 48.1296 45.8114 48.012 45.5055 48.0147C45.1996 48.0174 44.907 48.1401 44.6907 48.3564C44.4744 48.5727 44.3517 48.8653 44.349 49.1712C44.3464 49.4771 44.464 49.7718 44.6765 49.9918L49.3431 54.6585C49.5619 54.8773 49.8586 55.0003 50.168 55.0003C50.2053 55.0003 50.2438 55.0003 50.2846 54.9945C50.4563 54.9775 50.622 54.9226 50.7698 54.8338C50.9177 54.7451 51.0441 54.6246 51.1398 54.4812L60.4731 40.4812C60.5582 40.3537 60.6173 40.2107 60.647 40.0604C60.6768 39.9101 60.6767 39.7554 60.6467 39.6051C60.6167 39.4549 60.5574 39.312 60.4721 39.1847C60.3869 39.0573 60.2774 38.948 60.15 38.863C60.0225 38.778 59.8795 38.7189 59.7292 38.6891C59.5789 38.6593 59.4242 38.6594 59.274 38.6894C59.1237 38.7194 58.9808 38.7788 58.8535 38.864C58.7261 38.9492 58.6168 39.0587 58.5318 39.1862L49.9871 52.0032L46.3261 48.3422Z" fill="url(#paint1_linear_960_3950)"/>
</g>
<defs>
<linearGradient id="paint0_linear_960_3950" x1="35" y1="6" x2="35" y2="64.3444" gradientUnits="userSpaceOnUse">
<stop stop-color="#4FD3D3"/>
<stop offset="1" stop-color="#5528A9"/>
</linearGradient>
<linearGradient id="paint1_linear_960_3950" x1="41.4186" y1="17.667" x2="41.4186" y2="55.0003" gradientUnits="userSpaceOnUse">
<stop stop-color="#4FD3D3"/>
<stop offset="1" stop-color="#5528A9"/>
</linearGradient>
<clipPath id="clip0_960_3950">
<rect width="70" height="70" fill="white"/>
</clipPath>
</defs>
</svg>
