<svg width="20" height="21" viewBox="0 0 20 21" fill="none" xmlns="http://www.w3.org/2000/svg">
<path d="M17.6562 2.0625H16.7188V0.5H15.1562V2.0625H4.84375V0.5H3.28125V2.0625H2.34375C1.05141 2.0625 0 3.11391 0 4.40625V18.1562C0 19.4486 1.05141 20.5 2.34375 20.5H17.6562C18.9486 20.5 20 19.4486 20 18.1562V4.40625C20 3.11391 18.9486 2.0625 17.6562 2.0625ZM18.4375 18.1562C18.4375 18.587 18.087 18.9375 17.6562 18.9375H2.34375C1.91297 18.9375 1.5625 18.587 1.5625 18.1562V7.84375H18.4375V18.1562ZM18.4375 6.28125H1.5625V4.40625C1.5625 3.97547 1.91297 3.625 2.34375 3.625H3.28125V5.1875H4.84375V3.625H15.1562V5.1875H16.7188V3.625H17.6562C18.087 3.625 18.4375 3.97547 18.4375 4.40625V6.28125Z" fill="#4FD3D3"/>
<path d="M2.96875 9.48438H4.53125V11.0469H2.96875V9.48438ZM6.09375 9.48438H7.65625V11.0469H6.09375V9.48438ZM9.21875 9.48438H10.7812V11.0469H9.21875V9.48438ZM12.3438 9.48438H13.9062V11.0469H12.3438V9.48438ZM15.4688 9.48438H17.0312V11.0469H15.4688V9.48438ZM2.96875 12.6094H4.53125V14.1719H2.96875V12.6094ZM6.09375 12.6094H7.65625V14.1719H6.09375V12.6094ZM9.21875 12.6094H10.7812V14.1719H9.21875V12.6094ZM12.3438 12.6094H13.9062V14.1719H12.3438V12.6094ZM2.96875 15.7344H4.53125V17.2969H2.96875V15.7344ZM6.09375 15.7344H7.65625V17.2969H6.09375V15.7344ZM9.21875 15.7344H10.7812V17.2969H9.21875V15.7344ZM12.3438 15.7344H13.9062V17.2969H12.3438V15.7344ZM15.4688 12.6094H17.0312V14.1719H15.4688V12.6094Z" fill="#4FD3D3"/>
</svg>
