<svg width="70" height="70" viewBox="0 0 70 70" fill="none" xmlns="http://www.w3.org/2000/svg">
<g clip-path="url(#clip0_960_3945)">
<path d="M16.893 35.251H51.6374C59.307 35.251 65.5322 29.2344 65.5322 21.8477C65.5322 14.4609 59.2922 8.44432 51.6374 8.44432H17.7419C16.893 3.44042 12.0381 0.119323 7.03419 1.20653C2.55148 2.1745 -0.486609 6.46356 0.0644631 11.0059C0.689952 16.0992 5.4258 19.584 10.4297 18.7501C12.2598 18.4387 13.9478 17.5663 15.2605 16.2537C16.5731 14.9411 17.4455 13.253 17.7569 11.4229H51.6523C57.6689 11.4229 62.5687 16.0992 62.5687 21.8478C62.5687 27.5963 57.669 32.2727 51.6523 32.2727H16.893C9.22341 32.2727 2.98332 38.2892 2.98332 45.676C2.98332 53.0628 9.22327 59.0793 16.8781 59.0793H41.0785L34.7045 65.4682C34.1088 66.0341 34.094 66.9873 34.6748 67.5681C35.2556 68.1489 36.1938 68.1786 36.7747 67.5978L36.8044 67.5681L45.725 58.6475C45.8631 58.5097 45.9726 58.3461 46.0474 58.1659C46.1221 57.9857 46.1606 57.7926 46.1606 57.5975C46.1606 57.4025 46.1221 57.2094 46.0474 57.0292C45.9726 56.849 45.8631 56.6854 45.725 56.5476L36.8044 47.6121C36.2086 47.0462 35.2704 47.061 34.7045 47.6418C34.4392 47.9211 34.2912 48.2916 34.2912 48.6769C34.2912 49.0621 34.4392 49.4326 34.7045 49.7119L41.0935 56.1008H16.893C10.8615 56.1008 5.96193 51.4246 5.96193 45.676C5.96193 39.9273 10.8615 35.251 16.893 35.251ZM8.9404 15.8758C5.64918 15.8758 2.98332 13.21 2.98332 9.91869C2.98332 6.62748 5.64904 3.96161 8.9404 3.96161C12.2316 3.96161 14.8975 6.62734 14.8975 9.91869C14.8975 13.2099 12.2316 15.8758 8.9404 15.8758ZM61.0644 48.6394C56.1349 48.6394 52.1289 52.6454 52.1289 57.5749C52.1289 62.5044 56.1349 66.5105 61.0644 66.5105C65.9939 66.5105 70 62.5044 70 57.5749C70 52.6454 66.0089 48.6543 61.0644 48.6394ZM61.0644 63.532C57.7732 63.532 55.1073 60.8663 55.1073 57.5749C55.1073 54.2836 57.7731 51.6178 61.0644 51.6178C64.3558 51.6178 67.0215 54.2836 67.0215 57.5749C67.0215 60.8663 64.3558 63.532 61.0644 63.532Z" fill="url(#paint0_linear_960_3945)"/>
</g>
<defs>
<linearGradient id="paint0_linear_960_3945" x1="35" y1="1" x2="35" y2="68.0188" gradientUnits="userSpaceOnUse">
<stop stop-color="#4FD3D3"/>
<stop offset="1" stop-color="#5528A9"/>
</linearGradient>
<clipPath id="clip0_960_3945">
<rect width="70" height="70" fill="white"/>
</clipPath>
</defs>
</svg>
