<svg width="460" height="452" viewBox="0 0 460 452" fill="none" xmlns="http://www.w3.org/2000/svg">
<g clip-path="url(#clip0_966_3007)">
<g style="mix-blend-mode:multiply" opacity="0.36">
<path d="M236.493 451.95C359.933 451.95 460.001 445.283 460.001 437.06C460.001 428.836 359.933 422.17 236.493 422.17C113.053 422.17 12.9844 428.836 12.9844 437.06C12.9844 445.283 113.053 451.95 236.493 451.95Z" fill="#575757"/>
</g>
<path d="M168.035 293.288C168.035 293.288 167.407 280.408 149.172 273.545C149.172 273.545 151.992 290.947 168.035 293.288Z" fill="#48BE97"/>
<path d="M166.584 316.068C166.584 316.068 164.689 299.442 140.516 292.089C140.573 292.1 145.631 314.378 166.584 316.068Z" fill="#48BE97"/>
<path d="M172.628 349.033C172.628 349.033 169.887 329.747 141.523 321.982C141.523 321.982 148.192 347.743 172.628 349.033Z" fill="#48BE97"/>
<path d="M192.426 383.586C192.426 383.586 181.681 362.747 146.375 365.145C146.375 365.145 164.154 391.785 192.426 383.586Z" fill="#48BE97"/>
<path d="M167.98 293.539C167.98 293.539 170.481 280.876 189.516 276.742C189.539 276.742 184.218 293.55 167.98 293.539Z" fill="#48BE97"/>
<path d="M166.117 316.285C166.117 316.285 170.422 300.116 195.406 296.359C195.383 296.359 187.105 317.667 166.117 316.285Z" fill="#48BE97"/>
<path d="M172.172 348.885C172.172 348.885 169.751 329.553 195.078 314.629C195.078 314.606 195.386 341.212 172.172 348.885Z" fill="#48BE97"/>
<path d="M190.875 383.792C190.875 383.792 181.42 362.348 205.468 336.382C205.468 336.382 215.025 366.95 190.875 383.792Z" fill="#48BE97"/>
<path d="M168.298 292.899C168.298 292.899 150.462 367.178 232.105 420.263" stroke="#48BE97" stroke-width="2.01" stroke-miterlimit="10" stroke-linecap="round"/>
<path d="M302.82 317.13C302.82 317.13 305.218 304.455 324.219 300.185C324.219 300.185 319.023 317.016 302.82 317.13Z" fill="#48BE97"/>
<path d="M300.641 340.104C300.641 340.104 304.82 323.901 329.77 319.962C329.77 319.962 321.628 341.326 300.641 340.104Z" fill="#48BE97"/>
<path d="M290.766 371.152C290.766 371.152 300.803 354.458 329.943 358.351C329.943 358.351 313.774 379.476 290.766 371.152Z" fill="#48BE97"/>
<path d="M267.195 403.181C267.195 403.181 284.221 387.058 316.752 400.988C316.752 400.988 291.174 420.263 267.195 403.181Z" fill="#48BE97"/>
<path d="M302.809 317.369C302.809 317.369 302.09 304.489 283.809 297.764C283.809 297.764 286.732 315.143 302.809 317.369Z" fill="#48BE97"/>
<path d="M300.642 340.047C300.642 340.047 298.632 323.433 274.379 316.251C274.402 316.251 279.677 338.494 300.642 340.047Z" fill="#48BE97"/>
<path d="M291.026 371.609C291.026 371.609 296.096 352.802 273.088 334.498C273.088 334.498 269.08 360.795 291.026 371.609Z" fill="#48BE97"/>
<path d="M267.664 403.581C267.664 403.581 279.996 383.644 259.774 354.595C259.774 354.618 246.083 383.564 267.664 403.581Z" fill="#48BE97"/>
<path d="M302.605 316.696C302.605 316.696 305.219 379.111 256.348 411.996" stroke="#48BE97" stroke-width="2.01" stroke-miterlimit="10" stroke-linecap="round"/>
<path d="M68.8884 437.06C74.4036 425.104 84.2237 390.026 69.094 382.696C59.6165 378.128 56.8304 385.973 56.8304 385.973C56.8304 385.973 63.6815 347.606 47.4328 347.526C37.9668 347.469 36.3681 358.351 36.3681 358.351C36.3681 358.351 31.2183 346.35 24.9495 342.867C11.2471 335.285 -5.04727 343.119 7.58175 364.563C9.82882 368.264 12.5848 371.631 15.7689 374.565C15.7689 374.565 1.4842 369.187 0.0911213 379.396C-1.30195 389.604 25.726 405.864 25.726 405.864C25.726 405.864 17.6302 406.172 17.3104 415.524C16.8765 428.165 42.9795 437.105 42.9795 437.105L68.8884 437.06Z" fill="#36A871"/>
<path d="M17.2539 352.196C35.0099 378.231 49.5915 385.961 61.4555 434.411" stroke="white" stroke-width="0.79" stroke-miterlimit="10" stroke-linecap="round"/>
<path d="M80.9348 437.06C80.3525 419.281 106.581 382.365 90.6978 373.413C80.7293 367.795 77.9203 377.98 77.9203 377.98C77.9203 377.98 100.358 339.945 78.8909 337.398C71.4003 336.508 67.0612 347.447 67.0612 347.447C67.0612 347.447 66.8785 327.864 60.8951 320.533C51.1093 308.566 30.6471 315.246 35.4772 341.087C38.1263 355.234 47.8436 360.829 47.8436 360.829C47.8436 360.829 38.0122 353.327 33.3191 363.182C27.0388 376.382 48.1633 393.441 48.1633 393.441C48.1633 393.441 38.7315 386.453 32.5084 397.872C24.0357 413.241 56.0764 437.06 56.0764 437.06H80.9348Z" fill="#48BE97"/>
<path d="M52.5352 334.703C64.5476 365.214 70.805 398.648 73.4084 434.045" stroke="white" stroke-width="0.79" stroke-miterlimit="10" stroke-linecap="round"/>
<path d="M396.522 437.059C400.428 422.626 381.598 394.194 396.226 386.92C405.36 382.353 410.316 387.034 410.316 387.034C410.316 387.034 399.525 358.374 417.43 356.307C419.135 356.068 420.871 356.417 422.351 357.297C423.832 358.177 424.967 359.536 425.571 361.148C425.571 361.148 428.049 352.664 434.706 347.332C447.392 337.238 463.927 340.983 455.032 361.925C450.156 373.423 446.296 375.102 446.296 375.102C446.296 375.102 455.123 373.389 457.018 381.394C459.576 392.116 438.452 410.054 438.452 410.054C438.452 410.054 446.045 410.774 447.038 416.449C449.254 429.009 422.625 437.059 422.625 437.059H396.522Z" fill="#36A871"/>
<path d="M449.287 349.434C424.977 369.165 424.075 409.324 411.766 432.516" stroke="white" stroke-width="0.72" stroke-miterlimit="10" stroke-linecap="round"/>
<path d="M385.529 437.06C376.737 422.581 357.588 380.127 371.621 371.243C380.425 365.671 385.324 375.205 385.324 375.205C385.324 375.205 368.458 328.754 385.495 328.663C395.429 328.606 399.848 341.772 399.848 341.772C399.848 341.772 403.217 328.138 407.944 319.951C418.815 301.11 444.312 308.635 435.349 338.552C433.065 346.122 426.214 355.748 426.214 355.748C426.214 355.748 442.051 354.8 441.629 368.503C441.229 381.497 419.283 393.727 419.283 393.727C419.283 393.727 433.876 390.472 436.571 401.8C440.202 417.1 408.024 437.06 408.024 437.06H385.529Z" fill="#48BE97"/>
<path d="M423.187 327.464C410.935 369.016 392.974 375.205 392.711 433.886" stroke="white" stroke-width="0.72" stroke-miterlimit="10" stroke-linecap="round"/>
<path d="M236.617 329.211C236.617 329.211 237.611 320.407 250.399 316.502C250.399 316.502 247.705 328.309 236.617 329.211Z" fill="#36A871"/>
<path d="M236.617 344.888C236.617 344.888 238.638 333.572 255.526 329.599C255.526 329.599 251.05 344.648 236.617 344.888Z" fill="#36A871"/>
<path d="M231.031 367.2C231.031 367.2 233.76 354.115 253.526 350.072C253.526 350.038 247.828 367.394 231.031 367.2Z" fill="#36A871"/>
<path d="M215.938 390.016C215.938 390.016 224.216 376.21 248.309 379.396C248.321 379.396 234.972 396.867 215.938 390.016Z" fill="#36A871"/>
<path d="M236.628 329.359C236.628 329.359 235.486 320.578 222.605 316.913C222.605 316.936 225.517 328.686 236.628 329.359Z" fill="#36A871"/>
<path d="M236.925 345.049C236.925 345.049 234.641 333.779 217.73 330.113C217.73 330.113 222.481 345.083 236.925 345.049Z" fill="#36A871"/>
<path d="M231.354 367.121C231.354 367.121 233.855 353.99 217.161 342.64C217.161 342.64 215.768 360.852 231.354 367.121Z" fill="#36A871"/>
<path d="M217.01 390.221C217.01 390.221 224.421 375.947 209.085 357.106C209.085 357.095 201.195 377.626 217.01 390.221Z" fill="#36A871"/>
<path d="M236.49 328.926C236.49 328.926 245.453 380.607 187.195 413.424" stroke="#36A871" stroke-width="1.38" stroke-miterlimit="10" stroke-linecap="round"/>
<path d="M238.008 437.06H221.189C209.484 437.06 191.272 404.277 191.272 391.568C191.272 378.859 209.416 345.448 221.189 345.448H238.008C252.921 345.448 264.694 350.084 273.006 359.23C280.999 368.034 285.064 378.905 285.064 391.568C285.064 404.231 280.954 415.136 272.869 423.746C264.557 432.584 252.83 437.06 238.008 437.06ZM193.476 305.871L193.738 292.717C194.183 269.994 197.267 252.261 203.159 238.501C209.051 224.742 220.481 209.955 237.928 193.9L238.202 193.649L278.624 158.388C293.354 144.229 300.502 129.841 300.502 114.346C300.502 99.6276 296.289 88.6087 287.622 80.6727C278.739 72.5541 265.036 68.4433 246.766 68.4433C228.496 68.4433 214.029 72.3714 203.524 80.1246C193.967 87.1813 189.525 96.0079 189.525 107.895V120.798H106.043L106.237 107.712C106.705 75.2032 120.522 48.632 147.287 28.7293C172.933 9.63733 206.39 0 246.766 0C288.73 0 322.221 9.94563 346.314 29.5629C371.138 49.8309 383.79 77.818 383.79 112.736C383.79 147.095 365.417 180.837 329.175 213.026L328.901 213.266L295.33 241.436C282.986 253.174 276.991 270.051 276.991 293.014V305.917L193.476 305.871Z" fill="#65A4DA"/>
<path d="M221.191 437.06C206.347 437.06 194.631 432.55 186.41 423.666C178.474 415.079 174.454 404.254 174.454 391.568C174.454 378.882 178.428 368.091 186.273 359.31C194.483 350.107 206.232 345.448 221.191 345.448C236.149 345.448 247.865 350.084 256.189 359.23C264.182 368.034 268.236 378.905 268.236 391.568C268.236 404.231 264.136 415.136 256.041 423.746C247.728 432.584 236.001 437.06 221.191 437.06ZM176.658 305.871L176.921 292.717C177.366 269.994 180.449 252.261 186.33 238.501C192.21 224.742 203.652 209.955 221.1 193.9L221.374 193.649L261.807 158.388C276.526 144.229 283.685 129.841 283.685 114.346C283.685 99.6276 279.472 88.6087 270.805 80.6727C261.933 72.5541 248.15 68.4433 229.858 68.4433C211.565 68.4433 197.12 72.3714 186.627 80.1246C177.069 87.1813 172.616 96.0079 172.616 107.895V120.798H89.1914L89.3741 107.712C89.8537 75.2032 103.659 48.632 130.481 28.7293C156.116 9.63733 189.561 0 229.88 0C271.844 0 305.346 9.94563 329.44 29.5629C354.321 49.8309 366.938 77.818 366.938 112.736C366.938 147.095 348.554 180.837 312.323 213.026L312.038 213.266L278.501 241.436C266.18 253.128 260.163 269.982 260.163 292.968V305.871H176.658Z" fill="#0041C0"/>
<path d="M114.551 419.213C114.962 424.648 113.181 436.775 114.551 437.06H154.676C154.676 437.06 155.076 430.951 150.325 429.627C143.977 427.857 136.246 426.544 133.357 424.009C131.93 422.764 131.245 419.213 131.245 419.213H114.551Z" fill="#0A1930"/>
<path d="M143.717 427.925C143.717 427.925 138.612 427.468 136.797 430.368" stroke="#7DBBF1" stroke-width="0.85" stroke-linecap="round" stroke-linejoin="round"/>
<path d="M139.115 426.566C139.115 426.566 134.011 426.109 132.195 429.01" stroke="#7DBBF1" stroke-width="0.85" stroke-linecap="round" stroke-linejoin="round"/>
<path d="M91.165 419.213C90.6511 427.012 92.0099 436.398 89.8061 437.06H63.1436C63.1092 435.583 63.3725 434.114 63.9179 432.741C64.4632 431.368 65.2795 430.118 66.318 429.067C67.7796 427.583 71.2166 425.87 72.7809 424.306C74.3453 422.741 74.4252 419.224 74.4252 419.224L91.165 419.213Z" fill="#0A1930"/>
<path d="M75.1099 428.907C75.1099 428.907 71.6843 424.888 67.4023 428.13" stroke="#7DBBF1" stroke-width="0.85" stroke-linecap="round" stroke-linejoin="round"/>
<path d="M79.3137 426.863C79.3137 426.863 74.1981 422.661 70.293 425.95" stroke="#7DBBF1" stroke-width="0.85" stroke-linecap="round" stroke-linejoin="round"/>
<path d="M143.667 202.213C144.809 209.407 144.444 217.057 144.809 216.703C145.768 215.676 157.198 210.069 158.112 209.601C161.135 208.037 164.543 207.375 167.932 207.694C168.697 207.694 171.004 207.546 171.004 207.546C172.017 207.306 173.078 207.358 174.064 207.694C175.343 208.265 175.697 209.27 174.521 209.658C173.527 209.942 172.516 210.163 171.495 210.32C171.495 210.32 175.582 210.229 178.802 209.978C180.013 209.875 180.15 211.531 180.15 211.531L180.926 211.394C182.559 211.028 183.21 213.495 182.548 213.677C181.936 213.852 181.315 213.99 180.687 214.088C181.109 214.248 181.828 215.39 180.789 215.698C179.75 216.007 176.644 216.646 176.644 216.646C177.364 216.646 177.958 218.028 177.535 218.176C174.861 219.018 172.143 219.716 169.394 220.266C167.373 220.346 165.35 220.269 163.342 220.038C162.04 219.843 159.265 219.204 159.265 219.204C159.265 219.204 140.778 234.299 138.027 233.614C135.994 233.1 132.077 230.668 131.438 227.037C130.799 223.406 126.402 201.756 126.402 201.756C128.115 190.851 141.909 191.32 143.667 202.213Z" fill="#F4A484"/>
<path d="M157.896 213.723C157.896 213.723 157.805 217.251 158.958 218.861" stroke="#E08D68" stroke-width="0.57" stroke-linecap="round" stroke-linejoin="round"/>
<path d="M168.733 210.697C168.733 210.697 166.917 213.735 161.23 213.335C165.547 214.123 168.264 218.508 168.264 218.508" stroke="#E08D68" stroke-width="0.57" stroke-linecap="round" stroke-linejoin="round"/>
<path d="M176.248 216.635L170.059 217.525" stroke="#E08D68" stroke-width="0.57" stroke-linecap="round" stroke-linejoin="round"/>
<path d="M179.751 213.997L170.434 215.082" stroke="#E08D68" stroke-width="0.57" stroke-linecap="round" stroke-linejoin="round"/>
<path d="M179.375 211.53L170.914 212.33" stroke="#E08D68" stroke-width="0.57" stroke-linecap="round" stroke-linejoin="round"/>
<path d="M126.486 125.388C127.759 127.03 128.501 129.022 128.609 131.097C129.032 135.071 125.938 140.335 125.938 140.335L126.486 125.388Z" fill="#24292D"/>
<path d="M138.098 255.731C139.4 268.029 132.389 420.856 132.389 420.856H114.507C114.507 420.856 108.9 312.14 109.654 296.279C110.408 280.419 106.982 265.369 107.987 255.731C108.992 246.094 135.917 234.972 138.098 255.731Z" fill="#FE5456"/>
<path d="M114.185 256.178C114.185 311.432 91.793 420.857 91.793 420.857H73.3633C73.3633 420.857 82.6466 296.394 82.9892 280.408C83.2404 268.989 84.5307 260.996 85.6612 251.348C87.5681 235.053 114.174 235.373 114.185 256.178Z" fill="#FE5456"/>
<g style="mix-blend-mode:multiply" opacity="0.36">
<path d="M138.213 267.265C137.402 266.808 136.466 266.283 135.529 265.7C132.869 264.09 132.104 264.456 114.005 265.575H113.297C111.516 265.677 109.757 265.7 108.056 265.632C99.955 265.227 92.0041 263.29 84.625 259.922C84.9676 257.136 85.3215 254.339 85.6641 251.381C87.3084 237.291 107.36 235.578 112.806 248.744C120.891 242.509 136.454 240.123 138.099 255.72C138.293 257.353 138.293 261.418 138.213 267.265Z" fill="#FE5456"/>
</g>
<path d="M132.489 167.797C145.597 180.106 144.867 212.889 144.867 212.889C144.867 212.889 132.797 220.882 125.615 217.787C125.615 217.787 120.179 184.205 123.046 173.86C124.804 167.488 130.045 165.513 132.489 167.797Z" fill="#021946"/>
<g style="mix-blend-mode:multiply" opacity="0.36">
<path d="M141.589 198.913C141.407 205.193 141.464 211.096 141.098 215.002C136.953 217.114 130.262 219.763 125.615 217.731C125.615 217.731 120.179 184.171 123.046 173.815C123.599 171.506 124.934 169.461 126.825 168.025L132.534 167.797C133.151 168.493 142.229 175.927 141.589 198.913Z" fill="#021946"/>
</g>
<path d="M98.8522 162.841C98.8522 162.841 79.6232 165.992 79.0409 169.509C78.4585 173.026 85.7664 223.588 85.7664 235.452C85.7211 243.175 85.2599 250.89 84.3848 258.563C84.3848 258.563 99.7885 262.88 114.496 262.606C122.591 262.56 130.663 261.738 138.6 260.151C138.6 260.151 137.744 245.546 137.459 235.829C137.173 226.112 139.457 197.782 139.48 187.414C139.431 180.273 136.968 173.359 132.492 167.797C130.208 165.147 118.195 162.361 118.195 162.361L98.8522 162.841Z" fill="#021946"/>
<g style="mix-blend-mode:multiply" opacity="0.36">
<path d="M89.68 231.525C88.0357 234.517 86.734 237.006 85.7063 239.061C85.7063 237.919 85.7063 236.663 85.7063 235.453C85.7063 227.563 82.4634 202.579 80.4766 185.69L95.3208 177.069C97.2391 182.836 97.2391 217.891 89.68 231.525Z" fill="#021946"/>
</g>
<path d="M100.61 155.795L98.8516 162.932C98.8516 162.932 106.399 175.493 115.317 174.248C124.235 173.003 118.195 162.407 118.195 162.407L118.549 157.68L102.106 147.939L100.61 155.795Z" fill="#E08D68"/>
<path d="M127.354 128.802C127.822 131.166 127.616 138.885 127.159 144.789C126.714 150.555 125.161 158.913 121.884 159.633C118.607 160.352 104.539 157.646 103.888 149.562C101.49 147.666 92.3783 136.51 95.5869 130.995C101.285 121.255 125.858 121.186 127.354 128.802Z" fill="#F4A484"/>
<path d="M115.865 142.39C116.407 142.39 116.847 141.736 116.847 140.928C116.847 140.121 116.407 139.467 115.865 139.467C115.322 139.467 114.883 140.121 114.883 140.928C114.883 141.736 115.322 142.39 115.865 142.39Z" fill="#24292D"/>
<path d="M125.593 140.518C125.593 141.329 125.148 141.98 124.611 141.98C124.074 141.98 123.629 141.329 123.629 140.518C123.629 139.708 124.074 139.057 124.611 139.057C125.148 139.057 125.593 139.719 125.593 140.518Z" fill="#24292D"/>
<path d="M117.51 137.366C116.662 137.099 115.77 136.999 114.883 137.069C114.013 137.238 113.202 137.631 112.531 138.211C112.697 137.738 112.99 137.32 113.376 137.001C113.775 136.664 114.263 136.45 114.781 136.384C115.281 136.317 115.79 136.372 116.265 136.543C116.74 136.713 117.167 136.996 117.51 137.366Z" fill="#24292D"/>
<path d="M121.848 136.966C122.186 136.589 122.611 136.299 123.087 136.122C123.562 135.944 124.074 135.886 124.577 135.95C125.088 136.018 125.57 136.224 125.973 136.546C126.375 136.868 126.682 137.294 126.86 137.777C126.19 137.197 125.379 136.804 124.508 136.635C123.608 136.566 122.703 136.679 121.848 136.966Z" fill="#24292D"/>
<path d="M121.162 142.664C121.362 143.503 121.701 144.302 122.167 145.028L123.457 147.311C123.681 147.682 123.887 148.063 124.073 148.453C124.181 148.696 124.247 148.954 124.268 149.218C124.267 149.331 124.248 149.443 124.21 149.55C124.176 149.638 124.125 149.719 124.062 149.789C123.971 149.905 123.859 150.002 123.731 150.075C123.325 150.322 122.875 150.489 122.406 150.566C121.968 150.66 121.519 150.699 121.07 150.68V150.6C121.833 150.285 122.567 149.903 123.263 149.458C123.388 149.344 123.457 149.241 123.423 149.275C123.393 149.109 123.351 148.945 123.297 148.784C123.17 148.396 123.021 148.015 122.852 147.643L121.801 145.268C121.419 144.47 121.179 143.612 121.093 142.733L121.162 142.664Z" fill="#E5744C"/>
<path d="M124.213 151.97C122.393 151.873 120.578 152.239 118.938 153.032C118.937 153.032 123.448 153.695 123.859 153.238C124.114 152.866 124.239 152.42 124.213 151.97Z" fill="white"/>
<path d="M127.785 130.846C127.077 132.376 122.178 134.614 113.203 134.123C113.203 134.123 117.702 132.89 118.684 129.385C117.464 131.067 115.859 132.434 114.004 133.372C112.149 134.309 110.097 134.79 108.019 134.774C108.265 138.284 107.423 141.785 105.61 144.8C105.61 144.8 103.577 147.472 103.885 149.63C104.194 151.788 102.024 155.259 100.608 156.081C99.7517 149.687 93.049 137.172 94.3507 130.127C94.6012 128.207 95.5117 126.433 96.9262 125.11C98.3407 123.787 100.171 122.998 102.104 122.876C105.027 118.229 115.806 116.322 122.886 120.17C128.104 123.013 129.086 128.049 127.785 130.846Z" fill="#24292D"/>
<path d="M106.319 142.607C104.812 138.919 99.7533 139.182 99.7305 142.333C99.7305 147.449 102.768 148.956 103.864 149.63C104.96 150.303 107.244 144.845 106.319 142.607Z" fill="#F4A484"/>
<path d="M75.4883 202.407C74.3464 209.6 73.353 216.668 72.9876 216.292C72.0284 215.264 55.4372 210.742 54.4095 210.126C51.3039 208.203 47.6548 207.349 44.0185 207.693L40.9583 207.545C39.9408 207.305 38.8764 207.357 37.8867 207.693C36.6078 208.264 36.2538 209.269 37.43 209.657C38.4277 209.941 39.4421 210.162 40.4673 210.32C40.4673 210.32 36.368 210.228 33.148 209.977C31.9376 209.874 31.8006 211.53 31.8006 211.53C31.8006 211.53 31.2867 211.45 31.0355 211.393C29.3912 211.028 28.7518 213.494 29.4141 213.677C30.0215 213.852 30.6393 213.99 31.2639 214.088C30.8528 214.248 30.122 215.39 31.1611 215.698C32.2002 216.006 35.3061 216.646 35.3061 216.646C34.5981 216.646 34.0044 218.027 34.4154 218.176C37.0903 219.016 39.808 219.714 42.5569 220.265C44.5771 220.345 46.6004 220.269 48.6088 220.037C49.922 219.843 52.6738 219.729 52.6738 219.729C52.6738 219.729 76.1506 231.147 78.9367 231.456C81.4831 231.787 85.7194 230.885 87.0782 227.037C88.3229 223.611 93.4727 202.304 93.4727 202.304C91.817 191.399 77.281 191.513 75.4883 202.407Z" fill="#F4A484"/>
<path d="M53.0156 219.466C53.7398 218.373 54.2118 217.133 54.3973 215.835" stroke="#E08D68" stroke-width="0.57" stroke-linecap="round" stroke-linejoin="round"/>
<path d="M43.2656 210.697C43.2656 210.697 45.0926 213.735 50.7677 213.335C46.4514 214.123 43.7338 218.508 43.7338 218.508" stroke="#E08D68" stroke-width="0.57" stroke-linecap="round" stroke-linejoin="round"/>
<path d="M35.7383 216.635L41.9386 217.525" stroke="#E08D68" stroke-width="0.57" stroke-linecap="round" stroke-linejoin="round"/>
<path d="M32.2344 213.997L41.552 215.082" stroke="#E08D68" stroke-width="0.57" stroke-linecap="round" stroke-linejoin="round"/>
<path d="M32.6133 211.53L41.0745 212.33" stroke="#E08D68" stroke-width="0.57" stroke-linecap="round" stroke-linejoin="round"/>
<path d="M79.0062 169.499C72.6346 182.219 72.4062 210.937 72.4062 210.937C72.4062 210.937 84.9668 217.48 92.4574 214.454C92.4574 214.454 97.2989 187.106 95.4034 177.08C94.2501 170.937 82.1121 163.287 79.0062 169.499Z" fill="#021946"/>
<path d="M348.578 419.213C348.167 424.648 349.948 436.775 348.578 437.06H308.43C308.43 437.06 308.031 430.951 312.781 429.627C319.129 427.857 326.86 426.544 329.749 424.009C331.176 422.764 331.861 419.213 331.861 419.213H348.578Z" fill="#FE5456"/>
<path d="M319.414 427.925C319.414 427.925 324.518 427.468 326.345 430.368" stroke="#7DBBF1" stroke-width="0.85" stroke-linecap="round" stroke-linejoin="round"/>
<path d="M324.016 426.566C324.016 426.566 329.12 426.109 330.947 429.01" stroke="#7DBBF1" stroke-width="0.85" stroke-linecap="round" stroke-linejoin="round"/>
<path d="M371.961 419.213C372.475 427.012 371.116 436.398 373.32 437.06H399.982C400.017 435.583 399.753 434.114 399.208 432.741C398.663 431.368 397.846 430.118 396.808 429.067C395.346 427.583 391.909 425.87 390.345 424.306C388.781 422.741 388.712 419.224 388.712 419.224L371.961 419.213Z" fill="#FE5456"/>
<path d="M388.016 428.907C388.016 428.907 391.441 424.888 395.723 428.13" stroke="#7DBBF1" stroke-width="0.85" stroke-linecap="round" stroke-linejoin="round"/>
<path d="M383.793 426.863C383.793 426.863 388.909 422.661 392.814 425.95" stroke="#7DBBF1" stroke-width="0.85" stroke-linecap="round" stroke-linejoin="round"/>
<path d="M323.788 255.253C322.497 267.562 331.13 420.823 331.13 420.823H349C349 420.823 354.607 312.106 353.853 296.246C353.099 280.385 356.525 265.335 355.52 255.698C354.515 246.061 325.98 234.494 323.788 255.253Z" fill="#021946"/>
<path d="M349.332 256.178C349.332 311.432 371.724 420.857 371.724 420.857H390.154C390.154 420.857 380.859 296.394 380.516 280.408C380.265 268.989 378.975 260.996 377.856 251.348C375.949 235.053 349.343 235.373 349.332 256.178Z" fill="#021946"/>
<g style="mix-blend-mode:multiply" opacity="0.36">
<path d="M378.95 260.402C371.531 263.605 363.553 265.309 355.473 265.415C354.445 265.415 353.383 265.415 352.333 265.323C351.282 265.232 350.414 265.209 349.501 265.175C336.004 264.456 328.571 264.775 326.23 265.415C325.229 265.778 324.367 266.445 323.763 267.322C323.626 261.224 323.615 256.965 323.763 255.298C325.408 239.574 342.159 242.406 350.643 248.869C351.842 245.846 354.043 243.327 356.877 241.733L369.632 240.808C371.861 241.623 373.812 243.054 375.261 244.933C376.71 246.813 377.597 249.064 377.819 251.427C378.219 254.51 378.607 257.422 378.95 260.402Z" fill="#021946"/>
</g>
<path d="M331.859 167.797C318.705 180.106 319.481 212.889 319.481 212.889C319.481 212.889 331.551 220.882 338.733 217.787C338.733 217.787 344.157 184.205 341.291 173.86C339.544 167.488 334.291 165.513 331.859 167.797Z" fill="#1B84C1"/>
<path d="M368.526 162.842C368.526 162.842 386.795 168.654 387.423 172.171C388.051 175.687 377.832 223.018 377.832 234.882C377.832 246.746 379.133 258.564 379.133 258.564C379.133 258.564 363.718 262.88 349.011 262.606C340.357 262.49 331.736 261.518 323.273 259.706C323.273 259.706 324.084 245.181 324.415 235.464C324.746 225.747 324.929 197.783 324.906 187.437C324.949 180.296 327.413 173.38 331.894 167.82C334.178 165.171 349.228 162.385 349.228 162.385L368.526 162.842Z" fill="#1B84C1"/>
<g style="mix-blend-mode:multiply" opacity="0.36">
<path d="M377.833 234.882C377.833 238.193 377.936 241.482 378.073 244.508C375.149 238.741 369.634 233.443 366.837 232.552C363.274 231.411 333.163 219.113 330.799 219.604C328.739 219.735 326.671 219.574 324.656 219.124C324.713 215.698 324.736 211.999 324.782 208.413L340.517 164.303C344.879 163.161 349.195 162.351 349.195 162.351C347.905 163.39 346.112 169.202 344.799 172.182C343.486 175.162 336.235 205.661 336.235 205.661L360.831 208.105C363.902 184.64 370.525 175.185 370.525 175.185L385.164 187.54C382.32 203.469 377.833 227.003 377.833 234.882Z" fill="#1B84C1"/>
</g>
<path d="M366.778 155.795L368.525 162.932C368.525 162.932 360.978 175.493 352.071 174.248C343.165 173.003 349.194 162.407 349.194 162.407L348.84 157.68L365.283 147.939L366.778 155.795Z" fill="#E08D68"/>
<path d="M340.674 128.882C339.992 134.183 339.842 139.538 340.229 144.868C340.674 150.635 342.227 158.982 345.493 159.713C348.758 160.443 362.838 157.737 363.5 149.653C365.898 147.757 374.998 136.601 371.801 131.086C366.092 121.255 342.17 121.277 340.674 128.882Z" fill="#F4A484"/>
<path d="M351.509 142.39C352.052 142.39 352.491 141.736 352.491 140.928C352.491 140.121 352.052 139.467 351.509 139.467C350.967 139.467 350.527 140.121 350.527 140.928C350.527 141.736 350.967 142.39 351.509 142.39Z" fill="#24292D"/>
<path d="M342.959 141.82C343.501 141.82 343.941 141.165 343.941 140.358C343.941 139.551 343.501 138.896 342.959 138.896C342.416 138.896 341.977 139.551 341.977 140.358C341.977 141.165 342.416 141.82 342.959 141.82Z" fill="#24292D"/>
<path d="M349.797 137.971C350.07 137.505 350.463 137.121 350.935 136.858C351.406 136.594 351.94 136.463 352.48 136.475C353.038 136.484 353.582 136.655 354.045 136.966C354.482 137.247 354.833 137.642 355.061 138.108C354.57 137.926 354.147 137.72 353.713 137.606C353.311 137.477 352.891 137.408 352.469 137.4C351.551 137.431 350.647 137.624 349.797 137.971Z" fill="#24292D"/>
<path d="M346.213 137.389C345.358 137.066 344.454 136.892 343.541 136.875C343.118 136.876 342.698 136.946 342.296 137.081C341.862 137.195 341.44 137.4 340.938 137.583C341.17 137.092 341.534 136.675 341.99 136.378C342.446 136.082 342.975 135.918 343.518 135.904C344.059 135.89 344.594 136.019 345.067 136.28C345.541 136.541 345.937 136.924 346.213 137.389Z" fill="#24292D"/>
<path d="M346.339 142.675C346.25 143.581 346.019 144.468 345.654 145.302L344.603 147.78C344.432 148.191 344.284 148.613 344.158 149.013C344.097 149.191 344.051 149.375 344.021 149.561V149.618C344.054 149.674 344.097 149.724 344.146 149.766C344.837 150.264 345.58 150.685 346.362 151.023V151.102C345.898 151.118 345.434 151.076 344.98 150.977C344.489 150.887 344.023 150.697 343.61 150.417C343.481 150.322 343.372 150.201 343.29 150.063C343.224 149.972 343.181 149.866 343.165 149.755C343.153 149.664 343.153 149.572 343.165 149.481C343.193 149.219 343.266 148.964 343.381 148.727C343.564 148.301 343.77 147.886 343.998 147.483L345.277 145.119C345.744 144.363 346.08 143.533 346.27 142.664L346.339 142.675Z" fill="#E08D68"/>
<path d="M342.913 153.032C344.626 152.484 346.485 152.61 348.108 153.386C348.108 153.386 343.598 154.049 343.187 153.592C342.776 153.135 342.913 153.032 342.913 153.032Z" fill="white"/>
<path d="M340.174 131.931C340.893 133.472 353.796 133.37 360.83 133.221C360.83 133.221 358.741 139.718 361.778 144.8C361.778 144.8 363.799 147.472 363.502 149.63C363.205 151.788 366.551 156.344 366.745 154.722C367.362 149.664 374.373 135.311 372.454 128.368C370.844 122.522 367.179 122.784 367.179 122.784C364.244 118.137 356.971 120.649 342.355 117.429C336.577 116.15 338.872 129.145 340.174 131.931Z" fill="#24292D"/>
<path d="M361.048 142.607C362.543 138.919 367.602 139.182 367.636 142.333C367.636 147.449 364.599 148.956 363.503 149.63C362.406 150.303 360.134 144.845 361.048 142.607Z" fill="#F4A484"/>
<path d="M323.069 216.315C324.252 216.842 325.513 217.169 326.803 217.285C328.018 217.326 329.234 217.292 330.445 217.183C330.445 217.183 363.103 228.601 366.197 228.453C368.481 228.304 373.505 226.831 375.652 223.166C377.798 219.501 382.286 205.65 383.976 199.438C387.15 187.734 371.518 185.884 367.419 197.269C364.713 204.782 363.993 212.604 363.662 212.113C362.84 210.811 335.698 208.048 335.115 207.066C334.031 205.125 330.126 204.245 329.018 204.2C328.244 204.169 327.477 204.042 326.734 203.823C325.238 203.492 323.937 204.965 325.387 205.604C326.529 206.095 328.527 206.917 328.527 206.917C328.527 206.917 321.539 204.428 320.191 203.926C320.026 203.857 319.85 203.822 319.671 203.822C319.493 203.823 319.316 203.858 319.151 203.926C318.986 203.995 318.836 204.095 318.71 204.221C318.584 204.347 318.484 204.497 318.416 204.662C318.347 204.827 318.312 205.004 318.313 205.182C318.313 205.361 318.348 205.538 318.416 205.703C318.485 205.867 318.585 206.017 318.711 206.143C318.837 206.27 318.987 206.37 319.152 206.438C320.991 207.488 321.356 207.637 321.356 207.637C320.623 207.152 319.736 206.957 318.867 207.089C318.033 207.294 318.524 209.612 319.426 209.875L319.906 210.023C319.672 210.205 319.496 210.452 319.402 210.733C319.307 211.015 319.298 211.317 319.375 211.604C319.452 211.89 319.611 212.148 319.834 212.344C320.056 212.54 320.331 212.666 320.625 212.707L321.048 212.855C321.048 212.855 319.586 214.1 320.739 214.865C321.893 215.63 323.069 216.315 323.069 216.315Z" fill="#F4A484"/>
<path d="M345.598 167.352C344.787 170.686 343.383 169.875 342.949 170.846C342.515 171.817 333.814 204.862 333.437 206.369C332.41 211.245 326.244 215.07 322.704 213.46C318.833 211.702 317.497 206.278 318.205 203.184C318.913 200.089 334.693 168.357 334.693 168.357C334.693 168.357 335.892 158.422 336.509 158.08C338.236 157.186 340.04 156.448 341.899 155.876C343.04 155.636 348.59 155.876 348.556 155.876C348.48 156.597 348.128 157.26 347.574 157.726C346.021 158.057 344.45 158.294 342.869 158.434C342.869 158.434 346.843 158.651 347.026 159.039C347.366 160.819 347.526 162.628 347.505 164.44C347.011 165.496 346.369 166.477 345.598 167.352Z" fill="#F4A484"/>
<path d="M339.215 159.165L341.122 158.708" stroke="#E08D68" stroke-width="0.57" stroke-linecap="round" stroke-linejoin="round"/>
<path d="M339.59 160.877C339.59 160.877 345.208 160.957 345.379 161.094C345.55 161.231 345.939 163.72 346.35 164.097C346.761 164.474 346.978 164.44 346.978 164.44" stroke="#E08D68" stroke-width="0.57" stroke-linecap="round" stroke-linejoin="round"/>
<path d="M338.711 163.093C338.711 163.093 343.278 163.595 343.575 163.721C343.872 163.846 344.363 166.427 345.254 166.461C346.144 166.496 346.396 165.491 346.396 165.491" stroke="#E08D68" stroke-width="0.57" stroke-linecap="round" stroke-linejoin="round"/>
<path d="M338.973 165.342L342.718 165.913" stroke="#E08D68" stroke-width="0.57" stroke-linecap="round" stroke-linejoin="round"/>
<path d="M341.45 167.1C340.571 167.18 340.994 168.745 341.45 168.824C342.233 168.956 343.032 168.956 343.814 168.824C344.088 168.611 344.315 168.344 344.482 168.04C344.649 167.735 344.752 167.4 344.785 167.055C344.667 166.47 344.499 165.897 344.282 165.342" stroke="#E08D68" stroke-width="0.57" stroke-linecap="round" stroke-linejoin="round"/>
<path d="M343.575 170.16C341.97 170.944 340.151 171.173 338.402 170.811" stroke="#E08D68" stroke-width="0.57" stroke-linecap="round" stroke-linejoin="round"/>
<path d="M342.536 171.451C342.536 171.451 341.622 172.045 339.59 171.303" stroke="#E08D68" stroke-width="0.57" stroke-linecap="round" stroke-linejoin="round"/>
<path d="M342.422 155.796L348.508 155.864C348.759 155.864 348.268 157.532 347.526 157.714C346.784 157.897 342.822 158.422 342.822 158.422C342.822 158.422 346.898 158.708 346.978 159.027C347.058 159.347 347.298 161.117 347.298 161.117" stroke="#E08D68" stroke-width="0.57" stroke-linecap="round" stroke-linejoin="round"/>
<path d="M387.458 172.136C393.453 178.679 380.276 214.385 380.276 214.385C380.276 214.385 369.999 213.677 362.543 210.651C362.543 210.651 368.252 179.536 370.536 175.162C373.368 169.636 382.777 167.032 387.458 172.136Z" fill="#1B84C1"/>
<path d="M333.617 205.661C332.726 209.384 329.506 214.693 323.877 213.746C319.206 212.958 318.293 207.031 318.293 207.031" stroke="#E08D68" stroke-width="0.57" stroke-linecap="round" stroke-linejoin="round"/>
<path d="M172.274 437.06C172.274 437.06 172.914 421.131 157.887 409.256C157.887 409.256 178.874 411.54 180.576 437.06H172.274Z" fill="#48BE97"/>
<path d="M174.488 437.059C174.488 437.059 172.547 410.66 196.047 405.213C196.047 405.213 182.516 414.736 181.202 437.059H174.488Z" fill="#36A871"/>
<path d="M174.488 437.06C174.488 437.06 179.832 413.515 202.121 414.36C202.121 414.36 185.256 423.826 184.274 437.06H174.488Z" fill="#48BE97"/>
<path d="M287.546 437.06C287.546 437.06 284.554 427.103 297.823 421.702C297.823 421.702 282.784 418.801 281.562 437.06H287.546Z" fill="#48BE97"/>
<path d="M285.957 437.06C285.957 437.06 283.182 425.95 288.937 412.11C288.937 412.11 278.284 417.352 281.173 437.06H285.957Z" fill="#36A871"/>
<path d="M285.956 437.06C285.956 437.06 285.1 424.34 269.137 424.945C269.137 424.945 280.555 428.644 278.945 437.06H285.956Z" fill="#48BE97"/>
</g>
<defs>
<clipPath id="clip0_966_3007">
<rect width="460" height="451.95" fill="white"/>
</clipPath>
</defs>
</svg>
