<svg width="101" height="100" viewBox="0 0 101 100" fill="none" xmlns="http://www.w3.org/2000/svg">
<g clip-path="url(#clip0_960_4568)">
<path d="M96.771 25.1744C96.771 20.6961 93.1281 17.0533 88.6499 17.0533C86.3508 17.0533 84.2728 18.0156 82.794 19.5565L51.102 1.25889C50.8082 1.08929 50.4749 1 50.1356 1C49.7963 1 49.463 1.08929 49.1692 1.25889L17.476 19.5567C15.9974 18.0156 13.9203 17.0533 11.6211 17.0533C7.14289 17.0533 3.5 20.6961 3.5 25.1744C3.5 28.9857 6.13974 32.1906 9.6875 33.0607V69.6426C9.6875 70.3329 10.056 70.9711 10.6543 71.3171L42.3366 89.6092C42.1213 90.3466 42.0119 91.1108 42.0118 91.8789C42.0118 96.3563 45.6547 100 50.1329 100C54.6103 100 58.2532 96.3563 58.2532 91.8789C58.2532 91.0919 58.1391 90.332 57.9291 89.6114L89.6169 71.3171C90.2149 70.9719 90.5837 70.3329 90.5837 69.6426V33.0607C94.1312 32.1906 96.7712 28.9857 96.7712 25.1744H96.771ZM7.36719 25.1744C7.36719 22.8285 9.27507 20.9204 11.6211 20.9204C13.9664 20.9204 15.8742 22.8285 15.8742 25.1744C15.8742 27.5198 13.9664 29.4283 11.6211 29.4283C9.27507 29.4283 7.36719 27.5198 7.36719 25.1744ZM50.1329 96.1328C47.7868 96.1328 45.879 94.2249 45.879 91.8789C45.879 89.5336 47.7868 87.625 50.1329 87.625C52.4781 87.625 54.3868 89.5336 54.3868 91.8789C54.3868 94.2249 52.4781 96.1328 50.1329 96.1328ZM55.9926 86.2647C54.5129 84.7217 52.4342 83.7578 50.1329 83.7578C47.8329 83.7578 45.7543 84.7207 44.2754 86.2624L13.5547 68.5263V33.0607C17.1017 32.1906 19.7414 28.9857 19.7414 25.1744C19.7414 24.3858 19.6266 23.6236 19.416 22.9018L50.135 5.1663L80.8554 22.9018C80.6394 23.64 80.5298 24.4052 80.5298 25.1744C80.5298 28.9857 83.1695 32.1906 86.7165 33.0607V68.5263L55.9926 86.2647ZM88.6497 29.4283C86.3044 29.4283 84.3958 27.5198 84.3958 25.1744C84.3958 22.8285 86.3044 20.9204 88.6497 20.9204C90.9957 20.9204 92.9036 22.8285 92.9036 25.1744C92.9036 27.5198 90.9957 29.4283 88.6497 29.4283Z" fill="url(#paint0_linear_960_4568)"/>
<path d="M76.6262 30.9955L51.1028 16.2601C50.8089 16.0905 50.4756 16.0012 50.1363 16.0012C49.7971 16.0012 49.4638 16.0905 49.1699 16.2601L23.6465 30.9955C23.0482 31.3414 22.6797 31.9797 22.6797 32.6699V62.1414C22.6797 62.8317 23.0482 63.4707 23.6465 63.8159L49.1699 78.552C49.4689 78.7241 49.802 78.8111 50.136 78.8111C50.4705 78.8111 50.8036 78.7241 51.1028 78.552L76.6262 63.8161C77.2243 63.4708 77.593 62.8319 77.593 62.1414V32.6699C77.593 31.9797 77.2243 31.3414 76.6262 30.9955ZM50.136 20.1673L71.7922 32.6699L50.136 45.1733L28.4805 32.6699L50.136 20.1673ZM52.0696 73.5285V64.8084C52.0696 63.7405 51.2039 62.8748 50.136 62.8748C49.0686 62.8748 48.2031 63.7405 48.2031 64.8084V73.5285L26.5469 61.0251V36.0189L49.1699 49.0806C49.4689 49.2526 49.802 49.3397 50.136 49.3397C50.4705 49.3397 50.8036 49.2526 51.1028 49.0806L73.7258 36.0191V61.0251L52.0696 73.5285Z" fill="url(#paint1_linear_960_4568)"/>
<path d="M50.1351 54.1738C49.6219 54.1752 49.1299 54.3788 48.7658 54.7404C48.4044 55.1038 48.2009 55.5949 48.1992 56.1074C48.201 56.6196 48.4046 57.1105 48.7658 57.4737C49.1299 57.8355 49.6218 58.0393 50.1351 58.041C50.6435 58.041 51.1425 57.8341 51.5022 57.4737C51.8634 57.1105 52.0669 56.6196 52.0687 56.1074C52.0687 55.5983 51.8618 55.1 51.5022 54.7404C51.1389 54.3789 50.6476 54.1753 50.1351 54.1738Z" fill="url(#paint2_linear_960_4568)"/>
</g>
<defs>
<linearGradient id="paint0_linear_960_4568" x1="50.1356" y1="1" x2="50.1356" y2="100" gradientUnits="userSpaceOnUse">
<stop stop-color="#4FD3D3"/>
<stop offset="1" stop-color="#5528A9"/>
</linearGradient>
<linearGradient id="paint1_linear_960_4568" x1="50.1363" y1="16.0012" x2="50.1363" y2="78.8111" gradientUnits="userSpaceOnUse">
<stop stop-color="#4FD3D3"/>
<stop offset="1" stop-color="#5528A9"/>
</linearGradient>
<linearGradient id="paint2_linear_960_4568" x1="50.134" y1="54.1738" x2="50.134" y2="58.041" gradientUnits="userSpaceOnUse">
<stop stop-color="#4FD3D3"/>
<stop offset="1" stop-color="#5528A9"/>
</linearGradient>
<clipPath id="clip0_960_4568">
<rect width="100" height="100" fill="white" transform="translate(0.5)"/>
</clipPath>
</defs>
</svg>
