<svg width="101" height="100" viewBox="0 0 101 100" fill="none" xmlns="http://www.w3.org/2000/svg">
<g clip-path="url(#clip0_960_1653)">
<path d="M91.5885 17.2678C77.8297 13.4979 63.9901 7.62777 51.5657 0.292237C51.2418 0.10092 50.8726 0 50.4964 0C50.1202 0 49.7509 0.10092 49.4271 0.292237C36.6443 7.83851 23.5525 13.391 9.40312 17.2678C8.95844 17.3896 8.5661 17.6541 8.28647 18.0207C8.00683 18.3873 7.8554 18.8356 7.85547 19.2967V40.79C7.85547 62.9234 18.0662 77.5741 26.6322 85.9669C35.854 95.003 46.5962 100 50.4964 100C54.3962 100 65.1384 95.003 74.3602 85.9669C82.926 77.5743 93.1362 62.9236 93.1362 40.79V19.2965C93.1362 18.3488 92.5026 17.518 91.5885 17.2678ZM88.9291 40.7898C88.9291 61.4622 79.4055 75.1331 71.4157 82.9616C62.3472 91.8473 52.6513 95.7926 50.4964 95.7926C48.3415 95.7926 38.6451 91.8473 29.5763 82.9616C21.5867 75.1329 12.0627 61.4622 12.0627 40.7898V20.8934C25.5935 17.0516 38.1947 11.6901 50.4968 4.54106C62.4917 11.5004 75.7215 17.1285 88.9291 20.8926V40.7898Z" fill="url(#paint0_linear_960_1653)"/>
<path d="M31.8498 20.658C31.424 19.577 30.2027 19.0459 29.1215 19.4719C25.3494 20.9576 21.5257 22.3088 17.6576 23.5229C17.2303 23.6569 16.8569 23.9239 16.5917 24.2849C16.3266 24.6459 16.1836 25.082 16.1836 25.5299V33.6532C16.1836 34.8149 17.1256 35.7567 18.2871 35.7567C19.4486 35.7567 20.3906 34.8149 20.3906 33.6532V27.0672C23.8523 25.947 27.2783 24.7193 30.6637 23.386C31.7447 22.9604 32.2758 21.7391 31.8498 20.658ZM35.8457 21.0571C36.1279 21.0571 36.4145 21.0002 36.6893 20.8803L36.7279 20.8635C37.7922 20.3971 38.2715 19.1582 37.8051 18.0944C37.3383 17.0301 36.0924 16.5487 35.0293 17.0147L34.9953 17.0293C33.9305 17.4944 33.4496 18.7323 33.9146 19.7967C34.2598 20.5869 35.0342 21.0571 35.8457 21.0571ZM75.5576 67.8287C74.5855 67.1934 73.282 67.4666 72.6459 68.4391C70.9125 71.0922 68.8789 73.6328 66.6008 75.9897C64.727 77.9279 62.7101 79.7224 60.567 81.3578C59.6434 82.0621 59.4656 83.3821 60.1697 84.3061C60.366 84.5639 60.6193 84.7728 60.9097 84.9165C61.2002 85.0602 61.5199 85.1348 61.8439 85.1344C62.2889 85.1344 62.7371 84.994 63.118 84.7033C65.4291 82.9394 67.6043 81.0041 69.6252 78.9139C72.0883 76.3662 74.2895 73.6162 76.168 70.7403C76.8037 69.7676 76.5301 68.4641 75.5576 67.8287ZM55.6818 84.6569L55.5611 84.728C54.5559 85.3102 54.2123 86.5969 54.7943 87.6022C54.9326 87.8413 55.1167 88.0509 55.336 88.2189C55.5554 88.3869 55.8056 88.51 56.0726 88.5811C56.3395 88.6523 56.6179 88.6702 56.8917 88.6337C57.1656 88.5972 57.4296 88.5071 57.6686 88.3686L57.8078 88.2868C58.8104 87.6996 59.1471 86.4112 58.56 85.4086C57.9725 84.4065 56.6838 84.0703 55.6818 84.6569ZM36.1566 45.7069C34.865 44.4151 33.1473 43.7041 31.3203 43.7041C29.4934 43.7041 27.7754 44.4153 26.4832 45.7069C23.8166 48.3741 23.8166 52.7139 26.4832 55.3809L38.9043 67.8016C40.1961 69.093 41.9139 69.8041 43.741 69.8041C45.5682 69.8041 47.2859 69.093 48.5779 67.8012L74.5078 41.8711C77.1742 39.2033 77.1742 34.8641 74.5074 32.1979C73.2156 30.9061 71.4979 30.1951 69.6705 30.1951C67.8434 30.1951 66.1256 30.9063 64.8336 32.1979L43.7408 53.2906L36.1566 45.7069ZM67.8086 35.1729C68.0526 34.9277 68.3428 34.7333 68.6625 34.601C68.9821 34.4687 69.3248 34.4012 69.6707 34.4022C70.3746 34.4022 71.0355 34.6758 71.533 35.1729C72.5594 36.1992 72.5594 37.8699 71.5326 38.8967L45.6031 64.8264C45.1061 65.3235 44.4445 65.5971 43.741 65.5971C43.0375 65.5971 42.376 65.3235 41.8787 64.8264L29.458 52.4061C28.4313 51.3793 28.4312 49.7086 29.4576 48.6823C29.9549 48.1852 30.6164 47.9112 31.3201 47.9112C32.0238 47.9112 32.685 48.1848 33.182 48.6819L42.2533 57.7533C42.648 58.1477 43.1828 58.3694 43.7408 58.3694C44.2988 58.3694 44.8336 58.1479 45.2279 57.7533L67.8086 35.1729Z" fill="url(#paint1_linear_960_1653)"/>
</g>
<defs>
<linearGradient id="paint0_linear_960_1653" x1="50.4958" y1="0" x2="50.4958" y2="100" gradientUnits="userSpaceOnUse">
<stop stop-color="#4FD3D3"/>
<stop offset="1" stop-color="#5528A9"/>
</linearGradient>
<linearGradient id="paint1_linear_960_1653" x1="46.3472" y1="16.8369" x2="46.3472" y2="88.6521" gradientUnits="userSpaceOnUse">
<stop stop-color="#4FD3D3"/>
<stop offset="1" stop-color="#5528A9"/>
</linearGradient>
<clipPath id="clip0_960_1653">
<rect width="100" height="100" fill="white" transform="translate(0.496094)"/>
</clipPath>
</defs>
</svg>
