<svg width="24" height="23" viewBox="0 0 24 23" fill="none" xmlns="http://www.w3.org/2000/svg">
<path d="M0.779349 22.7231H3.89939C4.32984 22.7231 4.67874 22.3741 4.67874 21.9437V8.30604C4.67874 7.87556 4.32984 7.52669 3.89939 7.52669H0.779349C0.348862 7.52669 0 7.87556 0 8.30604V21.9437C0 22.3741 0.348862 22.7231 0.779349 22.7231ZM0.779349 5.12912H3.89939C4.32984 5.12912 4.67874 4.78022 4.67874 4.34977V1.57915C4.67874 1.14871 4.32984 0.799805 3.89939 0.799805H0.779349C0.348862 0.799805 0 1.14871 0 1.57915V4.34977C0 4.78022 0.348862 5.12912 0.779349 5.12912ZM22.8261 9.10849C22.3877 8.53138 21.7412 8.05678 20.8864 7.68478C20.0316 7.31304 19.088 7.12703 18.0557 7.12703C15.96 7.12703 14.1842 7.92683 12.7284 9.52673C12.4387 9.84507 12.2281 9.77548 12.2281 9.34499V8.30604C12.2281 7.87556 11.8791 7.52669 11.4487 7.52669H8.66159C8.2311 7.52669 7.88224 7.87556 7.88224 8.30604V21.9437C7.88224 22.3741 8.23114 22.7231 8.66159 22.7231H11.7816C12.2121 22.7231 12.561 22.3741 12.561 21.9437V17.2009C12.561 15.225 12.6803 13.8707 12.9189 13.1381C13.1575 12.4055 13.5988 11.8172 14.2426 11.3732C14.8865 10.9292 15.6135 10.707 16.4239 10.707C17.0566 10.707 17.5978 10.8625 18.0475 11.1734C18.4971 11.4843 18.8218 11.9197 19.0216 12.4804C19.2215 13.0411 19.3213 14.2759 19.3213 16.1853V21.9437C19.3213 22.3741 19.6702 22.723 20.1007 22.723H23.2207C23.6511 22.723 24 22.3741 24 21.9437V14.2204C24 12.8551 23.9139 11.8061 23.7421 11.0735C23.5702 10.3409 23.2648 9.6859 22.8261 9.10849Z" fill="white"/>
</svg>
