<svg width="30" height="30" viewBox="0 0 30 30" fill="none" xmlns="http://www.w3.org/2000/svg">
<circle cx="15" cy="15" r="15" fill="url(#paint0_linear_1089_741)"/>
<path d="M14.9997 5C10.8649 5 7.5 8.3882 7.5 12.5539C7.5 18.4728 14.2947 24.5842 14.5839 24.8409C14.6982 24.9432 14.8462 24.9998 14.9995 25C15.1529 25.0002 15.301 24.9438 15.4155 24.8417C15.7047 24.5842 22.4994 18.4728 22.4994 12.5539C22.4994 8.3882 19.1345 5 14.9997 5ZM14.9997 16.6662C12.7023 16.6662 10.8332 14.7971 10.8332 12.4997C10.8332 10.2023 12.7023 8.3332 14.9997 8.3332C17.2971 8.3332 19.1662 10.2023 19.1662 12.4997C19.1662 14.7971 17.2971 16.6662 14.9997 16.6662Z" fill="white"/>
<defs>
<linearGradient id="paint0_linear_1089_741" x1="15" y1="0" x2="15" y2="30" gradientUnits="userSpaceOnUse">
<stop stop-color="#4FD3D3"/>
<stop offset="1" stop-color="#5528A9"/>
</linearGradient>
</defs>
</svg>
