<svg width="193" height="58" viewBox="0 0 193 58" fill="none" xmlns="http://www.w3.org/2000/svg">
<path d="M21.0903 0H25.7934V4.234H25.2199C24.8184 5.394 24.3595 6.612 23.9581 7.772C18.5667 23.026 13.118 38.28 7.72669 53.534H25.7934V58H0.5C7.38256 38.686 14.2078 19.314 21.0903 0Z" fill="url(#paint0_linear_960_1412)"/>
<path d="M63.7348 58H38.4414V53.534H56.5492C51.0881 38.28 45.627 23.026 40.166 7.772C39.7636 6.612 39.3037 5.394 38.9013 4.234H38.4414V0H42.9827C49.8809 19.314 56.8366 38.686 63.7348 58Z" fill="url(#paint1_linear_960_1412)"/>
<path d="M52.2356 50.692H35.431V58H33.6591V50.692H30.6297V58H28.8578V50.692H11.9961C16.7974 37.178 21.5415 23.664 26.3429 10.15C26.6858 9.106 27.0859 8.062 27.4289 7.018H28.8007V0H30.5726V7.076H33.602V0H35.3739V7.076H36.6885C37.0886 8.12 37.4316 9.164 37.8317 10.208C42.633 23.722 47.4343 37.236 52.2356 50.692Z" fill="url(#paint2_linear_960_1412)"/>
<path d="M33.2269 10.44H29.2258L16.5938 47.85H21.5094L33.2269 10.44Z" fill="white"/>
<path d="M34.9968 10.44L32.7677 17.516C33.1106 18.792 33.5107 20.126 33.968 21.518L37.6261 32.306H28.1378L26.9375 36.076H38.5978L42.5989 47.85H47.7432L34.9968 10.44Z" fill="white"/>
<path d="M88.3525 34.6422L85.1273 44.4297H80.9805L91.5202 13.34H96.3581L106.955 44.3722H102.694L99.3531 34.5847H88.3525V34.6422ZM98.5467 31.4757L95.4942 22.5518C94.8031 20.5367 94.3423 18.6944 93.8816 16.9096H93.7664C93.3056 18.7519 92.7873 20.6519 92.2114 22.5518L89.1589 31.5333H98.5467V31.4757Z" fill="white"/>
<path d="M111.645 28.8849C111.645 26.2365 111.588 23.9911 111.473 21.9185H115.044L115.159 26.2941H115.331C116.368 23.3003 118.787 21.4003 121.494 21.4003C121.955 21.4003 122.3 21.4579 122.646 21.5155V25.3153C122.243 25.2578 121.84 25.2578 121.264 25.2578C118.384 25.2578 116.368 27.4455 115.85 30.4394C115.735 31.0151 115.677 31.6484 115.677 32.3393V44.1994H111.645V28.8849Z" fill="white"/>
<path d="M130.924 33.7786C130.982 39.3057 134.495 41.5511 138.527 41.5511C141.406 41.5511 143.192 41.0329 144.689 40.3996L145.38 43.2783C143.941 43.9116 141.522 44.66 137.951 44.66C131.097 44.66 127.008 40.1693 127.008 33.4332C127.008 26.6971 130.982 21.4003 137.49 21.4003C144.747 21.4003 146.705 27.791 146.705 31.8787C146.705 32.6847 146.59 33.3756 146.59 33.7786H130.924ZM142.789 30.9C142.846 28.3092 141.752 24.3366 137.144 24.3366C133.055 24.3366 131.27 28.1364 130.924 30.9H142.789Z" fill="white"/>
<path d="M151.345 27.9637C151.345 25.6608 151.287 23.7608 151.172 21.9185H154.743L154.973 25.6032H155.088C156.183 23.473 158.774 21.4003 162.46 21.4003C165.57 21.4003 170.351 23.2427 170.351 30.9V44.1994H166.319V31.3605C166.319 27.791 164.995 24.7972 161.136 24.7972C158.486 24.7972 156.413 26.6971 155.722 28.9425C155.549 29.4606 155.434 30.1515 155.434 30.8424V44.257H151.402V27.9637H151.345Z" fill="white"/>
<path d="M188.815 44.1419L188.469 41.3208H188.354C187.087 43.048 184.726 44.66 181.558 44.66C177.065 44.66 174.762 41.4935 174.762 38.2694C174.762 32.8575 179.542 29.9212 188.181 29.9788V29.5182C188.181 27.6758 187.663 24.3366 183.113 24.3366C181.039 24.3366 178.851 24.9699 177.296 26.0062L176.374 23.3578C178.217 22.1488 180.867 21.4003 183.689 21.4003C190.485 21.4003 192.155 26.0638 192.155 30.4969V38.8451C192.155 40.8026 192.27 42.645 192.501 44.1994H188.815V44.1419ZM188.181 32.7999C183.746 32.6847 178.736 33.4908 178.736 37.8088C178.736 40.4572 180.464 41.6662 182.537 41.6662C185.417 41.6662 187.26 39.8239 187.951 37.9239C188.066 37.5209 188.181 37.0603 188.181 36.6573V32.7999Z" fill="white"/>
<defs>
<linearGradient id="paint0_linear_960_1412" x1="13.1467" y1="-4.13747e-07" x2="16.5968" y2="65.8482" gradientUnits="userSpaceOnUse">
<stop stop-color="#4FD3D3"/>
<stop offset="1" stop-color="#5528A9"/>
</linearGradient>
<linearGradient id="paint1_linear_960_1412" x1="51.0881" y1="-4.13747e-07" x2="54.5382" y2="65.8482" gradientUnits="userSpaceOnUse">
<stop stop-color="#4FD3D3"/>
<stop offset="1" stop-color="#5528A9"/>
</linearGradient>
<linearGradient id="paint2_linear_960_1412" x1="32.1159" y1="-4.13747e-07" x2="34.2881" y2="65.9574" gradientUnits="userSpaceOnUse">
<stop stop-color="#4FD3D3"/>
<stop offset="1" stop-color="#5528A9"/>
</linearGradient>
</defs>
</svg>
