<svg width="101" height="100" viewBox="0 0 101 100" fill="none" xmlns="http://www.w3.org/2000/svg">
<g clip-path="url(#clip0_960_4584)">
<path d="M52.9603 71.4307C53.1988 73.3949 52.6726 75.1873 51.4385 76.6142C49.9787 78.3022 47.5462 79.4316 44.7796 79.7427V81.8612C44.7796 82.2847 44.6114 82.6909 44.3119 82.9903C44.0124 83.2898 43.6063 83.458 43.1828 83.458C42.7593 83.458 42.3532 83.2898 42.0537 82.9903C41.7543 82.6909 41.586 82.2847 41.586 81.8612V79.7198C37.4959 79.1699 34.3147 76.5913 33.3958 72.9057C33.345 72.7023 33.3349 72.4908 33.3659 72.2834C33.3969 72.076 33.4684 71.8768 33.5764 71.697C33.6844 71.5173 33.8268 71.3606 33.9953 71.2358C34.1639 71.1111 34.3554 71.0208 34.5588 70.97C34.7623 70.9193 34.9738 70.9092 35.1812 70.9401C35.3885 70.9711 35.5878 71.0427 35.7675 71.1507C35.9473 71.2587 36.104 71.401 36.2287 71.5696C36.3535 71.7382 36.4438 71.9296 36.4945 72.1331C37.3163 75.4288 40.5364 76.6085 43.1744 76.635C43.1884 76.6348 43.2026 76.6352 43.2165 76.6354C43.3052 76.635 43.393 76.635 43.48 76.6328C45.7875 76.5779 47.9633 75.7506 49.023 74.5251C49.6697 73.7774 49.9206 72.891 49.7901 71.8155C49.4819 69.2775 47.3715 67.8216 42.9475 67.0955C35.966 65.9492 34.3407 62.4137 34.2067 59.6497C34.0207 55.8193 36.7037 52.6087 40.8831 51.6609C41.1157 51.6081 41.3502 51.5636 41.586 51.5273V49.3631C41.586 48.9396 41.7543 48.5335 42.0537 48.234C42.3532 47.9346 42.7593 47.7663 43.1828 47.7663C43.6063 47.7663 44.0124 47.9346 44.3119 48.234C44.6114 48.5335 44.7796 48.9396 44.7796 49.3631V51.5136C47.7765 51.9475 50.7381 53.6764 52.2148 57.1937C52.3752 57.5835 52.375 58.0209 52.2142 58.4106C52.0533 58.8002 51.745 59.1105 51.3563 59.2737C50.9677 59.4368 50.5302 59.4397 50.1395 59.2817C49.7487 59.1236 49.4362 58.8175 49.2703 58.43C48.1232 55.6983 45.669 54.5893 43.3008 54.5853C43.2345 54.5901 43.1681 54.5909 43.1018 54.5877C42.5868 54.6001 42.078 54.6646 41.5894 54.7754C39.4749 55.2548 37.263 56.7466 37.3965 59.495C37.4382 60.3559 37.5654 62.9756 43.4648 63.9442C45.6317 64.2999 52.2259 65.3823 52.9603 71.4307ZM91.4938 81.4587L76.5546 99.0537C76.0366 99.6639 75.3107 99.9998 74.5103 99.9998C73.7101 99.9998 72.984 99.6637 72.466 99.0539L66.4887 92.0139C60.3302 97.1863 52.392 100 43.8968 100C43.689 100 43.4816 99.9982 43.2732 99.995C43.0696 99.9983 42.8659 99.9999 42.6623 99.9998C30.3503 100 19.1687 93.9832 13.3672 84.1937C8.10287 75.3107 8.21804 64.7123 13.683 55.1167C17.1037 49.1106 22.3425 42.3099 30.0711 33.8552C27.8759 32.8568 26.345 30.6445 26.345 28.0799C26.345 24.6337 29.1086 21.8225 32.5359 21.7415L27.4879 16.6937C24.9638 14.1696 24.9638 10.0627 27.4879 7.53879C29.6242 5.40231 33.0213 5.03744 35.5658 6.67054C35.839 6.84579 36.1065 6.86974 36.4067 6.74559C36.7063 6.62144 36.8785 6.41566 36.9478 6.0981C37.5925 3.14447 40.2525 1.0004 43.273 1C46.2935 1 48.9539 3.14387 49.599 6.0977C49.6683 6.41546 49.8404 6.62144 50.1405 6.74579C50.4401 6.86994 50.7074 6.84579 50.9809 6.67054C53.5251 5.03764 56.922 5.40231 59.0585 7.53859C61.5826 10.0629 61.5826 14.17 59.0587 16.6939L54.0109 21.7417C57.438 21.8229 60.2016 24.6341 60.2016 28.0803C60.2016 30.6447 58.6707 32.857 56.4756 33.8554C59.7316 37.4178 62.5365 40.6782 64.9504 43.7069C65.1297 41.7952 66.742 40.2936 68.6995 40.2936H80.3214C82.3986 40.2938 84.0886 41.9838 84.0884 44.0608V77.0418H89.4495C90.507 77.0418 91.4397 77.638 91.8834 78.5976C92.3271 79.5561 92.178 80.6527 91.4938 81.4587ZM29.7459 14.4355L37.0484 21.7375H49.4986L56.8007 14.4355C58.0795 13.1564 58.0795 11.0756 56.8007 9.79683C55.7183 8.71442 53.9962 8.52979 52.706 9.35792C51.5581 10.0944 50.1775 10.2178 48.9182 9.69583C47.6588 9.17409 46.7698 8.11083 46.4789 6.77873C46.1518 5.28095 44.8035 4.19355 43.2732 4.19355C41.7429 4.19375 40.3948 5.28115 40.0679 6.77893C39.7771 8.11103 38.8881 9.17429 37.6284 9.69603C36.3686 10.2174 34.9882 10.0942 33.8409 9.35812C32.5505 8.52979 30.8284 8.71442 29.7458 9.79683C28.4669 11.0756 28.4669 13.1566 29.7459 14.4355ZM29.5386 28.0799C29.5386 29.8162 30.9511 31.2287 32.6874 31.2287H53.859C55.5953 31.2287 57.0079 29.8162 57.0079 28.0801C57.0079 26.3438 55.5953 24.9313 53.859 24.9313H32.6874C30.9511 24.9311 29.5386 26.3436 29.5386 28.0799ZM64.4221 89.5799L57.527 81.4589C56.8426 80.6523 56.6937 79.5557 57.1376 78.5964C57.5813 77.6374 58.5138 77.0412 59.5713 77.0412H64.9325V48.914C61.7617 44.648 57.7362 39.8968 52.6549 34.4225H33.8908C25.5167 43.4441 19.9681 50.5341 16.4578 56.6973C11.5046 65.3943 11.3826 74.5814 16.1143 82.5658C21.4321 91.5393 31.8311 96.9927 43.2461 96.8017C43.264 96.8013 43.282 96.8013 43.3 96.8017C51.2611 96.938 58.6985 94.3812 64.4221 89.5799ZM74.1213 96.9855C74.121 96.986 74.1206 96.9865 74.1201 96.9869L74.1213 96.9855ZM88.3438 80.2349H82.4916C82.0681 80.2349 81.662 80.0667 81.3625 79.7673C81.063 79.4678 80.8948 79.0616 80.8948 78.6382V44.0602C80.8948 43.7492 80.6324 43.4868 80.3214 43.4868H68.6995C68.3887 43.4868 68.126 43.7494 68.126 44.0604V78.638C68.126 79.0614 67.9578 79.4676 67.6583 79.767C67.3589 80.0665 66.9527 80.2347 66.5292 80.2347H60.6771L74.5105 96.5274L88.3438 80.2349Z" fill="url(#paint0_linear_960_4584)" stroke="url(#paint1_linear_960_4584)"/>
</g>
<defs>
<linearGradient id="paint0_linear_960_4584" x1="50.8178" y1="1" x2="50.8178" y2="100" gradientUnits="userSpaceOnUse">
<stop stop-color="#4FD3D3"/>
<stop offset="1" stop-color="#5528A9"/>
</linearGradient>
<linearGradient id="paint1_linear_960_4584" x1="50.8178" y1="1" x2="50.8178" y2="100" gradientUnits="userSpaceOnUse">
<stop stop-color="#4FD3D3"/>
<stop offset="1" stop-color="#5528A9"/>
</linearGradient>
<clipPath id="clip0_960_4584">
<rect width="100" height="100" fill="white" transform="translate(0.5)"/>
</clipPath>
</defs>
</svg>
