<svg width="30" height="30" viewBox="0 0 30 30" fill="none" xmlns="http://www.w3.org/2000/svg">
<g clip-path="url(#clip0_1089_731)">
<circle cx="15" cy="15" r="15" fill="url(#paint0_linear_1089_731)"/>
<path d="M16.6714 17.2428C16.1739 17.5745 15.5959 17.7499 15 17.7499C14.4041 17.7499 13.8262 17.5745 13.3286 17.2428L5.13316 11.779C5.08792 11.7488 5.04352 11.7173 5 11.6846V20.6376C5 21.6641 5.83301 22.4787 6.84113 22.4787H23.1588C24.1853 22.4787 25 21.6457 25 20.6376V11.6846C24.9564 11.7173 24.9119 11.7489 24.8665 11.7792L16.6714 17.2428Z" fill="white"/>
<path d="M5.7832 10.8044L13.9786 16.2682C14.2889 16.475 14.6444 16.5784 15 16.5784C15.3555 16.5784 15.7111 16.475 16.0214 16.2682L24.2168 10.8044C24.7072 10.4776 25 9.93074 25 9.34051C25 8.32563 24.1743 7.5 23.1595 7.5H6.84051C5.82567 7.50004 5 8.32566 5 9.34148C4.9997 9.63102 5.07106 9.91613 5.20771 10.1714C5.34437 10.4266 5.54208 10.6441 5.7832 10.8044Z" fill="white"/>
</g>
<defs>
<linearGradient id="paint0_linear_1089_731" x1="15" y1="0" x2="15" y2="30" gradientUnits="userSpaceOnUse">
<stop stop-color="#4FD3D3"/>
<stop offset="1" stop-color="#5528A9"/>
</linearGradient>
<clipPath id="clip0_1089_731">
<rect width="30" height="30" rx="15" fill="white"/>
</clipPath>
</defs>
</svg>
