<svg width="60" height="61" viewBox="0 0 60 61" fill="none" xmlns="http://www.w3.org/2000/svg">
<path d="M3.75143 30.6448C3.80828 30.6447 3.86506 30.6409 3.92143 30.6335C13.1038 29.3876 22.0595 26.8285 30.5139 23.0348C39.0517 19.1934 46.9842 14.1286 54.0614 7.99977L52.5389 14.0923C52.4588 14.4137 52.5094 14.7538 52.6798 15.0378C52.8502 15.3219 53.1264 15.5267 53.4477 15.6073C53.5471 15.6319 53.649 15.6445 53.7514 15.6448C54.03 15.6444 54.3006 15.551 54.52 15.3793C54.7394 15.2077 54.8953 14.9676 54.9627 14.6973L57.4627 4.69728C57.5086 4.51315 57.512 4.32098 57.4726 4.13535C57.4332 3.94971 57.3521 3.77548 57.2354 3.62587C57.1186 3.47625 56.9694 3.35517 56.7989 3.27182C56.6284 3.18846 56.4412 3.14502 56.2514 3.14478H46.2514C45.9199 3.14478 45.602 3.27647 45.3675 3.51089C45.1331 3.74531 45.0014 4.06325 45.0014 4.39478C45.0014 4.7263 45.1331 5.04424 45.3675 5.27866C45.602 5.51308 45.9199 5.64478 46.2514 5.64478H52.9627C45.9338 11.8217 38.022 16.9145 29.4889 20.7548C21.2527 24.4504 12.5281 26.943 3.58268 28.156C3.26841 28.1985 2.98201 28.3588 2.78152 28.6045C2.58102 28.8502 2.48141 29.1629 2.50287 29.4793C2.52432 29.7957 2.66523 30.0922 2.89706 30.3086C3.12889 30.5249 3.4343 30.6451 3.75143 30.6448ZM56.2514 55.6448H55.0014V21.8948C55.0014 21.5633 54.8697 21.2453 54.6353 21.0109C54.4009 20.7765 54.083 20.6448 53.7514 20.6448H41.2514C40.9199 20.6448 40.602 20.7765 40.3675 21.0109C40.1331 21.2453 40.0014 21.5633 40.0014 21.8948V55.6448H37.5014V29.3948C37.5014 29.0633 37.3697 28.7453 37.1353 28.5109C36.9009 28.2765 36.583 28.1448 36.2514 28.1448H23.7514C23.4199 28.1448 23.102 28.2765 22.8675 28.5109C22.6331 28.7453 22.5014 29.0633 22.5014 29.3948V55.6448H20.0014V36.8948C20.0014 36.5633 19.8697 36.2453 19.6353 36.0109C19.4009 35.7765 19.083 35.6448 18.7514 35.6448H6.25143C5.91991 35.6448 5.60197 35.7765 5.36755 36.0109C5.13313 36.2453 5.00143 36.5633 5.00143 36.8948V55.6448H3.75143C3.41991 55.6448 3.10197 55.7765 2.86755 56.0109C2.63313 56.2453 2.50143 56.5633 2.50143 56.8948C2.50143 57.2263 2.63313 57.5442 2.86755 57.7787C3.10197 58.0131 3.41991 58.1448 3.75143 58.1448H56.2514C56.583 58.1448 56.9009 58.0131 57.1353 57.7787C57.3697 57.5442 57.5014 57.2263 57.5014 56.8948C57.5014 56.5633 57.3697 56.2453 57.1353 56.0109C56.9009 55.7765 56.583 55.6448 56.2514 55.6448ZM42.5014 23.1448H52.5014V55.6448H42.5014V23.1448ZM25.0014 30.6448H35.0014V55.6448H25.0014V30.6448ZM7.50143 38.1448H17.5014V55.6448H7.50143V38.1448Z" fill="url(#paint0_linear_787_1668)"/>
<defs>
<linearGradient id="paint0_linear_787_1668" x1="30.0007" y1="3.14478" x2="30.0007" y2="58.1448" gradientUnits="userSpaceOnUse">
<stop stop-color="#4FD3D3"/>
<stop offset="1" stop-color="#5528A9"/>
</linearGradient>
</defs>
</svg>
