<svg width="101" height="100" viewBox="0 0 101 100" fill="none" xmlns="http://www.w3.org/2000/svg">
<g clip-path="url(#clip0_960_4579)">
<path d="M33.2256 61.9231C33.4256 62.0065 33.6401 62.0498 33.8568 62.0503C34.0734 62.0509 34.2881 62.0087 34.4885 61.9263C34.6889 61.8439 34.8712 61.7228 35.0248 61.5699C35.1784 61.4171 35.3003 61.2355 35.3837 61.0355L37.7103 55.4503H46.5114L48.838 61.0355C49.1887 61.8766 50.1551 62.274 50.9961 61.9232C51.8373 61.5725 52.2346 60.6061 51.8839 59.7651L43.6339 39.9651C43.5085 39.6645 43.297 39.4077 43.026 39.2272C42.7551 39.0466 42.4367 38.9502 42.111 38.9502C41.7854 38.9502 41.467 39.0466 41.196 39.2272C40.925 39.4077 40.7135 39.6645 40.5881 39.9651L32.3382 59.7651C32.2547 59.9651 32.2115 60.1795 32.2109 60.3962C32.2104 60.6128 32.2525 60.8275 32.3349 61.0279C32.4173 61.2283 32.5384 61.4105 32.6912 61.5641C32.8441 61.7177 33.0256 61.8397 33.2256 61.9231ZM42.1109 44.8901L45.1353 52.1502H39.0864L42.1109 44.8901Z" fill="url(#paint0_linear_960_4579)" stroke="url(#paint1_linear_960_4579)" stroke-width="0.5"/>
<path fill-rule="evenodd" clip-rule="evenodd" d="M55.3141 58.7502C54.4028 58.7502 53.6641 59.4889 53.6641 60.4003C53.6641 61.3116 54.4028 62.0503 55.3141 62.0503H65.2141C66.1254 62.0503 66.8641 61.3116 66.8641 60.4003C66.8641 59.4889 66.1254 58.7502 65.2141 58.7502H61.9141V42.2503H65.2141C66.1254 42.2503 66.8641 41.5115 66.8641 40.6002C66.8641 39.6889 66.1254 38.9502 65.2141 38.9502H55.3141C54.4028 38.9502 53.6641 39.6889 53.6641 40.6002C53.6641 41.5115 54.4028 42.2503 55.3141 42.2503H58.6142V58.7502H55.3141Z" fill="url(#paint2_linear_960_4579)" stroke="url(#paint3_linear_960_4579)" stroke-width="0.5"/>
<path d="M2.51191 73.6C2.51191 77.2451 5.4669 80.2 9.11187 80.2C9.9386 80.1969 10.7572 80.0367 11.5242 79.7281C15.4247 82.7146 20.9292 84.2722 27.6941 84.2722C28.7138 84.2722 29.7732 84.2243 30.8472 84.1551C35.6388 93.9462 42.5524 100 50.3618 100C58.1712 100 65.0848 93.9462 69.878 84.16C70.9538 84.2293 72.0114 84.2771 73.0311 84.2771C79.796 84.2771 85.3005 82.7194 89.2011 79.7329C89.9679 80.0397 90.7859 80.1982 91.6117 80.2C94.5248 80.1917 97.088 78.2745 97.9187 75.4823C98.7495 72.6901 97.6516 69.6835 95.2169 68.084C95.4478 62.771 93.3936 56.7418 89.2126 50.4999C93.3936 44.2597 95.448 38.2305 95.2169 32.9158C98.0694 31.075 99.055 27.3672 97.493 24.3529C95.9309 21.3387 92.3332 20.006 89.1845 21.275C84.7015 17.8447 78.0817 16.3251 69.8794 16.8597C65.0916 7.0605 58.1748 1 50.362 1C42.5491 1 35.6324 7.0605 30.8391 16.8598C22.6403 16.3285 16.0238 17.8498 11.5341 21.2752C8.38729 20.0163 4.79883 21.351 3.23941 24.3602C1.68 27.3695 2.65871 31.0709 5.50165 32.916C5.27398 38.2274 7.32982 44.2564 11.511 50.5001C7.32982 56.742 5.27398 62.7711 5.50668 68.0842C4.58814 68.682 3.83322 69.4994 3.31029 70.4626C2.78737 71.4257 2.51296 72.5041 2.51191 73.6ZM5.81197 73.6C5.81197 71.7775 7.28938 70.2999 9.11203 70.2999C10.9347 70.2999 12.4121 71.7774 12.4121 73.6C12.4121 75.4227 10.9347 76.9001 9.11203 76.9001C8.2368 76.9001 7.39742 76.5524 6.77854 75.9335C6.15966 75.3146 5.81197 74.4752 5.81197 73.6ZM32.8868 20.338C37.2794 20.864 41.6071 21.8354 45.8031 23.2372C42.8496 24.5552 39.9655 26.0235 37.162 27.6361C34.3487 29.2598 31.6234 31.0316 28.9978 32.9441C29.8629 28.621 31.166 24.3972 32.8868 20.338ZM71.7245 32.9441C69.0996 31.0314 66.3749 29.2595 63.5619 27.6361C60.7624 26.0254 57.8833 24.5572 54.9356 23.2372C59.1273 21.8361 63.4506 20.8648 67.8387 20.338C69.5585 24.3973 70.8605 28.6211 71.7245 32.9441ZM67.8371 80.6621C63.4445 80.1361 59.1168 79.1648 54.9209 77.763C57.8743 76.4449 60.7584 74.9767 63.5619 73.3641C66.3752 71.7403 69.1005 69.9685 71.7261 68.0561C70.8611 72.3792 69.558 76.603 67.8371 80.6621ZM61.912 30.4954C65.6329 32.6368 69.1901 35.0508 72.5545 37.7175C73.1613 41.9513 73.4645 46.223 73.4619 50.5001C73.465 54.7771 73.1623 59.0488 72.5561 63.2827C69.1911 65.9493 65.6333 68.3632 61.912 70.5047C58.2025 72.6502 54.3424 74.524 50.362 76.1113C46.3813 74.5232 42.5212 72.6482 38.8119 70.5013C35.091 68.3599 31.5338 65.946 28.1695 63.2792C26.9616 54.8003 26.9616 46.193 28.1695 37.7141C31.5341 35.0487 35.0913 32.6358 38.8119 30.4953C42.5245 28.3482 46.388 26.4732 50.3719 24.8852C54.3491 26.474 58.2059 28.349 61.912 30.4954ZM76.267 40.836C79.558 43.7495 82.547 46.9872 85.1886 50.5001C82.5506 54.0124 79.5655 57.25 76.2787 60.1641C76.6027 56.953 76.764 53.7275 76.7621 50.5001C76.763 47.2726 76.6006 44.0471 76.2754 40.836H76.267ZM24.4569 60.1641C21.1651 57.2515 18.1761 54.0137 15.5353 50.5001C18.1733 46.9878 21.1584 43.7501 24.4452 40.836C23.7962 47.2624 23.7962 53.7378 24.4452 60.1641H24.4569ZM37.1718 73.3641C39.9713 74.9748 42.8503 76.443 45.798 77.763C41.6063 79.164 37.2831 80.1354 32.895 80.6621C31.1746 76.603 29.8721 72.3791 29.0075 68.0561C31.6298 69.9685 34.3517 71.7403 37.1619 73.3641H37.1718ZM50.362 96.7001C44.1646 96.7001 38.5331 91.7848 34.38 83.812C39.8485 83.0367 45.2105 81.6394 50.362 79.6474C55.5153 81.6403 60.8796 83.0376 66.3504 83.812C62.1892 91.7848 56.5594 96.7001 50.362 96.7001ZM91.6121 76.9001C89.7896 76.9001 88.312 75.4227 88.312 73.6C88.312 71.7774 89.7894 70.2999 91.6121 70.2999C93.4347 70.2999 94.9121 71.7774 94.9121 73.6C94.9121 75.4227 93.4345 76.9001 91.6121 76.9001ZM91.9584 67.0346C91.8414 67.0346 91.7308 67.0001 91.6119 67.0001C87.9668 67.0001 85.0119 69.955 85.0119 73.6C85.0181 75.0755 85.5235 76.5055 86.4458 77.6573C82.8522 80.0283 77.6067 81.1553 71.3236 80.9193C73.3693 75.8086 74.8193 70.4792 75.6449 65.0365C79.9126 61.6 83.7748 57.6885 87.1569 53.3776C89.9429 57.4222 91.6003 62.1364 91.9584 67.0346ZM94.912 27.4C94.912 29.2225 93.4345 30.7 91.6119 30.7C89.7893 30.7 88.3118 29.2226 88.3118 27.4C88.3118 25.5773 89.7893 24.0999 91.6119 24.0999C93.4345 24.0999 94.912 25.5775 94.912 27.4ZM86.4458 23.3427C85.5236 24.4945 85.0183 25.9245 85.0119 27.4C85.0119 31.0451 87.9669 33.9999 91.6119 33.9999C91.7308 33.9999 91.8412 33.9719 91.9584 33.9654C91.6007 38.8637 89.9433 43.578 87.1569 47.6224C83.7743 43.3115 79.9115 39.3999 75.6433 35.9635C74.8165 30.5205 73.3648 25.191 71.3169 20.0807C77.6052 19.8431 82.8538 20.965 86.4458 23.3427ZM50.362 4.30006C56.5594 4.30006 62.1908 9.2154 66.3439 17.1882C60.8782 17.964 55.519 19.3613 50.3702 21.3528C45.2169 19.3599 39.8526 17.9626 34.3818 17.1882C38.5347 9.2154 44.1646 4.30006 50.362 4.30006ZM9.11187 24.1001C10.9344 24.1001 12.4119 25.5775 12.4119 27.4002C12.4119 29.2228 10.9345 30.7002 9.11187 30.7002C7.28922 30.7002 5.81181 29.2228 5.81181 27.4002C5.81181 25.5775 7.28938 24.1001 9.11187 24.1001ZM8.7655 33.9654C8.88258 33.9654 8.99316 33.9999 9.11203 33.9999C12.7572 33.9999 15.712 31.045 15.712 27.4C15.7058 25.9245 15.2004 24.4944 14.2781 23.3427C17.8701 20.9717 23.1154 19.8463 29.4004 20.0807C27.3547 25.1914 25.9047 30.5209 25.079 35.9635C20.8118 39.3999 16.9496 43.3108 13.567 47.6208C10.7801 43.5772 9.12259 38.8633 8.7655 33.9654ZM13.567 53.3792C16.9512 57.6889 20.8144 61.5998 25.0823 65.0365C25.9088 70.4799 27.36 75.8099 29.407 80.921C23.1271 81.1585 17.8784 80.0283 14.2848 77.6573C15.2046 76.5046 15.7076 75.0747 15.712 73.6C15.712 69.9549 12.757 67.0001 9.11203 67.0001C8.99316 67.0001 8.88274 67.0298 8.7655 67.0346C9.1232 62.1368 10.7807 57.4231 13.567 53.3792Z" fill="url(#paint4_linear_960_4579)" stroke="url(#paint5_linear_960_4579)" stroke-width="0.5"/>
</g>
<defs>
<linearGradient id="paint0_linear_960_4579" x1="42.1112" y1="38.9502" x2="42.1112" y2="62.0508" gradientUnits="userSpaceOnUse">
<stop stop-color="#4FD3D3"/>
<stop offset="1" stop-color="#5528A9"/>
</linearGradient>
<linearGradient id="paint1_linear_960_4579" x1="42.1112" y1="38.9502" x2="42.1112" y2="62.0508" gradientUnits="userSpaceOnUse">
<stop stop-color="#4FD3D3"/>
<stop offset="1" stop-color="#5528A9"/>
</linearGradient>
<linearGradient id="paint2_linear_960_4579" x1="60.2641" y1="38.9502" x2="60.2641" y2="62.0503" gradientUnits="userSpaceOnUse">
<stop stop-color="#4FD3D3"/>
<stop offset="1" stop-color="#5528A9"/>
</linearGradient>
<linearGradient id="paint3_linear_960_4579" x1="60.2641" y1="38.9502" x2="60.2641" y2="62.0503" gradientUnits="userSpaceOnUse">
<stop stop-color="#4FD3D3"/>
<stop offset="1" stop-color="#5528A9"/>
</linearGradient>
<linearGradient id="paint4_linear_960_4579" x1="50.3661" y1="1" x2="50.3661" y2="100" gradientUnits="userSpaceOnUse">
<stop stop-color="#4FD3D3"/>
<stop offset="1" stop-color="#5528A9"/>
</linearGradient>
<linearGradient id="paint5_linear_960_4579" x1="50.3661" y1="1" x2="50.3661" y2="100" gradientUnits="userSpaceOnUse">
<stop stop-color="#4FD3D3"/>
<stop offset="1" stop-color="#5528A9"/>
</linearGradient>
<clipPath id="clip0_960_4579">
<rect width="100" height="100" fill="white" transform="translate(0.5)"/>
</clipPath>
</defs>
</svg>
