<svg width="70" height="70" viewBox="0 0 70 70" fill="none" xmlns="http://www.w3.org/2000/svg">
<path d="M15.2188 17.4062C15.7989 17.4062 16.3553 17.6367 16.7655 18.047C17.1758 18.4572 17.4062 19.0136 17.4062 19.5938H19.5938C19.5901 18.6266 19.2662 17.688 18.6725 16.9245C18.0788 16.1611 17.2489 15.6158 16.3125 15.3741V13.0312H14.125V15.3741C13.0951 15.6391 12.1973 16.271 11.6002 17.151C11.0031 18.031 10.7477 19.0987 10.882 20.1537C11.0162 21.2087 11.5309 22.1784 12.3294 22.8808C13.1279 23.5832 14.1553 23.9701 15.2188 23.9688C15.6514 23.9688 16.0743 24.097 16.4341 24.3374C16.7938 24.5778 17.0742 24.9194 17.2397 25.3191C17.4053 25.7188 17.4486 26.1587 17.3642 26.583C17.2798 27.0073 17.0715 27.3971 16.7655 27.703C16.4596 28.009 16.0698 28.2173 15.6455 28.3017C15.2212 28.3861 14.7813 28.3428 14.3816 28.1772C13.9819 28.0117 13.6403 27.7313 13.3999 27.3716C13.1595 27.0118 13.0312 26.5889 13.0312 26.1562H10.8438C10.8474 27.1234 11.1713 28.062 11.765 28.8255C12.3587 29.5889 13.1886 30.1342 14.125 30.3759V32.7188H16.3125V30.3759C17.3424 30.1109 18.2402 29.479 18.8373 28.599C19.4344 27.719 19.6898 26.6513 19.5555 25.5963C19.4213 24.5413 18.9066 23.5716 18.1081 22.8692C17.3096 22.1668 16.2822 21.7799 15.2188 21.7812C14.6386 21.7812 14.0822 21.5508 13.672 21.1405C13.2617 20.7303 13.0312 20.1739 13.0312 19.5938C13.0312 19.0136 13.2617 18.4572 13.672 18.047C14.0822 17.6367 14.6386 17.4062 15.2188 17.4062ZM54.5938 41.4688C55.1739 41.4688 55.7303 41.6992 56.1405 42.1095C56.5508 42.5197 56.7812 43.0761 56.7812 43.6562H58.9688C58.9651 42.6891 58.6412 41.7505 58.0475 40.987C57.4538 40.2236 56.6239 39.6783 55.6875 39.4366V37.0938H53.5V39.4366C52.4701 39.7016 51.5723 40.3335 50.9752 41.2135C50.3781 42.0935 50.1227 43.1612 50.257 44.2162C50.3912 45.2712 50.9059 46.2409 51.7044 46.9433C52.5029 47.6457 53.5303 48.0326 54.5938 48.0312C55.0264 48.0312 55.4493 48.1595 55.8091 48.3999C56.1688 48.6403 56.4492 48.9819 56.6147 49.3816C56.7803 49.7813 56.8236 50.2212 56.7392 50.6455C56.6548 51.0698 56.4465 51.4596 56.1405 51.7655C55.8346 52.0715 55.4448 52.2798 55.0205 52.3642C54.5962 52.4486 54.1563 52.4053 53.7566 52.2397C53.3569 52.0742 53.0153 51.7938 52.7749 51.4341C52.5345 51.0743 52.4062 50.6514 52.4062 50.2188H50.2188C50.2224 51.1859 50.5463 52.1245 51.14 52.888C51.7337 53.6514 52.5636 54.1967 53.5 54.4384V56.7812H55.6875V54.4384C56.7174 54.1734 57.6152 53.5415 58.2123 52.6615C58.8094 51.7815 59.0648 50.7138 58.9305 49.6588C58.7963 48.6038 58.2816 47.6341 57.4831 46.9317C56.6846 46.2293 55.6572 45.8424 54.5938 45.8438C54.0136 45.8438 53.4572 45.6133 53.047 45.203C52.6367 44.7928 52.4062 44.2364 52.4062 43.6562C52.4062 43.0761 52.6367 42.5197 53.047 42.1095C53.4572 41.6992 54.0136 41.4688 54.5938 41.4688Z" fill="url(#paint0_linear_960_3965)"/>
<path d="M54.5938 32.7188C54.2286 32.723 53.8637 32.7416 53.5 32.7745V26.1562H55.6875V29.4375C55.6875 29.6467 55.7475 29.8515 55.8604 30.0276C55.9733 30.2037 56.1343 30.3438 56.3244 30.4312C56.5145 30.5186 56.7256 30.5496 56.9328 30.5206C57.14 30.4916 57.3345 30.4038 57.4933 30.2677L65.1495 23.7052C65.2692 23.6025 65.3653 23.4751 65.4312 23.3318C65.497 23.1885 65.5312 23.0327 65.5312 22.875C65.5312 22.7173 65.497 22.5615 65.4312 22.4182C65.3653 22.2749 65.2692 22.1475 65.1495 22.0448L57.4933 15.4823C57.3345 15.3462 57.14 15.2584 56.9328 15.2294C56.7256 15.2004 56.5145 15.2314 56.3244 15.3188C56.1343 15.4062 55.9733 15.5463 55.8604 15.7224C55.7475 15.8985 55.6875 16.1033 55.6875 16.3125V19.5938H53.5V7.5625C53.4983 5.82255 52.8063 4.15436 51.576 2.92403C50.3456 1.6937 48.6774 1.00174 46.9375 1H22.875C21.135 1.00174 19.4669 1.6937 18.2365 2.92403C17.0062 4.15436 16.3142 5.82255 16.3125 7.5625V8.71203C15.9488 8.67907 15.5839 8.66046 15.2188 8.65625C11.4477 8.65625 7.83111 10.1543 5.16458 12.8208C2.49804 15.4874 1 19.104 1 22.875C1 26.646 2.49804 30.2626 5.16458 32.9292C7.83111 35.5957 11.4477 37.0938 15.2188 37.0938C15.5839 37.0895 15.9488 37.0709 16.3125 37.038V44.75H14.125V41.4688C14.125 41.2596 14.065 41.0548 13.9521 40.8786C13.8392 40.7025 13.6782 40.5625 13.4881 40.4751C13.298 40.3877 13.0869 40.3567 12.8797 40.3856C12.6725 40.4146 12.478 40.5024 12.3192 40.6386L4.66297 47.2011C4.54327 47.3038 4.44719 47.4311 4.38132 47.5744C4.31545 47.7177 4.28135 47.8735 4.28135 48.0312C4.28135 48.189 4.31545 48.3448 4.38132 48.4881C4.44719 48.6314 4.54327 48.7587 4.66297 48.8614L12.3192 55.4239C12.478 55.5601 12.6725 55.6479 12.8797 55.6769C13.0869 55.7058 13.298 55.6748 13.4881 55.5874C13.6782 55.5 13.8392 55.36 13.9521 55.1839C14.065 55.0077 14.125 54.8029 14.125 54.5938V51.3125H16.3125V62.25C16.3142 63.9899 17.0062 65.6581 18.2365 66.8885C19.4669 68.1188 21.135 68.8108 22.875 68.8125H46.9375C48.6774 68.8108 50.3456 68.1188 51.576 66.8885C52.8063 65.6581 53.4983 63.9899 53.5 62.25V61.1005C53.8637 61.1334 54.2286 61.152 54.5938 61.1562C58.3648 61.1562 61.9814 59.6582 64.6479 56.9917C67.3145 54.3251 68.8125 50.7085 68.8125 46.9375C68.8125 43.1665 67.3145 39.5499 64.6479 36.8833C61.9814 34.2168 58.3648 32.7188 54.5938 32.7188ZM56.7812 21.7812C57.0713 21.7812 57.3495 21.666 57.5546 21.4609C57.7598 21.2558 57.875 20.9776 57.875 20.6875V18.6903L62.7564 22.875L57.875 27.0597V25.0625C57.875 24.7724 57.7598 24.4942 57.5546 24.2891C57.3495 24.084 57.0713 23.9688 56.7812 23.9688H38.1875V21.7812H56.7812ZM44.2972 3.1875L42.1097 5.375H27.7028L25.5153 3.1875H44.2972ZM3.1875 22.875C3.1875 20.4954 3.89312 18.1693 5.21513 16.1908C6.53714 14.2123 8.41617 12.6702 10.6146 11.7596C12.813 10.849 15.2321 10.6107 17.5659 11.0749C19.8998 11.5392 22.0435 12.685 23.7261 14.3676C25.4087 16.0502 26.5546 18.194 27.0188 20.5278C27.483 22.8617 27.2448 25.2807 26.3342 27.4792C25.4236 29.6776 23.8815 31.5566 21.903 32.8786C19.9244 34.2006 17.5983 34.9062 15.2188 34.9062C12.029 34.9025 8.97101 33.6337 6.71553 31.3782C4.46005 29.1227 3.19126 26.0647 3.1875 22.875ZM13.0312 49.125C12.7412 49.125 12.463 49.2402 12.2579 49.4454C12.0527 49.6505 11.9375 49.9287 11.9375 50.2188V52.2159L7.05609 48.0312L11.9375 43.8466V45.8438C11.9375 46.1338 12.0527 46.412 12.2579 46.6171C12.463 46.8223 12.7412 46.9375 13.0312 46.9375H31.625V49.125H13.0312ZM42.5625 66.625H27.25V65.5312C27.25 65.2412 27.3652 64.963 27.5704 64.7579C27.7755 64.5527 28.0537 64.4375 28.3438 64.4375H41.4688C41.7588 64.4375 42.037 64.5527 42.2421 64.7579C42.4473 64.963 42.5625 65.2412 42.5625 65.5312V66.625ZM51.3125 62.25C51.3125 63.4103 50.8516 64.5231 50.0311 65.3436C49.2106 66.1641 48.0978 66.625 46.9375 66.625H44.75V65.5312C44.75 64.661 44.4043 63.8264 43.7889 63.2111C43.1736 62.5957 42.339 62.25 41.4688 62.25H28.3438C27.4735 62.25 26.6389 62.5957 26.0236 63.2111C25.4082 63.8264 25.0625 64.661 25.0625 65.5312V66.625H22.875C21.7147 66.625 20.6019 66.1641 19.7814 65.3436C18.9609 64.5231 18.5 63.4103 18.5 62.25V51.3125H32.7188C33.0088 51.3125 33.287 51.1973 33.4921 50.9921C33.6973 50.787 33.8125 50.5088 33.8125 50.2188V45.8438C33.8125 45.5537 33.6973 45.2755 33.4921 45.0704C33.287 44.8652 33.0088 44.75 32.7188 44.75H18.5V36.6967C21.6131 35.9611 24.3867 34.1961 26.3716 31.6875C28.3565 29.179 29.4364 26.0738 29.4364 22.875C29.4364 19.6762 28.3565 16.571 26.3716 14.0625C24.3867 11.5539 21.6131 9.78889 18.5 9.05328V7.5625C18.5035 6.47663 18.9116 5.43105 19.6445 4.6298C20.3773 3.82856 21.3825 3.32916 22.4638 3.22906L26.4767 7.24203C26.6818 7.44716 26.9599 7.56244 27.25 7.5625H42.5625C42.8526 7.56244 43.1307 7.44716 43.3358 7.24203L47.3488 3.22906C48.43 3.32916 49.4352 3.82856 50.168 4.6298C50.9009 5.43105 51.309 6.47663 51.3125 7.5625V19.5938H37.0938C36.8037 19.5938 36.5255 19.709 36.3204 19.9141C36.1152 20.1192 36 20.3974 36 20.6875V25.0625C36 25.3526 36.1152 25.6308 36.3204 25.8359C36.5255 26.041 36.8037 26.1562 37.0938 26.1562H51.3125V33.1158C48.1994 33.8514 45.4258 35.6164 43.4409 38.125C41.456 40.6335 40.3761 43.7387 40.3761 46.9375C40.3761 50.1363 41.456 53.2415 43.4409 55.75C45.4258 58.2586 48.1994 60.0236 51.3125 60.7592V62.25ZM54.5938 58.9688C52.2142 58.9688 49.8881 58.2631 47.9095 56.9411C45.931 55.6191 44.3889 53.7401 43.4783 51.5417C42.5677 49.3432 42.3294 46.9242 42.7937 44.5903C43.2579 42.2565 44.4038 40.1127 46.0864 38.4301C47.769 36.7475 49.9127 35.6017 52.2466 35.1374C54.5804 34.6732 56.9995 34.9115 59.1979 35.8221C61.3963 36.7327 63.2754 38.2748 64.5974 40.2533C65.9194 42.2318 66.625 44.5579 66.625 46.9375C66.6212 50.1272 65.3525 53.1852 63.097 55.4407C60.8415 57.6962 57.7835 58.965 54.5938 58.9688Z" fill="url(#paint1_linear_960_3965)"/>
<path d="M30.5312 15.2188H43.6562V17.4062H30.5312V15.2188ZM26.1562 53.5H39.2812V55.6875H26.1562V53.5ZM37.0938 10.8438H45.8438V13.0312H37.0938V10.8438ZM32.7188 57.7186H41.4688V59.9061H32.7188V57.7186Z" fill="url(#paint2_linear_960_3965)"/>
<defs>
<linearGradient id="paint0_linear_960_3965" x1="34.9062" y1="13.0312" x2="34.9062" y2="56.7812" gradientUnits="userSpaceOnUse">
<stop stop-color="#4FD3D3"/>
<stop offset="1" stop-color="#5528A9"/>
</linearGradient>
<linearGradient id="paint1_linear_960_3965" x1="34.9062" y1="1" x2="34.9063" y2="68.8125" gradientUnits="userSpaceOnUse">
<stop stop-color="#4FD3D3"/>
<stop offset="1" stop-color="#5528A9"/>
</linearGradient>
<linearGradient id="paint2_linear_960_3965" x1="36" y1="10.8437" x2="36" y2="59.9061" gradientUnits="userSpaceOnUse">
<stop stop-color="#4FD3D3"/>
<stop offset="1" stop-color="#5528A9"/>
</linearGradient>
</defs>
</svg>
