<svg width="70" height="70" viewBox="0 0 70 70" fill="none" xmlns="http://www.w3.org/2000/svg">
<path d="M9.42653 57.6204L28.0932 68.181C30.1992 69.3732 32.5781 69.9998 34.9981 69.9998C37.4182 69.9998 39.797 69.3732 41.903 68.181L60.5697 57.6204C62.72 56.4014 64.5093 54.6348 65.7556 52.5002C67.0019 50.3655 67.6608 47.939 67.6654 45.4672V24.5337C67.662 22.0617 67.0036 19.6347 65.7571 17.4998C64.5107 15.365 62.7208 13.5986 60.5697 12.3805L41.903 1.8187C39.7894 0.648243 37.413 0.0341797 34.997 0.0341797C32.5809 0.0341797 30.2045 0.648243 28.0909 1.8187L9.4242 12.3805C7.27381 13.5992 5.48468 15.3658 4.23891 17.5005C2.99313 19.6353 2.33518 22.062 2.33203 24.5337V45.4672C2.33565 47.9391 2.99405 50.3658 4.24023 52.5006C5.48641 54.6353 7.27587 56.4019 9.42653 57.6204ZM4.66536 24.5337C4.66838 22.4746 5.21689 20.4531 6.25508 18.6749C7.29327 16.8967 8.78405 15.4253 10.5757 14.4105L29.2424 3.8487C30.9987 2.85532 32.9821 2.33325 34.9999 2.33325C37.0176 2.33325 39.0011 2.85532 40.7574 3.8487L59.424 14.4117C61.2152 15.4265 62.7056 16.8978 63.7434 18.6758C64.7811 20.4538 65.3293 22.475 65.332 24.5337V45.4672C65.3288 47.5259 64.7803 49.5471 63.7424 51.325C62.7044 53.103 61.214 54.5743 59.4229 55.5892L40.7562 66.151C38.9945 67.1261 37.014 67.6376 35.0005 67.6376C32.9869 67.6376 31.0064 67.1261 29.2447 66.151L10.578 55.5892C8.78604 54.5749 7.29483 53.1038 6.25622 51.3258C5.21761 49.5478 4.6687 47.5263 4.66536 45.4672V24.5337Z" fill="url(#paint0_linear_960_3960)"/>
<path d="M12.2976 52.5431L30.9642 63.1049C32.1955 63.7972 33.5843 64.1608 34.9968 64.1608C36.4094 64.1608 37.7981 63.7972 39.0294 63.1049L57.6961 52.5431C58.949 51.8342 59.9918 50.806 60.7181 49.563C61.4444 48.3201 61.8283 46.9068 61.8307 45.4673V24.5338C61.8285 23.094 61.4447 21.6805 60.7184 20.4373C59.992 19.1942 58.9492 18.1657 57.6961 17.4568L39.0294 6.89492C37.7982 6.20256 36.4094 5.83887 34.9968 5.83887C33.5843 5.83887 32.1955 6.20256 30.9642 6.89492L12.2976 17.4568C11.0449 18.1661 10.0025 19.1947 9.27641 20.4378C8.55035 21.6809 8.16655 23.0942 8.16406 24.5338V45.4673C8.16676 46.9067 8.55065 48.3197 9.2767 49.5625C10.0028 50.8054 11.0451 51.8338 12.2976 52.5431ZM10.4974 24.5338C10.4987 23.5062 10.7724 22.4974 11.2907 21.6101C11.8091 20.7229 12.5534 19.989 13.4479 19.4833L32.1146 8.92025C32.995 8.42537 33.988 8.16542 34.998 8.16542C36.008 8.16542 37.001 8.42537 37.8814 8.92025L56.5481 19.4833C57.4422 19.9892 58.1863 20.7232 58.7044 21.6104C59.2225 22.4976 59.4961 23.5063 59.4974 24.5338V45.4673C59.4958 46.4944 59.222 47.5029 58.704 48.3898C58.1859 49.2768 57.442 50.0106 56.5481 50.5166L37.8814 61.0784C37.0006 61.5723 36.0078 61.8317 34.998 61.8317C33.9882 61.8317 32.9953 61.5723 32.1146 61.0784L13.4479 50.5166C12.5537 50.0109 11.8095 49.2771 11.2912 48.3901C10.7729 47.5031 10.499 46.4946 10.4974 45.4673V24.5338Z" fill="url(#paint1_linear_960_3960)"/>
<path d="M16.3308 45.4994C16.6402 45.4994 16.937 45.3765 17.1558 45.1577C17.3746 44.9389 17.4975 44.6422 17.4975 44.3328V30.6081L24.62 44.8543C24.7169 45.0482 24.8659 45.2113 25.0504 45.3253C25.2348 45.4392 25.4473 45.4995 25.6641 45.4994C25.7544 45.4991 25.8444 45.4889 25.9325 45.4691C26.1883 45.4086 26.4163 45.2635 26.5794 45.0572C26.7424 44.851 26.831 44.5957 26.8308 44.3328V25.6661C26.8308 25.3567 26.7079 25.0599 26.4891 24.8412C26.2703 24.6224 25.9736 24.4994 25.6641 24.4994C25.3547 24.4994 25.058 24.6224 24.8392 24.8412C24.6204 25.0599 24.4975 25.3567 24.4975 25.6661V39.3908L17.3808 25.1446C17.2652 24.9059 17.0718 24.7137 16.8323 24.5997C16.5929 24.4856 16.3217 24.4566 16.0636 24.5173C15.8054 24.5781 15.5756 24.725 15.4121 24.9338C15.2486 25.1426 15.1612 25.4009 15.1641 25.6661V44.3328C15.1641 44.6422 15.2871 44.9389 15.5058 45.1577C15.7246 45.3765 16.0214 45.4994 16.3308 45.4994ZM31.4975 45.4994C31.8069 45.4994 32.1036 45.3765 32.3224 45.1577C32.5412 44.9389 32.6641 44.6422 32.6641 44.3328V36.1661H37.3308C37.6402 36.1661 37.937 36.0432 38.1558 35.8244C38.3746 35.6056 38.4975 35.3089 38.4975 34.9994C38.4975 34.69 38.3746 34.3933 38.1558 34.1745C37.937 33.9557 37.6402 33.8328 37.3308 33.8328H32.6641V26.8328H40.8308C41.1402 26.8328 41.437 26.7099 41.6558 26.4911C41.8746 26.2723 41.9975 25.9755 41.9975 25.6661C41.9975 25.3567 41.8746 25.0599 41.6558 24.8412C41.437 24.6224 41.1402 24.4994 40.8308 24.4994H31.4975C31.1881 24.4994 30.8913 24.6224 30.6725 24.8412C30.4537 25.0599 30.3308 25.3567 30.3308 25.6661V44.3328C30.3308 44.6422 30.4537 44.9389 30.6725 45.1577C30.8913 45.3765 31.1881 45.4994 31.4975 45.4994ZM44.3308 26.8328H47.8308V44.3328C47.8308 44.6422 47.9537 44.9389 48.1725 45.1577C48.3913 45.3765 48.6881 45.4994 48.9975 45.4994C49.3069 45.4994 49.6036 45.3765 49.8224 45.1577C50.0412 44.9389 50.1641 44.6422 50.1641 44.3328V26.8328H53.6641C53.9736 26.8328 54.2703 26.7099 54.4891 26.4911C54.7079 26.2723 54.8308 25.9755 54.8308 25.6661C54.8308 25.3567 54.7079 25.0599 54.4891 24.8412C54.2703 24.6224 53.9736 24.4994 53.6641 24.4994H44.3308C44.0214 24.4994 43.7246 24.6224 43.5058 24.8412C43.2871 25.0599 43.1641 25.3567 43.1641 25.6661C43.1641 25.9755 43.2871 26.2723 43.5058 26.4911C43.7246 26.7099 44.0214 26.8328 44.3308 26.8328Z" fill="url(#paint2_linear_960_3960)"/>
<defs>
<linearGradient id="paint0_linear_960_3960" x1="34.9987" y1="0.0341797" x2="34.9987" y2="69.9998" gradientUnits="userSpaceOnUse">
<stop stop-color="#4FD3D3"/>
<stop offset="1" stop-color="#5528A9"/>
</linearGradient>
<linearGradient id="paint1_linear_960_3960" x1="34.9974" y1="5.83887" x2="34.9974" y2="64.1608" gradientUnits="userSpaceOnUse">
<stop stop-color="#4FD3D3"/>
<stop offset="1" stop-color="#5528A9"/>
</linearGradient>
<linearGradient id="paint2_linear_960_3960" x1="34.9974" y1="24.4863" x2="34.9974" y2="45.4994" gradientUnits="userSpaceOnUse">
<stop stop-color="#4FD3D3"/>
<stop offset="1" stop-color="#5528A9"/>
</linearGradient>
</defs>
</svg>
