<svg width="238" height="36" viewBox="0 0 238 36" fill="none" xmlns="http://www.w3.org/2000/svg">
<path d="M3.57031 24.1016V3.73047H0.0546875V0.332031H11.168V3.73047H7.82812V24.1016H16.1484V14.8633H19.9766V27.5H0.0546875V24.1016H3.57031ZM21.8711 18.0469C21.8711 15.1302 22.8346 12.7409 24.7617 10.8789C26.6888 9.00391 29.0391 8.06641 31.8125 8.06641C34.5339 8.06641 36.8711 8.99089 38.8242 10.8398C40.7773 12.6758 41.7539 15.0781 41.7539 18.0469C41.7539 21.0156 40.7773 23.4245 38.8242 25.2734C36.8841 27.1224 34.5469 28.0469 31.8125 28.0469C29 28.0469 26.6367 27.1094 24.7227 25.2344C22.8216 23.3594 21.8711 20.9635 21.8711 18.0469ZM25.7969 18.0469C25.7969 19.9089 26.3763 21.4388 27.5352 22.6367C28.707 23.8216 30.1328 24.4141 31.8125 24.4141C33.5182 24.4141 34.944 23.8151 36.0898 22.6172C37.2487 21.4062 37.8281 19.8828 37.8281 18.0469C37.8281 16.1979 37.2422 14.6745 36.0703 13.4766C34.8984 12.2786 33.4792 11.6797 31.8125 11.6797C30.0677 11.6797 28.6289 12.2917 27.4961 13.5156C26.3633 14.7396 25.7969 16.25 25.7969 18.0469ZM47.9648 24.1992V11.8945H44.1562V8.59375H50.9336V12.8516C51.3503 11.7448 51.9297 10.8268 52.6719 10.0977C53.4141 9.36849 54.1953 8.88672 55.0156 8.65234C55.849 8.41797 56.9818 8.30078 58.4141 8.30078H59.3906V12.0508H58.6484C56.7604 12.0508 55.3477 12.2396 54.4102 12.6172C53.4857 12.9948 52.7956 13.6849 52.3398 14.6875C51.8971 15.6771 51.6758 17.4609 51.6758 20.0391V24.1992H55.7969V27.5H44.1562V24.1992H47.9648ZM79.4102 18.9844H63.5117C63.7461 20.7292 64.4362 22.1419 65.582 23.2227C66.7279 24.3034 68.1927 24.8438 69.9766 24.8438C72.5677 24.8438 74.6185 23.8021 76.1289 21.7188L79.4102 23.1641C78.3424 24.8177 76.9557 26.0482 75.25 26.8555C73.5443 27.6497 71.7604 28.0469 69.8984 28.0469C67.0078 28.0469 64.5339 27.1484 62.4766 25.3516C60.4323 23.5417 59.4102 21.1068 59.4102 18.0469C59.4102 15.1432 60.4062 12.7539 62.3984 10.8789C64.4036 9.00391 66.7018 8.06641 69.293 8.06641C71.832 8.06641 74.1302 8.98438 76.1875 10.8203C78.2578 12.6432 79.332 15.3646 79.4102 18.9844ZM75.582 16.2891C75.3216 14.9609 74.6315 13.763 73.5117 12.6953C72.3919 11.6146 71.0182 11.0742 69.3906 11.0742C67.9062 11.0742 66.6367 11.5625 65.582 12.5391C64.5273 13.5026 63.8828 14.7526 63.6484 16.2891H75.582ZM85.3281 24.1992V11.8945H82.1836V8.59375H89.0391V10.9766C91.2786 9.19271 93.4727 8.30078 95.6211 8.30078C97.7826 8.30078 99.2734 9.28385 100.094 11.25C102.555 9.28385 104.846 8.30078 106.969 8.30078C108.193 8.30078 109.195 8.57422 109.977 9.12109C110.771 9.65495 111.305 10.3385 111.578 11.1719C111.852 11.9922 111.988 13.2096 111.988 14.8242V24.1992H115.289V27.5H108.277V15.4883C108.277 14.3945 108.225 13.6263 108.121 13.1836C108.03 12.7279 107.783 12.3568 107.379 12.0703C106.988 11.7708 106.513 11.6211 105.953 11.6211C104.365 11.6211 102.561 12.4349 100.543 14.0625V24.1992H103.785V27.5H96.832V15.1367C96.832 13.8997 96.6497 13.0078 96.2852 12.4609C95.9336 11.901 95.3281 11.6211 94.4688 11.6211C93.0625 11.6211 91.2526 12.4349 89.0391 14.0625V24.1992H92.3594V27.5H81.9492V24.1992H85.3281ZM129.703 24.1016V3.73047H126.754V0.332031H136.754V3.73047H133.805V24.1016H136.754V27.5H126.754V24.1016H129.703ZM141.773 32.6758V11.8945H138.59V8.59375H145.484V11.5625C147.333 9.38802 149.573 8.30078 152.203 8.30078C154.859 8.30078 157.053 9.21224 158.785 11.0352C160.53 12.8581 161.402 15.2279 161.402 18.1445C161.402 21.2044 160.458 23.6198 158.57 25.3906C156.682 27.1615 154.534 28.0469 152.125 28.0469C149.625 28.0469 147.411 27.0833 145.484 25.1562V32.6758H149.156V35.9766H138.316V32.6758H141.773ZM145.426 18.3203C145.426 19.362 145.641 20.3581 146.07 21.3086C146.5 22.2591 147.184 23.0599 148.121 23.7109C149.059 24.349 150.159 24.668 151.422 24.668C153.193 24.668 154.651 24.0755 155.797 22.8906C156.956 21.7057 157.535 20.0781 157.535 18.0078C157.535 15.9896 156.93 14.4141 155.719 13.2812C154.521 12.1484 153.154 11.582 151.617 11.582C149.977 11.582 148.531 12.2005 147.281 13.4375C146.044 14.6615 145.426 16.2891 145.426 18.3203ZM164.684 27.5V21.0156H168.004V21.6406C168.121 22.526 168.596 23.2552 169.43 23.8281C170.276 24.401 171.272 24.6875 172.418 24.6875C173.616 24.6875 174.573 24.4792 175.289 24.0625C176.005 23.6458 176.363 23.0664 176.363 22.3242C176.363 21.6081 176.064 21.0807 175.465 20.7422C174.879 20.4036 173.707 20.0911 171.949 19.8047C169.345 19.362 167.483 18.6523 166.363 17.6758C165.257 16.6862 164.703 15.4102 164.703 13.8477C164.703 12.2721 165.309 10.957 166.52 9.90234C167.73 8.83464 169.326 8.30078 171.305 8.30078C173.089 8.30078 174.625 8.66536 175.914 9.39453V8.59375H179.215V14.8633H175.914V13.7109C174.911 12.1615 173.453 11.3867 171.539 11.3867C170.562 11.3867 169.755 11.6016 169.117 12.0312C168.492 12.4479 168.18 13.0078 168.18 13.7109C168.18 14.4271 168.466 14.9219 169.039 15.1953C169.625 15.4557 170.875 15.7357 172.789 16.0352C174.625 16.3216 176.012 16.6602 176.949 17.0508C177.887 17.4284 178.661 18.0664 179.273 18.9648C179.898 19.8503 180.211 20.8854 180.211 22.0703C180.211 23.8281 179.534 25.2279 178.18 26.2695C176.839 27.2982 175.094 27.8125 172.945 27.8125C170.927 27.8125 169.28 27.3568 168.004 26.4453V27.5H164.684ZM203.492 24.1992V27.5H196.52V25.332C194.345 26.9857 192.262 27.8125 190.27 27.8125C189.007 27.8125 187.958 27.5391 187.125 26.9922C186.305 26.4323 185.758 25.7161 185.484 24.8438C185.211 23.9583 185.074 22.5391 185.074 20.5859V11.8945H182.398V8.59375H188.785V20.1172C188.785 21.5104 188.824 22.4479 188.902 22.9297C188.98 23.4115 189.208 23.8086 189.586 24.1211C189.964 24.4336 190.439 24.5898 191.012 24.5898C192.73 24.5898 194.566 23.7695 196.52 22.1289V11.8945H193.18V8.59375H200.23V24.1992H203.492ZM208.336 24.1992V11.8945H205.191V8.59375H212.047V10.9766C214.286 9.19271 216.48 8.30078 218.629 8.30078C220.79 8.30078 222.281 9.28385 223.102 11.25C225.562 9.28385 227.854 8.30078 229.977 8.30078C231.201 8.30078 232.203 8.57422 232.984 9.12109C233.779 9.65495 234.312 10.3385 234.586 11.1719C234.859 11.9922 234.996 13.2096 234.996 14.8242V24.1992H238.297V27.5H231.285V15.4883C231.285 14.3945 231.233 13.6263 231.129 13.1836C231.038 12.7279 230.79 12.3568 230.387 12.0703C229.996 11.7708 229.521 11.6211 228.961 11.6211C227.372 11.6211 225.569 12.4349 223.551 14.0625V24.1992H226.793V27.5H219.84V15.1367C219.84 13.8997 219.658 13.0078 219.293 12.4609C218.941 11.901 218.336 11.6211 217.477 11.6211C216.07 11.6211 214.26 12.4349 212.047 14.0625V24.1992H215.367V27.5H204.957V24.1992H208.336Z" fill="white"/>
</svg>
