<svg width="162" height="40" viewBox="0 0 162 40" fill="none" xmlns="http://www.w3.org/2000/svg">
<path d="M21.6797 29.1914C21.6797 29.5169 21.4518 29.6797 20.9961 29.6797L18.9648 29.3867C16.2435 29.1003 14.4206 28.8724 13.4961 28.7031C12.0378 28.4297 10.8529 28.1562 9.94141 27.8828C8.67839 27.4922 7.51302 26.9909 6.44531 26.3789C5.40365 25.793 4.49219 25.1354 3.71094 24.4062C2.98177 23.6901 2.33724 22.8763 1.77734 21.9648C1.24349 21.0794 0.839844 20.1484 0.566406 19.1719C0.292969 18.1823 0.15625 17.1276 0.15625 16.0078C0.15625 14.6927 0.546875 13.0456 1.32812 11.0664C2.1224 9.07422 2.64974 7.83073 2.91016 7.33594C3.18359 6.84115 3.85417 6.04688 4.92188 4.95312C6.0026 3.85938 7.46094 2.86979 9.29688 1.98438C9.94792 1.67188 10.2734 1.4375 10.2734 1.28125C10.612 1.13802 11.0807 1.06641 11.6797 1.06641C12.2786 1.05339 12.819 0.955729 13.3008 0.773438C13.7956 0.578125 14.5898 0.480469 15.6836 0.480469C16.1784 0.480469 16.6211 0.526042 17.0117 0.617188C17.4154 0.695312 17.9362 0.779948 18.5742 0.871094C19.2253 0.949219 19.7201 1.02083 20.0586 1.08594C20.4102 1.13802 20.7096 1.22266 20.957 1.33984C21.2044 1.44401 21.3281 1.56771 21.3281 1.71094C21.3281 1.89323 21.1914 2.38802 20.918 3.19531C20.6445 4.0026 20.2865 4.40625 19.8438 4.40625C19.6094 4.40625 19.3555 4.32161 19.082 4.15234C18.5091 3.51432 17.7083 3.07161 16.6797 2.82422C15.6641 2.5638 14.9805 2.43359 14.6289 2.43359C14.3424 2.43359 13.9323 2.45964 13.3984 2.51172L12.2461 2.58984C12.0898 2.60286 11.9531 2.6224 11.8359 2.64844C11.5365 2.67448 11.3216 2.72656 11.1914 2.80469C10.957 2.9349 10.7422 3.04557 10.5469 3.13672C10.3516 3.22786 10.1693 3.29297 10 3.33203C9.83073 3.37109 9.66797 3.39062 9.51172 3.39062H9.31641L9.04297 3.68359C8.66536 3.68359 8.33333 3.82682 8.04688 4.11328H7.63672C4.22526 7.61589 2.51953 11.2682 2.51953 15.0703C2.51953 17.2839 3.19661 19.3346 4.55078 21.2227C5.90495 23.0977 7.74089 24.5104 10.0586 25.4609C12.3893 26.4115 14.7721 26.8867 17.207 26.8867C17.6497 26.8867 18.3594 26.8021 19.3359 26.6328C20.3125 26.4635 20.8008 26.2812 20.8008 26.0859C21.3867 26.099 21.6797 27.1081 21.6797 29.1133V29.1914ZM25.8008 15.9688C27.832 12.1016 31.4844 10.168 36.7578 10.168C37.5781 10.168 38.3073 10.2135 38.9453 10.3047C39.5964 10.3958 40.1953 10.5456 40.7422 10.7539C41.2891 10.9622 41.7969 11.2422 42.2656 11.5938C42.7344 11.9453 43.1836 12.3815 43.6133 12.9023C44.056 13.4232 44.4922 14.0482 44.9219 14.7773C45.1562 15.168 45.2734 16.0143 45.2734 17.3164C45.2734 20.2982 44.2578 22.8372 42.2266 24.9336C40.2083 27.0299 37.7083 28.0781 34.7266 28.0781H34.5703C33.9583 27.9479 33.6198 27.8828 33.5547 27.8828C33.5026 27.8828 33.4635 27.8958 33.4375 27.9219C33.3203 28.1042 32.9232 28.1953 32.2461 28.1953C31.3216 28.1953 30.2279 27.9349 28.9648 27.4141C27.7148 26.8802 26.6862 26.0664 25.8789 24.9727C25.0846 23.8789 24.6875 22.7266 24.6875 21.5156C24.6875 21.0469 24.707 20.5846 24.7461 20.1289C24.7982 19.6602 24.8698 19.2174 24.9609 18.8008C25.0651 18.3711 25.1888 17.9674 25.332 17.5898L25.8008 16.4766V15.9688ZM43.0078 19.1523V18.6445C43.0078 16.4831 42.3242 14.7448 40.957 13.4297C39.6029 12.1016 37.806 11.4375 35.5664 11.4375C35.0716 11.4375 34.6094 11.4961 34.1797 11.6133C33.75 11.7174 33.5026 11.7891 33.4375 11.8281C33.3724 11.8542 33.2552 11.9909 33.0859 12.2383C32.9297 12.4727 32.8125 12.6159 32.7344 12.668C32.6693 12.707 32.5716 12.7266 32.4414 12.7266L31.4453 12.6094C31.3021 12.6094 31.2044 12.7266 31.1523 12.9609C30.1628 13.0391 29.2318 13.7747 28.3594 15.168C27.487 16.5612 27.0508 18.013 27.0508 19.5234C27.0508 19.849 27.1159 20.5391 27.2461 21.5938C27.3763 22.6354 27.7799 23.5013 28.457 24.1914C29.1341 24.8685 29.9544 25.4544 30.918 25.9492C31.8945 26.431 32.6823 26.6719 33.2812 26.6719C33.4375 26.6719 33.5938 26.6523 33.75 26.6133L33.9258 26.5547H34.7266C36.4714 26.5547 37.6562 26.2878 38.2812 25.7539C38.3464 25.7018 38.3854 25.6758 38.3984 25.6758C38.4766 25.6758 38.6003 25.7148 38.7695 25.793C40.2018 24.556 41.263 23.2604 41.9531 21.9062C42.6562 20.5391 43.0078 19.6211 43.0078 19.1523ZM69.8047 10.6758C70.2083 10.6497 70.7357 10.5651 71.3867 10.4219L72.2461 10.207C74.2643 10.207 75.7422 10.7344 76.6797 11.7891C77.6172 12.8307 78.0859 14.4714 78.0859 16.7109C78.0859 17.8958 77.9753 19.1589 77.7539 20.5C77.5456 21.8411 77.1549 23.319 76.582 24.9336C76.0091 26.5482 75.7227 27.5573 75.7227 27.9609C75.7227 28.013 75.7357 28.0781 75.7617 28.1562C75.6185 28.599 75.4818 29.1328 75.3516 29.7578L74.1992 29.875L73.75 29.8359L73.3594 29.875C73.138 29.875 72.8581 29.7839 72.5195 29.6016C72.5456 28.599 72.7214 27.974 73.0469 27.7266C72.9557 27.5964 72.9102 27.4987 72.9102 27.4336V27.3164C73.0794 27.1602 73.2552 27.082 73.4375 27.082C75.1693 23.7487 76.0352 20.8125 76.0352 18.2734C76.0352 17.0755 75.8789 15.9818 75.5664 14.9922C75.2669 14.0026 75 13.319 74.7656 12.9414C74.5312 12.5508 74.1276 12.2578 73.5547 12.0625C72.9818 11.8672 72.3307 11.7695 71.6016 11.7695C71.0286 11.7695 70.1823 12.0299 69.0625 12.5508L66.4062 13.8008C65.7292 14.1003 65.3906 14.4844 65.3906 14.9531C65.3906 15.0182 65.4232 15.1289 65.4883 15.2852C65.2799 15.3242 65.1172 15.4023 65 15.5195C64.6745 18.332 64.5117 20.6628 64.5117 22.5117L64.6094 26.8867C64.6094 27.2513 64.5247 27.5312 64.3555 27.7266C63.5482 27.8828 63.0273 28.1367 62.793 28.4883C62.4805 28.293 62.2721 28.1953 62.168 28.1953C61.8164 28.0521 61.6406 27.5573 61.6406 26.7109V26.4375C61.9922 25.513 62.2721 24.5234 62.4805 23.4688C62.6888 22.401 62.793 20.9753 62.793 19.1914C62.793 18.5534 62.7474 17.8568 62.6562 17.1016L62.5195 16.2031V15.8711C62.5195 15.5195 62.4805 15.1745 62.4023 14.8359C62.3242 14.4844 62.1875 14.1393 61.9922 13.8008C61.7969 13.4622 61.5365 13.1302 61.2109 12.8047C60.8854 12.4792 60.5794 12.2383 60.293 12.082C60.0065 11.9258 59.6029 11.8477 59.082 11.8477C58.7695 11.8477 58.4961 11.8737 58.2617 11.9258C58.0013 11.9779 57.7669 12.069 57.5586 12.1992C57.2982 12.3685 56.888 12.5508 56.3281 12.7461C55.7161 12.9674 55.2214 13.1758 54.8438 13.3711C54.4141 13.6055 54.056 13.8594 53.7695 14.1328C53.4831 14.4193 53.2552 14.7578 53.0859 15.1484C52.9167 15.5391 52.793 16.0078 52.7148 16.5547C52.6367 17.0885 52.5977 17.7461 52.5977 18.5273L52.832 24.0352C52.832 25.2331 52.9688 26.0859 53.2422 26.5938C53.0469 27.1927 52.7604 27.6094 52.3828 27.8438C52.0182 28.0781 51.7318 28.1953 51.5234 28.1953H51.4453C51.276 28.1953 51.1263 28.1172 50.9961 27.9609L50.7617 28.1172C50.6445 27.9609 50.5664 27.7721 50.5273 27.5508C50.6576 27.3685 50.7227 27.0625 50.7227 26.6328C50.7227 26.4635 50.7031 26.1706 50.6641 25.7539C50.625 25.3372 50.6055 25.0182 50.6055 24.7969V24.5625C50.6055 24.5234 50.651 23.8008 50.7422 22.3945C50.8333 20.9753 50.8789 19.0286 50.8789 16.5547C50.8789 16.2422 50.625 15.9492 50.1172 15.6758C50.0391 15.4805 50 15.3372 50 15.2461C50 15.1549 50.0391 14.9922 50.1172 14.7578L49.8828 14.6406C50.026 14.4323 50.2083 14.2174 50.4297 13.9961C50.651 13.7617 50.7878 13.612 50.8398 13.5469C50.8919 13.4688 50.918 13.3255 50.918 13.1172C50.918 12.8828 50.8073 12.5638 50.5859 12.1602C50.3776 11.7435 50.293 11.4701 50.332 11.3398C50.3711 11.1966 50.3906 11.099 50.3906 11.0469C50.3906 10.9688 50.4818 10.7865 50.6641 10.5C50.8464 10.2005 51.0091 9.91406 51.1523 9.64062H51.5234C51.6016 9.5625 51.7057 9.4388 51.8359 9.26953C51.9661 9.08724 52.1029 8.99609 52.2461 8.99609C52.5456 8.99609 52.832 9.14583 53.1055 9.44531C53.3789 9.74479 53.5156 10.0898 53.5156 10.4805C53.5156 10.6628 53.5026 10.8125 53.4766 10.9297C53.2682 11.2682 53.1641 11.5742 53.1641 11.8477C53.1641 12.4336 53.2812 12.7266 53.5156 12.7266C53.5417 12.7266 53.7435 12.6224 54.1211 12.4141C54.4987 12.2057 54.9805 11.9909 55.5664 11.7695C56.1654 11.5352 56.6992 11.3073 57.168 11.0859C57.6497 10.8646 57.9167 10.7539 57.9688 10.7539L58.5938 10.832C58.6979 10.832 58.7826 10.819 58.8477 10.793C59.1602 10.5586 59.7331 10.4414 60.5664 10.4414C61.1393 10.4414 61.7578 10.6172 62.4219 10.9688C63.0859 11.3073 63.5547 11.8086 63.8281 12.4727C63.9453 12.7591 64.1081 12.974 64.3164 13.1172C64.5378 13.2474 64.7266 13.3125 64.8828 13.3125C64.9349 13.3125 64.9609 13.2865 64.9609 13.2344C64.9609 13.2083 64.9479 13.1823 64.9219 13.1562C65.026 13.1172 65.2799 12.9544 65.6836 12.668C66.0872 12.3815 66.5234 12.1992 66.9922 12.1211C67.1745 11.7044 67.9753 11.3594 69.3945 11.0859L69.8047 10.6758ZM87.2852 11.0469C89.681 10.1875 91.2565 9.6862 92.0117 9.54297C92.7669 9.39974 93.2161 9.32812 93.3594 9.32812C93.75 9.32812 94.5703 9.5625 95.8203 10.0312C97.0833 10.5 97.7865 10.8385 97.9297 11.0469C97.9818 11.138 98.2357 11.4831 98.6914 12.082C99.5117 12.9023 99.9219 14.1263 99.9219 15.7539C99.9219 17.1081 99.5378 18.5143 98.7695 19.9727C98.0013 21.431 97.0833 22.4792 96.0156 23.1172C95.8594 23.3125 95.7617 23.4883 95.7227 23.6445C94.1471 24.9466 93.125 25.7083 92.6562 25.9297L92.1289 26.1641C91.543 26.75 91.1328 27.043 90.8984 27.043C90.7812 27.043 90.6966 27.0299 90.6445 27.0039C90.0065 27.4336 89.5378 27.7396 89.2383 27.9219C88.9518 28.1042 88.5547 28.2344 88.0469 28.3125C87.5391 28.4036 87.2201 28.4818 87.0898 28.5469C86.9727 28.625 86.875 28.8724 86.7969 29.2891C86.7188 29.7188 86.6797 30.3568 86.6797 31.2031C86.6797 32.7917 86.7318 34.2044 86.8359 35.4414C86.9401 36.6914 87.0182 37.4076 87.0703 37.5898C87.1354 37.7721 87.2201 37.9349 87.3242 38.0781C87.4284 38.2344 87.4805 38.3385 87.4805 38.3906C87.4805 38.4948 87.4154 38.5859 87.2852 38.6641C87.168 38.7552 87.0378 38.8464 86.8945 38.9375C86.7513 39.0286 86.6536 39.0742 86.6016 39.0742C86.5755 39.0742 86.5495 39.0482 86.5234 38.9961C85.9115 39.2695 85.3906 39.4062 84.9609 39.4062C84.8047 39.4062 84.6159 39.3346 84.3945 39.1914C84.1862 39.0482 84.082 38.8659 84.082 38.6445C84.082 38.3451 84.1667 37.9544 84.3359 37.4727C84.5182 37.0039 84.6094 36.6589 84.6094 36.4375L84.5703 35.7148L84.7266 30.3242C84.7266 29.4909 84.6875 28.8919 84.6094 28.5273C84.5443 28.1758 84.3555 27.8242 84.043 27.4727L84.2188 26.5547L84.1602 26.3984C84.1602 26.2682 84.2513 26.0924 84.4336 25.8711C84.6289 25.6367 84.7266 25.2917 84.7266 24.8359L84.6875 23.7617V23.3516C84.7917 23.0391 84.8438 22.6289 84.8438 22.1211V19.6406C84.8438 19.3932 84.8633 19.0221 84.9023 18.5273C84.9414 18.0326 84.9609 17.6549 84.9609 17.3945C84.9609 16.0794 84.9219 15.207 84.8438 14.7773C84.7656 14.3346 84.6094 14.1133 84.375 14.1133C84.2578 14.1133 84.056 14.1654 83.7695 14.2695C83.4831 14.3607 83.2552 14.4062 83.0859 14.4062L82.9297 14.3672L82.4805 13.8789C82.6628 13.6185 83.099 13.3255 83.7891 13C84.4922 12.6615 84.8438 12.3164 84.8438 11.9648C84.8438 11.8867 84.8242 11.7435 84.7852 11.5352C84.7461 11.3268 84.7266 11.151 84.7266 11.0078L84.7656 10.7148C84.7656 10.6107 84.6615 10.4284 84.4531 10.168L84.375 9.40625C84.375 8.91146 84.4792 8.57292 84.6875 8.39062C84.8958 8.20833 85.1888 8.0651 85.5664 7.96094C85.957 7.85677 86.2109 7.76562 86.3281 7.6875H86.9336C87.2461 7.6875 87.4023 7.81771 87.4023 8.07812L87.2461 8.70312C87.1419 9.15885 87.0898 9.48438 87.0898 9.67969L87.1289 10.168L87.0508 10.832C87.0508 10.9362 87.1289 11.0078 87.2852 11.0469ZM87.4023 25.5586C88.0534 25.806 88.7109 25.9297 89.375 25.9297C89.7135 25.9297 90.013 25.9036 90.2734 25.8516C90.5469 25.7995 91.0091 25.5781 91.6602 25.1875C92.3242 24.7839 93.1185 24.2565 94.043 23.6055C94.3815 23.3711 94.7005 23.1107 95 22.8242C95.3125 22.5378 95.7878 21.8542 96.4258 20.7734C96.7122 20.2786 96.9661 19.6081 97.1875 18.7617C97.4089 17.9023 97.5195 17.2188 97.5195 16.7109C97.5195 16.2812 97.3958 15.6237 97.1484 14.7383C96.901 13.8529 96.4453 13.1237 95.7812 12.5508C95.1302 11.9648 94.6875 11.6719 94.4531 11.6719H94.3359C93.9974 11.6719 93.6914 11.5547 93.418 11.3203H92.6562L91.3281 11.2812C89.7656 11.2812 88.6263 11.5417 87.9102 12.0625C87.207 12.5703 86.8555 13.5078 86.8555 14.875L86.8945 16.5938L86.7773 24.9531C86.7773 25.1354 86.875 25.2591 87.0703 25.3242C87.2656 25.3893 87.3763 25.4674 87.4023 25.5586ZM115.938 17.4336C115.938 17.5378 115.846 17.681 115.664 17.8633C115.495 18.0456 115.378 18.2083 115.312 18.3516C115.247 18.4948 115.195 18.8789 115.156 19.5039C115.117 20.1159 115.098 21.0273 115.098 22.2383L115.176 24.875C115.176 25.0182 115.117 25.1419 115 25.2461C114.974 25.3893 114.961 25.6302 114.961 25.9688C114.961 26.4505 115.039 27.0625 115.195 27.8047L115.41 28.8398L115.371 29.7969L115.41 30.6367C114.473 31.5742 113.776 32.043 113.32 32.043C113.255 32.043 113.132 31.9974 112.949 31.9062C112.767 31.8151 112.598 31.7695 112.441 31.7695H112.324C112.22 31.4049 112.168 31.0794 112.168 30.793C112.168 30.1549 112.318 29.543 112.617 28.957C112.76 28.7747 112.865 28.6315 112.93 28.5273C113.008 28.4232 113.047 28.0326 113.047 27.3555C113.047 26.6133 112.969 26.2422 112.812 26.2422C112.786 26.2422 112.702 26.2682 112.559 26.3203C112.428 26.3724 112.285 26.3984 112.129 26.3984H111.973C111.816 26.5026 111.719 26.6393 111.68 26.8086C111.523 26.7956 110.671 27.0885 109.121 27.6875C108.366 27.9479 107.637 28.0781 106.934 28.0781C106.165 28.0781 105.475 27.9805 104.863 27.7852C104.251 27.5768 103.737 27.2773 103.32 26.8867C102.904 26.4831 102.63 26.1836 102.5 25.9883C102.383 25.793 102.324 25.3698 102.324 24.7188L102.363 24.2305V24.0742C102.363 22.7721 103.372 21.4049 105.391 19.9727C107.422 18.5404 109.316 17.6745 111.074 17.375C111.543 17.2969 111.908 17.2188 112.168 17.1406C112.428 17.0495 112.643 16.9062 112.812 16.7109C112.995 16.5156 113.086 16.0664 113.086 15.3633C113.086 13.0456 111.862 11.4701 109.414 10.6367C109.336 10.6107 109.225 10.5586 109.082 10.4805C108.952 10.4023 108.835 10.3633 108.73 10.3633C107.467 10.3633 106.413 10.4154 105.566 10.5195C105.098 11.0534 104.577 11.3203 104.004 11.3203C103.574 11.3203 103.359 11.1706 103.359 10.8711C103.359 10.8581 103.451 10.5846 103.633 10.0508C103.828 9.50391 104.284 9.23047 105 9.23047C105.82 8.78776 107.318 8.56641 109.492 8.56641C111.237 8.56641 112.591 9.24349 113.555 10.5977C114.518 11.9518 115 13.8854 115 16.3984V16.6719C115.104 16.8411 115.286 16.9648 115.547 17.043C115.807 17.1211 115.938 17.2383 115.938 17.3945V17.4336ZM112.09 24.3672C112.91 23.2604 113.32 22.2708 113.32 21.3984C113.32 20.8646 113.184 20.2852 112.91 19.6602C112.65 19.0352 112.122 18.7227 111.328 18.7227C109.792 18.7227 108.542 19.1068 107.578 19.875H107.09C105.085 20.9818 104.082 22.1536 104.082 23.3906C104.082 24.263 104.492 24.9987 105.312 25.5977C106.146 26.1836 107.109 26.4766 108.203 26.4766C108.49 26.4766 109.036 26.3529 109.844 26.1055C110.651 25.8581 111.4 25.3958 112.09 24.7188V24.3672ZM130.781 11.0469C131.628 10.9036 132.337 10.832 132.91 10.832C136.452 10.832 138.223 13.0456 138.223 17.4727C138.223 19.9336 137.819 22.7786 137.012 26.0078C136.647 27.401 136.465 28.332 136.465 28.8008C136.465 28.9049 136.491 29.0091 136.543 29.1133C136.387 29.9206 135.911 30.3242 135.117 30.3242C134.648 30.3242 134.219 30.194 133.828 29.9336C133.451 29.6732 133.262 29.3997 133.262 29.1133C133.262 28.6836 133.535 28.1497 134.082 27.5117C134.629 26.8737 135.13 25.6302 135.586 23.7812C136.042 21.9323 136.27 20.0703 136.27 18.1953C136.27 14.3542 134.694 12.4336 131.543 12.4336C130.306 12.4336 129.141 12.6875 128.047 13.1953C126.966 13.7031 126.348 14.263 126.191 14.875C126.074 15.0052 125.898 15.1354 125.664 15.2656C125.456 15.3698 125.332 15.4674 125.293 15.5586C125.267 15.6367 125.202 16.6198 125.098 18.5078C124.993 20.3958 124.941 21.8281 124.941 22.8047V23.7227C124.941 24.2044 125.02 24.6471 125.176 25.0508C125.345 25.4544 125.43 25.6888 125.43 25.7539L125.391 26.4375C125.391 26.8672 125.312 27.2122 125.156 27.4727C125.013 27.7201 124.824 27.8438 124.59 27.8438H124.512L124.395 28.1172C124.238 28.0651 124.128 28.0391 124.062 28.0391C123.88 28.0391 123.646 28.1432 123.359 28.3516H123.262C123.118 28.3516 122.897 28.1823 122.598 27.8438C122.168 27.8438 121.953 27.681 121.953 27.3555C121.953 27.069 122.044 26.8281 122.227 26.6328C122.396 26.6328 122.591 25.7799 122.812 24.0742C123.034 22.3555 123.145 20.181 123.145 17.5508C123.145 14.1393 122.865 12.1927 122.305 11.7109L122.266 11.3594C122.266 10.8646 122.552 10.5326 123.125 10.3633C123.359 10.2982 123.568 10.1224 123.75 9.83594C123.945 9.54948 124.147 9.40625 124.355 9.40625H124.395C124.655 9.36719 124.876 9.30208 125.059 9.21094C125.254 9.11979 125.365 9.07422 125.391 9.07422C125.573 9.07422 125.664 9.32812 125.664 9.83594C125.664 10.2266 125.586 10.6758 125.43 11.1836C125.273 11.6784 125.195 11.9909 125.195 12.1211C125.195 12.3164 125.26 12.4857 125.391 12.6289C125.534 12.7721 125.71 12.8438 125.918 12.8438H126.035C126.4 12.4922 126.595 12.3164 126.621 12.3164H126.68C127.93 12.3164 128.874 12.0625 129.512 11.5547C129.629 11.5417 129.772 11.5221 129.941 11.4961C130.111 11.457 130.221 11.4375 130.273 11.4375C130.586 11.2422 130.755 11.112 130.781 11.0469ZM158.691 10.4414C158.848 10.3112 159.03 10.2461 159.238 10.2461C159.434 10.2461 159.792 10.3112 160.312 10.4414C160.833 10.5716 161.094 10.7604 161.094 11.0078C161.094 11.3594 160.866 11.6914 160.41 12.0039C160.241 12.0039 159.557 13.0911 158.359 15.2656L155.137 21.1055C154.186 22.8112 153.646 24.2891 153.516 25.5391C153.398 26.5286 153.105 27.1862 152.637 27.5117L152.52 28C152.311 28.0391 152.142 28.1693 152.012 28.3906C150.124 32.7396 148.971 35.4284 148.555 36.457C148.151 37.4857 147.93 38.2799 147.891 38.8398C147.865 39.3997 147.585 39.6797 147.051 39.6797H146.836C146.393 39.5234 145.807 39.4453 145.078 39.4453L144.961 39.4844C144.753 39.4844 144.648 39.3737 144.648 39.1523C144.648 39.0872 144.688 39.0352 144.766 38.9961C144.766 38.8919 145.247 38.2018 146.211 36.9258C146.094 36.8867 146.035 36.8151 146.035 36.7109C146.035 36.5417 146.341 36.0013 146.953 35.0898C148.477 32.7852 149.733 30.5521 150.723 28.3906C150.645 28.2734 150.605 28.1432 150.605 28C150.527 27.9479 150.41 27.9219 150.254 27.9219H150.156C149.883 27.9219 149.694 27.5833 149.59 26.9062C149.499 26.2292 149.421 25.832 149.355 25.7148C148.77 24.7122 148.164 23.4818 147.539 22.0234C146.927 20.5521 146.289 19.1589 145.625 17.8438C144.961 16.5156 144.486 15.5065 144.199 14.8164C143.926 14.1263 143.574 13.5339 143.145 13.0391C142.728 12.5312 142.52 12.1081 142.52 11.7695V11.5547C142.467 11.5807 142.389 11.5938 142.285 11.5938C142.103 11.5938 142.012 11.5547 142.012 11.4766C142.012 11.3984 142.22 11.099 142.637 10.5781C143.053 10.0443 143.522 9.6276 144.043 9.32812C144.434 9.48438 144.733 9.61458 144.941 9.71875C145.15 9.82292 145.391 10.4544 145.664 11.6133L146.094 13.1562V13.8008C146.589 14.7513 147.233 16.0924 148.027 17.8242L148.633 19.1328C148.841 19.5755 149.036 19.9857 149.219 20.3633C149.401 20.7279 149.59 21.0794 149.785 21.418C149.993 21.7435 150.202 22.0495 150.41 22.3359C150.736 22.7786 150.911 23.026 150.938 23.0781C151.029 23.2734 151.133 23.4557 151.25 23.625C151.38 23.7812 151.517 23.931 151.66 24.0742C151.803 24.2044 151.96 24.3281 152.129 24.4453L153.652 20.9883C154.941 18.0716 155.775 16.2943 156.152 15.6562C156.543 15.0052 156.836 14.3997 157.031 13.8398C157.227 13.2799 157.396 12.668 157.539 12.0039C157.695 11.3268 157.819 10.8906 157.91 10.6953C158.014 10.5 158.19 10.4023 158.438 10.4023L158.691 10.4414Z" fill="white"/>
</svg>
