<svg width="268" height="29" viewBox="0 0 268 29" fill="none" xmlns="http://www.w3.org/2000/svg">
<path d="M32.2305 26.1641C31.293 26.5547 30.349 26.9062 29.3984 27.2188C28.4479 27.5312 27.4648 27.7982 26.4492 28.0195C25.4336 28.2539 24.3594 28.4297 23.2266 28.5469C22.1068 28.6641 20.9023 28.7227 19.6133 28.7227C16.8789 28.7227 14.3594 28.4297 12.0547 27.8438C9.76302 27.2578 7.78385 26.3789 6.11719 25.207C4.46354 24.0221 3.17448 22.5508 2.25 20.793C1.32552 19.0221 0.863281 16.9583 0.863281 14.6016C0.863281 12.2448 1.32552 10.1875 2.25 8.42969C3.17448 6.65885 4.46354 5.1875 6.11719 4.01562C7.78385 2.83073 9.76302 1.94531 12.0547 1.35938C14.3594 0.773438 16.8789 0.480469 19.6133 0.480469C20.9023 0.480469 22.1068 0.539062 23.2266 0.65625C24.3594 0.773438 25.4336 0.949219 26.4492 1.18359C27.4648 1.40495 28.4479 1.67188 29.3984 1.98438C30.349 2.29688 31.293 2.64844 32.2305 3.03906V9.5625C31.4883 9.15885 30.707 8.76172 29.8867 8.37109C29.0664 7.96745 28.1615 7.60938 27.1719 7.29688C26.1823 6.97135 25.0951 6.71094 23.9102 6.51562C22.7253 6.30729 21.3906 6.20312 19.9062 6.20312C17.6276 6.20312 15.7331 6.4375 14.2227 6.90625C12.7253 7.375 11.5273 8 10.6289 8.78125C9.73047 9.5625 9.09896 10.4609 8.73438 11.4766C8.36979 12.4792 8.1875 13.5208 8.1875 14.6016C8.1875 15.3177 8.26562 16.0273 8.42188 16.7305C8.57812 17.4206 8.83854 18.0781 9.20312 18.7031C9.56771 19.3151 10.043 19.8815 10.6289 20.4023C11.2148 20.9232 11.944 21.3724 12.8164 21.75C13.6888 22.1276 14.7044 22.4271 15.8633 22.6484C17.0352 22.8568 18.3828 22.9609 19.9062 22.9609C21.3906 22.9609 22.7253 22.8698 23.9102 22.6875C25.0951 22.4922 26.1823 22.2383 27.1719 21.9258C28.1615 21.6133 29.0664 21.2617 29.8867 20.8711C30.707 20.4674 31.4883 20.0573 32.2305 19.6406V26.1641ZM73.7148 14.6016C73.7148 16.9062 73.2917 18.944 72.4453 20.7148C71.599 22.4727 70.388 23.944 68.8125 25.1289C67.237 26.3138 65.3229 27.2122 63.0703 27.8242C60.8307 28.4232 58.3112 28.7227 55.5117 28.7227C52.7122 28.7227 50.1797 28.4232 47.9141 27.8242C45.6615 27.2122 43.7409 26.3138 42.1523 25.1289C40.5638 23.944 39.3398 22.4727 38.4805 20.7148C37.6211 18.944 37.1914 16.9062 37.1914 14.6016C37.1914 12.2969 37.6211 10.2656 38.4805 8.50781C39.3398 6.73698 40.5638 5.25911 42.1523 4.07422C43.7409 2.88932 45.6615 1.9974 47.9141 1.39844C50.1797 0.786458 52.7122 0.480469 55.5117 0.480469C58.3112 0.480469 60.8307 0.786458 63.0703 1.39844C65.3229 1.9974 67.237 2.88932 68.8125 4.07422C70.388 5.25911 71.599 6.73698 72.4453 8.50781C73.2917 10.2656 73.7148 12.2969 73.7148 14.6016ZM66.3906 14.6016C66.3906 13.599 66.2279 12.6029 65.9023 11.6133C65.5898 10.6107 65.0234 9.71224 64.2031 8.91797C63.3958 8.1237 62.2891 7.47917 60.8828 6.98438C59.4766 6.48958 57.6862 6.24219 55.5117 6.24219C54.0534 6.24219 52.7708 6.35938 51.6641 6.59375C50.5573 6.8151 49.6003 7.1276 48.793 7.53125C47.9857 7.9349 47.3086 8.41016 46.7617 8.95703C46.2148 9.49089 45.7786 10.0703 45.4531 10.6953C45.1276 11.3073 44.8932 11.9518 44.75 12.6289C44.6198 13.293 44.5547 13.9505 44.5547 14.6016C44.5547 15.2656 44.6198 15.9362 44.75 16.6133C44.8932 17.2904 45.1276 17.9414 45.4531 18.5664C45.7786 19.1784 46.2148 19.7513 46.7617 20.2852C47.3086 20.819 47.9857 21.2878 48.793 21.6914C49.6003 22.082 50.5573 22.3945 51.6641 22.6289C52.7708 22.8503 54.0534 22.9609 55.5117 22.9609C57.6862 22.9609 59.4766 22.7135 60.8828 22.2188C62.2891 21.724 63.3958 21.0794 64.2031 20.2852C65.0234 19.4909 65.5898 18.599 65.9023 17.6094C66.2279 16.6068 66.3906 15.6042 66.3906 14.6016ZM80.3164 28V1.16406H87.5625V28H80.3164ZM121.547 28V12.9609C121.547 11.9583 121.462 11.0534 121.293 10.2461C121.124 9.42578 120.805 8.72917 120.336 8.15625C119.88 7.57031 119.236 7.12109 118.402 6.80859C117.582 6.48307 116.521 6.32031 115.219 6.32031C114.229 6.32031 113.188 6.45703 112.094 6.73047C111.013 6.99089 109.939 7.34245 108.871 7.78516C107.803 8.22786 106.781 8.74219 105.805 9.32812C104.841 9.91406 103.982 10.526 103.227 11.1641V28H95.9805V1.16406H103.227V4.83594C104.138 4.3151 105.108 3.80078 106.137 3.29297C107.165 2.77214 108.259 2.30339 109.418 1.88672C110.577 1.47005 111.807 1.13151 113.109 0.871094C114.411 0.610677 115.785 0.480469 117.23 0.480469C119.04 0.480469 120.655 0.701823 122.074 1.14453C123.507 1.57422 124.717 2.19271 125.707 3C126.697 3.79427 127.452 4.76432 127.973 5.91016C128.507 7.04297 128.773 8.3125 128.773 9.71875V28H121.547ZM151.723 7.00391V28H144.477V7.00391H133.09V1.16406H163.129V7.00391H151.723ZM197.465 26.6719C195.264 27.401 193.064 27.9219 190.863 28.2344C188.676 28.5599 186.436 28.7227 184.145 28.7227C181.215 28.7227 178.604 28.4102 176.312 27.7852C174.034 27.1471 172.113 26.2292 170.551 25.0312C168.988 23.8333 167.797 22.3685 166.977 20.6367C166.156 18.9049 165.746 16.9453 165.746 14.7578C165.746 12.7266 166.156 10.8451 166.977 9.11328C167.81 7.36849 168.982 5.85807 170.492 4.58203C172.016 3.29297 173.852 2.29036 176 1.57422C178.148 0.845052 180.544 0.480469 183.188 0.480469C185.622 0.480469 187.849 0.8125 189.867 1.47656C191.898 2.1276 193.637 3.09766 195.082 4.38672C196.54 5.67578 197.667 7.26432 198.461 9.15234C199.268 11.0404 199.672 13.2148 199.672 15.6758V17.4727H173.227C173.461 18.319 173.845 19.0938 174.379 19.7969C174.926 20.5 175.661 21.099 176.586 21.5938C177.51 22.0885 178.643 22.4727 179.984 22.7461C181.339 23.0195 182.953 23.1562 184.828 23.1562C186.156 23.1562 187.458 23.0781 188.734 22.9219C190.01 22.7526 191.202 22.5378 192.309 22.2773C193.415 22.0039 194.411 21.7044 195.297 21.3789C196.195 21.0534 196.918 20.7279 197.465 20.4023V26.6719ZM192.465 12.1602C192.4 11.4961 192.198 10.8125 191.859 10.1094C191.534 9.39323 191.013 8.7487 190.297 8.17578C189.581 7.60286 188.643 7.13411 187.484 6.76953C186.326 6.39193 184.88 6.20312 183.148 6.20312C181.521 6.20312 180.115 6.40495 178.93 6.80859C177.745 7.21224 176.749 7.71354 175.941 8.3125C175.147 8.91146 174.529 9.55599 174.086 10.2461C173.643 10.9362 173.357 11.5742 173.227 12.1602H192.465ZM224.008 14.2305L236.742 28H228.051L219.652 18.957L211.293 28H202.621L215.336 14.2305L203.246 1.16406H211.938L219.652 9.5625L227.406 1.16406H236.098L224.008 14.2305ZM256.527 7.00391V28H249.281V7.00391H237.895V1.16406H267.934V7.00391H256.527Z" fill="white"/>
</svg>
