<svg width="101" height="100" viewBox="0 0 101 100" fill="none" xmlns="http://www.w3.org/2000/svg">
<g clip-path="url(#clip0_960_1660)">
<path d="M93.967 17.3089C79.3543 13.5201 64.6557 7.62046 51.4607 0.247815C51.1695 0.0852317 50.8415 -0.00012207 50.508 -0.00012207C50.1745 -0.00012207 49.8466 0.0852317 49.5554 0.247815C35.9808 7.83178 22.0767 13.4124 7.04882 17.3091C6.63002 17.4177 6.25912 17.6623 5.99436 18.0045C5.72959 18.3467 5.58593 18.7671 5.58594 19.1997V40.761C5.58594 62.9358 16.3851 77.6045 25.4449 86.0051C35.163 95.0164 46.4331 100 50.5081 100C54.5831 100 65.8532 95.0164 75.5714 86.0051C84.6307 77.6045 95.4303 62.936 95.4303 40.761V19.1995C95.4302 18.7669 95.2864 18.3464 95.0216 18.0043C94.7568 17.6621 94.3858 17.4175 93.967 17.3089ZM72.9153 83.14C67.5331 88.1308 62.3028 91.2816 58.8626 93.0459C54.5034 95.2816 51.4778 96.0933 50.5079 96.0933C49.538 96.0933 46.5126 95.2818 42.1532 93.0459C38.7134 91.2816 33.483 88.1308 28.1005 83.14C19.6115 75.2684 9.49198 61.5262 9.49198 40.7606V20.7046C23.938 16.8374 37.3828 11.4228 50.5081 4.18628C63.3007 11.229 77.4274 16.9177 91.5237 20.704V40.7606H91.5239C91.5237 61.5262 81.4043 75.2684 72.9153 83.14Z" fill="url(#paint0_linear_960_1660)"/>
<path d="M31.4286 68.9015L31.384 68.854C30.5587 67.9586 29.1571 67.8897 28.246 68.7019C27.3307 69.5176 27.2564 70.9138 28.0801 71.8202L28.1247 71.8677C28.3335 72.0946 28.5879 72.2757 28.8715 72.3996C29.1552 72.5234 29.4619 72.5871 29.7718 72.5867C30.3225 72.5871 30.8538 72.3851 31.2627 72.0198C32.178 71.2042 32.2523 69.8077 31.4286 68.9015ZM43.4552 78.9242C40.7692 77.2456 38.1828 75.3108 35.7684 73.1734C34.8504 72.3603 33.4407 72.4387 32.6199 73.3478C31.7994 74.2571 31.8783 75.6529 32.7965 76.4657C35.3949 78.7661 38.1804 80.8497 41.0755 82.6591C41.4309 82.8818 41.8428 83.0001 42.2633 83C42.6403 83.0005 43.0112 82.9063 43.3413 82.7261C43.6715 82.546 43.9501 82.2859 44.1511 81.9701C44.8084 80.9387 44.4969 79.575 43.4552 78.9242ZM61.7249 35.95V28.6806C61.7249 22.2399 56.4336 17 49.9293 17C43.4255 17 38.1342 22.2399 38.1342 28.6806V35.95C35.4812 36.0447 33.352 38.21 33.352 40.86V57.8116C33.3518 60.5216 35.5782 62.7262 38.3148 62.7262H61.5448C64.2814 62.7262 66.5078 60.5216 66.5078 57.8116V40.86C66.5078 38.2098 64.3784 36.0443 61.7249 35.95ZM42.5936 28.6806C42.5936 24.675 45.8845 21.4163 49.9296 21.4163C53.9744 21.4163 57.2651 24.675 57.2651 28.6806V35.9453H42.5933L42.5936 28.6806ZM62.048 57.8118C62.048 58.0821 61.8175 58.3102 61.5445 58.3102H38.3144C38.0415 58.3102 37.8109 58.0821 37.8109 57.8118V40.8602H37.8111C37.8111 40.5899 38.0417 40.3618 38.3146 40.3618H61.5445C61.8175 40.3618 62.048 40.5899 62.048 40.8602V57.8118Z" fill="url(#paint1_linear_960_1660)"/>
<path d="M49.2387 45C47.7346 45 46.5078 46.2268 46.5078 47.7309C46.5078 48.4703 46.8053 49.142 47.2855 49.6344V51.5459C47.2855 52.6244 48.16 53.499 49.2387 53.499C50.3174 53.499 51.1918 52.6244 51.1918 51.5459V49.6344C51.6721 49.1418 51.9695 48.4703 51.9695 47.7309C51.9695 46.2268 50.7428 45 49.2387 45Z" fill="url(#paint2_linear_960_1660)"/>
</g>
<defs>
<linearGradient id="paint0_linear_960_1660" x1="50.5081" y1="-0.00012207" x2="50.5081" y2="100" gradientUnits="userSpaceOnUse">
<stop stop-color="#4FD3D3"/>
<stop offset="1" stop-color="#5528A9"/>
</linearGradient>
<linearGradient id="paint1_linear_960_1660" x1="47.0078" y1="17" x2="47.0078" y2="83" gradientUnits="userSpaceOnUse">
<stop stop-color="#4FD3D3"/>
<stop offset="1" stop-color="#5528A9"/>
</linearGradient>
<linearGradient id="paint2_linear_960_1660" x1="49.2387" y1="45" x2="49.2387" y2="53.499" gradientUnits="userSpaceOnUse">
<stop stop-color="#4FD3D3"/>
<stop offset="1" stop-color="#5528A9"/>
</linearGradient>
<clipPath id="clip0_960_1660">
<rect width="100" height="100" fill="white" transform="translate(0.507812)"/>
</clipPath>
</defs>
</svg>
