<svg width="81" height="81" viewBox="0 0 81 81" fill="none" xmlns="http://www.w3.org/2000/svg">
<g clip-path="url(#clip0_729_853)">
<path d="M40.5417 36.7898C39.0689 36.7898 37.875 37.9837 37.875 39.4565C37.8748 40.5214 38.5006 41.4378 39.403 41.8653V45.107C39.403 45.409 39.5229 45.6986 39.7365 45.9121C39.95 46.1256 40.2396 46.2456 40.5416 46.2456C40.8435 46.2456 41.1331 46.1256 41.3467 45.9121C41.5602 45.6986 41.6802 45.409 41.6802 45.107V41.8653C42.5827 41.4378 43.2084 40.5214 43.2084 39.4565C43.2084 37.9837 42.0145 36.7898 40.5417 36.7898Z" fill="url(#paint0_linear_729_853)"/>
<path d="M68.9584 17.8671C64.057 15.9275 60.1667 12.3553 58.0041 7.80878C57.4159 6.57238 56.1447 5.77332 54.7652 5.77332H26.2336C24.8542 5.77332 23.583 6.57222 22.9948 7.80878C20.8323 12.3553 16.9419 15.9275 12.0405 17.8671C10.6656 18.411 9.77734 19.7216 9.77734 21.2058V28.1452C9.77734 37.2419 12.43 46.228 17.4486 54.1324C22.5159 62.1141 29.8588 68.7846 38.6827 73.4224L38.8264 73.498C39.3423 73.7693 39.9164 73.911 40.4993 73.9111C41.0821 73.9111 41.6563 73.7694 42.1722 73.4982L42.3164 73.4224C51.1405 68.7844 58.4831 62.1141 63.5506 54.1324C68.5691 46.2278 71.2217 37.2418 71.2217 28.1452V21.2058C71.2217 19.7214 70.3331 18.411 68.9584 17.8671ZM68.9447 28.1453C68.9447 36.8089 66.4147 45.373 61.6283 52.9121C56.7738 60.5583 49.7294 66.9538 41.2573 71.4069L41.1131 71.4825C40.9239 71.5821 40.7133 71.6341 40.4995 71.6341C40.2856 71.6341 40.075 71.5821 39.8858 71.4825L39.742 71.4071C31.2697 66.9539 24.2253 60.5585 19.3706 52.9121C14.5842 45.3732 12.0542 36.8089 12.0542 28.1452V21.2058C12.0542 20.6619 12.3777 20.1824 12.8781 19.9844C18.3172 17.8322 22.6402 13.8555 25.0509 8.78691C25.2636 8.33957 25.7278 8.0505 26.2334 8.0505H54.7653C55.2709 8.0505 55.735 8.33957 55.9478 8.78691C58.3587 13.8555 62.6819 17.8322 68.1208 19.9846C68.6213 20.1825 68.9447 20.6621 68.9447 21.206V28.1453Z" fill="url(#paint1_linear_729_853)"/>
<path d="M74.6661 38.95C74.5203 38.917 74.3694 38.9131 74.222 38.9384C74.0746 38.9637 73.9337 39.0179 73.8073 39.0977C73.6809 39.1775 73.5714 39.2815 73.4852 39.4036C73.3989 39.5257 73.3376 39.6637 73.3047 39.8095C69.8372 55.1497 59.2766 68.4533 44.3303 76.3091L40.857 78.1347C40.7466 78.1927 40.6237 78.223 40.4989 78.223C40.3741 78.223 40.2512 78.1927 40.1408 78.1347L36.6675 76.3091C21.6978 68.4409 11.1319 55.1144 7.67891 39.7466C7.61273 39.452 7.43223 39.1957 7.17712 39.0342C6.92201 38.8727 6.61319 38.8191 6.31859 38.8853C6.024 38.9515 5.76775 39.132 5.60624 39.3871C5.44472 39.6422 5.39116 39.951 5.45734 40.2456C9.05672 56.2661 20.0463 70.1453 35.6081 78.3245L39.0814 80.1502C39.5186 80.3799 40.0051 80.4999 40.4989 80.4999C40.9928 80.4998 41.4792 80.3798 41.9164 80.15L45.3897 78.3244C60.927 70.158 71.9111 56.3028 75.5258 40.3114C75.5923 40.0169 75.539 39.708 75.3778 39.4527C75.2166 39.1974 74.9606 39.0166 74.6661 38.95ZM74.1119 13.5277C68.0323 12.8862 63.252 8.61891 62.4869 3.15047C62.2755 1.63937 60.9769 0.5 59.4663 0.5H21.5312C20.0208 0.5 18.7222 1.63937 18.5108 3.15047C17.7455 8.61906 12.9652 12.8862 6.88578 13.5277C5.34531 13.6902 4.18359 14.9916 4.18359 16.5547V28.7803C4.18359 30.5569 4.27562 32.353 4.45719 34.1189C4.49331 34.415 4.64416 34.6851 4.87731 34.8711C5.11045 35.0571 5.40728 35.1443 5.70398 35.1138C6.00069 35.0833 6.27358 34.9376 6.46401 34.708C6.65444 34.4784 6.7472 34.1833 6.72234 33.8861C6.54833 32.1897 6.46098 30.4856 6.46063 28.7803V16.5547C6.46063 16.1664 6.75234 15.8313 7.12469 15.792C14.2459 15.0408 19.8553 9.97203 20.7659 3.46594C20.8219 3.06672 21.1436 2.77703 21.5312 2.77703H59.4661C59.8537 2.77703 60.1758 3.06672 60.2316 3.46594C61.1419 9.97203 66.7514 15.0406 73.8727 15.792C74.245 15.8313 74.5367 16.1664 74.5367 16.5547V28.7803C74.5367 30.4614 74.4505 32.1614 74.2805 33.8334C74.2519 34.1329 74.3429 34.4314 74.5337 34.6639C74.7245 34.8965 74.9995 35.0441 75.2987 35.0745C75.598 35.1049 75.8971 35.0157 76.1308 34.8263C76.3645 34.6369 76.5137 34.3628 76.5459 34.0638C76.7241 32.3082 76.8135 30.5448 76.8138 28.7803V16.5547C76.8139 14.9916 75.6523 13.6902 74.1119 13.5277Z" fill="url(#paint2_linear_729_853)"/>
<path d="M53.5403 28.9164H51.6683V23.4817C51.6683 17.3475 46.6778 12.3571 40.5434 12.3571C34.4092 12.3571 29.4186 17.3475 29.4186 23.4817V28.9164H27.5467C25.5502 28.9164 23.9258 30.5408 23.9258 32.5374V48.8388C23.9258 50.8353 25.5502 52.4597 27.5467 52.4597H53.5403C55.5369 52.4597 57.1612 50.8353 57.1612 48.8388V32.5374C57.1612 30.5408 55.5369 28.9164 53.5403 28.9164ZM31.6958 23.4819C31.6958 18.6033 35.6648 14.6342 40.5436 14.6342C45.4223 14.6342 49.3914 18.6033 49.3914 23.4819V28.9166H31.6958V23.4819ZM54.8842 48.8388C54.8842 49.5797 54.2812 50.1827 53.5403 50.1827H27.5467C26.8056 50.1827 26.2028 49.5797 26.2028 48.8388V32.5374C26.2028 31.7964 26.8058 31.1935 27.5467 31.1935H53.5403C54.2812 31.1935 54.8842 31.7963 54.8842 32.5374V48.8388Z" fill="url(#paint3_linear_729_853)"/>
</g>
<defs>
<linearGradient id="paint0_linear_729_853" x1="40.5417" y1="36.7898" x2="40.5417" y2="46.2456" gradientUnits="userSpaceOnUse">
<stop stop-color="#4FD3D3"/>
<stop offset="1" stop-color="#5528A9"/>
</linearGradient>
<linearGradient id="paint1_linear_729_853" x1="40.4995" y1="5.77332" x2="40.4995" y2="73.9111" gradientUnits="userSpaceOnUse">
<stop stop-color="#4FD3D3"/>
<stop offset="1" stop-color="#5528A9"/>
</linearGradient>
<linearGradient id="paint2_linear_729_853" x1="40.4987" y1="0.5" x2="40.4987" y2="80.4999" gradientUnits="userSpaceOnUse">
<stop stop-color="#4FD3D3"/>
<stop offset="1" stop-color="#5528A9"/>
</linearGradient>
<linearGradient id="paint3_linear_729_853" x1="40.5435" y1="12.3571" x2="40.5435" y2="52.4597" gradientUnits="userSpaceOnUse">
<stop stop-color="#4FD3D3"/>
<stop offset="1" stop-color="#5528A9"/>
</linearGradient>
<clipPath id="clip0_729_853">
<rect width="80" height="80" fill="white" transform="translate(0.5 0.5)"/>
</clipPath>
</defs>
</svg>
