<svg width="101" height="100" viewBox="0 0 101 100" fill="none" xmlns="http://www.w3.org/2000/svg">
<g clip-path="url(#clip0_960_4562)">
<path d="M95.7056 48.6717C95.2821 48.6717 94.876 48.8399 94.5765 49.1394C94.2771 49.4388 94.1089 49.8449 94.1089 50.2684C94.1116 60.7272 90.3112 70.8301 83.416 78.6941C76.5208 86.5581 67.0013 91.6465 56.6319 93.0109C46.2625 94.3754 35.7508 91.9227 27.056 86.1101C18.3612 80.2975 12.0766 71.5216 9.37369 61.4181L15.1218 64.4519C15.4966 64.6496 15.9346 64.6904 16.3394 64.5652C16.7442 64.4401 17.0828 64.1592 17.2805 63.7844C17.4783 63.4097 17.5191 62.9717 17.3939 62.5668C17.2688 62.162 16.9879 61.8235 16.6131 61.6257L7.967 57.0623C7.76593 56.9356 7.54032 56.8528 7.30499 56.8193C7.06966 56.7859 6.82992 56.8026 6.60149 56.8683C6.37307 56.9341 6.16112 57.0474 5.97957 57.2008C5.79801 57.3542 5.65094 57.5443 5.548 57.7585L1.62172 67.2205C1.54141 67.4143 1.50005 67.6219 1.5 67.8317C1.49995 68.0414 1.54121 68.2491 1.62142 68.4429C1.70163 68.6367 1.81923 68.8128 1.96749 68.9611C2.11576 69.1094 2.29179 69.2271 2.48553 69.3074C2.67928 69.3877 2.88695 69.4291 3.09668 69.4291C3.30641 69.4292 3.51409 69.3879 3.70788 69.3077C3.90166 69.2275 4.07775 69.1099 4.22609 68.9616C4.37443 68.8134 4.49211 68.6374 4.57242 68.4436L6.63056 63.4843C9.81223 74.1366 16.7202 83.2886 26.0925 89.2682C35.4647 95.2479 46.6755 97.656 57.6765 96.0525C68.6776 94.4491 78.7346 88.9411 86.01 80.535C93.2854 72.1288 97.2936 61.3857 97.3023 50.2684C97.3023 49.8449 97.134 49.4388 96.8346 49.1394C96.5352 48.8399 96.129 48.6717 95.7056 48.6717ZM99.5105 31.2294C99.3168 31.149 99.1091 31.1076 98.8993 31.1075C98.6896 31.1074 98.4819 31.1487 98.2881 31.2289C98.0943 31.3091 97.9182 31.4267 97.7699 31.575C97.6215 31.7233 97.5039 31.8994 97.4236 32.0932L95.3655 37.0525C92.1838 26.4002 85.2758 17.2482 75.9036 11.2685C66.5313 5.28887 55.3206 2.8808 44.3195 4.48427C33.3184 6.08773 23.2614 11.5957 15.986 20.0018C8.71059 28.4079 4.7024 39.1511 4.69377 50.2684C4.69377 50.6919 4.86199 51.098 5.16143 51.3974C5.46087 51.6969 5.86699 51.8651 6.29047 51.8651C6.71394 51.8651 7.12006 51.6969 7.4195 51.3974C7.71894 51.098 7.88716 50.6919 7.88716 50.2684C7.88444 39.8096 11.6849 29.7067 18.5801 21.8427C25.4752 13.9787 34.9947 8.89028 45.3641 7.52584C55.7335 6.1614 66.2452 8.61406 74.94 14.4267C83.6348 20.2393 89.9194 29.0152 92.6223 39.1186L86.8742 36.0849C86.4995 35.8872 86.0615 35.8464 85.6566 35.9715C85.2518 36.0967 84.9133 36.3776 84.7155 36.7523C84.5177 37.1271 84.4769 37.5651 84.6021 37.9699C84.7273 38.3748 85.0081 38.7133 85.3829 38.9111L94.0354 43.4792C94.2349 43.6109 94.4606 43.6977 94.697 43.7337C94.9333 43.7697 95.1746 43.754 95.4043 43.6876C95.6339 43.6213 95.8465 43.5059 96.0272 43.3495C96.208 43.193 96.3526 42.9992 96.4512 42.7815L100.378 33.3194C100.458 33.1253 100.5 32.9172 100.5 32.7069C100.5 32.4967 100.459 32.2885 100.378 32.0943C100.298 31.9001 100.179 31.7237 100.031 31.5753C99.8817 31.4269 99.7049 31.3093 99.5105 31.2294Z" fill="url(#paint0_linear_960_4562)" stroke="url(#paint1_linear_960_4562)"/>
<path d="M50.9993 71.0254C55.1046 71.0254 59.1178 69.808 62.5313 67.5272C65.9448 65.2464 68.6052 62.0046 70.1763 58.2117C71.7474 54.4188 72.1584 50.2453 71.3575 46.2188C70.5566 42.1923 68.5797 38.4938 65.6767 35.5908C62.7738 32.6879 59.0752 30.711 55.0488 29.9101C51.0223 29.1092 46.8487 29.5202 43.0559 31.0913C39.263 32.6623 36.0212 35.3228 33.7404 38.7363C31.4596 42.1498 30.2422 46.163 30.2422 50.2683C30.2485 55.7715 32.4375 61.0475 36.3288 64.9388C40.2201 68.8301 45.4961 71.0191 50.9993 71.0254ZM50.9993 32.7046C54.473 32.7046 57.8688 33.7347 60.7571 35.6646C63.6455 37.5946 65.8966 40.3376 67.226 43.547C68.5553 46.7563 68.9032 50.2878 68.2255 53.6948C67.5478 57.1018 65.875 60.2314 63.4187 62.6877C60.9623 65.144 57.8328 66.8168 54.4258 67.4945C51.0187 68.1722 47.4873 67.8244 44.2779 66.495C41.0686 65.1657 38.3255 62.9145 36.3956 60.0262C34.4657 57.1378 33.4356 53.7421 33.4356 50.2683C33.4411 45.6118 35.2933 41.1476 38.5859 37.855C41.8786 34.5623 46.3428 32.7101 50.9993 32.7046Z" fill="url(#paint2_linear_960_4562)" stroke="url(#paint3_linear_960_4562)"/>
<path d="M62.1761 51.8649H63.7728C64.1962 51.8649 64.6024 51.6967 64.9018 51.3973C65.2013 51.0978 65.3695 50.6917 65.3695 50.2682C65.3695 49.8448 65.2013 49.4386 64.9018 49.1392C64.6024 48.8398 64.1962 48.6715 63.7728 48.6715H62.1761C61.7526 48.6715 61.3465 48.8398 61.047 49.1392C60.7476 49.4386 60.5794 49.8448 60.5794 50.2682C60.5794 50.6917 60.7476 51.0978 61.047 51.3973C61.3465 51.6967 61.7526 51.8649 62.1761 51.8649ZM41.419 50.2682C41.419 49.8448 41.2508 49.4386 40.9513 49.1392C40.6519 48.8398 40.2458 48.6715 39.8223 48.6715H38.2256C37.8021 48.6715 37.396 48.8398 37.0966 49.1392C36.7971 49.4386 36.6289 49.8448 36.6289 50.2682C36.6289 50.6917 36.7971 51.0978 37.0966 51.3973C37.396 51.6967 37.8021 51.8649 38.2256 51.8649H39.8223C40.2458 51.8649 40.6519 51.6967 40.9513 51.3973C41.2508 51.0978 41.419 50.6917 41.419 50.2682ZM50.9992 64.6385C51.4227 64.6385 51.8288 64.4703 52.1282 64.1709C52.4277 63.8714 52.5959 63.4653 52.5959 63.0418V61.4451C52.5959 61.0216 52.4277 60.6155 52.1282 60.3161C51.8288 60.0166 51.4227 59.8484 50.9992 59.8484C50.5757 59.8484 50.1696 60.0166 49.8702 60.3161C49.5707 60.6155 49.4025 61.0216 49.4025 61.4451V63.0418C49.4025 63.4653 49.5707 63.8714 49.8702 64.1709C50.1696 64.4703 50.5757 64.6385 50.9992 64.6385ZM51.8215 51.6366L59.805 46.8465C59.9887 46.7406 60.1495 46.5991 60.278 46.4303C60.4064 46.2615 60.5 46.0688 60.5531 45.8635C60.6063 45.6581 60.618 45.4442 60.5876 45.2343C60.5572 45.0244 60.4852 44.8227 60.376 44.6409C60.2667 44.4591 60.1223 44.3008 59.9513 44.1754C59.7802 44.0501 59.5858 43.96 59.3796 43.9106C59.1733 43.8611 58.9593 43.8533 58.7499 43.8875C58.5406 43.9217 58.3402 43.9972 58.1604 44.1098L52.5959 47.4469V37.4946C52.5959 37.0712 52.4277 36.665 52.1282 36.3656C51.8288 36.0662 51.4227 35.8979 50.9992 35.8979C50.5757 35.8979 50.1696 36.0662 49.8702 36.3656C49.5707 36.665 49.4025 37.0712 49.4025 37.4946V50.2682C49.4025 50.5508 49.4776 50.8284 49.62 51.0725C49.7624 51.3166 49.9671 51.5185 50.213 51.6577C50.459 51.7968 50.7375 51.8682 51.0201 51.8645C51.3027 51.8608 51.5792 51.7821 51.8215 51.6366Z" fill="url(#paint4_linear_960_4562)" stroke="url(#paint5_linear_960_4562)"/>
<path d="M17.1485 43.9134C16.7878 43.987 16.4637 44.1829 16.2309 44.4681C15.9981 44.7532 15.871 45.11 15.8711 45.4781V55.0583C15.871 55.4264 15.9981 55.7832 16.2309 56.0684C16.4637 56.3535 16.7878 56.5495 17.1485 56.6231L23.2638 57.8462C23.8949 60.1782 24.825 62.4189 26.0309 64.5124L22.5772 69.7096C22.3724 70.0168 22.2804 70.3854 22.3167 70.7528C22.3531 71.1202 22.5157 71.4636 22.7768 71.7247L29.5468 78.4931C29.8078 78.7542 30.1513 78.9167 30.5186 78.9531C30.886 78.9895 31.2547 78.8975 31.5618 78.6926L36.7575 75.2294C38.8505 76.435 41.0906 77.3651 43.4221 77.9965L44.6468 84.1118C44.719 84.4731 44.9139 84.7983 45.1985 85.0323C45.4832 85.2663 45.8399 85.3946 46.2084 85.3956H55.7885C56.1566 85.3957 56.5134 85.2686 56.7986 85.0358C57.0837 84.803 57.2797 84.4789 57.3533 84.1182L58.578 78.0029C60.9095 77.3715 63.1495 76.4414 65.2426 75.2358L70.4382 78.6894C70.7454 78.8943 71.1141 78.9863 71.4815 78.9499C71.8488 78.9135 72.1923 78.751 72.4533 78.4899L79.2233 71.7215C79.4844 71.4604 79.647 71.117 79.6833 70.7496C79.7197 70.3822 79.6277 70.0136 79.4229 69.7064L75.9596 64.5092C77.1656 62.4157 78.0956 60.175 78.7267 57.843L84.8421 56.6199C85.2034 56.5477 85.5286 56.3527 85.7625 56.0681C85.9965 55.7835 86.1248 55.4268 86.1258 55.0583V45.4781C86.1259 45.11 85.9988 44.7532 85.766 44.4681C85.5332 44.1829 85.2091 43.987 84.8484 43.9134L78.7331 42.6903C78.102 40.3582 77.1719 38.1176 75.966 36.0241L79.4197 30.8268C79.6245 30.5197 79.7165 30.151 79.6802 29.7836C79.6438 29.4162 79.4812 29.0728 79.2201 28.8118L72.4501 22.0434C72.1891 21.7823 71.8456 21.6197 71.4783 21.5833C71.1109 21.5469 70.7422 21.639 70.4351 21.8438L65.2394 25.307C63.1463 24.1014 60.9063 23.1714 58.5748 22.54L57.3533 16.4182C57.2797 16.0576 57.0837 15.7334 56.7986 15.5007C56.5134 15.2679 56.1566 15.1408 55.7885 15.1409H46.2084C45.8403 15.1408 45.4835 15.2679 45.1983 15.5007C44.9132 15.7334 44.7172 16.0576 44.6436 16.4182L43.4189 22.5336C41.0875 23.165 38.8474 24.095 36.7543 25.3007L31.5587 21.847C31.2515 21.6422 30.8828 21.5501 30.5155 21.5865C30.1481 21.6229 29.8046 21.7855 29.5436 22.0466L22.7736 28.815C22.5125 29.076 22.3499 29.4194 22.3136 29.7868C22.2772 30.1542 22.3692 30.5229 22.574 30.83L26.0516 36.048C24.8527 38.1346 23.9264 40.3663 23.2957 42.6887L17.1485 43.9134ZM30.8689 25.232L35.8186 28.5292C36.0742 28.6994 36.3733 28.7923 36.6803 28.7969C36.9873 28.8014 37.289 28.7173 37.5495 28.5547C39.8884 27.0916 42.4541 26.027 45.1418 25.4044C45.4414 25.3354 45.7146 25.1812 45.9288 24.9606C46.1429 24.7399 46.2888 24.4622 46.3489 24.1606L47.5176 18.3343H54.4793L55.6448 24.1558C55.7049 24.4574 55.8508 24.7351 56.0649 24.9558C56.2791 25.1764 56.5523 25.3306 56.8519 25.3997C59.5399 26.0232 62.1055 27.0889 64.4442 28.5531C64.7047 28.7157 65.0064 28.7998 65.3134 28.7953C65.6204 28.7907 65.9196 28.6978 66.1751 28.5276L71.1248 25.2304L76.0443 30.1482L72.7455 35.098C72.5753 35.3535 72.4823 35.6527 72.4778 35.9596C72.4733 36.2666 72.5573 36.5684 72.7199 36.8288C74.1831 39.1683 75.2477 41.7345 75.8702 44.4227C75.9393 44.7223 76.0934 44.9956 76.3141 45.2097C76.5347 45.4239 76.8125 45.5697 77.114 45.6298L82.9324 46.7874V53.749L77.1109 54.913C76.8093 54.9731 76.5315 55.119 76.3109 55.3331C76.0902 55.5472 75.9361 55.8205 75.867 56.1201C75.2435 58.8085 74.1778 61.3747 72.7135 63.714C72.5509 63.9744 72.4669 64.2762 72.4714 64.5832C72.4759 64.8902 72.5689 65.1893 72.7391 65.4448L76.0379 70.3946L71.1168 75.3092L66.1671 72.0121C65.9116 71.8419 65.6124 71.7489 65.3054 71.7444C64.9985 71.7399 64.6967 71.8239 64.4363 71.9865C62.0973 73.4497 59.5317 74.5142 56.844 75.1368C56.5444 75.2059 56.2711 75.36 56.0569 75.5807C55.8428 75.8013 55.6969 76.0791 55.6369 76.3806L54.4793 82.2022H47.5176L46.3521 76.3806C46.292 76.0791 46.1461 75.8013 45.932 75.5807C45.7178 75.36 45.4446 75.2059 45.145 75.1368C42.457 74.5133 39.8914 73.4476 37.5527 71.9833C37.2922 71.8207 36.9905 71.7367 36.6835 71.7412C36.3765 71.7457 36.0773 71.8387 35.8218 72.0089L30.8721 75.306L25.9558 70.3866L29.2546 65.4369C29.4248 65.1813 29.5178 64.8822 29.5223 64.5752C29.5268 64.2682 29.4428 63.9665 29.2802 63.706C27.817 61.3665 26.7524 58.8004 26.1299 56.1121C26.0608 55.8125 25.9067 55.5393 25.686 55.3251C25.4654 55.111 25.1876 54.9651 24.8861 54.905L19.0645 53.749V46.7874L24.8861 45.6234C25.1853 45.5582 25.4603 45.4105 25.6801 45.1972C25.8999 44.9839 26.0557 44.7135 26.1299 44.4163C26.7534 41.7279 27.8191 39.1617 29.2834 36.8224C29.4349 36.5582 29.5126 36.2581 29.5081 35.9535C29.5036 35.649 29.4171 35.3512 29.2578 35.0916L25.959 30.1418L30.8689 25.232Z" fill="url(#paint6_linear_960_4562)" stroke="url(#paint7_linear_960_4562)"/>
</g>
<defs>
<linearGradient id="paint0_linear_960_4562" x1="51" y1="4" x2="51" y2="96.5368" gradientUnits="userSpaceOnUse">
<stop stop-color="#4FD3D3"/>
<stop offset="1" stop-color="#5528A9"/>
</linearGradient>
<linearGradient id="paint1_linear_960_4562" x1="51" y1="4" x2="51" y2="96.5368" gradientUnits="userSpaceOnUse">
<stop stop-color="#4FD3D3"/>
<stop offset="1" stop-color="#5528A9"/>
</linearGradient>
<linearGradient id="paint2_linear_960_4562" x1="50.9993" y1="29.5112" x2="50.9993" y2="71.0254" gradientUnits="userSpaceOnUse">
<stop stop-color="#4FD3D3"/>
<stop offset="1" stop-color="#5528A9"/>
</linearGradient>
<linearGradient id="paint3_linear_960_4562" x1="50.9993" y1="29.5112" x2="50.9993" y2="71.0254" gradientUnits="userSpaceOnUse">
<stop stop-color="#4FD3D3"/>
<stop offset="1" stop-color="#5528A9"/>
</linearGradient>
<linearGradient id="paint4_linear_960_4562" x1="50.9992" y1="35.8979" x2="50.9992" y2="64.6385" gradientUnits="userSpaceOnUse">
<stop stop-color="#4FD3D3"/>
<stop offset="1" stop-color="#5528A9"/>
</linearGradient>
<linearGradient id="paint5_linear_960_4562" x1="50.9992" y1="35.8979" x2="50.9992" y2="64.6385" gradientUnits="userSpaceOnUse">
<stop stop-color="#4FD3D3"/>
<stop offset="1" stop-color="#5528A9"/>
</linearGradient>
<linearGradient id="paint6_linear_960_4562" x1="50.9985" y1="15.1409" x2="50.9985" y2="85.3956" gradientUnits="userSpaceOnUse">
<stop stop-color="#4FD3D3"/>
<stop offset="1" stop-color="#5528A9"/>
</linearGradient>
<linearGradient id="paint7_linear_960_4562" x1="50.9985" y1="15.1409" x2="50.9985" y2="85.3956" gradientUnits="userSpaceOnUse">
<stop stop-color="#4FD3D3"/>
<stop offset="1" stop-color="#5528A9"/>
</linearGradient>
<clipPath id="clip0_960_4562">
<rect width="100" height="100" fill="white" transform="translate(0.5)"/>
</clipPath>
</defs>
</svg>
