<svg width="70" height="70" viewBox="0 0 70 70" fill="none" xmlns="http://www.w3.org/2000/svg">
<g clip-path="url(#clip0_960_3940)">
<path d="M65.2903 3.5C57.8387 0.33871 50.3871 1.91935 43.1613 3.3871C36.2742 4.85484 29.6129 6.20968 23.0645 3.72581V3.3871C23.0645 1.46774 21.5968 0 19.6774 0C17.7581 0 16.2903 1.46774 16.2903 3.3871V67.7419H5V70H34.3548V67.7419H23.0645V33.1935C25.7742 34.0968 28.371 34.4355 30.9677 34.4355C35.2581 34.4355 39.4355 33.5323 43.6129 32.7419C50.8387 31.2742 57.6129 29.8065 64.3871 32.629L65.9677 33.3064V3.72581L65.2903 3.5ZM18.5484 67.7419V3.3871C18.5484 2.70968 19 2.25806 19.6774 2.25806C20.3548 2.25806 20.8065 2.70968 20.8065 3.3871V67.7419H18.5484ZM63.7097 30.0323C56.7097 27.7742 49.8226 29.129 43.1613 30.5968C36.2742 32.0645 29.6129 33.4194 23.0645 30.9355V6.09677C30.0645 8.35484 36.9516 7 43.6129 5.53226C50.5 4.06452 57.1613 2.70968 63.7097 5.19355V30.0323Z" fill="url(#paint0_linear_960_3940)"/>
</g>
<defs>
<linearGradient id="paint0_linear_960_3940" x1="35.4839" y1="0" x2="35.4839" y2="70" gradientUnits="userSpaceOnUse">
<stop stop-color="#4FD3D3"/>
<stop offset="1" stop-color="#5528A9"/>
</linearGradient>
<clipPath id="clip0_960_3940">
<rect width="70" height="70" fill="white"/>
</clipPath>
</defs>
</svg>
