<svg width="28" height="27" viewBox="0 0 28 27" fill="none" xmlns="http://www.w3.org/2000/svg">
<path d="M9.11728 0.572754H11.1998V2.44754H10.9458C10.768 2.96119 10.5649 3.50051 10.3871 4.01415C7.99984 10.7685 5.58719 17.5229 3.19994 24.2773H11.1998V26.2548H0C3.04756 17.7027 6.06972 9.12488 9.11728 0.572754Z" fill="url(#paint0_linear_1078_800)"/>
<path d="M28.0006 26.2548H16.8008V24.2773H24.8188C22.4007 17.5229 19.9825 10.7685 17.5644 4.01415C17.3862 3.50051 17.1826 2.96119 17.0044 2.44754H16.8008V0.572754H18.8116C21.8661 9.12488 24.9461 17.7027 28.0006 26.2548Z" fill="url(#paint1_linear_1078_800)"/>
<path d="M22.9077 23.0189H15.4667V26.2548H14.6821V23.0189H13.3407V26.2548H12.5561V23.0189H5.08984C7.21583 17.035 9.31651 11.051 11.4425 5.06711C11.5944 4.60484 11.7715 4.14256 11.9234 3.68028H12.5308V0.572754H13.3154V3.70596H14.6568V0.572754H15.4414V3.70596H16.0235C16.2007 4.16824 16.3525 4.63052 16.5297 5.0928C18.6557 11.0767 20.7817 17.0606 22.9077 23.0189Z" fill="url(#paint2_linear_1078_800)"/>
<path d="M14.49 5.19556H12.7184L7.125 21.7605H9.30161L14.49 5.19556Z" fill="white"/>
<path d="M15.2757 5.19556L14.2886 8.32877C14.4404 8.89377 14.6176 9.48446 14.8201 10.1008L16.4399 14.8777H12.2385L11.707 16.547H16.8702L18.6418 21.7605H20.9197L15.2757 5.19556Z" fill="white"/>
<defs>
<linearGradient id="paint0_linear_1078_800" x1="5.59989" y1="0.572754" x2="7.12758" y2="29.73" gradientUnits="userSpaceOnUse">
<stop stop-color="#4FD3D3"/>
<stop offset="1" stop-color="#5528A9"/>
</linearGradient>
<linearGradient id="paint1_linear_1078_800" x1="22.4007" y1="0.572754" x2="23.9284" y2="29.73" gradientUnits="userSpaceOnUse">
<stop stop-color="#4FD3D3"/>
<stop offset="1" stop-color="#5528A9"/>
</linearGradient>
<linearGradient id="paint2_linear_1078_800" x1="13.9988" y1="0.572754" x2="14.9606" y2="29.7783" gradientUnits="userSpaceOnUse">
<stop stop-color="#4FD3D3"/>
<stop offset="1" stop-color="#5528A9"/>
</linearGradient>
</defs>
</svg>
