<svg width="101" height="100" viewBox="0 0 101 100" fill="none" xmlns="http://www.w3.org/2000/svg">
<g clip-path="url(#clip0_960_4573)">
<path fill-rule="evenodd" clip-rule="evenodd" d="M11.2805 24.19C10.6417 24.1907 10.0108 24.3319 9.43265 24.6036C8.85448 24.8754 8.34317 25.2709 7.93497 25.7624C7.52676 26.2538 7.23167 26.829 7.0706 27.4472C6.90954 28.0654 6.88645 28.7115 7.00296 29.3396C7.11948 29.9677 7.37275 30.5625 7.74483 31.0818C8.1169 31.6011 8.59866 32.0322 9.15595 32.3445C9.71325 32.6568 10.3324 32.8427 10.9696 32.889C11.6067 32.9353 12.2463 32.8409 12.8429 32.6124L21.5207 41.0674C21.7374 41.2786 22.028 41.3971 22.3306 41.3977H25.1599C25.4676 41.3977 25.7627 41.2754 25.9802 41.0579C26.1978 40.8403 26.32 40.5452 26.32 40.2375C26.32 39.9298 26.1978 39.6347 25.9802 39.4171C25.7627 39.1996 25.4676 39.0773 25.1599 39.0773H22.803L14.7262 31.2049C15.2248 30.5612 15.5328 29.7905 15.6152 28.9804C15.6975 28.1703 15.5508 27.3534 15.1918 26.6225C14.8328 25.8917 14.2759 25.2762 13.5845 24.8462C12.893 24.4162 12.0948 24.1888 11.2805 24.19ZM23.9322 17.3563C23.9325 17.9495 23.8111 18.5365 23.5756 19.081C23.3402 19.6255 22.9956 20.116 22.5633 20.5222L26.8154 27.8865H33.6797C33.9874 27.8865 34.2825 28.0087 34.5 28.2263C34.7176 28.4438 34.8398 28.7389 34.8398 29.0466C34.8398 29.3543 34.7176 29.6494 34.5 29.867C34.2825 30.0845 33.9874 30.2068 33.6797 30.2068H26.146C25.9422 30.2073 25.7418 30.154 25.5652 30.0521C25.3886 29.9502 25.2421 29.8035 25.1405 29.6267L20.5109 21.6102C19.6303 21.8036 18.7113 21.719 17.8807 21.368C17.0502 21.017 16.3491 20.4169 15.8741 19.6505C15.399 18.8841 15.1736 17.9892 15.2288 17.0892C15.284 16.1892 15.6171 15.3285 16.1822 14.6259C16.7473 13.9233 17.5165 13.4134 18.3837 13.1665C19.2509 12.9196 20.1734 12.9479 21.0238 13.2475C21.8742 13.5471 22.6107 14.1033 23.1317 14.8392C23.6526 15.5751 23.9323 16.4546 23.9322 17.3563ZM5.85717 54.4295C6.80993 54.4283 7.73607 54.1151 8.49405 53.5378C9.25203 52.9606 9.80014 52.151 10.0546 51.2329H25.1599C25.4676 51.2329 25.7627 51.1107 25.9802 50.8931C26.1978 50.6755 26.32 50.3804 26.32 50.0727C26.32 49.765 26.1978 49.47 25.9802 49.2524C25.7627 49.0348 25.4676 48.9126 25.1599 48.9126H10.0546C9.83842 48.1303 9.40795 47.4239 8.81177 46.8732C8.21558 46.3225 7.47738 45.9493 6.68041 45.7957C5.88345 45.642 5.05942 45.7141 4.30125 46.0038C3.54308 46.2935 2.88092 46.7893 2.38944 47.4352C1.89796 48.0811 1.59672 48.8515 1.51967 49.6594C1.44263 50.4674 1.59285 51.2808 1.95339 52.008C2.31394 52.7351 2.87047 53.3471 3.56023 53.7748C4.24999 54.2026 5.04554 54.4292 5.85717 54.4289V54.4295ZM25.1599 61.0697C25.4676 61.0697 25.7627 60.9475 25.9802 60.7299C26.1978 60.5123 26.32 60.2172 26.32 59.9095C26.32 59.6018 26.1978 59.3067 25.9802 59.0892C25.7627 58.8716 25.4676 58.7494 25.1599 58.7494H22.3306C22.028 58.7499 21.7374 58.8684 21.5207 59.0796L12.8429 67.5356C12.3445 67.343 11.8148 67.2447 11.2805 67.2456C10.2947 67.244 9.33742 67.5764 8.56465 68.1884C7.79188 68.8005 7.24917 69.6563 7.02496 70.6163C6.80075 71.5762 6.90825 72.5838 7.32996 73.4749C7.75166 74.366 8.4627 75.088 9.34722 75.5232C10.2317 75.9585 11.2376 76.0814 12.2009 75.8718C13.1642 75.6623 14.0281 75.1327 14.6519 74.3694C15.2757 73.6061 15.6227 72.654 15.6361 71.6682C15.6496 70.6825 15.3289 69.7213 14.7262 68.9412L22.8028 61.0697H25.1599ZM19.576 87.1456C18.9641 87.146 18.3589 87.0174 17.7999 86.7683C17.241 86.5191 16.7408 86.155 16.332 85.6997C15.9231 85.2443 15.6148 84.708 15.4271 84.1255C15.2394 83.543 15.1766 82.9275 15.2426 82.3192C15.3087 81.7108 15.5022 81.1231 15.8105 80.5945C16.1188 80.0659 16.5351 79.6082 17.0321 79.2512C17.5292 78.8942 18.0959 78.646 18.6953 78.5226C19.2947 78.3993 19.9133 78.4036 20.5109 78.5353L25.1407 70.5188C25.2423 70.342 25.3888 70.1953 25.5654 70.0934C25.742 69.9916 25.9424 69.9382 26.1462 69.9387H33.6808C33.9885 69.9387 34.2836 70.0609 34.5012 70.2785C34.7188 70.4961 34.841 70.7912 34.841 71.0989C34.841 71.4066 34.7188 71.7016 34.5012 71.9192C34.2836 72.1368 33.9885 72.259 33.6808 72.259H26.8166L22.5644 79.6241C23.1998 80.222 23.6408 80.997 23.8303 81.8486C24.0197 82.7003 23.9488 83.5892 23.6268 84.4C23.3048 85.2109 22.7465 85.9062 22.0244 86.3958C21.3022 86.8855 20.4496 87.1467 19.5772 87.1458L19.576 87.1456ZM76.8412 41.3967H79.6697C79.9724 41.3965 80.2631 41.278 80.4797 41.0664L89.1536 32.6124C90.1397 32.9961 91.2314 33.0096 92.2267 32.6504C93.222 32.2911 94.0534 31.5835 94.5671 30.6584C95.0808 29.7333 95.2419 28.6534 95.0206 27.6186C94.7993 26.5839 94.2107 25.6644 93.3636 25.0303C92.5165 24.3961 91.4684 24.0904 90.4132 24.1696C89.358 24.2488 88.3673 24.7077 87.6244 25.4611C86.8815 26.2146 86.4367 27.2118 86.3724 28.2679C86.3081 29.3241 86.6287 30.3678 87.2747 31.2059L79.1981 39.0781H76.8412C76.5335 39.0781 76.2384 39.2003 76.0209 39.4179C75.8033 39.6355 75.6811 39.9306 75.6811 40.2383C75.6811 40.546 75.8033 40.8411 76.0209 41.0586C76.2384 41.2762 76.5335 41.3984 76.8412 41.3984V41.3967ZM76.8606 29.6269C76.7589 29.8036 76.6124 29.9503 76.4359 30.0522C76.2593 30.154 76.0589 30.2074 75.8551 30.207H68.3195C68.0118 30.207 67.7167 30.0847 67.4991 29.8672C67.2816 29.6496 67.1593 29.3545 67.1593 29.0468C67.1593 28.7391 67.2816 28.444 67.4991 28.2265C67.7167 28.0089 68.0118 27.8867 68.3195 27.8867H75.1859L79.4381 20.5224C78.7026 19.8267 78.2326 18.8965 78.1089 17.8917C77.9853 16.8869 78.2158 15.8705 78.7607 15.0173C79.3056 14.1642 80.1309 13.5276 81.0945 13.2172C82.0581 12.9069 83.0997 12.9421 84.0401 13.3168C84.9805 13.6916 85.7609 14.3825 86.247 15.2705C86.733 16.1585 86.8943 17.1882 86.703 18.1823C86.5118 19.1765 85.98 20.0728 85.1992 20.7172C84.4184 21.3615 83.4374 21.7136 82.4251 21.7127C82.1104 21.7122 81.7966 21.6779 81.4892 21.6106L76.8604 29.6269H76.8606ZM96.1405 45.7163C95.1881 45.7183 94.2626 46.0317 93.505 46.6088C92.7475 47.1859 92.1995 47.995 91.9447 48.9126H76.8412C76.5335 48.9126 76.2384 49.0348 76.0209 49.2524C75.8033 49.47 75.6811 49.765 75.6811 50.0727C75.6811 50.3804 75.8033 50.6755 76.0209 50.8931C76.2384 51.1107 76.5335 51.2329 76.8412 51.2329H91.9447C92.1611 52.0153 92.5917 52.7217 93.1881 53.2724C93.7844 53.8232 94.5228 54.1963 95.3199 54.3498C96.117 54.5033 96.9412 54.431 97.6994 54.1411C98.4576 53.8512 99.1198 53.3552 99.6112 52.709C100.103 52.0629 100.404 51.2923 100.48 50.4842C100.557 49.6761 100.407 48.8626 100.046 48.1354C99.6851 47.4083 99.1282 46.7964 98.4382 46.3689C97.7482 45.9413 96.9524 45.715 96.1406 45.7156L96.1405 45.7163ZM90.7227 75.9578C91.3619 75.9569 91.993 75.8154 92.5713 75.5433C93.1496 75.2712 93.661 74.8752 94.0691 74.3833C94.4773 73.8914 94.7722 73.3158 94.9329 72.6972C95.0937 72.0786 95.1163 71.4322 94.9993 70.8038C94.8822 70.1755 94.6283 69.5806 94.2556 69.0614C93.8829 68.5422 93.4006 68.1113 92.8427 67.7994C92.2848 67.4875 91.6652 67.3021 91.0276 67.2565C90.3901 67.2109 89.7504 67.3061 89.1538 67.5354L80.4799 59.0794C80.2633 58.8679 79.9726 58.7494 79.6699 58.7492H76.8412C76.5335 58.7492 76.2384 58.8714 76.0209 59.089C75.8033 59.3065 75.6811 59.6016 75.6811 59.9093C75.6811 60.217 75.8033 60.5121 76.0209 60.7297C76.2384 60.9473 76.5335 61.0695 76.8412 61.0695H79.1981L87.2747 68.941C86.7763 69.5851 86.4686 70.356 86.3865 71.1663C86.3045 71.9766 86.4514 72.7936 86.8105 73.5245C87.1697 74.2555 87.7267 74.871 88.4182 75.3011C89.1098 75.7313 89.9081 75.9588 90.7225 75.9578H90.7227ZM86.7813 82.7892C86.7822 83.5113 86.6036 84.2223 86.2616 84.8583C85.9195 85.4943 85.4248 86.0353 84.8217 86.4326C84.2187 86.8298 83.5264 87.071 82.8071 87.1343C82.0877 87.1977 81.3639 87.0812 80.7008 86.7953C80.0377 86.5095 79.456 86.0633 79.0081 85.4969C78.5602 84.9304 78.2601 84.2615 78.1349 83.5504C78.0097 82.8392 78.0632 82.108 78.2907 81.4227C78.5181 80.7373 78.9124 80.1192 79.4381 79.6241L75.1859 72.259H68.3195C68.0118 72.259 67.7167 72.1368 67.4991 71.9192C67.2816 71.7016 67.1593 71.4066 67.1593 71.0989C67.1593 70.7912 67.2816 70.4961 67.4991 70.2785C67.7167 70.0609 68.0118 69.9387 68.3195 69.9387H75.8553C76.0591 69.9383 76.2595 69.9917 76.436 70.0936C76.6126 70.1954 76.7591 70.3421 76.8608 70.5188L81.4892 78.5353C82.1255 78.395 82.7852 78.3993 83.4196 78.5479C84.054 78.6965 84.647 78.9855 85.1549 79.3938C85.6627 79.802 86.0725 80.319 86.354 80.9066C86.6355 81.4943 86.7815 82.1376 86.7813 82.7892ZM51.0005 25.4871L30.8679 37.1099L51.0005 48.7326L71.1331 37.1099L51.0005 25.4871ZM52.1606 73.9896L72.2934 62.3667V39.1191L52.1606 50.7439V73.9896ZM29.7077 39.1191V62.3667L49.8403 73.9896V50.7439L29.7077 39.1191ZM27.3874 37.1099V63.0362C27.3871 63.24 27.4406 63.4402 27.5425 63.6167C27.6443 63.7933 27.7909 63.9398 27.9675 64.0416L50.4204 77.0041C50.5968 77.1057 50.7969 77.1591 51.0005 77.1591C51.2041 77.1591 51.4041 77.1057 51.5805 77.0041L74.0337 64.0412C74.2103 63.9395 74.3569 63.793 74.4587 63.6164C74.5606 63.4399 74.6141 63.2396 74.6137 63.0358V37.1099C74.614 36.9061 74.5605 36.7058 74.4587 36.5293C74.3568 36.3528 74.2102 36.2062 74.0337 36.1044L51.5805 23.142C51.4042 23.0402 51.2041 22.9866 51.0005 22.9866C50.7968 22.9866 50.5967 23.0402 50.4204 23.142L27.9673 36.1046C27.7909 36.2065 27.6444 36.3531 27.5426 36.5296C27.4408 36.706 27.3873 36.9062 27.3874 37.1099Z" fill="url(#paint0_linear_960_4573)" stroke="url(#paint1_linear_960_4573)"/>
</g>
<defs>
<linearGradient id="paint0_linear_960_4573" x1="51" y1="13" x2="51" y2="87.1511" gradientUnits="userSpaceOnUse">
<stop stop-color="#4FD3D3"/>
<stop offset="1" stop-color="#5528A9"/>
</linearGradient>
<linearGradient id="paint1_linear_960_4573" x1="51" y1="13" x2="51" y2="87.1511" gradientUnits="userSpaceOnUse">
<stop stop-color="#4FD3D3"/>
<stop offset="1" stop-color="#5528A9"/>
</linearGradient>
<clipPath id="clip0_960_4573">
<rect width="100" height="100" fill="white" transform="translate(0.5)"/>
</clipPath>
</defs>
</svg>
