<svg width="70" height="70" viewBox="0 0 70 70" fill="none" xmlns="http://www.w3.org/2000/svg">
<path d="M34.8281 12.9697C30.5017 12.9697 26.2724 14.2527 22.675 16.6563C19.0777 19.06 16.2739 22.4764 14.6183 26.4735C12.9626 30.4707 12.5294 34.869 13.3735 39.1123C14.2175 43.3557 16.3009 47.2534 19.3602 50.3127C22.4194 53.372 26.3172 55.4554 30.5605 56.2994C34.8039 57.1435 39.2022 56.7103 43.1993 55.0546C47.1965 53.3989 50.6129 50.5952 53.0165 46.9978C55.4202 43.4005 56.7031 39.1712 56.7031 34.8447C56.7031 29.0431 54.3985 23.4791 50.2961 19.3768C46.1937 15.2744 40.6297 12.9697 34.8281 12.9697ZM34.8281 54.5322C30.9343 54.5322 27.1279 53.3776 23.8903 51.2143C20.6528 49.051 18.1294 45.9762 16.6393 42.3788C15.1492 38.7814 14.7593 34.8229 15.5189 31.0039C16.2786 27.1849 18.1536 23.6769 20.907 20.9236C23.6603 18.1702 27.1683 16.2952 30.9873 15.5355C34.8063 14.7759 38.7648 15.1657 42.3622 16.6558C45.9596 18.1459 49.0344 20.6693 51.1977 23.9069C53.361 27.1445 54.5156 30.9509 54.5156 34.8447C54.5156 40.0662 52.4414 45.0738 48.7493 48.7659C45.0572 52.458 40.0496 54.5322 34.8281 54.5322Z" fill="url(#paint0_linear_960_3955)"/>
<path d="M46.3453 26.1604L36.5016 20.3416C35.995 20.0413 35.417 19.8828 34.8281 19.8828C34.2392 19.8828 33.6612 20.0413 33.1547 20.3416L23.3109 26.1604C22.8211 26.4508 22.4153 26.8637 22.1334 27.3584C21.8515 27.8532 21.7032 28.4128 21.7031 28.9822V40.7072C21.7032 41.2767 21.8515 41.8363 22.1334 42.3311C22.4153 42.8258 22.8211 43.2387 23.3109 43.5291L33.1547 49.3479C33.6612 49.6482 34.2392 49.8067 34.8281 49.8067C35.417 49.8067 35.995 49.6482 36.5016 49.3479L46.3453 43.5291C46.8351 43.2387 47.2409 42.8258 47.5228 42.3311C47.8047 41.8363 47.953 41.2767 47.9531 40.7072V28.9822C47.953 28.4128 47.8047 27.8532 47.5228 27.3584C47.2409 26.8637 46.8351 26.4508 46.3453 26.1604ZM45.7656 40.7072C45.7656 40.8971 45.7162 41.0836 45.6222 41.2485C45.5282 41.4134 45.393 41.5511 45.2297 41.6479L35.3859 47.4666C35.2197 47.5626 35.0311 47.6131 34.8391 47.6131C34.6471 47.6131 34.4585 47.5626 34.2922 47.4666L24.4484 41.6479C24.2852 41.5511 24.1499 41.4134 24.0559 41.2485C23.962 41.0836 23.9125 40.8971 23.9125 40.7072V28.9822C23.9125 28.7924 23.962 28.6059 24.0559 28.441C24.1499 28.276 24.2852 28.1384 24.4484 28.0416L34.2922 22.2229C34.4585 22.1269 34.6471 22.0763 34.8391 22.0763C35.0311 22.0763 35.2197 22.1269 35.3859 22.2229L45.2297 28.0416C45.393 28.1384 45.5282 28.276 45.6222 28.441C45.7162 28.6059 45.7656 28.7924 45.7656 28.9822V40.7072Z" fill="url(#paint1_linear_960_3955)"/>
<path d="M34.8281 27.1885C33.3139 27.1885 31.8336 27.6375 30.5745 28.4788C29.3155 29.3201 28.3342 30.5158 27.7547 31.9148C27.1752 33.3138 27.0236 34.8532 27.319 36.3384C27.6144 37.8236 28.3436 39.1878 29.4143 40.2585C30.4851 41.3293 31.8493 42.0584 33.3345 42.3539C34.8196 42.6493 36.3591 42.4977 37.758 41.9182C39.157 41.3387 40.3528 40.3574 41.1941 39.0983C42.0353 37.8392 42.4844 36.359 42.4844 34.8447C42.4844 32.8142 41.6777 30.8668 40.2419 29.4309C38.8061 27.9951 36.8587 27.1885 34.8281 27.1885ZM34.8281 40.3135C33.7465 40.3135 32.6892 39.9927 31.7899 39.3918C30.8905 38.7909 30.1896 37.9368 29.7757 36.9375C29.3617 35.9382 29.2534 34.8387 29.4645 33.7778C29.6755 32.717 30.1963 31.7426 30.9611 30.9777C31.726 30.2129 32.7004 29.6921 33.7612 29.4811C34.8221 29.27 35.9216 29.3783 36.9209 29.7923C37.9202 30.2062 38.7743 30.9071 39.3752 31.8065C39.9761 32.7058 40.2969 33.7631 40.2969 34.8447C40.2969 36.2951 39.7207 37.6861 38.6951 38.7117C37.6695 39.7373 36.2785 40.3135 34.8281 40.3135Z" fill="url(#paint2_linear_960_3955)"/>
<path d="M34.8281 31.5635C34.538 31.5635 34.2598 31.6787 34.0547 31.8838C33.8496 32.0889 33.7344 32.3671 33.7344 32.6572V37.0322C33.7344 37.3223 33.8496 37.6005 34.0547 37.8056C34.2598 38.0107 34.538 38.126 34.8281 38.126C35.1182 38.126 35.3964 38.0107 35.6015 37.8056C35.8066 37.6005 35.9219 37.3223 35.9219 37.0322V32.6572C35.9219 32.3671 35.8066 32.0889 35.6015 31.8838C35.3964 31.6787 35.1182 31.5635 34.8281 31.5635Z" fill="url(#paint3_linear_960_3955)"/>
<path d="M63.2642 58.9074C62.2252 58.91 61.2211 59.2823 60.4315 59.9576C59.6419 60.633 59.1185 61.5673 58.9548 62.5933H53.2564L49.9204 56.3043C55.1003 52.6526 58.7841 47.2503 60.2919 41.0947C61.7996 34.939 61.0295 28.4458 58.1236 22.8136C58.0575 22.6858 57.9669 22.5722 57.8569 22.4794C57.747 22.3866 57.6198 22.3163 57.4827 22.2727C57.3456 22.229 57.2012 22.2128 57.0578 22.2249C56.9144 22.237 56.7748 22.2772 56.647 22.3433C56.5192 22.4094 56.4056 22.5 56.3128 22.61C56.22 22.7199 56.1497 22.8471 56.1061 22.9842C56.0624 23.1213 56.0461 23.2657 56.0583 23.4091C56.0704 23.5525 56.1106 23.692 56.1767 23.8199C58.8298 28.9955 59.5092 34.9597 58.0881 40.5995C56.667 46.2392 53.2424 51.1693 48.4535 54.4697C43.6645 57.77 37.8383 59.2153 32.0621 58.5357C26.2859 57.8561 20.9543 55.0981 17.0621 50.7763C13.1699 46.4546 10.9832 40.8643 10.9098 35.0487C10.8365 29.2331 12.8816 23.5895 16.6635 19.171C20.4454 14.7524 25.7058 11.8608 31.463 11.0358C37.2203 10.2107 43.081 11.5085 47.9517 14.6871C50.1814 16.1743 52.1479 18.0225 53.7705 20.1558C53.9474 20.3995 54.2139 20.5629 54.5113 20.6101C54.8087 20.6572 55.1127 20.5843 55.3564 20.4074C55.6001 20.2304 55.7635 19.9639 55.8106 19.6665C55.8578 19.3691 55.7849 19.0651 55.608 18.8214C54.0203 16.7256 52.1249 14.8819 49.9861 13.3527L53.2673 7.17301H58.9876C59.1818 8.21976 59.751 9.15978 60.5886 9.81696C61.4261 10.4741 62.4746 10.8034 63.5375 10.743C64.6004 10.6826 65.6048 10.2367 66.3625 9.48882C67.1202 8.74098 67.5792 7.74252 67.6536 6.68051C67.7279 5.6185 67.4125 4.56583 66.7663 3.71972C66.1202 2.87361 65.1877 2.29213 64.1436 2.08424C63.0995 1.87634 62.0154 2.05629 61.0944 2.59038C60.1735 3.12446 59.4789 3.97602 59.1408 4.98551H52.5783C52.3804 4.98603 52.1864 5.04023 52.0169 5.14231C51.8474 5.24439 51.7088 5.39055 51.6158 5.56519L48.1158 12.1277C44.0942 9.77473 39.5188 8.53458 34.8595 8.53458C30.2002 8.53458 25.6248 9.77473 21.6033 12.1277L18.2892 5.89332C18.1962 5.71867 18.0576 5.57252 17.8881 5.47044C17.7186 5.36835 17.5246 5.31416 17.3267 5.31363H10.6111C10.3449 4.2826 9.71176 3.38405 8.83044 2.78641C7.94912 2.18877 6.88009 1.93308 5.82373 2.06725C4.76737 2.20143 3.79621 2.71626 3.09229 3.51525C2.38836 4.31424 2 5.34254 2 6.40738C2 7.47223 2.38836 8.50052 3.09229 9.29951C3.79621 10.0985 4.76737 10.6133 5.82373 10.7475C6.88009 10.8817 7.94912 10.626 8.83044 10.0284C9.71176 9.43071 10.3449 8.53216 10.6111 7.50113H16.6705L19.7767 13.3636C16.3228 15.7885 13.5045 19.0103 11.5606 22.756C9.61666 26.5017 8.6045 30.6609 8.60986 34.881C8.61523 39.1011 9.63797 43.2577 11.5914 46.9984C13.5448 50.7392 16.3714 53.9538 19.8314 56.3699L16.6705 62.3308H10.6548C10.4298 61.2901 9.83303 60.3671 8.97627 59.7349C8.1195 59.1027 7.06159 58.8047 6.0008 58.8966C4.94001 58.9886 3.94916 59.4642 3.21396 60.2344C2.47875 61.0046 2.04966 62.0165 2.00711 63.0804C1.96455 64.1443 2.31145 65.1872 2.98278 66.0137C3.65412 66.8402 4.60381 67.3934 5.65387 67.5698C6.70393 67.7462 7.78227 67.5336 8.68679 66.9718C9.59132 66.4101 10.2599 65.5378 10.5673 64.5183H17.3267C17.5246 64.5178 17.7186 64.4636 17.8881 64.3615C18.0576 64.2594 18.1962 64.1133 18.2892 63.9386L21.7017 57.5511C25.7061 59.8902 30.2603 61.1229 34.8978 61.1229C39.5353 61.1229 44.0895 59.8902 48.0939 57.5511L51.6595 64.2558C51.7525 64.4305 51.8911 64.5766 52.0606 64.6787C52.2301 64.7808 52.4241 64.835 52.622 64.8355H59.1845C59.4679 65.5817 59.95 66.2362 60.5787 66.7281C61.2074 67.22 61.9587 67.5304 62.7512 67.6259C63.5437 67.7214 64.3472 67.5983 65.0747 67.2699C65.8022 66.9414 66.426 66.4202 66.8786 65.7626C67.3311 65.1051 67.5951 64.3362 67.642 63.5394C67.6889 62.7425 67.5169 61.948 67.1446 61.2419C66.7723 60.5358 66.2139 59.945 65.5299 59.5335C64.846 59.122 64.0624 58.9055 63.2642 58.9074ZM63.2642 4.21988C63.6968 4.21988 64.1198 4.34818 64.4795 4.58854C64.8392 4.82891 65.1196 5.17055 65.2852 5.57026C65.4508 5.96997 65.4941 6.40981 65.4097 6.83414C65.3253 7.25847 65.1169 7.64825 64.811 7.95418C64.5051 8.26011 64.1153 8.46844 63.691 8.55285C63.2666 8.63725 62.8268 8.59394 62.4271 8.42837C62.0274 8.2628 61.6857 7.98242 61.4454 7.62269C61.205 7.26296 61.0767 6.84003 61.0767 6.40738C61.0767 5.82722 61.3072 5.27082 61.7174 4.86059C62.1276 4.45035 62.684 4.21988 63.2642 4.21988ZM6.3892 8.59488C5.95655 8.59488 5.53362 8.46659 5.17389 8.22622C4.81416 7.98586 4.53378 7.64422 4.36821 7.2445C4.20265 6.84479 4.15933 6.40495 4.24373 5.98062C4.32814 5.55629 4.53648 5.16651 4.8424 4.86059C5.14833 4.55466 5.53811 4.34632 5.96244 4.26191C6.38677 4.17751 6.82661 4.22083 7.22632 4.38639C7.62603 4.55196 7.96767 4.83234 8.20804 5.19207C8.44841 5.5518 8.5767 5.97473 8.5767 6.40738C8.5767 6.98754 8.34623 7.54394 7.936 7.95418C7.52576 8.36441 6.96936 8.59488 6.3892 8.59488ZM6.3892 65.4699C5.95655 65.4699 5.53362 65.3416 5.17389 65.1012C4.81416 64.8609 4.53378 64.5192 4.36821 64.1195C4.20265 63.7198 4.15933 63.28 4.24373 62.8556C4.32814 62.4313 4.53648 62.0415 4.8424 61.7356C5.14833 61.4297 5.53811 61.2213 5.96244 61.1369C6.38677 61.0525 6.82661 61.0958 7.22632 61.2614C7.62603 61.427 7.96767 61.7073 8.20804 62.0671C8.44841 62.4268 8.5767 62.8497 8.5767 63.2824C8.57158 63.3333 8.57158 63.3846 8.5767 63.4355V63.5011C8.52229 64.0426 8.26801 64.5443 7.86352 64.9084C7.45903 65.2724 6.93338 65.4726 6.3892 65.4699ZM63.2642 65.4699C62.757 65.4817 62.2615 65.3169 61.8624 65.0036C61.4634 64.6904 61.1856 64.2482 61.0767 63.7527C61.0767 63.7527 61.0767 63.7527 61.0767 63.6871C61.0829 63.607 61.0829 63.5265 61.0767 63.4464C61.0714 63.3919 61.0714 63.3369 61.0767 63.2824C61.0767 62.8497 61.205 62.4268 61.4454 62.0671C61.6857 61.7073 62.0274 61.427 62.4271 61.2614C62.8268 61.0958 63.2666 61.0525 63.691 61.1369C64.1153 61.2213 64.5051 61.4297 64.811 61.7356C65.1169 62.0415 65.3253 62.4313 65.4097 62.8556C65.4941 63.28 65.4508 63.7198 65.2852 64.1195C65.1196 64.5192 64.8392 64.8609 64.4795 65.1012C64.1198 65.3416 63.6968 65.4699 63.2642 65.4699Z" fill="url(#paint4_linear_960_3955)"/>
<path d="M4.20312 15.1572H8.57812V19.5322H4.20312V15.1572ZM61.0781 50.1572H65.4531V54.5322H61.0781V50.1572Z" fill="url(#paint5_linear_960_3955)"/>
<defs>
<linearGradient id="paint0_linear_960_3955" x1="34.8281" y1="12.9697" x2="34.8281" y2="56.7197" gradientUnits="userSpaceOnUse">
<stop stop-color="#4FD3D3"/>
<stop offset="1" stop-color="#5528A9"/>
</linearGradient>
<linearGradient id="paint1_linear_960_3955" x1="34.8281" y1="19.8828" x2="34.8281" y2="49.8067" gradientUnits="userSpaceOnUse">
<stop stop-color="#4FD3D3"/>
<stop offset="1" stop-color="#5528A9"/>
</linearGradient>
<linearGradient id="paint2_linear_960_3955" x1="34.8281" y1="27.1885" x2="34.8281" y2="42.501" gradientUnits="userSpaceOnUse">
<stop stop-color="#4FD3D3"/>
<stop offset="1" stop-color="#5528A9"/>
</linearGradient>
<linearGradient id="paint3_linear_960_3955" x1="34.8281" y1="31.5635" x2="34.8281" y2="38.126" gradientUnits="userSpaceOnUse">
<stop stop-color="#4FD3D3"/>
<stop offset="1" stop-color="#5528A9"/>
</linearGradient>
<linearGradient id="paint4_linear_960_3955" x1="34.8321" y1="2" x2="34.8321" y2="67.6574" gradientUnits="userSpaceOnUse">
<stop stop-color="#4FD3D3"/>
<stop offset="1" stop-color="#5528A9"/>
</linearGradient>
<linearGradient id="paint5_linear_960_3955" x1="34.8281" y1="15.1572" x2="34.8281" y2="54.5322" gradientUnits="userSpaceOnUse">
<stop stop-color="#4FD3D3"/>
<stop offset="1" stop-color="#5528A9"/>
</linearGradient>
</defs>
</svg>
