<svg width="101" height="100" viewBox="0 0 101 100" fill="none" xmlns="http://www.w3.org/2000/svg">
<g clip-path="url(#clip0_960_1646)">
<path d="M70.585 91.1875C61.0404 95.8321 50.1796 97.0199 39.8567 94.5481C29.5339 92.0763 20.3889 86.0982 13.9832 77.6342C7.57746 69.1703 4.30808 58.7454 4.73319 48.1392C5.1583 37.533 9.25155 27.4032 16.3141 19.4791L15.0641 25.9583C14.9536 26.5108 15.0672 27.0846 15.3797 27.5535C15.6923 28.0223 16.1783 28.3478 16.7308 28.4583C17.2833 28.5688 17.8572 28.4553 18.326 28.1427C18.7948 27.8302 19.1203 27.3442 19.2308 26.7916C21.0225 17.8333 21.8766 13.4375 21.8558 13.6458C21.9079 13.3441 21.8928 13.0347 21.8117 12.7395C21.7306 12.4442 21.5854 12.1705 21.3865 11.9378C21.1876 11.7051 20.9399 11.5191 20.6609 11.393C20.3819 11.2669 20.0786 11.2038 19.7725 11.2083L6.43915 11.5208C5.88661 11.5208 5.35671 11.7403 4.96601 12.131C4.57531 12.5217 4.35582 13.0516 4.35582 13.6041C4.35582 14.1567 4.57531 14.6866 4.96601 15.0773C5.35671 15.468 5.88661 15.6875 6.43915 15.6875L14.3766 15.5C6.31379 23.9883 1.4852 35.0369 0.732425 46.72C-0.0203519 58.4031 3.35042 69.98 10.2573 79.4329C17.1641 88.8858 27.1691 95.6153 38.5284 98.4486C49.8877 101.282 61.8811 100.039 72.4183 94.9375C72.9156 94.6943 73.2959 94.2636 73.4757 93.7401C73.6554 93.2166 73.6198 92.6431 73.3767 92.1458C73.1335 91.6485 72.7028 91.2682 72.1793 91.0885C71.6558 90.9087 71.0823 90.9444 70.585 91.1875ZM94.5642 84.3125L86.6267 84.5C117.147 52.7708 94.2308 -3.80195e-05 50.4808 -3.80195e-05C42.8772 -0.0140255 35.3719 1.71797 28.5433 5.06246C28.2949 5.18059 28.0724 5.34672 27.8886 5.55129C27.7047 5.75585 27.5632 5.99479 27.4722 6.25432C27.3812 6.51385 27.3424 6.78884 27.3582 7.06342C27.374 7.338 27.444 7.60674 27.5641 7.85413C29.6475 11.8333 33.8142 4.16663 50.4808 4.16663C89.7725 4.16663 111.106 50.9791 84.6475 80.5208L85.8975 74.0416C86.008 73.4891 85.8945 72.9153 85.5819 72.4464C85.2694 71.9776 84.7834 71.6521 84.2308 71.5416C83.6783 71.4311 83.1045 71.5446 82.6356 71.8572C82.1668 72.1698 81.8413 72.6558 81.7308 73.2083C78.8767 87.4791 79.0017 86.6458 79.1475 87.25C79.71 89.3333 80.5433 88.8125 94.5433 88.4791C95.0959 88.4819 95.6269 88.265 96.0195 87.8763C96.4122 87.4875 96.6343 86.9587 96.6371 86.4062C96.6398 85.8537 96.423 85.3227 96.0342 84.93C95.6455 84.5374 95.1167 84.3152 94.5642 84.3125Z" fill="url(#paint0_linear_960_1646)"/>
<path d="M35.8984 45.8333H44.2318C44.7843 45.8333 45.3142 45.6138 45.7049 45.2231C46.0956 44.8324 46.3151 44.3025 46.3151 43.75C46.3151 43.1975 46.0956 42.6676 45.7049 42.2769C45.3142 41.8862 44.7843 41.6667 44.2318 41.6667H40.0651V39.5833C40.0651 39.0308 39.8456 38.5009 39.4549 38.1102C39.0642 37.7195 38.5343 37.5 37.9818 37.5C37.4292 37.5 36.8993 37.7195 36.5086 38.1102C36.1179 38.5009 35.8984 39.0308 35.8984 39.5833V41.6667C34.2408 41.6667 32.6511 42.3251 31.479 43.4972C30.3069 44.6694 29.6484 46.2591 29.6484 47.9167C29.6484 49.5743 30.3069 51.164 31.479 52.3361C32.6511 53.5082 34.2408 54.1667 35.8984 54.1667H40.0651C40.6176 54.1667 41.1475 54.3862 41.5382 54.7769C41.9289 55.1676 42.1484 55.6975 42.1484 56.25C42.1484 56.8025 41.9289 57.3324 41.5382 57.7231C41.1475 58.1138 40.6176 58.3333 40.0651 58.3333H31.7318C31.1792 58.3333 30.6493 58.5528 30.2586 58.9435C29.8679 59.3342 29.6484 59.8641 29.6484 60.4167C29.6484 60.9692 29.8679 61.4991 30.2586 61.8898C30.6493 62.2805 31.1792 62.5 31.7318 62.5H35.8984V64.5833C35.8984 65.1359 36.1179 65.6658 36.5086 66.0565C36.8993 66.4472 37.4292 66.6667 37.9818 66.6667C38.5343 66.6667 39.0642 66.4472 39.4549 66.0565C39.8456 65.6658 40.0651 65.1359 40.0651 64.5833V62.5C41.7227 62.5 43.3124 61.8415 44.4845 60.6694C45.6566 59.4973 46.3151 57.9076 46.3151 56.25C46.3151 54.5924 45.6566 53.0027 44.4845 51.8306C43.3124 50.6585 41.7227 50 40.0651 50H35.8984C35.3459 50 34.816 49.7805 34.4253 49.3898C34.0346 48.9991 33.8151 48.4692 33.8151 47.9167C33.8151 47.3641 34.0346 46.8342 34.4253 46.4435C34.816 46.0528 35.3459 45.8333 35.8984 45.8333Z" fill="url(#paint1_linear_960_1646)"/>
<path d="M72.354 20.8333H49.4374C48.056 20.8333 46.7313 21.382 45.7545 22.3587C44.7778 23.3355 44.229 24.6602 44.229 26.0416V30.0624C40.7453 29.0629 37.0742 28.9039 33.5171 29.5984C29.96 30.293 26.6183 31.8213 23.7665 34.0579C20.9147 36.2946 18.634 39.1757 17.1117 42.4648C15.5894 45.7539 14.8689 49.3571 15.0094 52.9787C15.1499 56.6002 16.1474 60.1368 17.9199 63.2981C19.6924 66.4594 22.1894 69.1552 25.206 71.1641C28.2225 73.1731 31.6725 74.438 35.2727 74.8549C38.8729 75.2718 42.5207 74.8288 45.9165 73.5624C47.9999 75.4999 47.4582 74.9999 72.354 74.9999C73.7354 74.9999 75.0601 74.4512 76.0369 73.4744C77.0136 72.4977 77.5624 71.1729 77.5624 69.7916C77.5624 62.7291 77.7915 62.1249 76.4999 60.4166C77.8332 58.6458 77.5624 57.7916 77.5624 51.0416C77.5519 49.913 77.1795 48.8176 76.4999 47.9166C77.1795 47.0155 77.5519 45.9201 77.5624 44.7916C77.5624 37.7291 77.7915 37.1249 76.4999 35.4166C77.8332 33.6458 77.5624 32.7916 77.5624 26.0416C77.5569 24.6619 77.0064 23.3404 76.0308 22.3648C75.0553 21.3892 73.7337 20.8387 72.354 20.8333ZM48.3957 26.0416C48.401 25.767 48.5125 25.5051 48.7067 25.3109C48.9009 25.1167 49.1628 25.0053 49.4374 24.9999H72.354C73.729 24.9999 73.3957 26.1041 73.3957 32.2916C73.3904 32.5662 73.2789 32.828 73.0847 33.0223C72.8905 33.2165 72.6286 33.3279 72.354 33.3333C46.7915 33.3333 52.6457 33.8749 48.3957 31.6874V26.0416ZM73.3957 38.5416V44.7916C73.3904 45.0662 73.2789 45.328 73.0847 45.5223C72.8905 45.7165 72.6286 45.8279 72.354 45.8333H59.9999C59.14 42.7844 57.6575 39.9469 55.6457 37.4999H72.3124C72.4519 37.4972 72.5906 37.5219 72.7206 37.5728C72.8506 37.6236 72.9692 37.6996 73.0698 37.7963C73.1704 37.8931 73.251 38.0087 73.3069 38.1365C73.3628 38.2644 73.393 38.402 73.3957 38.5416ZM73.3957 51.0416V57.2916C73.3904 57.5662 73.2789 57.828 73.0847 58.0223C72.8905 58.2165 72.6286 58.3279 72.354 58.3333H59.9999C60.8333 55.6393 61.1375 52.8095 60.8957 49.9999H72.354C72.6286 50.0053 72.8905 50.1167 73.0847 50.3109C73.2789 50.5051 73.3904 50.767 73.3957 51.0416ZM19.229 52.0833C19.229 48.3749 20.3287 44.7497 22.389 41.6663C24.4493 38.5829 27.3776 36.1797 30.8037 34.7605C34.2298 33.3414 37.9998 32.9701 41.637 33.6935C45.2741 34.417 48.6151 36.2028 51.2373 38.825C53.8595 41.4472 55.6453 44.7882 56.3688 48.4253C57.0922 52.0625 56.7209 55.8325 55.3018 59.2586C53.8826 62.6847 51.4794 65.613 48.396 67.6733C45.3126 69.7336 41.6874 70.8332 37.979 70.8333C33.0062 70.8332 28.2371 68.8578 24.7208 65.3415C21.2045 61.8252 19.229 57.0561 19.229 52.0833ZM73.3957 69.7916C73.3904 70.0662 73.2789 70.328 73.0847 70.5222C72.8905 70.7165 72.6286 70.8279 72.354 70.8333H51.104C54.1649 68.6832 56.6596 65.8239 58.3749 62.4999H72.354C72.6286 62.5052 72.8905 62.6167 73.0847 62.8109C73.2789 63.0051 73.3904 63.267 73.3957 63.5416V69.7916Z" fill="url(#paint2_linear_960_1646)"/>
</g>
<defs>
<linearGradient id="paint0_linear_960_1646" x1="50.605" y1="-0.00012207" x2="50.605" y2="99.935" gradientUnits="userSpaceOnUse">
<stop stop-color="#4FD3D3"/>
<stop offset="1" stop-color="#5528A9"/>
</linearGradient>
<linearGradient id="paint1_linear_960_1646" x1="37.9818" y1="37.5" x2="37.9818" y2="66.6667" gradientUnits="userSpaceOnUse">
<stop stop-color="#4FD3D3"/>
<stop offset="1" stop-color="#5528A9"/>
</linearGradient>
<linearGradient id="paint2_linear_960_1646" x1="46.2886" y1="20.8333" x2="46.2886" y2="75.0579" gradientUnits="userSpaceOnUse">
<stop stop-color="#4FD3D3"/>
<stop offset="1" stop-color="#5528A9"/>
</linearGradient>
<clipPath id="clip0_960_1646">
<rect width="100" height="100" fill="white" transform="translate(0.480469)"/>
</clipPath>
</defs>
</svg>
