<svg width="54" height="49" viewBox="0 0 54 49" fill="none" xmlns="http://www.w3.org/2000/svg">
<path d="M48.96 25.9044V22.3044C48.96 18.0444 46.08 14.3844 42.06 13.2444C42.72 12.1044 43.08 10.7244 43.08 9.34442V8.38442C43.08 3.94442 39.48 0.284424 34.98 0.284424C30.6 0.284424 27 3.94442 27 8.38442V9.34442C27 9.64442 27 9.94442 27.06 10.2444C26.28 10.0044 25.38 9.82442 24.54 9.82442C23.64 9.82442 22.8 10.0044 22.02 10.2444C22.08 9.94442 22.08 9.64442 22.08 9.34442V8.38442C22.08 3.94442 18.48 0.284424 13.98 0.284424C9.54 0.284424 5.88 3.88442 5.88 8.38442V9.34442C5.88 10.7844 6.24 12.1044 6.9 13.2444C2.88 14.3844 0 18.0444 0 22.3044V31.3644C0 31.8444 0.42 32.2644 0.9 32.2644H10.56V40.8444C10.56 41.3244 10.98 41.7444 11.46 41.7444H29.52C31.62 46.0044 36 49.0044 41.1 49.0044C48.24 49.0044 54 43.2444 54 36.1044C54 31.9644 52.02 28.2444 48.96 25.9044ZM47.16 22.3044V24.7044C45.36 23.7444 43.26 23.2044 41.1 23.2044C38.94 23.2044 36.9 23.7444 35.1 24.7044C34.08 23.8044 32.82 23.1444 31.5 22.7844C32.16 21.6444 32.52 20.2644 32.52 18.8844V17.9244C32.52 17.6244 32.52 17.3244 32.46 17.0244C33.3 17.3244 34.14 17.4444 34.98 17.4444C37.32 17.4444 39.42 16.4244 40.86 14.8644C44.52 15.4644 47.16 18.6444 47.16 22.3044ZM28.8 9.34442V8.38442C28.8 4.90442 31.62 2.08442 35.1 2.08442C38.58 2.08442 41.4 4.90442 41.4 8.38442V9.34442C41.4 12.8244 38.58 15.6444 35.1 15.6444C34.02 15.6444 32.94 15.3444 31.98 14.8044C31.38 13.3644 30.36 12.1644 29.16 11.3244C28.86 10.6044 28.8 10.0044 28.8 9.34442ZM30.78 17.8644V18.8244C30.78 22.3044 27.96 25.1244 24.48 25.1244C21 25.1244 18.18 22.3044 18.18 18.8244V17.8644C18.18 14.3844 21 11.5644 24.48 11.5644C27.96 11.6244 30.78 14.4444 30.78 17.8644ZM7.68 8.38442C7.68 4.90442 10.5 2.08442 13.98 2.08442C17.46 2.08442 20.28 4.90442 20.28 8.38442V9.34442C20.28 10.0044 20.16 10.6644 19.98 11.2644C18.72 12.1044 17.76 13.3044 17.16 14.7444C16.2 15.2844 15.12 15.5844 14.04 15.5844C10.56 15.5844 7.74 12.7644 7.74 9.28442V8.38442H7.68ZM1.8 22.3044C1.8 18.6444 4.44 15.4644 8.04 14.8044C9.54 16.3644 11.64 17.3844 13.92 17.3844C14.76 17.3844 15.66 17.2644 16.44 16.9644C16.38 17.2644 16.38 17.5644 16.38 17.8644V18.8244C16.38 20.2644 16.74 21.5844 17.4 22.7244C13.86 23.7444 11.16 26.7444 10.62 30.4044H1.8V22.3044ZM12.36 39.9444V31.7844C12.36 28.1244 15 24.9444 18.6 24.2844C20.1 25.8444 22.2 26.8644 24.48 26.8644C26.82 26.8644 28.92 25.8444 30.36 24.2844C31.5 24.5244 32.52 24.9444 33.48 25.6644C30.3 28.0044 28.2 31.7844 28.2 36.1044C28.2 37.4244 28.38 38.7444 28.8 39.9444H12.36ZM41.1 47.2044C34.98 47.2044 30 42.2244 30 36.1044C30 29.9844 34.98 25.0044 41.1 25.0044C47.22 25.0044 52.2 29.9844 52.2 36.1044C52.2 42.2244 47.22 47.2044 41.1 47.2044Z" fill="url(#paint0_linear_787_1631)"/>
<path d="M47.3409 32.6845H44.4609V29.8045C44.4609 29.3245 44.0409 28.9045 43.5609 28.9045H38.6409C38.1609 28.9045 37.7409 29.3245 37.7409 29.8045V32.6845H34.8609C34.3809 32.6845 33.9609 33.1045 33.9609 33.5845V38.5045C33.9609 38.9845 34.3809 39.4045 34.8609 39.4045H37.7409V42.2845C37.7409 42.7645 38.1609 43.1845 38.6409 43.1845H43.5609C44.0409 43.1845 44.4609 42.7645 44.4609 42.2845V39.4045H47.3409C47.8209 39.4045 48.2409 38.9845 48.2409 38.5045V33.5845C48.2409 33.1045 47.8809 32.6845 47.3409 32.6845ZM46.4409 37.6645H43.5609C43.0809 37.6645 42.6609 38.0845 42.6609 38.5645V41.4445H39.5409V38.5645C39.5409 38.0845 39.1209 37.6645 38.6409 37.6645H35.7609V34.5445H38.6409C39.1209 34.5445 39.5409 34.1245 39.5409 33.6445V30.7645H42.6609V33.6445C42.6609 34.1245 43.0809 34.5445 43.5609 34.5445H46.4409V37.6645Z" fill="url(#paint1_linear_787_1631)"/>
<defs>
<linearGradient id="paint0_linear_787_1631" x1="27" y1="0.284424" x2="27" y2="49.0044" gradientUnits="userSpaceOnUse">
<stop stop-color="#4FD3D3"/>
<stop offset="1" stop-color="#5528A9"/>
</linearGradient>
<linearGradient id="paint1_linear_787_1631" x1="41.1009" y1="28.9045" x2="41.1009" y2="43.1845" gradientUnits="userSpaceOnUse">
<stop stop-color="#4FD3D3"/>
<stop offset="1" stop-color="#5528A9"/>
</linearGradient>
</defs>
</svg>
