<svg width="359" height="391" viewBox="0 0 359 391" fill="none" xmlns="http://www.w3.org/2000/svg">
<g filter="url(#filter0_d_960_1642)">
<path d="M174.538 35.8105C177.602 34.0678 181.358 34.0678 184.423 35.8105L317.318 111.374C320.444 113.152 322.375 116.471 322.375 120.067V270.932C322.375 274.529 320.444 277.848 317.318 279.625L184.423 355.189C181.358 356.932 177.602 356.932 174.538 355.189L41.6434 279.625C38.5173 277.848 36.5863 274.529 36.5863 270.932V120.067C36.5863 116.471 38.5172 113.152 41.6434 111.374L174.538 35.8105Z" fill="#081553"/>
</g>
<g filter="url(#filter1_d_960_1642)">
<path d="M174.78 22.251C177.694 20.5922 181.267 20.5922 184.18 22.251L329.199 104.808C332.166 106.497 333.999 109.649 333.999 113.064V277.936C333.999 281.351 332.166 284.503 329.199 286.192L184.18 368.749C181.267 370.408 177.694 370.408 174.78 368.749L29.7619 286.192C26.7945 284.503 24.9619 281.351 24.9619 277.936V113.064C24.9619 109.649 26.7945 106.497 29.7619 104.808L174.78 22.251Z" stroke="#4FD3D3" shape-rendering="crispEdges"/>
</g>
<defs>
<filter id="filter0_d_960_1642" x="16.5859" y="14.5035" width="325.789" height="361.993" filterUnits="userSpaceOnUse" color-interpolation-filters="sRGB">
<feFlood flood-opacity="0" result="BackgroundImageFix"/>
<feColorMatrix in="SourceAlpha" type="matrix" values="0 0 0 0 0 0 0 0 0 0 0 0 0 0 0 0 0 0 127 0" result="hardAlpha"/>
<feOffset/>
<feGaussianBlur stdDeviation="10"/>
<feComposite in2="hardAlpha" operator="out"/>
<feColorMatrix type="matrix" values="0 0 0 0 0.309804 0 0 0 0 0.827451 0 0 0 0 0.827451 0 0 0 0.5 0"/>
<feBlend mode="normal" in2="BackgroundImageFix" result="effect1_dropShadow_960_1642"/>
<feBlend mode="normal" in="SourceGraphic" in2="effect1_dropShadow_960_1642" result="shape"/>
</filter>
<filter id="filter1_d_960_1642" x="4.46094" y="0.506958" width="350.039" height="389.986" filterUnits="userSpaceOnUse" color-interpolation-filters="sRGB">
<feFlood flood-opacity="0" result="BackgroundImageFix"/>
<feColorMatrix in="SourceAlpha" type="matrix" values="0 0 0 0 0 0 0 0 0 0 0 0 0 0 0 0 0 0 127 0" result="hardAlpha"/>
<feOffset/>
<feGaussianBlur stdDeviation="10"/>
<feComposite in2="hardAlpha" operator="out"/>
<feColorMatrix type="matrix" values="0 0 0 0 0.309804 0 0 0 0 0.827451 0 0 0 0 0.827451 0 0 0 0.5 0"/>
<feBlend mode="normal" in2="BackgroundImageFix" result="effect1_dropShadow_960_1642"/>
<feBlend mode="normal" in="SourceGraphic" in2="effect1_dropShadow_960_1642" result="shape"/>
</filter>
</defs>
</svg>
