<svg width="30" height="27" viewBox="0 0 30 27" fill="none" xmlns="http://www.w3.org/2000/svg">
<g clip-path="url(#clip0_995_4979)">
<path d="M18.4027 14.2347L8.66709 27.4368C8.65425 27.4543 8.63737 27.4685 8.61786 27.4783C8.59834 27.4881 8.57674 27.4931 8.55485 27.4931H0.139505C0.113798 27.4933 0.0885238 27.4865 0.0665317 27.4734C0.0445397 27.4603 0.0267039 27.4414 0.015035 27.4188C0.00336602 27.3962 -0.00167228 27.3709 0.00048826 27.3456C0.0026488 27.3203 0.0119224 27.2962 0.0272632 27.2758L9.65151 14.2347C9.66888 14.2113 9.67825 14.1831 9.67825 14.1542C9.67825 14.1252 9.66888 14.097 9.65151 14.0737L0.0272632 1.02342C0.012055 1.00308 0.00289263 0.978966 0.000802805 0.953783C-0.00128702 0.928599 0.00377809 0.90334 0.0154309 0.880835C0.0270837 0.85833 0.0448637 0.839469 0.066778 0.826365C0.0886924 0.813262 0.113875 0.806433 0.139505 0.806645H8.54749C8.56938 0.80657 8.59098 0.81163 8.6105 0.821408C8.63001 0.831186 8.64689 0.845401 8.65973 0.862879L18.4027 14.0737C18.42 14.097 18.4294 14.1252 18.4294 14.1542C18.4294 14.1831 18.42 14.2113 18.4027 14.2347Z" fill="#4FD3D3"/>
<path d="M29.9886 14.1915L21.7034 25.4287C21.6972 25.437 21.6891 25.4438 21.6797 25.4484C21.6704 25.4531 21.6601 25.4555 21.6496 25.4555H14.3907C14.3784 25.4554 14.3664 25.4521 14.356 25.4457C14.3455 25.4394 14.337 25.4303 14.3315 25.4195C14.3259 25.4088 14.3235 25.3967 14.3244 25.3846C14.3254 25.3725 14.3297 25.361 14.3369 25.3512L22.571 14.1915C22.5793 14.1804 22.5838 14.1669 22.5838 14.153C22.5838 14.1391 22.5793 14.1256 22.571 14.1145L14.3369 2.94757C14.3297 2.93776 14.3254 2.9262 14.3244 2.91414C14.3235 2.90207 14.3259 2.88999 14.3315 2.8792C14.337 2.86842 14.3455 2.85936 14.356 2.85302C14.3664 2.84668 14.3784 2.8433 14.3907 2.84326H21.6432C21.6536 2.84324 21.664 2.84566 21.6733 2.8503C21.6827 2.85495 21.6908 2.86171 21.697 2.87002L29.99 14.1167C29.9975 14.1278 30.0015 14.141 30.0012 14.1543C30.001 14.1677 29.9966 14.1807 29.9886 14.1915Z" fill="#59E1E1"/>
</g>
<defs>
<clipPath id="clip0_995_4979">
<rect width="30" height="26.129" fill="white" transform="translate(0 0.806641)"/>
</clipPath>
</defs>
</svg>
